M48
;DRILL file {kicad 0.201501172016+5377~20~ubuntu14.04.1-product} date Fri 30 Jan 2015 01:41:14 PM PST
;FORMAT={-:-/ absolute / inch / decimal}
FMAT,2
INCH,TZ
T1C0.006
T2C0.025
T3C0.032
T4C0.120
%
G90
G05
M72
T1
X4.2854Y-3.6496
X4.2854Y-3.6949
X4.3169Y-3.7402
X4.3484Y-3.7756
X4.3878Y-3.8189
X4.3976Y-3.6496
X4.4173Y-3.689
X4.4193Y-3.8484
X4.4469Y-3.7224
X4.4705Y-3.8484
X4.4843Y-3.7421
X4.502Y-3.4252
X4.502Y-3.4646
X4.502Y-3.5039
X4.5098Y-3.6476
X4.5118Y-3.3858
X4.5217Y-3.8484
X4.5276Y-3.7421
X4.5433Y-3.3563
X4.5512Y-3.6181
X4.5709Y-3.3268
X4.5728Y-3.8484
X4.5768Y-3.7205
X4.5846Y-3.5886
X4.5945Y-3.4646
X4.5945Y-3.5039
X4.5945Y-3.5433
X4.5984Y-2.5512
X4.5984Y-2.5906
X4.5984Y-2.6299
X4.5984Y-2.6693
X4.5984Y-2.7087
X4.5984Y-2.748
X4.5984Y-2.7874
X4.5984Y-2.8268
X4.5984Y-2.8661
X4.5984Y-2.9055
X4.5984Y-2.9449
X4.5984Y-2.9843
X4.5984Y-3.0236
X4.5984Y-3.063
X4.5984Y-3.1024
X4.5984Y-3.1417
X4.5984Y-3.1811
X4.5984Y-3.2205
X4.5984Y-3.2598
X4.5984Y-3.2992
X4.6043Y-3.4154
X4.6122Y-3.687
X4.6181Y-3.8287
X4.6201Y-2.5197
X4.6398Y-3.3819
X4.6437Y-3.6575
X4.6516Y-2.4882
X4.6575Y-3.7913
X4.6713Y-3.3524
X4.6713Y-3.624
X4.6811Y-3.4646
X4.6811Y-3.5039
X4.6811Y-3.5433
X4.6811Y-3.5827
X4.685Y-2.4567
X4.689Y-2.5906
X4.689Y-2.6299
X4.689Y-2.6693
X4.689Y-2.7087
X4.689Y-2.748
X4.689Y-2.7874
X4.689Y-2.8268
X4.689Y-2.8661
X4.689Y-2.9055
X4.689Y-2.9449
X4.689Y-2.9843
X4.689Y-3.0236
X4.689Y-3.063
X4.689Y-3.1024
X4.689Y-3.1417
X4.689Y-3.1811
X4.689Y-3.2205
X4.689Y-3.2598
X4.689Y-3.2992
X4.6909Y-3.7539
X4.7146Y-3.4291
X4.7165Y-2.561
X4.7224Y-2.4272
X4.7441Y-2.5374
X4.752Y-3.3917
X4.7776Y-3.5965
X4.7776Y-3.6535
X4.7795Y-3.1417
X4.7795Y-3.1811
X4.7795Y-3.2205
X4.7795Y-3.2598
X4.7795Y-3.2992
X4.7795Y-3.3386
T2
X3.9921Y-3.5886
X4.1988Y-2.811
X4.2146Y-3.5886
X4.2402Y-3.2972
X4.3366Y-3.4154
X4.3976Y-3.0591
X4.4035Y-2.6181
X4.4508Y-2.9272
X4.4902Y-3.065
X4.5531Y-2.622
X4.561Y-3.065
T3
X4.0406Y-3.311
X4.0413Y-2.315
X4.0413Y-2.415
X4.0413Y-2.515
X4.0413Y-2.615
X4.0413Y-2.715
X4.0413Y-2.9039
X4.0413Y-3.0039
X4.0413Y-3.1039
X4.1406Y-3.311
X4.3665Y-2.2992
X4.4665Y-2.2992
X4.5665Y-2.2992
X4.8228Y-2.4776
X4.8228Y-2.5776
X4.8228Y-2.9539
X4.8228Y-3.0539
X4.8228Y-3.4264
X4.8228Y-3.5264
T4
X4.0945Y-2.126
X4.0945Y-3.7795
X4.8031Y-2.126
X4.8031Y-3.7795
T0
M30
