%FSLAX34Y34*%
G04 Gerber Fmt 3.4, Leading zero omitted, Abs format*
G04 (created by PCBNEW (2014-03-19 BZR 4756)-product) date Fri 30 May 2014 09:46:42 PM PDT*
%MOIN*%
G01*
G70*
G90*
G04 APERTURE LIST*
%ADD10C,0.003937*%
%ADD11R,0.055000X0.035000*%
%ADD12R,0.055000X0.055000*%
%ADD13C,0.055000*%
%ADD14R,0.200000X0.090157*%
%ADD15R,0.064961X0.029921*%
%ADD16R,0.011811X0.043307*%
%ADD17R,0.062992X0.049213*%
%ADD18C,0.160000*%
%ADD19C,0.007874*%
G04 APERTURE END LIST*
G54D10*
G54D11*
X43188Y-33128D03*
X43188Y-33878D03*
G54D12*
X40944Y-24208D03*
G54D13*
X40944Y-25208D03*
X40944Y-26208D03*
X40944Y-27208D03*
G54D14*
X50181Y-24803D03*
X50181Y-23401D03*
X50181Y-26204D03*
X50181Y-29527D03*
X50181Y-28125D03*
X50181Y-30929D03*
X50181Y-34251D03*
X50181Y-32850D03*
X50181Y-35653D03*
G54D12*
X47598Y-24775D03*
G54D13*
X47598Y-25775D03*
G54D12*
X47637Y-29539D03*
G54D13*
X47637Y-30539D03*
G54D12*
X47637Y-34263D03*
G54D13*
X47637Y-35263D03*
G54D11*
X42637Y-27105D03*
X42637Y-27855D03*
X43661Y-27105D03*
X43661Y-27855D03*
G54D15*
X45901Y-24775D03*
X45901Y-25275D03*
X45901Y-25775D03*
X44649Y-25775D03*
X44649Y-24775D03*
X45901Y-29539D03*
X45901Y-30039D03*
X45901Y-30539D03*
X44649Y-30539D03*
X44649Y-29539D03*
X45901Y-34263D03*
X45901Y-34763D03*
X45901Y-35263D03*
X44649Y-35263D03*
X44649Y-34263D03*
G54D16*
X42125Y-33602D03*
X41929Y-33602D03*
X41732Y-33602D03*
X41535Y-33602D03*
X41338Y-33602D03*
X41332Y-35452D03*
X41532Y-35452D03*
X41732Y-35452D03*
X41932Y-35452D03*
X42132Y-35452D03*
G54D17*
X42893Y-30826D03*
X41437Y-30826D03*
X41437Y-31692D03*
X42893Y-31692D03*
G54D18*
X40944Y-21259D03*
X49606Y-21259D03*
X40944Y-37795D03*
X49606Y-37795D03*
G54D19*
X41732Y-35826D03*
X41732Y-35000D03*
X42559Y-33937D03*
X46456Y-34763D03*
X45275Y-34763D03*
X45275Y-34251D03*
X45275Y-35275D03*
X42559Y-33543D03*
X46456Y-30039D03*
X45275Y-30039D03*
X45275Y-29527D03*
X45275Y-30551D03*
X46456Y-25275D03*
X45275Y-25275D03*
X45275Y-25787D03*
X45275Y-24763D03*
M02*
