M48
;DRILL file {Pcbnew (2014-03-19 BZR 4756)-product} date Tue 29 Jul 2014 07:38:40 PM PDT
;FORMAT={-:-/ absolute / inch / decimal}
FMAT,2
INCH,TZ
T1C0.006
T2C0.025
T3C0.032
T4C0.120
%
G90
G05
M72
T1
X4.376Y-3.6417
X4.376Y-3.6614
X4.376Y-3.6811
X4.376Y-3.7008
X4.3878Y-3.7146
X4.4035Y-3.7244
X4.4094Y-3.6417
X4.4094Y-3.6614
X4.4094Y-3.6811
X4.4213Y-3.6929
X4.4213Y-3.7244
X4.437Y-3.6417
X4.437Y-3.6614
X4.4409Y-3.6929
X4.4409Y-3.7244
X4.4469Y-3.6713
X4.4606Y-3.6772
X4.4606Y-3.6929
X4.4606Y-3.7244
X4.4685Y-3.6417
X4.4803Y-3.6457
X4.4803Y-3.6772
X4.4803Y-3.6929
X4.4803Y-3.7244
X4.5Y-3.5827
X4.5Y-3.6181
X4.5Y-3.6457
X4.5Y-3.6772
X4.5Y-3.6929
X4.5Y-3.7244
X4.5197Y-3.5827
X4.5197Y-3.6181
X4.5197Y-3.6457
X4.5197Y-3.6772
X4.5197Y-3.6929
X4.5197Y-3.7244
X4.5394Y-3.5827
X4.5394Y-3.6181
X4.5394Y-3.6457
X4.5394Y-3.6772
X4.5394Y-3.6929
X4.5394Y-3.7244
X4.5591Y-3.5827
X4.5591Y-3.6181
X4.5591Y-3.6457
X4.5591Y-3.6772
X4.5591Y-3.6929
X4.5591Y-3.7244
X4.5787Y-3.5827
X4.5787Y-3.6181
X4.5787Y-3.6457
X4.5787Y-3.6772
X4.5787Y-3.6929
X4.5787Y-3.7244
X4.5984Y-3.5827
X4.5984Y-3.6181
X4.5984Y-3.6457
X4.5984Y-3.6772
X4.5984Y-3.6929
X4.5984Y-3.7244
X4.6181Y-3.5827
X4.6181Y-3.6181
X4.6181Y-3.6457
X4.6181Y-3.6772
X4.6181Y-3.6929
X4.6181Y-3.7244
X4.6378Y-3.5827
X4.6378Y-3.6181
X4.6378Y-3.6457
X4.6378Y-3.6772
X4.6378Y-3.6929
X4.6378Y-3.7244
X4.6575Y-3.5827
X4.6575Y-3.6181
X4.6575Y-3.6457
X4.6575Y-3.6772
X4.6575Y-3.6929
X4.6575Y-3.7244
X4.6732Y-2.5472
X4.6732Y-2.5669
X4.6732Y-2.5866
X4.6732Y-2.6063
X4.6732Y-2.626
X4.6732Y-2.6457
X4.6732Y-2.6654
X4.6732Y-2.685
X4.6732Y-2.7047
X4.6732Y-2.7244
X4.6732Y-2.7441
X4.6732Y-2.7638
X4.6732Y-2.7835
X4.6732Y-2.8031
X4.6732Y-2.8228
X4.6732Y-2.8425
X4.6732Y-2.8622
X4.6732Y-2.8819
X4.6732Y-2.9016
X4.6732Y-2.9213
X4.6732Y-2.9409
X4.6732Y-2.9606
X4.6732Y-2.9803
X4.6732Y-3.
X4.6732Y-3.0197
X4.6732Y-3.0394
X4.6732Y-3.0591
X4.6732Y-3.0787
X4.6732Y-3.0984
X4.6732Y-3.1181
X4.6732Y-3.1378
X4.6732Y-3.1575
X4.6732Y-3.1772
X4.6732Y-3.1969
X4.6732Y-3.2165
X4.6732Y-3.2362
X4.6732Y-3.2559
X4.6732Y-3.2756
X4.6732Y-3.2953
X4.6732Y-3.315
X4.6732Y-3.3346
X4.6732Y-3.3543
X4.6732Y-3.374
X4.6732Y-3.3937
X4.6732Y-3.4134
X4.6732Y-3.4331
X4.6732Y-3.4528
X4.6732Y-3.4724
X4.6732Y-3.4921
X4.6732Y-3.5118
X4.6732Y-3.5315
X4.6732Y-3.5512
X4.6732Y-3.5709
X4.6772Y-3.6181
X4.6772Y-3.6457
X4.6772Y-3.6772
X4.6772Y-3.6929
X4.6772Y-3.7244
X4.685Y-2.5276
X4.6969Y-3.6063
X4.6969Y-3.6457
X4.6969Y-3.6772
X4.6969Y-3.6929
X4.6969Y-3.7244
X4.6988Y-2.5138
X4.7087Y-2.5669
X4.7087Y-2.5866
X4.7087Y-2.6063
X4.7087Y-2.626
X4.7087Y-2.6457
X4.7087Y-2.6654
X4.7087Y-2.685
X4.7087Y-2.7047
X4.7087Y-2.7244
X4.7087Y-2.7441
X4.7087Y-2.7638
X4.7087Y-2.7835
X4.7087Y-2.8031
X4.7087Y-2.8228
X4.7087Y-2.8425
X4.7087Y-2.8622
X4.7087Y-2.8819
X4.7087Y-2.9016
X4.7087Y-2.9213
X4.7087Y-2.9409
X4.7087Y-2.9606
X4.7087Y-2.9803
X4.7087Y-3.
X4.7087Y-3.0197
X4.7087Y-3.0394
X4.7087Y-3.0591
X4.7087Y-3.0787
X4.7087Y-3.0984
X4.7087Y-3.1181
X4.7087Y-3.1378
X4.7087Y-3.1575
X4.7087Y-3.1772
X4.7087Y-3.1969
X4.7087Y-3.2165
X4.7087Y-3.2362
X4.7087Y-3.2559
X4.7087Y-3.2756
X4.7087Y-3.2953
X4.7087Y-3.315
X4.7087Y-3.3346
X4.7087Y-3.3543
X4.7087Y-3.374
X4.7087Y-3.3937
X4.7087Y-3.4134
X4.7087Y-3.4331
X4.7087Y-3.4528
X4.7087Y-3.4724
X4.7087Y-3.4921
X4.7087Y-3.5118
X4.7087Y-3.5315
X4.7087Y-3.5512
X4.7087Y-3.5709
X4.7087Y-3.5906
X4.7146Y-2.498
X4.7165Y-3.6457
X4.7165Y-3.6772
X4.7165Y-3.6929
X4.7165Y-3.7244
X4.7185Y-2.5492
X4.7303Y-2.4823
X4.7303Y-2.5354
X4.7323Y-3.
X4.7323Y-3.0197
X4.7323Y-3.0394
X4.7323Y-3.0591
X4.7323Y-3.0787
X4.7323Y-3.0984
X4.7323Y-3.1181
X4.7323Y-3.1378
X4.7323Y-3.1575
X4.7323Y-3.1772
X4.7323Y-3.1969
X4.7323Y-3.2165
X4.7323Y-3.2362
X4.7323Y-3.2559
X4.7323Y-3.2756
X4.7323Y-3.2953
X4.7323Y-3.315
X4.7323Y-3.3346
X4.7323Y-3.3543
X4.7323Y-3.374
X4.7323Y-3.3937
X4.7323Y-3.4134
X4.7323Y-3.4331
X4.7323Y-3.4528
X4.7323Y-3.4724
X4.7323Y-3.4921
X4.7323Y-3.5118
X4.7323Y-3.5315
X4.7323Y-3.5512
X4.7323Y-3.5709
X4.7323Y-3.5906
X4.7323Y-3.6102
X4.7323Y-3.6299
X4.7362Y-3.6772
X4.7362Y-3.6929
X4.7362Y-3.7244
X4.7402Y-2.9783
X4.7441Y-2.5217
X4.7461Y-2.4665
X4.7539Y-3.6673
X4.7559Y-2.5079
X4.7559Y-2.9626
X4.7559Y-3.6929
X4.7559Y-3.7244
X4.7638Y-3.
X4.7638Y-3.0197
X4.7638Y-3.0394
X4.7638Y-3.0591
X4.7638Y-3.0787
X4.7638Y-3.0984
X4.7638Y-3.1181
X4.7638Y-3.1378
X4.7638Y-3.1575
X4.7638Y-3.1772
X4.7638Y-3.1969
X4.7638Y-3.2165
X4.7638Y-3.2362
X4.7638Y-3.2559
X4.7638Y-3.2756
X4.7638Y-3.2953
X4.7638Y-3.315
X4.7638Y-3.3346
X4.7638Y-3.3543
X4.7638Y-3.374
X4.7638Y-3.3937
X4.7638Y-3.4134
X4.7638Y-3.4331
X4.7638Y-3.4528
X4.7638Y-3.4724
X4.7638Y-3.4921
X4.7638Y-3.5118
X4.7638Y-3.5315
X4.7638Y-3.5512
X4.7638Y-3.5709
X4.7638Y-3.5906
X4.7638Y-3.6102
X4.7638Y-3.6299
X4.7638Y-3.6496
X4.7677Y-3.6811
X4.7717Y-2.4606
X4.7717Y-2.4961
X4.7717Y-2.9449
X4.7756Y-3.7244
X4.7795Y-2.9843
X4.7795Y-3.4331
X4.7795Y-3.4528
X4.7795Y-3.4724
X4.7795Y-3.4921
X4.7795Y-3.5118
X4.7795Y-3.5315
X4.7795Y-3.5512
X4.7795Y-3.5709
X4.7795Y-3.5906
X4.7795Y-3.6102
X4.7795Y-3.6299
X4.7795Y-3.6496
X4.7795Y-3.6693
X4.7874Y-3.7126
X4.7913Y-2.4606
X4.7913Y-2.4961
X4.7913Y-3.4213
X4.7953Y-2.937
X4.7953Y-2.9685
X4.7992Y-3.7008
X4.8071Y-3.4094
X4.811Y-2.4606
X4.811Y-2.4961
X4.811Y-3.4528
X4.811Y-3.4724
X4.811Y-3.4921
X4.811Y-3.5118
X4.811Y-3.5315
X4.811Y-3.5512
X4.811Y-3.5709
X4.811Y-3.5906
X4.811Y-3.6102
X4.811Y-3.6299
X4.811Y-3.6496
X4.811Y-3.6693
X4.811Y-3.689
X4.815Y-2.937
X4.815Y-2.9685
X4.9213Y-2.4764
X4.9213Y-2.5276
X4.9213Y-2.5787
X4.9213Y-2.9528
X4.9213Y-3.0039
X4.9213Y-3.0551
X4.9213Y-3.4252
X4.9213Y-3.4764
X4.9213Y-3.5276
X5.0394Y-2.5276
X5.0394Y-3.0039
X5.0394Y-3.4764
T2
X4.3465Y-3.4606
X4.3543Y-3.3701
X4.3976Y-3.0709
X4.4055Y-2.622
X4.4134Y-2.6791
X4.4449Y-2.9291
X4.4449Y-3.0079
X4.5354Y-3.0748
X4.6339Y-2.7323
X5.2756Y-2.3583
X5.2756Y-2.8346
X5.2756Y-3.3071
T3
X4.0413Y-2.315
X4.0413Y-2.415
X4.0413Y-2.515
X4.0413Y-2.615
X4.0413Y-2.715
X4.0413Y-2.9039
X4.0413Y-3.0039
X4.0413Y-3.1039
X4.3665Y-2.2992
X4.4665Y-2.2992
X4.5665Y-2.2992
X5.1575Y-2.4776
X5.1575Y-2.5776
X5.1575Y-2.9539
X5.1575Y-3.0539
X5.1575Y-3.4264
X5.1575Y-3.5264
T4
X4.0945Y-2.126
X4.0945Y-3.7795
X5.3543Y-2.126
X5.3543Y-3.7795
T0
M30
