%FSLAX34Y34*%
G04 Gerber Fmt 3.4, Leading zero omitted, Abs format*
G04 (created by PCBNEW (2014-03-19 BZR 4756)-product) date Tue 29 Jul 2014 07:39:38 PM PDT*
%MOIN*%
G01*
G70*
G90*
G04 APERTURE LIST*
%ADD10C,0.003937*%
%ADD11R,0.055000X0.035000*%
%ADD12R,0.055000X0.055000*%
%ADD13C,0.055000*%
%ADD14R,0.064961X0.029921*%
%ADD15C,0.160000*%
%ADD16C,0.007874*%
%ADD17R,0.200000X0.070866*%
%ADD18R,0.036000X0.036000*%
%ADD19R,0.020000X0.030000*%
%ADD20R,0.011811X0.043307*%
%ADD21R,0.102362X0.088583*%
G04 APERTURE END LIST*
G54D10*
G54D11*
X44665Y-25333D03*
X44665Y-26083D03*
G54D12*
X51574Y-24775D03*
G54D13*
X51574Y-25775D03*
G54D11*
X44645Y-27341D03*
X44645Y-28091D03*
X45551Y-27341D03*
X45551Y-28091D03*
G54D14*
X49838Y-24775D03*
X49838Y-25275D03*
X49838Y-25775D03*
X48586Y-25775D03*
X48586Y-24775D03*
X49838Y-29539D03*
X49838Y-30039D03*
X49838Y-30539D03*
X48586Y-30539D03*
X48586Y-29539D03*
X49838Y-34263D03*
X49838Y-34763D03*
X49838Y-35263D03*
X48586Y-35263D03*
X48586Y-34263D03*
G54D15*
X40944Y-21259D03*
X53543Y-21259D03*
X40944Y-37795D03*
X53543Y-37795D03*
G54D16*
X43759Y-36417D03*
X50393Y-34763D03*
X49212Y-34763D03*
X49212Y-34251D03*
X49212Y-35275D03*
X50393Y-30039D03*
X49212Y-30039D03*
X49212Y-29527D03*
X49212Y-30551D03*
X50393Y-25275D03*
X49212Y-25275D03*
X49212Y-25787D03*
X49212Y-24763D03*
G54D11*
X42696Y-27341D03*
X42696Y-28091D03*
X43622Y-27341D03*
X43622Y-28091D03*
X43051Y-35313D03*
X43051Y-36063D03*
G54D12*
X40413Y-23149D03*
G54D13*
X40413Y-24149D03*
X40413Y-25149D03*
X40413Y-26149D03*
X40413Y-27149D03*
G54D12*
X40413Y-29039D03*
G54D13*
X40413Y-30039D03*
X40413Y-31039D03*
G54D12*
X43665Y-22992D03*
G54D13*
X44665Y-22992D03*
X45665Y-22992D03*
G54D17*
X54118Y-29547D03*
X54118Y-28366D03*
X54118Y-30728D03*
X54118Y-34251D03*
X54118Y-33070D03*
X54118Y-35433D03*
G54D12*
X51574Y-29539D03*
G54D13*
X51574Y-30539D03*
G54D12*
X51574Y-34263D03*
G54D13*
X51574Y-35263D03*
G54D18*
X43972Y-30085D03*
X43272Y-30085D03*
X43622Y-29285D03*
X45605Y-30085D03*
X44905Y-30085D03*
X45255Y-29285D03*
G54D11*
X41889Y-33837D03*
X41889Y-34587D03*
X40905Y-33837D03*
X40905Y-34587D03*
G54D19*
X43544Y-25188D03*
X42794Y-25188D03*
X43544Y-26188D03*
X43169Y-25188D03*
X42794Y-26188D03*
G54D20*
X44724Y-34153D03*
X44527Y-34153D03*
X44330Y-34153D03*
X44133Y-34153D03*
X43937Y-34153D03*
X43930Y-36003D03*
X44130Y-36003D03*
X44330Y-36003D03*
X44530Y-36003D03*
X44730Y-36003D03*
G54D21*
X43799Y-32874D03*
X45649Y-32874D03*
X45649Y-31614D03*
X43799Y-31614D03*
G54D17*
X54118Y-24763D03*
X54118Y-23582D03*
X54118Y-25944D03*
G54D16*
X44094Y-36417D03*
X44094Y-36614D03*
X43759Y-36614D03*
X44094Y-36811D03*
X43759Y-36811D03*
X43877Y-37145D03*
X44212Y-36929D03*
X44409Y-37244D03*
X44212Y-37244D03*
X43759Y-37007D03*
X44035Y-37244D03*
X44409Y-36929D03*
X44606Y-36929D03*
X44803Y-36929D03*
X45000Y-36929D03*
X45196Y-36929D03*
X45393Y-36929D03*
X44803Y-36771D03*
X45000Y-36771D03*
X44606Y-36771D03*
X45590Y-36929D03*
X45787Y-36929D03*
X45984Y-36929D03*
X46181Y-36929D03*
X46377Y-36929D03*
X46574Y-36929D03*
X46771Y-36929D03*
X46968Y-36929D03*
X47165Y-36929D03*
X47362Y-36929D03*
X47559Y-36929D03*
X47795Y-36692D03*
X47677Y-36811D03*
X47795Y-36496D03*
X47795Y-36299D03*
X47795Y-36102D03*
X47795Y-35905D03*
X47795Y-35708D03*
X47795Y-35511D03*
X47795Y-35314D03*
X47795Y-35118D03*
X47795Y-34921D03*
X47795Y-34724D03*
X47795Y-34527D03*
X47795Y-34330D03*
X47913Y-34212D03*
X48070Y-34094D03*
X44370Y-36417D03*
X44370Y-36614D03*
X44468Y-36712D03*
X44685Y-36417D03*
X44803Y-36456D03*
X44606Y-37244D03*
X44803Y-37244D03*
X45000Y-37244D03*
X45196Y-37244D03*
X45393Y-37244D03*
X45590Y-37244D03*
X45787Y-37244D03*
X45984Y-37244D03*
X46181Y-37244D03*
X46377Y-37244D03*
X46574Y-37244D03*
X46771Y-37244D03*
X46968Y-37244D03*
X47165Y-37244D03*
X47362Y-37244D03*
X47559Y-37244D03*
X47755Y-37244D03*
X48110Y-36692D03*
X48110Y-36889D03*
X47992Y-37007D03*
X47874Y-37125D03*
X48110Y-36496D03*
X48110Y-36299D03*
X48110Y-36102D03*
X48110Y-35905D03*
X48110Y-35708D03*
X48110Y-35511D03*
X48110Y-35314D03*
X48110Y-35118D03*
X48110Y-34921D03*
X48110Y-34724D03*
X48110Y-34527D03*
X45196Y-36771D03*
X45393Y-36771D03*
X45590Y-36771D03*
X45787Y-36771D03*
X45984Y-36771D03*
X46181Y-36771D03*
X46377Y-36771D03*
X46574Y-36771D03*
X46771Y-36771D03*
X46968Y-36771D03*
X47165Y-36771D03*
X47362Y-36771D03*
X47637Y-36496D03*
X47539Y-36673D03*
X47637Y-36299D03*
X47637Y-36102D03*
X47637Y-35905D03*
X47637Y-35708D03*
X47637Y-35511D03*
X47637Y-35314D03*
X47637Y-35118D03*
X47637Y-34921D03*
X47637Y-34724D03*
X47637Y-34527D03*
X47637Y-34330D03*
X47637Y-34133D03*
X47637Y-33937D03*
X47637Y-33740D03*
X47637Y-33543D03*
X47637Y-33346D03*
X47637Y-33149D03*
X47637Y-32952D03*
X47637Y-32755D03*
X47637Y-32559D03*
X47637Y-32362D03*
X47637Y-32165D03*
X47637Y-31968D03*
X47637Y-31771D03*
X47637Y-31574D03*
X47637Y-31377D03*
X47637Y-31181D03*
X47637Y-30984D03*
X47637Y-30787D03*
X47637Y-30590D03*
X47637Y-30393D03*
X47637Y-30196D03*
X47637Y-30000D03*
X47952Y-29685D03*
X48149Y-29685D03*
X47795Y-29842D03*
X45000Y-36456D03*
X45196Y-36456D03*
X45393Y-36456D03*
X45590Y-36456D03*
X45787Y-36456D03*
X45984Y-36456D03*
X46181Y-36456D03*
X46377Y-36456D03*
X46574Y-36456D03*
X46771Y-36456D03*
X46968Y-36456D03*
X47165Y-36456D03*
X47322Y-36299D03*
X47322Y-36102D03*
X47322Y-35905D03*
X47322Y-35708D03*
X47322Y-35511D03*
X47322Y-35314D03*
X47322Y-35118D03*
X47322Y-34921D03*
X47322Y-34724D03*
X47322Y-34527D03*
X47322Y-34330D03*
X47322Y-34133D03*
X47322Y-33937D03*
X47322Y-33740D03*
X47322Y-33543D03*
X47322Y-33346D03*
X47322Y-33149D03*
X47322Y-32952D03*
X47322Y-32755D03*
X47322Y-32559D03*
X47322Y-32362D03*
X47322Y-32165D03*
X47322Y-31968D03*
X47322Y-31771D03*
X47322Y-31574D03*
X47322Y-31377D03*
X47322Y-31181D03*
X47322Y-30984D03*
X47322Y-30787D03*
X47322Y-30590D03*
X47322Y-30393D03*
X47322Y-30196D03*
X47322Y-30000D03*
X47952Y-29370D03*
X48149Y-29370D03*
X47401Y-29783D03*
X47716Y-29448D03*
X47559Y-29625D03*
X45000Y-36181D03*
X45000Y-35826D03*
X45196Y-36181D03*
X45393Y-36181D03*
X45590Y-36181D03*
X45787Y-36181D03*
X45984Y-36181D03*
X46181Y-36181D03*
X46377Y-36181D03*
X46574Y-36181D03*
X46771Y-36181D03*
X47086Y-35708D03*
X45196Y-35826D03*
X45393Y-35826D03*
X45590Y-35826D03*
X45787Y-35826D03*
X45984Y-35826D03*
X46181Y-35826D03*
X46377Y-35826D03*
X46574Y-35826D03*
X46732Y-35708D03*
X47086Y-35905D03*
X46968Y-36062D03*
X47086Y-35511D03*
X47086Y-35314D03*
X47086Y-35118D03*
X47086Y-34921D03*
X47086Y-34724D03*
X47086Y-34527D03*
X47086Y-34330D03*
X47086Y-34133D03*
X47086Y-33937D03*
X47086Y-33740D03*
X47086Y-33543D03*
X47086Y-33346D03*
X47086Y-33149D03*
X47086Y-32952D03*
X47086Y-32755D03*
X47086Y-32559D03*
X47086Y-32362D03*
X47086Y-32165D03*
X47086Y-31968D03*
X47086Y-31771D03*
X47086Y-31574D03*
X47086Y-31377D03*
X47086Y-31181D03*
X47086Y-30984D03*
X47086Y-30787D03*
X47086Y-30590D03*
X47086Y-30393D03*
X47086Y-30196D03*
X47086Y-30000D03*
X47086Y-29803D03*
X47086Y-29606D03*
X47086Y-29409D03*
X47086Y-29212D03*
X47086Y-29015D03*
X47086Y-28818D03*
X47086Y-28622D03*
X47086Y-28425D03*
X47086Y-28228D03*
X47086Y-28031D03*
X47086Y-27834D03*
X47086Y-27637D03*
X47086Y-27440D03*
X47086Y-27244D03*
X47086Y-27047D03*
X47086Y-26850D03*
X47086Y-26653D03*
X47086Y-26456D03*
X47086Y-26259D03*
X47086Y-26062D03*
X47086Y-25866D03*
X47086Y-25669D03*
X47716Y-24960D03*
X47913Y-24960D03*
X48110Y-24960D03*
X47185Y-25492D03*
X47303Y-25354D03*
X47440Y-25216D03*
X47559Y-25078D03*
X46732Y-35511D03*
X46732Y-35314D03*
X46732Y-35118D03*
X46732Y-34921D03*
X46732Y-34724D03*
X46732Y-34527D03*
X46732Y-34330D03*
X46732Y-34133D03*
X46732Y-33937D03*
X46732Y-33740D03*
X46732Y-33543D03*
X46732Y-33346D03*
X46732Y-33149D03*
X46732Y-32952D03*
X46732Y-32755D03*
X46732Y-32559D03*
X46732Y-32362D03*
X46732Y-32165D03*
X46732Y-31968D03*
X46732Y-31771D03*
X46732Y-31574D03*
X46732Y-31377D03*
X46732Y-31181D03*
X46732Y-30984D03*
X46732Y-30787D03*
X46732Y-30590D03*
X46732Y-30393D03*
X46732Y-30196D03*
X46732Y-30000D03*
X46732Y-29803D03*
X46732Y-29606D03*
X46732Y-29409D03*
X46732Y-29212D03*
X46732Y-29015D03*
X46732Y-28818D03*
X46732Y-28622D03*
X46732Y-28425D03*
X46732Y-28228D03*
X46732Y-28031D03*
X46732Y-27834D03*
X46732Y-27637D03*
X46732Y-27440D03*
X46732Y-27244D03*
X46732Y-27047D03*
X46732Y-26850D03*
X46732Y-26653D03*
X46732Y-26456D03*
X46732Y-26259D03*
X46732Y-26062D03*
X46732Y-25866D03*
X46732Y-25669D03*
X46732Y-25472D03*
X47716Y-24606D03*
X47913Y-24606D03*
X48110Y-24606D03*
X46850Y-25275D03*
X46988Y-25137D03*
X47145Y-24980D03*
X47303Y-24822D03*
X47460Y-24665D03*
M02*
