%FSLAX34Y34*%
G04 Gerber Fmt 3.4, Leading zero omitted, Abs format*
G04 (created by PCBNEW (2014-03-19 BZR 4756)-product) date Tue 29 Jul 2014 07:39:38 PM PDT*
%MOIN*%
G01*
G70*
G90*
G04 APERTURE LIST*
%ADD10C,0.003937*%
%ADD11C,0.007874*%
%ADD12R,0.055000X0.035000*%
%ADD13R,0.055000X0.055000*%
%ADD14C,0.055000*%
%ADD15R,0.064961X0.029921*%
%ADD16C,0.160000*%
%ADD17C,0.007874*%
%ADD18R,0.200000X0.070866*%
%ADD19R,0.036000X0.036000*%
%ADD20R,0.020000X0.030000*%
%ADD21R,0.011811X0.043307*%
%ADD22R,0.102362X0.088583*%
%ADD23C,0.035000*%
G04 APERTURE END LIST*
G54D10*
G54D11*
X51080Y-37107D02*
X50975Y-36919D01*
X50900Y-37107D02*
X50900Y-36713D01*
X51020Y-36713D01*
X51050Y-36732D01*
X51065Y-36751D01*
X51080Y-36788D01*
X51080Y-36844D01*
X51065Y-36882D01*
X51050Y-36901D01*
X51020Y-36919D01*
X50900Y-36919D01*
X51335Y-37088D02*
X51305Y-37107D01*
X51245Y-37107D01*
X51215Y-37088D01*
X51200Y-37050D01*
X51200Y-36901D01*
X51215Y-36863D01*
X51245Y-36844D01*
X51305Y-36844D01*
X51335Y-36863D01*
X51350Y-36901D01*
X51350Y-36938D01*
X51200Y-36976D01*
X51455Y-36844D02*
X51530Y-37107D01*
X51605Y-36844D01*
X52070Y-36901D02*
X52115Y-36919D01*
X52130Y-36938D01*
X52145Y-36976D01*
X52145Y-37032D01*
X52130Y-37069D01*
X52115Y-37088D01*
X52085Y-37107D01*
X51965Y-37107D01*
X51965Y-36713D01*
X52070Y-36713D01*
X52100Y-36732D01*
X52115Y-36751D01*
X52130Y-36788D01*
X52130Y-36826D01*
X52115Y-36863D01*
X52100Y-36882D01*
X52070Y-36901D01*
X51965Y-36901D01*
G54D12*
X44665Y-25333D03*
X44665Y-26083D03*
G54D13*
X51574Y-24775D03*
G54D14*
X51574Y-25775D03*
G54D12*
X44645Y-27341D03*
X44645Y-28091D03*
X45551Y-27341D03*
X45551Y-28091D03*
G54D15*
X49838Y-24775D03*
X49838Y-25275D03*
X49838Y-25775D03*
X48586Y-25775D03*
X48586Y-24775D03*
X49838Y-29539D03*
X49838Y-30039D03*
X49838Y-30539D03*
X48586Y-30539D03*
X48586Y-29539D03*
X49838Y-34263D03*
X49838Y-34763D03*
X49838Y-35263D03*
X48586Y-35263D03*
X48586Y-34263D03*
G54D16*
X40944Y-21259D03*
X53543Y-21259D03*
X40944Y-37795D03*
X53543Y-37795D03*
G54D17*
X43759Y-36417D03*
X50393Y-34763D03*
X49212Y-34763D03*
X49212Y-34251D03*
X49212Y-35275D03*
X50393Y-30039D03*
X49212Y-30039D03*
X49212Y-29527D03*
X49212Y-30551D03*
X50393Y-25275D03*
X49212Y-25275D03*
X49212Y-25787D03*
X49212Y-24763D03*
G54D12*
X42696Y-27341D03*
X42696Y-28091D03*
X43622Y-27341D03*
X43622Y-28091D03*
X43051Y-35313D03*
X43051Y-36063D03*
G54D13*
X40413Y-23149D03*
G54D14*
X40413Y-24149D03*
X40413Y-25149D03*
X40413Y-26149D03*
X40413Y-27149D03*
G54D13*
X40413Y-29039D03*
G54D14*
X40413Y-30039D03*
X40413Y-31039D03*
G54D13*
X43665Y-22992D03*
G54D14*
X44665Y-22992D03*
X45665Y-22992D03*
G54D18*
X54118Y-29547D03*
X54118Y-28366D03*
X54118Y-30728D03*
X54118Y-34251D03*
X54118Y-33070D03*
X54118Y-35433D03*
G54D13*
X51574Y-29539D03*
G54D14*
X51574Y-30539D03*
G54D13*
X51574Y-34263D03*
G54D14*
X51574Y-35263D03*
G54D19*
X43972Y-30085D03*
X43272Y-30085D03*
X43622Y-29285D03*
X45605Y-30085D03*
X44905Y-30085D03*
X45255Y-29285D03*
G54D12*
X41889Y-33837D03*
X41889Y-34587D03*
X40905Y-33837D03*
X40905Y-34587D03*
G54D20*
X43544Y-25188D03*
X42794Y-25188D03*
X43544Y-26188D03*
X43169Y-25188D03*
X42794Y-26188D03*
G54D21*
X44724Y-34153D03*
X44527Y-34153D03*
X44330Y-34153D03*
X44133Y-34153D03*
X43937Y-34153D03*
X43930Y-36003D03*
X44130Y-36003D03*
X44330Y-36003D03*
X44530Y-36003D03*
X44730Y-36003D03*
G54D22*
X43799Y-32874D03*
X45649Y-32874D03*
X45649Y-31614D03*
X43799Y-31614D03*
G54D18*
X54118Y-24763D03*
X54118Y-23582D03*
X54118Y-25944D03*
G54D17*
X44094Y-36417D03*
X44094Y-36614D03*
X43759Y-36614D03*
X44094Y-36811D03*
X43759Y-36811D03*
X43877Y-37145D03*
X44212Y-36929D03*
X44409Y-37244D03*
X44212Y-37244D03*
X43759Y-37007D03*
X44035Y-37244D03*
X44409Y-36929D03*
X44606Y-36929D03*
X44803Y-36929D03*
X45000Y-36929D03*
X45196Y-36929D03*
X45393Y-36929D03*
X44803Y-36771D03*
X45000Y-36771D03*
X44606Y-36771D03*
X45590Y-36929D03*
X45787Y-36929D03*
X45984Y-36929D03*
X46181Y-36929D03*
X46377Y-36929D03*
X46574Y-36929D03*
X46771Y-36929D03*
X46968Y-36929D03*
X47165Y-36929D03*
X47362Y-36929D03*
X47559Y-36929D03*
X47795Y-36692D03*
X47677Y-36811D03*
X47795Y-36496D03*
X47795Y-36299D03*
X47795Y-36102D03*
X47795Y-35905D03*
X47795Y-35708D03*
X47795Y-35511D03*
X47795Y-35314D03*
X47795Y-35118D03*
X47795Y-34921D03*
X47795Y-34724D03*
X47795Y-34527D03*
X47795Y-34330D03*
X47913Y-34212D03*
X48070Y-34094D03*
X44370Y-36417D03*
X44370Y-36614D03*
X44468Y-36712D03*
X44685Y-36417D03*
X44803Y-36456D03*
X44606Y-37244D03*
X44803Y-37244D03*
X45000Y-37244D03*
X45196Y-37244D03*
X45393Y-37244D03*
X45590Y-37244D03*
X45787Y-37244D03*
X45984Y-37244D03*
X46181Y-37244D03*
X46377Y-37244D03*
X46574Y-37244D03*
X46771Y-37244D03*
X46968Y-37244D03*
X47165Y-37244D03*
X47362Y-37244D03*
X47559Y-37244D03*
X47755Y-37244D03*
X48110Y-36692D03*
X48110Y-36889D03*
X47992Y-37007D03*
X47874Y-37125D03*
X48110Y-36496D03*
X48110Y-36299D03*
X48110Y-36102D03*
X48110Y-35905D03*
X48110Y-35708D03*
X48110Y-35511D03*
X48110Y-35314D03*
X48110Y-35118D03*
X48110Y-34921D03*
X48110Y-34724D03*
X48110Y-34527D03*
X45196Y-36771D03*
X45393Y-36771D03*
X45590Y-36771D03*
X45787Y-36771D03*
X45984Y-36771D03*
X46181Y-36771D03*
X46377Y-36771D03*
X46574Y-36771D03*
X46771Y-36771D03*
X46968Y-36771D03*
X47165Y-36771D03*
X47362Y-36771D03*
X47637Y-36496D03*
X47539Y-36673D03*
X47637Y-36299D03*
X47637Y-36102D03*
X47637Y-35905D03*
X47637Y-35708D03*
X47637Y-35511D03*
X47637Y-35314D03*
X47637Y-35118D03*
X47637Y-34921D03*
X47637Y-34724D03*
X47637Y-34527D03*
X47637Y-34330D03*
X47637Y-34133D03*
X47637Y-33937D03*
X47637Y-33740D03*
X47637Y-33543D03*
X47637Y-33346D03*
X47637Y-33149D03*
X47637Y-32952D03*
X47637Y-32755D03*
X47637Y-32559D03*
X47637Y-32362D03*
X47637Y-32165D03*
X47637Y-31968D03*
X47637Y-31771D03*
X47637Y-31574D03*
X47637Y-31377D03*
X47637Y-31181D03*
X47637Y-30984D03*
X47637Y-30787D03*
X47637Y-30590D03*
X47637Y-30393D03*
X47637Y-30196D03*
X47637Y-30000D03*
X47952Y-29685D03*
X48149Y-29685D03*
X47795Y-29842D03*
X45000Y-36456D03*
X45196Y-36456D03*
X45393Y-36456D03*
X45590Y-36456D03*
X45787Y-36456D03*
X45984Y-36456D03*
X46181Y-36456D03*
X46377Y-36456D03*
X46574Y-36456D03*
X46771Y-36456D03*
X46968Y-36456D03*
X47165Y-36456D03*
X47322Y-36299D03*
X47322Y-36102D03*
X47322Y-35905D03*
X47322Y-35708D03*
X47322Y-35511D03*
X47322Y-35314D03*
X47322Y-35118D03*
X47322Y-34921D03*
X47322Y-34724D03*
X47322Y-34527D03*
X47322Y-34330D03*
X47322Y-34133D03*
X47322Y-33937D03*
X47322Y-33740D03*
X47322Y-33543D03*
X47322Y-33346D03*
X47322Y-33149D03*
X47322Y-32952D03*
X47322Y-32755D03*
X47322Y-32559D03*
X47322Y-32362D03*
X47322Y-32165D03*
X47322Y-31968D03*
X47322Y-31771D03*
X47322Y-31574D03*
X47322Y-31377D03*
X47322Y-31181D03*
X47322Y-30984D03*
X47322Y-30787D03*
X47322Y-30590D03*
X47322Y-30393D03*
X47322Y-30196D03*
X47322Y-30000D03*
X47952Y-29370D03*
X48149Y-29370D03*
X47401Y-29783D03*
X47716Y-29448D03*
X47559Y-29625D03*
X45000Y-36181D03*
X45000Y-35826D03*
X45196Y-36181D03*
X45393Y-36181D03*
X45590Y-36181D03*
X45787Y-36181D03*
X45984Y-36181D03*
X46181Y-36181D03*
X46377Y-36181D03*
X46574Y-36181D03*
X46771Y-36181D03*
X47086Y-35708D03*
X45196Y-35826D03*
X45393Y-35826D03*
X45590Y-35826D03*
X45787Y-35826D03*
X45984Y-35826D03*
X46181Y-35826D03*
X46377Y-35826D03*
X46574Y-35826D03*
X46732Y-35708D03*
X47086Y-35905D03*
X46968Y-36062D03*
X47086Y-35511D03*
X47086Y-35314D03*
X47086Y-35118D03*
X47086Y-34921D03*
X47086Y-34724D03*
X47086Y-34527D03*
X47086Y-34330D03*
X47086Y-34133D03*
X47086Y-33937D03*
X47086Y-33740D03*
X47086Y-33543D03*
X47086Y-33346D03*
X47086Y-33149D03*
X47086Y-32952D03*
X47086Y-32755D03*
X47086Y-32559D03*
X47086Y-32362D03*
X47086Y-32165D03*
X47086Y-31968D03*
X47086Y-31771D03*
X47086Y-31574D03*
X47086Y-31377D03*
X47086Y-31181D03*
X47086Y-30984D03*
X47086Y-30787D03*
X47086Y-30590D03*
X47086Y-30393D03*
X47086Y-30196D03*
X47086Y-30000D03*
X47086Y-29803D03*
X47086Y-29606D03*
X47086Y-29409D03*
X47086Y-29212D03*
X47086Y-29015D03*
X47086Y-28818D03*
X47086Y-28622D03*
X47086Y-28425D03*
X47086Y-28228D03*
X47086Y-28031D03*
X47086Y-27834D03*
X47086Y-27637D03*
X47086Y-27440D03*
X47086Y-27244D03*
X47086Y-27047D03*
X47086Y-26850D03*
X47086Y-26653D03*
X47086Y-26456D03*
X47086Y-26259D03*
X47086Y-26062D03*
X47086Y-25866D03*
X47086Y-25669D03*
X47716Y-24960D03*
X47913Y-24960D03*
X48110Y-24960D03*
X47185Y-25492D03*
X47303Y-25354D03*
X47440Y-25216D03*
X47559Y-25078D03*
X46732Y-35511D03*
X46732Y-35314D03*
X46732Y-35118D03*
X46732Y-34921D03*
X46732Y-34724D03*
X46732Y-34527D03*
X46732Y-34330D03*
X46732Y-34133D03*
X46732Y-33937D03*
X46732Y-33740D03*
X46732Y-33543D03*
X46732Y-33346D03*
X46732Y-33149D03*
X46732Y-32952D03*
X46732Y-32755D03*
X46732Y-32559D03*
X46732Y-32362D03*
X46732Y-32165D03*
X46732Y-31968D03*
X46732Y-31771D03*
X46732Y-31574D03*
X46732Y-31377D03*
X46732Y-31181D03*
X46732Y-30984D03*
X46732Y-30787D03*
X46732Y-30590D03*
X46732Y-30393D03*
X46732Y-30196D03*
X46732Y-30000D03*
X46732Y-29803D03*
X46732Y-29606D03*
X46732Y-29409D03*
X46732Y-29212D03*
X46732Y-29015D03*
X46732Y-28818D03*
X46732Y-28622D03*
X46732Y-28425D03*
X46732Y-28228D03*
X46732Y-28031D03*
X46732Y-27834D03*
X46732Y-27637D03*
X46732Y-27440D03*
X46732Y-27244D03*
X46732Y-27047D03*
X46732Y-26850D03*
X46732Y-26653D03*
X46732Y-26456D03*
X46732Y-26259D03*
X46732Y-26062D03*
X46732Y-25866D03*
X46732Y-25669D03*
X46732Y-25472D03*
X47716Y-24606D03*
X47913Y-24606D03*
X48110Y-24606D03*
X46850Y-25275D03*
X46988Y-25137D03*
X47145Y-24980D03*
X47303Y-24822D03*
X47460Y-24665D03*
G54D23*
X44133Y-26791D03*
X46338Y-27322D03*
X52755Y-23582D03*
X44055Y-26220D03*
X44448Y-29291D03*
X52755Y-28346D03*
X52755Y-33070D03*
X43543Y-33700D03*
X43976Y-30708D03*
X43464Y-34606D03*
X45354Y-30748D03*
X44448Y-30078D03*
G54D11*
X44645Y-28091D02*
X44645Y-28425D01*
X43622Y-28937D02*
X43622Y-29285D01*
X43740Y-28818D02*
X43622Y-28937D01*
X44251Y-28818D02*
X43740Y-28818D01*
X44645Y-28425D02*
X44251Y-28818D01*
X44251Y-28090D02*
X44644Y-28090D01*
X44133Y-27972D02*
X44251Y-28090D01*
X44133Y-26791D02*
X44133Y-27972D01*
X44644Y-28090D02*
X44645Y-28091D01*
X44591Y-28037D02*
X44645Y-28091D01*
X46319Y-27341D02*
X45551Y-27341D01*
X46338Y-27322D02*
X46319Y-27341D01*
X45551Y-27341D02*
X44645Y-27341D01*
X54118Y-24763D02*
X51586Y-24763D01*
X51586Y-24763D02*
X51574Y-24775D01*
X49838Y-24775D02*
X51574Y-24775D01*
X54118Y-23582D02*
X52755Y-23582D01*
X54118Y-25944D02*
X52244Y-25944D01*
X52074Y-25775D02*
X51574Y-25775D01*
X52244Y-25944D02*
X52074Y-25775D01*
X49838Y-25775D02*
X51574Y-25775D01*
X44730Y-36003D02*
X46811Y-36003D01*
X47606Y-24775D02*
X48586Y-24775D01*
X46909Y-25472D02*
X47606Y-24775D01*
X46909Y-35905D02*
X46909Y-25472D01*
X46811Y-36003D02*
X46909Y-35905D01*
X44530Y-36003D02*
X44530Y-36499D01*
X47881Y-29539D02*
X48586Y-29539D01*
X47480Y-29940D02*
X47881Y-29539D01*
X47480Y-36515D02*
X47480Y-29940D01*
X47381Y-36614D02*
X47480Y-36515D01*
X44645Y-36614D02*
X47381Y-36614D01*
X44530Y-36499D02*
X44645Y-36614D01*
X43930Y-36003D02*
X43930Y-36942D01*
X48098Y-34263D02*
X48586Y-34263D01*
X47952Y-34409D02*
X48098Y-34263D01*
X47952Y-36811D02*
X47952Y-34409D01*
X47677Y-37086D02*
X47952Y-36811D01*
X44074Y-37086D02*
X47677Y-37086D01*
X43930Y-36942D02*
X44074Y-37086D01*
X40413Y-23149D02*
X41141Y-23149D01*
X41078Y-29039D02*
X40413Y-29039D01*
X41299Y-28818D02*
X41078Y-29039D01*
X41299Y-23307D02*
X41299Y-28818D01*
X41141Y-23149D02*
X41299Y-23307D01*
X40413Y-23149D02*
X40413Y-22814D01*
X42794Y-22853D02*
X42794Y-25188D01*
X42539Y-22598D02*
X42794Y-22853D01*
X40629Y-22598D02*
X42539Y-22598D01*
X40413Y-22814D02*
X40629Y-22598D01*
X42794Y-25188D02*
X42794Y-25530D01*
X43544Y-25569D02*
X43544Y-25188D01*
X43444Y-25669D02*
X43544Y-25569D01*
X42933Y-25669D02*
X43444Y-25669D01*
X42794Y-25530D02*
X42933Y-25669D01*
X43544Y-25188D02*
X43870Y-25188D01*
X44014Y-25333D02*
X44665Y-25333D01*
X43870Y-25188D02*
X44014Y-25333D01*
X42794Y-26188D02*
X42794Y-27244D01*
X42794Y-27244D02*
X42696Y-27341D01*
X44023Y-26188D02*
X43544Y-26188D01*
X44055Y-26220D02*
X44023Y-26188D01*
X43544Y-26188D02*
X43544Y-27263D01*
X43544Y-27263D02*
X43622Y-27341D01*
X43385Y-27213D02*
X43361Y-27237D01*
X44455Y-29285D02*
X45255Y-29285D01*
X44448Y-29291D02*
X44455Y-29285D01*
X45551Y-28091D02*
X45551Y-28622D01*
X45255Y-28917D02*
X45255Y-29285D01*
X45551Y-28622D02*
X45255Y-28917D01*
X54118Y-29547D02*
X51582Y-29547D01*
X51582Y-29547D02*
X51574Y-29539D01*
X49838Y-29539D02*
X51574Y-29539D01*
X54118Y-28366D02*
X52775Y-28366D01*
X52775Y-28366D02*
X52755Y-28346D01*
X54118Y-30728D02*
X52263Y-30728D01*
X52074Y-30539D02*
X51574Y-30539D01*
X52263Y-30728D02*
X52074Y-30539D01*
X49838Y-30539D02*
X51574Y-30539D01*
X54118Y-34251D02*
X51586Y-34251D01*
X51586Y-34251D02*
X51574Y-34263D01*
X49838Y-34263D02*
X51574Y-34263D01*
X54118Y-33070D02*
X52755Y-33070D01*
X54118Y-35433D02*
X52244Y-35433D01*
X52074Y-35263D02*
X51574Y-35263D01*
X52244Y-35433D02*
X52074Y-35263D01*
X49838Y-35263D02*
X51574Y-35263D01*
X44133Y-34153D02*
X44133Y-34724D01*
X41889Y-34881D02*
X41889Y-34587D01*
X41968Y-34960D02*
X41889Y-34881D01*
X43897Y-34960D02*
X41968Y-34960D01*
X44133Y-34724D02*
X43897Y-34960D01*
X43972Y-30085D02*
X43972Y-30704D01*
X44133Y-33818D02*
X44133Y-34153D01*
X44015Y-33700D02*
X44133Y-33818D01*
X43543Y-33700D02*
X44015Y-33700D01*
X43972Y-30704D02*
X43976Y-30708D01*
X45605Y-30085D02*
X45605Y-30496D01*
X43937Y-34527D02*
X43937Y-34153D01*
X43858Y-34606D02*
X43937Y-34527D01*
X43464Y-34606D02*
X43858Y-34606D01*
X45605Y-30496D02*
X45354Y-30748D01*
X40905Y-34587D02*
X40905Y-34330D01*
X43681Y-34153D02*
X43937Y-34153D01*
X43582Y-34251D02*
X43681Y-34153D01*
X40984Y-34251D02*
X43582Y-34251D01*
X40905Y-34330D02*
X40984Y-34251D01*
X45649Y-31614D02*
X44921Y-31614D01*
X44527Y-33543D02*
X44527Y-34153D01*
X44685Y-33385D02*
X44527Y-33543D01*
X44685Y-31850D02*
X44685Y-33385D01*
X44921Y-31614D02*
X44685Y-31850D01*
X43799Y-32874D02*
X43799Y-33405D01*
X44330Y-33582D02*
X44330Y-34153D01*
X44251Y-33503D02*
X44330Y-33582D01*
X43897Y-33503D02*
X44251Y-33503D01*
X43799Y-33405D02*
X43897Y-33503D01*
X43272Y-30085D02*
X43272Y-30516D01*
X43799Y-31043D02*
X43799Y-31614D01*
X43272Y-30516D02*
X43799Y-31043D01*
X44455Y-30085D02*
X44905Y-30085D01*
X44448Y-30078D02*
X44455Y-30085D01*
X43799Y-31614D02*
X41614Y-31614D01*
X41614Y-31614D02*
X41039Y-31039D01*
X41039Y-31039D02*
X40413Y-31039D01*
X40413Y-31039D02*
X40413Y-32775D01*
X40905Y-33267D02*
X40905Y-33837D01*
X40413Y-32775D02*
X40905Y-33267D01*
X43051Y-35313D02*
X40589Y-35313D01*
X40453Y-33837D02*
X40905Y-33837D01*
X40314Y-33976D02*
X40453Y-33837D01*
X40314Y-35039D02*
X40314Y-33976D01*
X40589Y-35313D02*
X40314Y-35039D01*
X41889Y-33837D02*
X40905Y-33837D01*
X43051Y-35313D02*
X44174Y-35313D01*
X44724Y-34763D02*
X44724Y-34153D01*
X44174Y-35313D02*
X44724Y-34763D01*
X44130Y-36003D02*
X44130Y-35705D01*
X43051Y-35610D02*
X43051Y-35313D01*
X43110Y-35669D02*
X43051Y-35610D01*
X44094Y-35669D02*
X43110Y-35669D01*
X44130Y-35705D02*
X44094Y-35669D01*
X44905Y-30085D02*
X44905Y-29827D01*
X44905Y-29827D02*
X44763Y-29685D01*
X44763Y-29685D02*
X43405Y-29685D01*
X43405Y-29685D02*
X43272Y-29818D01*
X43272Y-29818D02*
X43272Y-30085D01*
G54D10*
G36*
X50508Y-25618D02*
X50281Y-25618D01*
X50281Y-25614D01*
X50276Y-25591D01*
X50268Y-25570D01*
X50255Y-25550D01*
X50238Y-25534D01*
X50225Y-25525D01*
X50238Y-25516D01*
X50255Y-25500D01*
X50268Y-25481D01*
X50276Y-25459D01*
X50281Y-25436D01*
X50281Y-25413D01*
X50281Y-25114D01*
X50276Y-25091D01*
X50268Y-25070D01*
X50255Y-25050D01*
X50238Y-25034D01*
X50225Y-25025D01*
X50238Y-25016D01*
X50255Y-25000D01*
X50268Y-24981D01*
X50276Y-24959D01*
X50281Y-24936D01*
X50281Y-24933D01*
X50508Y-24933D01*
X50508Y-25618D01*
X50508Y-25618D01*
G37*
G54D11*
X50508Y-25618D02*
X50281Y-25618D01*
X50281Y-25614D01*
X50276Y-25591D01*
X50268Y-25570D01*
X50255Y-25550D01*
X50238Y-25534D01*
X50225Y-25525D01*
X50238Y-25516D01*
X50255Y-25500D01*
X50268Y-25481D01*
X50276Y-25459D01*
X50281Y-25436D01*
X50281Y-25413D01*
X50281Y-25114D01*
X50276Y-25091D01*
X50268Y-25070D01*
X50255Y-25050D01*
X50238Y-25034D01*
X50225Y-25025D01*
X50238Y-25016D01*
X50255Y-25000D01*
X50268Y-24981D01*
X50276Y-24959D01*
X50281Y-24936D01*
X50281Y-24933D01*
X50508Y-24933D01*
X50508Y-25618D01*
G54D10*
G36*
X50508Y-30381D02*
X50281Y-30381D01*
X50281Y-30378D01*
X50276Y-30355D01*
X50268Y-30333D01*
X50255Y-30314D01*
X50238Y-30298D01*
X50225Y-30289D01*
X50238Y-30280D01*
X50255Y-30264D01*
X50268Y-30244D01*
X50276Y-30223D01*
X50281Y-30200D01*
X50281Y-30177D01*
X50281Y-29878D01*
X50276Y-29855D01*
X50268Y-29833D01*
X50255Y-29814D01*
X50238Y-29798D01*
X50225Y-29789D01*
X50238Y-29780D01*
X50255Y-29764D01*
X50268Y-29744D01*
X50276Y-29723D01*
X50281Y-29700D01*
X50281Y-29696D01*
X50508Y-29696D01*
X50508Y-30381D01*
X50508Y-30381D01*
G37*
G54D11*
X50508Y-30381D02*
X50281Y-30381D01*
X50281Y-30378D01*
X50276Y-30355D01*
X50268Y-30333D01*
X50255Y-30314D01*
X50238Y-30298D01*
X50225Y-30289D01*
X50238Y-30280D01*
X50255Y-30264D01*
X50268Y-30244D01*
X50276Y-30223D01*
X50281Y-30200D01*
X50281Y-30177D01*
X50281Y-29878D01*
X50276Y-29855D01*
X50268Y-29833D01*
X50255Y-29814D01*
X50238Y-29798D01*
X50225Y-29789D01*
X50238Y-29780D01*
X50255Y-29764D01*
X50268Y-29744D01*
X50276Y-29723D01*
X50281Y-29700D01*
X50281Y-29696D01*
X50508Y-29696D01*
X50508Y-30381D01*
G54D10*
G36*
X50508Y-35106D02*
X50281Y-35106D01*
X50281Y-35102D01*
X50276Y-35079D01*
X50268Y-35058D01*
X50255Y-35038D01*
X50238Y-35022D01*
X50225Y-35013D01*
X50238Y-35005D01*
X50255Y-34988D01*
X50268Y-34969D01*
X50276Y-34947D01*
X50281Y-34925D01*
X50281Y-34901D01*
X50281Y-34602D01*
X50276Y-34579D01*
X50268Y-34558D01*
X50255Y-34538D01*
X50238Y-34522D01*
X50225Y-34513D01*
X50238Y-34505D01*
X50255Y-34488D01*
X50268Y-34469D01*
X50276Y-34447D01*
X50281Y-34425D01*
X50281Y-34421D01*
X50508Y-34421D01*
X50508Y-35106D01*
X50508Y-35106D01*
G37*
G54D11*
X50508Y-35106D02*
X50281Y-35106D01*
X50281Y-35102D01*
X50276Y-35079D01*
X50268Y-35058D01*
X50255Y-35038D01*
X50238Y-35022D01*
X50225Y-35013D01*
X50238Y-35005D01*
X50255Y-34988D01*
X50268Y-34969D01*
X50276Y-34947D01*
X50281Y-34925D01*
X50281Y-34901D01*
X50281Y-34602D01*
X50276Y-34579D01*
X50268Y-34558D01*
X50255Y-34538D01*
X50238Y-34522D01*
X50225Y-34513D01*
X50238Y-34505D01*
X50255Y-34488D01*
X50268Y-34469D01*
X50276Y-34447D01*
X50281Y-34425D01*
X50281Y-34421D01*
X50508Y-34421D01*
X50508Y-35106D01*
G54D10*
G36*
X54685Y-38935D02*
X54684Y-38936D01*
X54683Y-38937D01*
X54445Y-38937D01*
X54445Y-37828D01*
X54434Y-37652D01*
X54389Y-37480D01*
X54312Y-37321D01*
X54274Y-37266D01*
X54165Y-37175D01*
X54162Y-37178D01*
X54162Y-37172D01*
X54072Y-37063D01*
X53919Y-36974D01*
X53752Y-36916D01*
X53576Y-36893D01*
X53400Y-36903D01*
X53228Y-36948D01*
X53069Y-37026D01*
X53014Y-37063D01*
X52923Y-37172D01*
X53543Y-37792D01*
X54162Y-37172D01*
X54162Y-37178D01*
X53546Y-37795D01*
X54165Y-38414D01*
X54274Y-38324D01*
X54363Y-38171D01*
X54421Y-38004D01*
X54445Y-37828D01*
X54445Y-38937D01*
X54162Y-38937D01*
X54162Y-38417D01*
X53543Y-37798D01*
X53540Y-37800D01*
X53540Y-37795D01*
X52920Y-37175D01*
X52811Y-37266D01*
X52722Y-37419D01*
X52665Y-37586D01*
X52641Y-37761D01*
X52651Y-37938D01*
X52697Y-38109D01*
X52774Y-38268D01*
X52811Y-38324D01*
X52920Y-38414D01*
X53540Y-37795D01*
X53540Y-37800D01*
X52923Y-38417D01*
X53014Y-38526D01*
X53167Y-38615D01*
X53334Y-38673D01*
X53509Y-38697D01*
X53686Y-38686D01*
X53857Y-38641D01*
X54016Y-38563D01*
X54072Y-38526D01*
X54162Y-38417D01*
X54162Y-38937D01*
X49029Y-38937D01*
X49029Y-34425D01*
X49029Y-34401D01*
X49029Y-34102D01*
X49029Y-29700D01*
X49029Y-29677D01*
X49029Y-29378D01*
X49024Y-29355D01*
X49016Y-29333D01*
X49009Y-29324D01*
X49009Y-25934D01*
X49009Y-25802D01*
X49009Y-25749D01*
X49009Y-25616D01*
X49006Y-25597D01*
X48998Y-25579D01*
X48987Y-25563D01*
X48974Y-25549D01*
X48958Y-25538D01*
X48940Y-25531D01*
X48921Y-25527D01*
X48901Y-25527D01*
X48613Y-25527D01*
X48588Y-25552D01*
X48588Y-25773D01*
X48985Y-25773D01*
X49009Y-25749D01*
X49009Y-25802D01*
X48985Y-25777D01*
X48588Y-25777D01*
X48588Y-25999D01*
X48613Y-26023D01*
X48901Y-26023D01*
X48921Y-26023D01*
X48940Y-26019D01*
X48958Y-26012D01*
X48974Y-26001D01*
X48987Y-25987D01*
X48998Y-25971D01*
X49006Y-25953D01*
X49009Y-25934D01*
X49009Y-29324D01*
X49003Y-29314D01*
X48986Y-29298D01*
X48967Y-29285D01*
X48945Y-29276D01*
X48923Y-29271D01*
X48899Y-29271D01*
X48584Y-29271D01*
X48584Y-25999D01*
X48584Y-25777D01*
X48584Y-25773D01*
X48584Y-25552D01*
X48560Y-25527D01*
X48271Y-25527D01*
X48252Y-25527D01*
X48233Y-25531D01*
X48215Y-25538D01*
X48199Y-25549D01*
X48185Y-25563D01*
X48174Y-25579D01*
X48167Y-25597D01*
X48163Y-25616D01*
X48163Y-25749D01*
X48187Y-25773D01*
X48584Y-25773D01*
X48584Y-25777D01*
X48187Y-25777D01*
X48163Y-25802D01*
X48163Y-25934D01*
X48167Y-25953D01*
X48174Y-25971D01*
X48185Y-25987D01*
X48199Y-26001D01*
X48215Y-26012D01*
X48233Y-26019D01*
X48252Y-26023D01*
X48271Y-26023D01*
X48560Y-26023D01*
X48584Y-25999D01*
X48584Y-29271D01*
X48250Y-29271D01*
X48227Y-29276D01*
X48205Y-29285D01*
X48186Y-29298D01*
X48170Y-29314D01*
X48157Y-29333D01*
X48148Y-29355D01*
X48143Y-29378D01*
X48143Y-29381D01*
X47881Y-29381D01*
X47867Y-29383D01*
X47852Y-29384D01*
X47852Y-29384D01*
X47851Y-29384D01*
X47837Y-29389D01*
X47823Y-29393D01*
X47822Y-29393D01*
X47821Y-29393D01*
X47809Y-29400D01*
X47796Y-29407D01*
X47795Y-29407D01*
X47794Y-29408D01*
X47783Y-29417D01*
X47772Y-29426D01*
X47770Y-29427D01*
X47770Y-29427D01*
X47770Y-29427D01*
X47770Y-29428D01*
X47368Y-29829D01*
X47359Y-29840D01*
X47350Y-29851D01*
X47349Y-29852D01*
X47349Y-29853D01*
X47342Y-29866D01*
X47335Y-29878D01*
X47335Y-29879D01*
X47334Y-29880D01*
X47330Y-29894D01*
X47326Y-29908D01*
X47326Y-29909D01*
X47325Y-29909D01*
X47324Y-29924D01*
X47322Y-29938D01*
X47322Y-29940D01*
X47322Y-29940D01*
X47322Y-29940D01*
X47322Y-29940D01*
X47322Y-36450D01*
X47316Y-36456D01*
X44710Y-36456D01*
X44688Y-36433D01*
X44688Y-36338D01*
X44801Y-36338D01*
X44824Y-36334D01*
X44845Y-36325D01*
X44865Y-36312D01*
X44881Y-36295D01*
X44894Y-36276D01*
X44903Y-36254D01*
X44907Y-36232D01*
X44907Y-36208D01*
X44907Y-36161D01*
X46811Y-36161D01*
X46825Y-36159D01*
X46839Y-36158D01*
X46840Y-36158D01*
X46841Y-36158D01*
X46855Y-36154D01*
X46869Y-36150D01*
X46870Y-36149D01*
X46871Y-36149D01*
X46883Y-36142D01*
X46896Y-36136D01*
X46897Y-36135D01*
X46898Y-36135D01*
X46909Y-36125D01*
X46920Y-36116D01*
X46921Y-36115D01*
X46921Y-36115D01*
X46922Y-36115D01*
X46922Y-36115D01*
X47020Y-36016D01*
X47030Y-36005D01*
X47039Y-35994D01*
X47039Y-35993D01*
X47040Y-35993D01*
X47047Y-35980D01*
X47054Y-35967D01*
X47054Y-35966D01*
X47054Y-35966D01*
X47059Y-35952D01*
X47063Y-35938D01*
X47063Y-35937D01*
X47063Y-35936D01*
X47065Y-35922D01*
X47066Y-35907D01*
X47066Y-35906D01*
X47066Y-35906D01*
X47066Y-35906D01*
X47066Y-35905D01*
X47066Y-25537D01*
X47671Y-24933D01*
X48143Y-24933D01*
X48143Y-24936D01*
X48148Y-24959D01*
X48157Y-24981D01*
X48170Y-25000D01*
X48186Y-25016D01*
X48205Y-25029D01*
X48227Y-25038D01*
X48250Y-25043D01*
X48273Y-25043D01*
X48923Y-25043D01*
X48945Y-25038D01*
X48967Y-25029D01*
X48986Y-25016D01*
X49003Y-25000D01*
X49016Y-24981D01*
X49024Y-24959D01*
X49029Y-24936D01*
X49029Y-24913D01*
X49029Y-24614D01*
X49024Y-24591D01*
X49016Y-24570D01*
X49003Y-24550D01*
X48986Y-24534D01*
X48967Y-24521D01*
X48945Y-24512D01*
X48923Y-24507D01*
X48899Y-24507D01*
X48250Y-24507D01*
X48227Y-24512D01*
X48205Y-24521D01*
X48186Y-24534D01*
X48170Y-24550D01*
X48157Y-24570D01*
X48148Y-24591D01*
X48143Y-24614D01*
X48143Y-24618D01*
X47606Y-24618D01*
X47591Y-24619D01*
X47577Y-24620D01*
X47576Y-24621D01*
X47575Y-24621D01*
X47561Y-24625D01*
X47547Y-24629D01*
X47547Y-24629D01*
X47546Y-24629D01*
X47533Y-24636D01*
X47520Y-24643D01*
X47519Y-24644D01*
X47519Y-24644D01*
X47507Y-24653D01*
X47496Y-24662D01*
X47495Y-24663D01*
X47495Y-24663D01*
X47495Y-24663D01*
X47494Y-24664D01*
X46798Y-25361D01*
X46788Y-25372D01*
X46779Y-25383D01*
X46779Y-25384D01*
X46778Y-25384D01*
X46771Y-25397D01*
X46764Y-25410D01*
X46764Y-25411D01*
X46764Y-25411D01*
X46759Y-25425D01*
X46755Y-25439D01*
X46755Y-25440D01*
X46755Y-25441D01*
X46753Y-25455D01*
X46751Y-25470D01*
X46751Y-25471D01*
X46751Y-25471D01*
X46751Y-25471D01*
X46751Y-25472D01*
X46751Y-35840D01*
X46745Y-35846D01*
X46259Y-35846D01*
X46259Y-33326D01*
X46259Y-33307D01*
X46259Y-32900D01*
X46259Y-32847D01*
X46259Y-32440D01*
X46259Y-32421D01*
X46256Y-32402D01*
X46248Y-32384D01*
X46237Y-32368D01*
X46224Y-32354D01*
X46208Y-32343D01*
X46190Y-32336D01*
X46171Y-32332D01*
X45676Y-32332D01*
X45651Y-32357D01*
X45651Y-32872D01*
X46235Y-32872D01*
X46259Y-32847D01*
X46259Y-32900D01*
X46235Y-32875D01*
X45651Y-32875D01*
X45651Y-33390D01*
X45676Y-33415D01*
X46171Y-33415D01*
X46190Y-33411D01*
X46208Y-33404D01*
X46224Y-33393D01*
X46237Y-33379D01*
X46248Y-33363D01*
X46256Y-33345D01*
X46259Y-33326D01*
X46259Y-35846D01*
X45647Y-35846D01*
X45647Y-33390D01*
X45647Y-32875D01*
X45647Y-32872D01*
X45647Y-32357D01*
X45623Y-32332D01*
X45128Y-32332D01*
X45109Y-32336D01*
X45091Y-32343D01*
X45075Y-32354D01*
X45061Y-32368D01*
X45050Y-32384D01*
X45043Y-32402D01*
X45039Y-32421D01*
X45039Y-32440D01*
X45039Y-32847D01*
X45063Y-32872D01*
X45647Y-32872D01*
X45647Y-32875D01*
X45063Y-32875D01*
X45039Y-32900D01*
X45039Y-33307D01*
X45039Y-33326D01*
X45043Y-33345D01*
X45050Y-33363D01*
X45061Y-33379D01*
X45075Y-33393D01*
X45091Y-33404D01*
X45109Y-33411D01*
X45128Y-33415D01*
X45623Y-33415D01*
X45647Y-33390D01*
X45647Y-35846D01*
X44907Y-35846D01*
X44907Y-35775D01*
X44903Y-35752D01*
X44894Y-35731D01*
X44881Y-35712D01*
X44865Y-35695D01*
X44845Y-35682D01*
X44824Y-35673D01*
X44801Y-35669D01*
X44778Y-35669D01*
X44660Y-35669D01*
X44637Y-35673D01*
X44630Y-35676D01*
X44624Y-35673D01*
X44601Y-35669D01*
X44578Y-35669D01*
X44460Y-35669D01*
X44437Y-35673D01*
X44415Y-35682D01*
X44404Y-35690D01*
X44399Y-35688D01*
X44357Y-35688D01*
X44332Y-35713D01*
X44332Y-36001D01*
X44340Y-36001D01*
X44340Y-36005D01*
X44332Y-36005D01*
X44332Y-36294D01*
X44357Y-36318D01*
X44373Y-36318D01*
X44373Y-36499D01*
X44374Y-36513D01*
X44375Y-36528D01*
X44376Y-36528D01*
X44376Y-36529D01*
X44380Y-36543D01*
X44384Y-36557D01*
X44384Y-36558D01*
X44385Y-36559D01*
X44391Y-36572D01*
X44398Y-36584D01*
X44399Y-36585D01*
X44399Y-36586D01*
X44408Y-36597D01*
X44417Y-36609D01*
X44418Y-36610D01*
X44418Y-36610D01*
X44418Y-36610D01*
X44419Y-36610D01*
X44534Y-36725D01*
X44545Y-36734D01*
X44556Y-36744D01*
X44557Y-36744D01*
X44558Y-36745D01*
X44570Y-36751D01*
X44583Y-36758D01*
X44584Y-36759D01*
X44585Y-36759D01*
X44599Y-36763D01*
X44612Y-36768D01*
X44613Y-36768D01*
X44614Y-36768D01*
X44628Y-36770D01*
X44643Y-36771D01*
X44645Y-36771D01*
X44645Y-36771D01*
X44645Y-36771D01*
X44645Y-36771D01*
X47381Y-36771D01*
X47396Y-36770D01*
X47410Y-36768D01*
X47411Y-36768D01*
X47412Y-36768D01*
X47426Y-36764D01*
X47440Y-36760D01*
X47441Y-36760D01*
X47441Y-36759D01*
X47454Y-36752D01*
X47467Y-36746D01*
X47468Y-36745D01*
X47469Y-36745D01*
X47480Y-36736D01*
X47491Y-36727D01*
X47492Y-36725D01*
X47492Y-36725D01*
X47492Y-36725D01*
X47493Y-36725D01*
X47591Y-36627D01*
X47600Y-36615D01*
X47610Y-36604D01*
X47610Y-36603D01*
X47611Y-36603D01*
X47618Y-36590D01*
X47625Y-36577D01*
X47625Y-36576D01*
X47625Y-36576D01*
X47629Y-36562D01*
X47634Y-36548D01*
X47634Y-36547D01*
X47634Y-36546D01*
X47636Y-36532D01*
X47637Y-36517D01*
X47637Y-36516D01*
X47637Y-36516D01*
X47637Y-36516D01*
X47637Y-36515D01*
X47637Y-30006D01*
X47947Y-29696D01*
X48143Y-29696D01*
X48143Y-29700D01*
X48148Y-29723D01*
X48157Y-29744D01*
X48170Y-29764D01*
X48186Y-29780D01*
X48205Y-29793D01*
X48227Y-29802D01*
X48250Y-29807D01*
X48273Y-29807D01*
X48923Y-29807D01*
X48945Y-29802D01*
X48967Y-29793D01*
X48986Y-29780D01*
X49003Y-29764D01*
X49016Y-29744D01*
X49024Y-29723D01*
X49029Y-29700D01*
X49029Y-34102D01*
X49024Y-34079D01*
X49016Y-34058D01*
X49009Y-34048D01*
X49009Y-30698D01*
X49009Y-30565D01*
X49009Y-30512D01*
X49009Y-30380D01*
X49006Y-30361D01*
X48998Y-30343D01*
X48987Y-30327D01*
X48974Y-30313D01*
X48958Y-30302D01*
X48940Y-30295D01*
X48921Y-30291D01*
X48901Y-30291D01*
X48613Y-30291D01*
X48588Y-30315D01*
X48588Y-30537D01*
X48985Y-30537D01*
X49009Y-30512D01*
X49009Y-30565D01*
X48985Y-30541D01*
X48588Y-30541D01*
X48588Y-30762D01*
X48613Y-30787D01*
X48901Y-30787D01*
X48921Y-30787D01*
X48940Y-30783D01*
X48958Y-30776D01*
X48974Y-30765D01*
X48987Y-30751D01*
X48998Y-30735D01*
X49006Y-30717D01*
X49009Y-30698D01*
X49009Y-34048D01*
X49003Y-34038D01*
X48986Y-34022D01*
X48967Y-34009D01*
X48945Y-34000D01*
X48923Y-33996D01*
X48899Y-33996D01*
X48584Y-33996D01*
X48584Y-30762D01*
X48584Y-30541D01*
X48584Y-30537D01*
X48584Y-30315D01*
X48560Y-30291D01*
X48271Y-30291D01*
X48252Y-30291D01*
X48233Y-30295D01*
X48215Y-30302D01*
X48199Y-30313D01*
X48185Y-30327D01*
X48174Y-30343D01*
X48167Y-30361D01*
X48163Y-30380D01*
X48163Y-30512D01*
X48187Y-30537D01*
X48584Y-30537D01*
X48584Y-30541D01*
X48187Y-30541D01*
X48163Y-30565D01*
X48163Y-30698D01*
X48167Y-30717D01*
X48174Y-30735D01*
X48185Y-30751D01*
X48199Y-30765D01*
X48215Y-30776D01*
X48233Y-30783D01*
X48252Y-30787D01*
X48271Y-30787D01*
X48560Y-30787D01*
X48584Y-30762D01*
X48584Y-33996D01*
X48250Y-33996D01*
X48227Y-34000D01*
X48205Y-34009D01*
X48186Y-34022D01*
X48170Y-34038D01*
X48157Y-34058D01*
X48148Y-34079D01*
X48143Y-34102D01*
X48143Y-34106D01*
X48098Y-34106D01*
X48083Y-34107D01*
X48069Y-34108D01*
X48068Y-34109D01*
X48067Y-34109D01*
X48053Y-34113D01*
X48039Y-34117D01*
X48039Y-34117D01*
X48038Y-34118D01*
X48025Y-34125D01*
X48012Y-34131D01*
X48012Y-34132D01*
X48011Y-34132D01*
X47999Y-34141D01*
X47988Y-34150D01*
X47987Y-34152D01*
X47987Y-34152D01*
X47987Y-34152D01*
X47987Y-34152D01*
X47841Y-34298D01*
X47832Y-34309D01*
X47822Y-34320D01*
X47822Y-34321D01*
X47821Y-34321D01*
X47815Y-34334D01*
X47808Y-34347D01*
X47807Y-34348D01*
X47807Y-34348D01*
X47803Y-34362D01*
X47798Y-34376D01*
X47798Y-34377D01*
X47798Y-34378D01*
X47796Y-34392D01*
X47795Y-34407D01*
X47795Y-34408D01*
X47795Y-34408D01*
X47795Y-34408D01*
X47795Y-34409D01*
X47795Y-36745D01*
X47611Y-36929D01*
X44140Y-36929D01*
X44088Y-36877D01*
X44088Y-36338D01*
X44201Y-36338D01*
X44224Y-36334D01*
X44245Y-36325D01*
X44256Y-36317D01*
X44261Y-36318D01*
X44304Y-36318D01*
X44328Y-36294D01*
X44328Y-36005D01*
X44320Y-36005D01*
X44320Y-36001D01*
X44328Y-36001D01*
X44328Y-35713D01*
X44304Y-35688D01*
X44286Y-35688D01*
X44285Y-35676D01*
X44285Y-35675D01*
X44285Y-35674D01*
X44280Y-35661D01*
X44276Y-35647D01*
X44276Y-35646D01*
X44276Y-35645D01*
X44269Y-35632D01*
X44262Y-35619D01*
X44262Y-35619D01*
X44261Y-35618D01*
X44252Y-35607D01*
X44243Y-35595D01*
X44242Y-35594D01*
X44242Y-35594D01*
X44242Y-35594D01*
X44242Y-35594D01*
X44205Y-35557D01*
X44194Y-35548D01*
X44183Y-35539D01*
X44182Y-35538D01*
X44182Y-35538D01*
X44169Y-35531D01*
X44156Y-35524D01*
X44155Y-35524D01*
X44155Y-35523D01*
X44141Y-35519D01*
X44127Y-35515D01*
X44126Y-35515D01*
X44125Y-35514D01*
X44111Y-35513D01*
X44096Y-35511D01*
X44095Y-35511D01*
X44095Y-35511D01*
X44095Y-35511D01*
X44094Y-35511D01*
X43442Y-35511D01*
X43444Y-35500D01*
X43444Y-35477D01*
X43444Y-35471D01*
X44174Y-35471D01*
X44188Y-35470D01*
X44203Y-35468D01*
X44203Y-35468D01*
X44204Y-35468D01*
X44218Y-35464D01*
X44232Y-35460D01*
X44233Y-35459D01*
X44234Y-35459D01*
X44247Y-35452D01*
X44259Y-35446D01*
X44260Y-35445D01*
X44261Y-35445D01*
X44272Y-35435D01*
X44284Y-35426D01*
X44285Y-35425D01*
X44285Y-35425D01*
X44285Y-35425D01*
X44285Y-35425D01*
X44835Y-34875D01*
X44844Y-34863D01*
X44854Y-34852D01*
X44854Y-34852D01*
X44855Y-34851D01*
X44862Y-34838D01*
X44869Y-34825D01*
X44869Y-34825D01*
X44869Y-34824D01*
X44874Y-34810D01*
X44878Y-34796D01*
X44878Y-34795D01*
X44878Y-34794D01*
X44880Y-34780D01*
X44881Y-34765D01*
X44881Y-34764D01*
X44881Y-34764D01*
X44881Y-34764D01*
X44881Y-34763D01*
X44881Y-34435D01*
X44888Y-34426D01*
X44897Y-34404D01*
X44901Y-34381D01*
X44901Y-34358D01*
X44901Y-33925D01*
X44897Y-33902D01*
X44888Y-33881D01*
X44875Y-33861D01*
X44858Y-33845D01*
X44839Y-33832D01*
X44817Y-33823D01*
X44795Y-33818D01*
X44771Y-33818D01*
X44685Y-33818D01*
X44685Y-33608D01*
X44796Y-33497D01*
X44805Y-33485D01*
X44814Y-33474D01*
X44815Y-33474D01*
X44815Y-33473D01*
X44822Y-33460D01*
X44829Y-33447D01*
X44830Y-33447D01*
X44830Y-33446D01*
X44834Y-33432D01*
X44839Y-33418D01*
X44839Y-33417D01*
X44839Y-33416D01*
X44840Y-33402D01*
X44842Y-33388D01*
X44842Y-33386D01*
X44842Y-33386D01*
X44842Y-33386D01*
X44842Y-33385D01*
X44842Y-31915D01*
X44986Y-31771D01*
X45019Y-31771D01*
X45019Y-32068D01*
X45024Y-32091D01*
X45033Y-32113D01*
X45046Y-32132D01*
X45062Y-32148D01*
X45081Y-32161D01*
X45103Y-32170D01*
X45126Y-32175D01*
X45149Y-32175D01*
X46173Y-32175D01*
X46195Y-32170D01*
X46217Y-32161D01*
X46236Y-32148D01*
X46253Y-32132D01*
X46266Y-32113D01*
X46274Y-32091D01*
X46279Y-32068D01*
X46279Y-32045D01*
X46279Y-31159D01*
X46274Y-31136D01*
X46266Y-31115D01*
X46253Y-31095D01*
X46236Y-31079D01*
X46217Y-31066D01*
X46195Y-31057D01*
X46173Y-31053D01*
X46149Y-31053D01*
X45904Y-31053D01*
X45904Y-30276D01*
X45904Y-30253D01*
X45904Y-29893D01*
X45899Y-29870D01*
X45890Y-29849D01*
X45877Y-29829D01*
X45861Y-29813D01*
X45841Y-29800D01*
X45820Y-29791D01*
X45797Y-29786D01*
X45774Y-29786D01*
X45414Y-29786D01*
X45391Y-29791D01*
X45369Y-29800D01*
X45350Y-29813D01*
X45334Y-29829D01*
X45321Y-29849D01*
X45312Y-29870D01*
X45307Y-29893D01*
X45307Y-29916D01*
X45307Y-30276D01*
X45312Y-30299D01*
X45321Y-30320D01*
X45334Y-30340D01*
X45350Y-30356D01*
X45369Y-30369D01*
X45391Y-30378D01*
X45414Y-30383D01*
X45437Y-30383D01*
X45448Y-30383D01*
X45448Y-30431D01*
X45417Y-30461D01*
X45385Y-30455D01*
X45327Y-30454D01*
X45271Y-30465D01*
X45217Y-30487D01*
X45169Y-30518D01*
X45128Y-30558D01*
X45096Y-30606D01*
X45073Y-30658D01*
X45061Y-30715D01*
X45060Y-30772D01*
X45071Y-30829D01*
X45092Y-30882D01*
X45123Y-30930D01*
X45163Y-30972D01*
X45210Y-31005D01*
X45263Y-31028D01*
X45319Y-31040D01*
X45376Y-31041D01*
X45433Y-31031D01*
X45487Y-31010D01*
X45535Y-30980D01*
X45577Y-30940D01*
X45610Y-30893D01*
X45633Y-30840D01*
X45646Y-30784D01*
X45647Y-30719D01*
X45640Y-30684D01*
X45717Y-30607D01*
X45726Y-30596D01*
X45735Y-30585D01*
X45736Y-30584D01*
X45736Y-30584D01*
X45743Y-30571D01*
X45750Y-30558D01*
X45750Y-30557D01*
X45751Y-30556D01*
X45755Y-30543D01*
X45759Y-30529D01*
X45760Y-30528D01*
X45760Y-30527D01*
X45761Y-30513D01*
X45763Y-30498D01*
X45763Y-30497D01*
X45763Y-30497D01*
X45763Y-30496D01*
X45763Y-30496D01*
X45763Y-30383D01*
X45797Y-30383D01*
X45820Y-30378D01*
X45841Y-30369D01*
X45861Y-30356D01*
X45877Y-30340D01*
X45890Y-30320D01*
X45899Y-30299D01*
X45904Y-30276D01*
X45904Y-31053D01*
X45126Y-31053D01*
X45103Y-31057D01*
X45081Y-31066D01*
X45062Y-31079D01*
X45046Y-31095D01*
X45033Y-31115D01*
X45024Y-31136D01*
X45019Y-31159D01*
X45019Y-31182D01*
X45019Y-31456D01*
X44921Y-31456D01*
X44906Y-31458D01*
X44892Y-31459D01*
X44891Y-31459D01*
X44890Y-31459D01*
X44876Y-31463D01*
X44862Y-31467D01*
X44862Y-31468D01*
X44861Y-31468D01*
X44848Y-31475D01*
X44835Y-31482D01*
X44834Y-31482D01*
X44834Y-31483D01*
X44822Y-31492D01*
X44811Y-31501D01*
X44810Y-31502D01*
X44810Y-31502D01*
X44810Y-31502D01*
X44809Y-31502D01*
X44573Y-31739D01*
X44564Y-31750D01*
X44555Y-31761D01*
X44554Y-31762D01*
X44554Y-31762D01*
X44547Y-31775D01*
X44540Y-31788D01*
X44540Y-31789D01*
X44539Y-31789D01*
X44535Y-31803D01*
X44531Y-31817D01*
X44530Y-31818D01*
X44530Y-31819D01*
X44529Y-31833D01*
X44527Y-31848D01*
X44527Y-31849D01*
X44527Y-31849D01*
X44527Y-31849D01*
X44527Y-31850D01*
X44527Y-33320D01*
X44416Y-33431D01*
X44410Y-33439D01*
X44382Y-33411D01*
X44386Y-33408D01*
X44402Y-33392D01*
X44415Y-33372D01*
X44424Y-33351D01*
X44429Y-33328D01*
X44429Y-33305D01*
X44429Y-32419D01*
X44424Y-32396D01*
X44415Y-32375D01*
X44402Y-32355D01*
X44386Y-32339D01*
X44366Y-32326D01*
X44345Y-32317D01*
X44322Y-32312D01*
X44299Y-32312D01*
X43275Y-32312D01*
X43252Y-32317D01*
X43231Y-32326D01*
X43212Y-32339D01*
X43195Y-32355D01*
X43182Y-32375D01*
X43173Y-32396D01*
X43169Y-32419D01*
X43169Y-32442D01*
X43169Y-33328D01*
X43173Y-33351D01*
X43182Y-33372D01*
X43195Y-33392D01*
X43212Y-33408D01*
X43231Y-33421D01*
X43252Y-33430D01*
X43275Y-33435D01*
X43299Y-33435D01*
X43418Y-33435D01*
X43406Y-33439D01*
X43358Y-33471D01*
X43317Y-33511D01*
X43285Y-33558D01*
X43262Y-33611D01*
X43250Y-33667D01*
X43249Y-33725D01*
X43260Y-33781D01*
X43281Y-33835D01*
X43312Y-33883D01*
X43352Y-33925D01*
X43399Y-33957D01*
X43452Y-33980D01*
X43508Y-33993D01*
X43565Y-33994D01*
X43622Y-33984D01*
X43676Y-33963D01*
X43724Y-33932D01*
X43766Y-33893D01*
X43771Y-33886D01*
X43764Y-33902D01*
X43759Y-33925D01*
X43759Y-33948D01*
X43759Y-33996D01*
X43681Y-33996D01*
X43666Y-33997D01*
X43652Y-33998D01*
X43651Y-33998D01*
X43650Y-33999D01*
X43636Y-34003D01*
X43622Y-34007D01*
X43621Y-34007D01*
X43621Y-34007D01*
X43608Y-34014D01*
X43595Y-34021D01*
X43594Y-34021D01*
X43593Y-34022D01*
X43582Y-34031D01*
X43571Y-34040D01*
X43570Y-34041D01*
X43570Y-34041D01*
X43570Y-34041D01*
X43569Y-34042D01*
X43517Y-34094D01*
X42249Y-34094D01*
X42256Y-34087D01*
X42269Y-34068D01*
X42278Y-34047D01*
X42282Y-34024D01*
X42282Y-34000D01*
X42282Y-33650D01*
X42278Y-33628D01*
X42269Y-33606D01*
X42256Y-33587D01*
X42240Y-33570D01*
X42220Y-33557D01*
X42199Y-33549D01*
X42176Y-33544D01*
X42153Y-33544D01*
X41603Y-33544D01*
X41580Y-33549D01*
X41558Y-33557D01*
X41539Y-33570D01*
X41523Y-33587D01*
X41510Y-33606D01*
X41501Y-33628D01*
X41496Y-33650D01*
X41496Y-33674D01*
X41496Y-33680D01*
X41298Y-33680D01*
X41298Y-33650D01*
X41294Y-33628D01*
X41285Y-33606D01*
X41272Y-33587D01*
X41255Y-33570D01*
X41236Y-33557D01*
X41214Y-33549D01*
X41192Y-33544D01*
X41168Y-33544D01*
X41062Y-33544D01*
X41062Y-33267D01*
X41061Y-33253D01*
X41060Y-33238D01*
X41060Y-33237D01*
X41059Y-33237D01*
X41055Y-33223D01*
X41051Y-33209D01*
X41051Y-33208D01*
X41051Y-33207D01*
X41044Y-33194D01*
X41037Y-33181D01*
X41037Y-33181D01*
X41036Y-33180D01*
X41027Y-33169D01*
X41018Y-33157D01*
X41017Y-33156D01*
X41017Y-33156D01*
X41017Y-33156D01*
X41016Y-33156D01*
X40570Y-32710D01*
X40570Y-31399D01*
X40591Y-31391D01*
X40656Y-31350D01*
X40712Y-31297D01*
X40756Y-31234D01*
X40773Y-31196D01*
X40974Y-31196D01*
X41502Y-31725D01*
X41514Y-31734D01*
X41525Y-31744D01*
X41525Y-31744D01*
X41526Y-31745D01*
X41539Y-31751D01*
X41552Y-31758D01*
X41552Y-31759D01*
X41553Y-31759D01*
X41567Y-31763D01*
X41581Y-31768D01*
X41582Y-31768D01*
X41583Y-31768D01*
X41597Y-31770D01*
X41611Y-31771D01*
X41613Y-31771D01*
X41613Y-31771D01*
X41613Y-31771D01*
X41614Y-31771D01*
X43169Y-31771D01*
X43169Y-32068D01*
X43173Y-32091D01*
X43182Y-32113D01*
X43195Y-32132D01*
X43212Y-32148D01*
X43231Y-32161D01*
X43252Y-32170D01*
X43275Y-32175D01*
X43299Y-32175D01*
X44322Y-32175D01*
X44345Y-32170D01*
X44366Y-32161D01*
X44386Y-32148D01*
X44402Y-32132D01*
X44415Y-32113D01*
X44424Y-32091D01*
X44429Y-32068D01*
X44429Y-32045D01*
X44429Y-31159D01*
X44424Y-31136D01*
X44415Y-31115D01*
X44402Y-31095D01*
X44386Y-31079D01*
X44366Y-31066D01*
X44345Y-31057D01*
X44322Y-31053D01*
X44299Y-31053D01*
X43956Y-31053D01*
X43956Y-31043D01*
X43955Y-31028D01*
X43954Y-31014D01*
X43953Y-31013D01*
X43953Y-31012D01*
X43950Y-31001D01*
X43998Y-31002D01*
X44055Y-30992D01*
X44109Y-30971D01*
X44157Y-30940D01*
X44199Y-30901D01*
X44232Y-30854D01*
X44255Y-30801D01*
X44268Y-30745D01*
X44269Y-30679D01*
X44258Y-30623D01*
X44236Y-30570D01*
X44204Y-30522D01*
X44164Y-30481D01*
X44129Y-30458D01*
X44129Y-30383D01*
X44163Y-30383D01*
X44186Y-30378D01*
X44207Y-30369D01*
X44227Y-30356D01*
X44243Y-30340D01*
X44256Y-30320D01*
X44262Y-30306D01*
X44305Y-30335D01*
X44357Y-30358D01*
X44413Y-30371D01*
X44471Y-30372D01*
X44528Y-30362D01*
X44581Y-30341D01*
X44619Y-30317D01*
X44621Y-30320D01*
X44634Y-30340D01*
X44650Y-30356D01*
X44669Y-30369D01*
X44691Y-30378D01*
X44714Y-30383D01*
X44737Y-30383D01*
X45097Y-30383D01*
X45120Y-30378D01*
X45141Y-30369D01*
X45161Y-30356D01*
X45177Y-30340D01*
X45190Y-30320D01*
X45199Y-30299D01*
X45204Y-30276D01*
X45204Y-30253D01*
X45204Y-29893D01*
X45199Y-29870D01*
X45190Y-29849D01*
X45177Y-29829D01*
X45161Y-29813D01*
X45141Y-29800D01*
X45120Y-29791D01*
X45097Y-29786D01*
X45074Y-29786D01*
X45057Y-29786D01*
X45056Y-29782D01*
X45052Y-29768D01*
X45051Y-29767D01*
X45051Y-29767D01*
X45044Y-29754D01*
X45037Y-29741D01*
X45037Y-29740D01*
X45037Y-29740D01*
X45027Y-29728D01*
X45018Y-29717D01*
X45017Y-29716D01*
X45017Y-29716D01*
X45017Y-29716D01*
X45017Y-29715D01*
X44875Y-29573D01*
X44863Y-29564D01*
X44852Y-29555D01*
X44852Y-29554D01*
X44851Y-29554D01*
X44838Y-29547D01*
X44825Y-29540D01*
X44825Y-29540D01*
X44824Y-29539D01*
X44810Y-29535D01*
X44796Y-29531D01*
X44795Y-29530D01*
X44794Y-29530D01*
X44780Y-29529D01*
X44765Y-29527D01*
X44764Y-29527D01*
X44764Y-29527D01*
X44764Y-29527D01*
X44763Y-29527D01*
X44623Y-29527D01*
X44630Y-29523D01*
X44671Y-29483D01*
X44700Y-29442D01*
X44957Y-29442D01*
X44957Y-29476D01*
X44962Y-29499D01*
X44971Y-29520D01*
X44984Y-29540D01*
X45000Y-29556D01*
X45019Y-29569D01*
X45041Y-29578D01*
X45064Y-29583D01*
X45087Y-29583D01*
X45447Y-29583D01*
X45470Y-29578D01*
X45491Y-29569D01*
X45511Y-29556D01*
X45527Y-29540D01*
X45540Y-29520D01*
X45549Y-29499D01*
X45554Y-29476D01*
X45554Y-29453D01*
X45554Y-29093D01*
X45549Y-29070D01*
X45540Y-29049D01*
X45527Y-29029D01*
X45511Y-29013D01*
X45491Y-29000D01*
X45470Y-28991D01*
X45447Y-28986D01*
X45424Y-28986D01*
X45413Y-28986D01*
X45413Y-28982D01*
X45662Y-28733D01*
X45671Y-28722D01*
X45681Y-28711D01*
X45681Y-28710D01*
X45682Y-28709D01*
X45688Y-28696D01*
X45695Y-28684D01*
X45696Y-28683D01*
X45696Y-28682D01*
X45700Y-28668D01*
X45705Y-28654D01*
X45705Y-28653D01*
X45705Y-28653D01*
X45707Y-28638D01*
X45708Y-28624D01*
X45708Y-28622D01*
X45708Y-28622D01*
X45708Y-28622D01*
X45708Y-28622D01*
X45708Y-28384D01*
X45837Y-28384D01*
X45860Y-28380D01*
X45882Y-28371D01*
X45901Y-28358D01*
X45917Y-28341D01*
X45930Y-28322D01*
X45939Y-28300D01*
X45944Y-28278D01*
X45944Y-28254D01*
X45944Y-27904D01*
X45939Y-27882D01*
X45930Y-27860D01*
X45917Y-27841D01*
X45901Y-27824D01*
X45882Y-27811D01*
X45860Y-27802D01*
X45837Y-27798D01*
X45814Y-27798D01*
X45264Y-27798D01*
X45241Y-27802D01*
X45220Y-27811D01*
X45200Y-27824D01*
X45184Y-27841D01*
X45171Y-27860D01*
X45162Y-27882D01*
X45158Y-27904D01*
X45158Y-27928D01*
X45158Y-28278D01*
X45162Y-28300D01*
X45171Y-28322D01*
X45184Y-28341D01*
X45200Y-28358D01*
X45220Y-28371D01*
X45241Y-28380D01*
X45264Y-28384D01*
X45287Y-28384D01*
X45393Y-28384D01*
X45393Y-28556D01*
X45144Y-28805D01*
X45135Y-28817D01*
X45125Y-28828D01*
X45125Y-28829D01*
X45125Y-28829D01*
X45118Y-28842D01*
X45111Y-28855D01*
X45110Y-28856D01*
X45110Y-28856D01*
X45106Y-28870D01*
X45101Y-28884D01*
X45101Y-28885D01*
X45101Y-28886D01*
X45100Y-28900D01*
X45098Y-28915D01*
X45098Y-28916D01*
X45098Y-28916D01*
X45098Y-28916D01*
X45098Y-28917D01*
X45098Y-28986D01*
X45064Y-28986D01*
X45041Y-28991D01*
X45019Y-29000D01*
X45000Y-29013D01*
X44984Y-29029D01*
X44971Y-29049D01*
X44962Y-29070D01*
X44957Y-29093D01*
X44957Y-29116D01*
X44957Y-29127D01*
X44691Y-29127D01*
X44677Y-29105D01*
X44636Y-29064D01*
X44588Y-29032D01*
X44535Y-29009D01*
X44479Y-28998D01*
X44422Y-28998D01*
X44365Y-29008D01*
X44312Y-29030D01*
X44264Y-29061D01*
X44223Y-29102D01*
X44190Y-29149D01*
X44168Y-29202D01*
X44156Y-29258D01*
X44155Y-29315D01*
X44165Y-29372D01*
X44186Y-29425D01*
X44217Y-29474D01*
X44257Y-29515D01*
X44275Y-29527D01*
X43902Y-29527D01*
X43906Y-29520D01*
X43915Y-29499D01*
X43920Y-29476D01*
X43920Y-29453D01*
X43920Y-29093D01*
X43915Y-29070D01*
X43906Y-29049D01*
X43893Y-29029D01*
X43877Y-29013D01*
X43857Y-29000D01*
X43836Y-28991D01*
X43813Y-28986D01*
X43794Y-28986D01*
X43805Y-28976D01*
X44251Y-28976D01*
X44266Y-28974D01*
X44280Y-28973D01*
X44281Y-28973D01*
X44282Y-28973D01*
X44296Y-28969D01*
X44310Y-28965D01*
X44311Y-28964D01*
X44311Y-28964D01*
X44324Y-28957D01*
X44337Y-28950D01*
X44338Y-28950D01*
X44339Y-28950D01*
X44350Y-28940D01*
X44361Y-28931D01*
X44362Y-28930D01*
X44362Y-28930D01*
X44362Y-28930D01*
X44363Y-28930D01*
X44757Y-28536D01*
X44766Y-28525D01*
X44775Y-28514D01*
X44776Y-28513D01*
X44776Y-28512D01*
X44783Y-28499D01*
X44790Y-28487D01*
X44790Y-28486D01*
X44791Y-28485D01*
X44795Y-28471D01*
X44799Y-28457D01*
X44799Y-28457D01*
X44800Y-28456D01*
X44801Y-28441D01*
X44803Y-28427D01*
X44803Y-28425D01*
X44803Y-28425D01*
X44803Y-28425D01*
X44803Y-28425D01*
X44803Y-28384D01*
X44932Y-28384D01*
X44955Y-28380D01*
X44976Y-28371D01*
X44995Y-28358D01*
X45012Y-28341D01*
X45025Y-28322D01*
X45034Y-28300D01*
X45038Y-28278D01*
X45038Y-28254D01*
X45038Y-27904D01*
X45034Y-27882D01*
X45025Y-27860D01*
X45012Y-27841D01*
X44995Y-27824D01*
X44976Y-27811D01*
X44955Y-27802D01*
X44932Y-27798D01*
X44909Y-27798D01*
X44359Y-27798D01*
X44336Y-27802D01*
X44314Y-27811D01*
X44295Y-27824D01*
X44291Y-27828D01*
X44291Y-27604D01*
X44295Y-27608D01*
X44314Y-27621D01*
X44336Y-27630D01*
X44359Y-27634D01*
X44382Y-27634D01*
X44932Y-27634D01*
X44955Y-27630D01*
X44976Y-27621D01*
X44995Y-27608D01*
X45012Y-27591D01*
X45025Y-27572D01*
X45034Y-27550D01*
X45038Y-27528D01*
X45038Y-27504D01*
X45038Y-27499D01*
X45158Y-27499D01*
X45158Y-27528D01*
X45162Y-27550D01*
X45171Y-27572D01*
X45184Y-27591D01*
X45200Y-27608D01*
X45220Y-27621D01*
X45241Y-27630D01*
X45264Y-27634D01*
X45287Y-27634D01*
X45837Y-27634D01*
X45860Y-27630D01*
X45882Y-27621D01*
X45901Y-27608D01*
X45917Y-27591D01*
X45930Y-27572D01*
X45939Y-27550D01*
X45944Y-27528D01*
X45944Y-27504D01*
X45944Y-27499D01*
X46103Y-27499D01*
X46107Y-27505D01*
X46147Y-27547D01*
X46194Y-27579D01*
X46247Y-27602D01*
X46303Y-27615D01*
X46361Y-27616D01*
X46417Y-27606D01*
X46471Y-27585D01*
X46519Y-27554D01*
X46561Y-27515D01*
X46594Y-27468D01*
X46618Y-27415D01*
X46630Y-27359D01*
X46631Y-27294D01*
X46620Y-27237D01*
X46598Y-27184D01*
X46566Y-27136D01*
X46526Y-27095D01*
X46478Y-27063D01*
X46425Y-27041D01*
X46369Y-27029D01*
X46311Y-27029D01*
X46255Y-27040D01*
X46202Y-27061D01*
X46154Y-27093D01*
X46112Y-27133D01*
X46080Y-27180D01*
X46079Y-27184D01*
X46058Y-27184D01*
X46058Y-22953D01*
X46043Y-22877D01*
X46014Y-22806D01*
X45971Y-22742D01*
X45917Y-22687D01*
X45853Y-22644D01*
X45782Y-22614D01*
X45706Y-22599D01*
X45629Y-22598D01*
X45553Y-22613D01*
X45482Y-22642D01*
X45417Y-22684D01*
X45362Y-22738D01*
X45319Y-22801D01*
X45288Y-22872D01*
X45272Y-22948D01*
X45271Y-23025D01*
X45285Y-23101D01*
X45314Y-23172D01*
X45355Y-23237D01*
X45409Y-23292D01*
X45472Y-23336D01*
X45543Y-23367D01*
X45618Y-23384D01*
X45695Y-23385D01*
X45771Y-23372D01*
X45843Y-23344D01*
X45908Y-23303D01*
X45964Y-23250D01*
X46008Y-23187D01*
X46040Y-23116D01*
X46057Y-23041D01*
X46058Y-22953D01*
X46058Y-27184D01*
X45944Y-27184D01*
X45944Y-27154D01*
X45939Y-27132D01*
X45930Y-27110D01*
X45917Y-27091D01*
X45901Y-27074D01*
X45882Y-27061D01*
X45860Y-27052D01*
X45837Y-27048D01*
X45814Y-27048D01*
X45264Y-27048D01*
X45241Y-27052D01*
X45220Y-27061D01*
X45200Y-27074D01*
X45184Y-27091D01*
X45171Y-27110D01*
X45162Y-27132D01*
X45158Y-27154D01*
X45158Y-27178D01*
X45158Y-27184D01*
X45058Y-27184D01*
X45058Y-22953D01*
X45043Y-22877D01*
X45014Y-22806D01*
X44971Y-22742D01*
X44917Y-22687D01*
X44853Y-22644D01*
X44782Y-22614D01*
X44706Y-22599D01*
X44629Y-22598D01*
X44553Y-22613D01*
X44482Y-22642D01*
X44417Y-22684D01*
X44362Y-22738D01*
X44319Y-22801D01*
X44288Y-22872D01*
X44272Y-22948D01*
X44271Y-23025D01*
X44285Y-23101D01*
X44314Y-23172D01*
X44355Y-23237D01*
X44409Y-23292D01*
X44472Y-23336D01*
X44543Y-23367D01*
X44618Y-23384D01*
X44695Y-23385D01*
X44771Y-23372D01*
X44843Y-23344D01*
X44908Y-23303D01*
X44964Y-23250D01*
X45008Y-23187D01*
X45040Y-23116D01*
X45057Y-23041D01*
X45058Y-22953D01*
X45058Y-27184D01*
X45058Y-27184D01*
X45058Y-25520D01*
X45058Y-25497D01*
X45058Y-25147D01*
X45053Y-25124D01*
X45045Y-25102D01*
X45032Y-25083D01*
X45015Y-25066D01*
X44996Y-25053D01*
X44974Y-25045D01*
X44951Y-25040D01*
X44928Y-25040D01*
X44378Y-25040D01*
X44355Y-25045D01*
X44334Y-25053D01*
X44315Y-25066D01*
X44298Y-25083D01*
X44285Y-25102D01*
X44276Y-25124D01*
X44272Y-25147D01*
X44272Y-25170D01*
X44272Y-25176D01*
X44079Y-25176D01*
X44058Y-25154D01*
X44058Y-23278D01*
X44058Y-23255D01*
X44058Y-22705D01*
X44053Y-22682D01*
X44045Y-22661D01*
X44032Y-22641D01*
X44015Y-22625D01*
X43996Y-22612D01*
X43974Y-22603D01*
X43951Y-22599D01*
X43928Y-22599D01*
X43378Y-22599D01*
X43355Y-22603D01*
X43334Y-22612D01*
X43315Y-22625D01*
X43298Y-22641D01*
X43285Y-22661D01*
X43276Y-22682D01*
X43272Y-22705D01*
X43272Y-22728D01*
X43272Y-23278D01*
X43276Y-23301D01*
X43285Y-23323D01*
X43298Y-23342D01*
X43315Y-23358D01*
X43334Y-23371D01*
X43355Y-23380D01*
X43378Y-23385D01*
X43401Y-23385D01*
X43951Y-23385D01*
X43974Y-23380D01*
X43996Y-23371D01*
X44015Y-23358D01*
X44032Y-23342D01*
X44045Y-23323D01*
X44053Y-23301D01*
X44058Y-23278D01*
X44058Y-25154D01*
X43981Y-25077D01*
X43970Y-25068D01*
X43959Y-25059D01*
X43958Y-25058D01*
X43957Y-25058D01*
X43944Y-25051D01*
X43932Y-25044D01*
X43931Y-25043D01*
X43930Y-25043D01*
X43916Y-25039D01*
X43902Y-25034D01*
X43901Y-25034D01*
X43901Y-25034D01*
X43886Y-25033D01*
X43872Y-25031D01*
X43870Y-25031D01*
X43870Y-25031D01*
X43870Y-25031D01*
X43870Y-25031D01*
X43762Y-25031D01*
X43762Y-25027D01*
X43757Y-25004D01*
X43748Y-24983D01*
X43736Y-24963D01*
X43719Y-24947D01*
X43700Y-24934D01*
X43678Y-24925D01*
X43655Y-24920D01*
X43632Y-24920D01*
X43432Y-24920D01*
X43409Y-24925D01*
X43388Y-24934D01*
X43369Y-24947D01*
X43352Y-24963D01*
X43344Y-24975D01*
X43332Y-24962D01*
X43315Y-24951D01*
X43298Y-24944D01*
X43278Y-24940D01*
X43195Y-24940D01*
X43171Y-24965D01*
X43171Y-25187D01*
X43179Y-25187D01*
X43179Y-25190D01*
X43171Y-25190D01*
X43171Y-25412D01*
X43195Y-25437D01*
X43278Y-25437D01*
X43298Y-25433D01*
X43315Y-25426D01*
X43332Y-25415D01*
X43344Y-25402D01*
X43352Y-25414D01*
X43369Y-25430D01*
X43386Y-25442D01*
X43386Y-25504D01*
X43379Y-25511D01*
X42998Y-25511D01*
X42951Y-25465D01*
X42951Y-25442D01*
X42969Y-25430D01*
X42986Y-25414D01*
X42993Y-25402D01*
X43006Y-25415D01*
X43022Y-25426D01*
X43040Y-25433D01*
X43059Y-25437D01*
X43142Y-25437D01*
X43167Y-25412D01*
X43167Y-25190D01*
X43159Y-25190D01*
X43159Y-25187D01*
X43167Y-25187D01*
X43167Y-24965D01*
X43142Y-24940D01*
X43059Y-24940D01*
X43040Y-24944D01*
X43022Y-24951D01*
X43006Y-24962D01*
X42993Y-24975D01*
X42986Y-24963D01*
X42969Y-24947D01*
X42951Y-24935D01*
X42951Y-22853D01*
X42950Y-22838D01*
X42949Y-22824D01*
X42948Y-22823D01*
X42948Y-22822D01*
X42944Y-22808D01*
X42940Y-22794D01*
X42940Y-22794D01*
X42939Y-22793D01*
X42933Y-22780D01*
X42926Y-22767D01*
X42925Y-22766D01*
X42925Y-22766D01*
X42916Y-22754D01*
X42907Y-22743D01*
X42906Y-22742D01*
X42906Y-22742D01*
X42906Y-22742D01*
X42905Y-22741D01*
X42650Y-22487D01*
X42639Y-22477D01*
X42628Y-22468D01*
X42627Y-22468D01*
X42626Y-22467D01*
X42614Y-22460D01*
X42601Y-22453D01*
X42600Y-22453D01*
X42599Y-22453D01*
X42585Y-22448D01*
X42572Y-22444D01*
X42571Y-22444D01*
X42570Y-22444D01*
X42556Y-22442D01*
X42541Y-22440D01*
X42539Y-22440D01*
X42539Y-22440D01*
X42539Y-22440D01*
X42539Y-22440D01*
X41847Y-22440D01*
X41847Y-21293D01*
X41836Y-21116D01*
X41791Y-20945D01*
X41713Y-20786D01*
X41676Y-20730D01*
X41567Y-20640D01*
X41564Y-20643D01*
X41564Y-20637D01*
X41473Y-20528D01*
X41321Y-20439D01*
X41153Y-20381D01*
X40978Y-20357D01*
X40801Y-20368D01*
X40630Y-20413D01*
X40471Y-20491D01*
X40415Y-20528D01*
X40325Y-20637D01*
X40944Y-21257D01*
X41564Y-20637D01*
X41564Y-20643D01*
X40947Y-21259D01*
X41567Y-21879D01*
X41676Y-21788D01*
X41765Y-21636D01*
X41823Y-21468D01*
X41847Y-21293D01*
X41847Y-22440D01*
X41564Y-22440D01*
X41564Y-21882D01*
X40944Y-21262D01*
X40942Y-21265D01*
X40942Y-21259D01*
X40322Y-20640D01*
X40213Y-20730D01*
X40124Y-20883D01*
X40066Y-21051D01*
X40042Y-21226D01*
X40053Y-21403D01*
X40098Y-21574D01*
X40176Y-21733D01*
X40213Y-21788D01*
X40322Y-21879D01*
X40942Y-21259D01*
X40942Y-21265D01*
X40325Y-21882D01*
X40415Y-21991D01*
X40568Y-22080D01*
X40736Y-22138D01*
X40911Y-22161D01*
X41088Y-22151D01*
X41259Y-22106D01*
X41418Y-22028D01*
X41473Y-21991D01*
X41564Y-21882D01*
X41564Y-22440D01*
X40629Y-22440D01*
X40615Y-22442D01*
X40600Y-22443D01*
X40600Y-22443D01*
X40599Y-22443D01*
X40585Y-22448D01*
X40571Y-22452D01*
X40570Y-22452D01*
X40569Y-22452D01*
X40557Y-22459D01*
X40544Y-22466D01*
X40543Y-22466D01*
X40542Y-22467D01*
X40531Y-22476D01*
X40520Y-22485D01*
X40518Y-22486D01*
X40518Y-22486D01*
X40518Y-22486D01*
X40518Y-22487D01*
X40302Y-22703D01*
X40292Y-22714D01*
X40283Y-22725D01*
X40283Y-22726D01*
X40282Y-22727D01*
X40275Y-22740D01*
X40268Y-22752D01*
X40268Y-22753D01*
X40267Y-22754D01*
X40267Y-22756D01*
X40126Y-22756D01*
X40103Y-22761D01*
X40082Y-22769D01*
X40063Y-22782D01*
X40046Y-22799D01*
X40033Y-22818D01*
X40024Y-22840D01*
X40020Y-22862D01*
X40020Y-22886D01*
X40020Y-23436D01*
X40024Y-23459D01*
X40033Y-23480D01*
X40046Y-23499D01*
X40063Y-23516D01*
X40082Y-23529D01*
X40103Y-23538D01*
X40126Y-23542D01*
X40150Y-23542D01*
X40700Y-23542D01*
X40722Y-23538D01*
X40744Y-23529D01*
X40763Y-23516D01*
X40780Y-23499D01*
X40793Y-23480D01*
X40801Y-23459D01*
X40806Y-23436D01*
X40806Y-23412D01*
X40806Y-23307D01*
X41076Y-23307D01*
X41141Y-23372D01*
X41141Y-28753D01*
X41013Y-28881D01*
X40806Y-28881D01*
X40806Y-26111D01*
X40806Y-25111D01*
X40806Y-24111D01*
X40791Y-24035D01*
X40762Y-23964D01*
X40719Y-23899D01*
X40665Y-23845D01*
X40601Y-23802D01*
X40530Y-23772D01*
X40454Y-23756D01*
X40377Y-23756D01*
X40301Y-23770D01*
X40230Y-23799D01*
X40165Y-23841D01*
X40110Y-23895D01*
X40067Y-23959D01*
X40036Y-24030D01*
X40020Y-24105D01*
X40019Y-24182D01*
X40033Y-24258D01*
X40062Y-24330D01*
X40103Y-24394D01*
X40157Y-24450D01*
X40220Y-24494D01*
X40291Y-24525D01*
X40366Y-24541D01*
X40443Y-24543D01*
X40519Y-24530D01*
X40591Y-24502D01*
X40656Y-24460D01*
X40712Y-24407D01*
X40756Y-24344D01*
X40788Y-24274D01*
X40805Y-24199D01*
X40806Y-24111D01*
X40806Y-25111D01*
X40791Y-25035D01*
X40762Y-24964D01*
X40719Y-24899D01*
X40665Y-24845D01*
X40601Y-24802D01*
X40530Y-24772D01*
X40454Y-24756D01*
X40377Y-24756D01*
X40301Y-24770D01*
X40230Y-24799D01*
X40165Y-24841D01*
X40110Y-24895D01*
X40067Y-24959D01*
X40036Y-25030D01*
X40020Y-25105D01*
X40019Y-25182D01*
X40033Y-25258D01*
X40062Y-25330D01*
X40103Y-25394D01*
X40157Y-25450D01*
X40220Y-25494D01*
X40291Y-25525D01*
X40366Y-25541D01*
X40443Y-25543D01*
X40519Y-25530D01*
X40591Y-25502D01*
X40656Y-25460D01*
X40712Y-25407D01*
X40756Y-25344D01*
X40788Y-25274D01*
X40805Y-25199D01*
X40806Y-25111D01*
X40806Y-26111D01*
X40791Y-26035D01*
X40762Y-25964D01*
X40719Y-25899D01*
X40665Y-25845D01*
X40601Y-25802D01*
X40530Y-25772D01*
X40454Y-25756D01*
X40377Y-25756D01*
X40301Y-25770D01*
X40230Y-25799D01*
X40165Y-25841D01*
X40110Y-25895D01*
X40067Y-25959D01*
X40036Y-26030D01*
X40020Y-26105D01*
X40019Y-26182D01*
X40033Y-26258D01*
X40062Y-26330D01*
X40103Y-26394D01*
X40157Y-26450D01*
X40220Y-26494D01*
X40291Y-26525D01*
X40366Y-26541D01*
X40443Y-26543D01*
X40519Y-26530D01*
X40591Y-26502D01*
X40656Y-26460D01*
X40712Y-26407D01*
X40756Y-26344D01*
X40788Y-26274D01*
X40805Y-26199D01*
X40806Y-26111D01*
X40806Y-28881D01*
X40806Y-28881D01*
X40806Y-28752D01*
X40801Y-28729D01*
X40793Y-28708D01*
X40788Y-28701D01*
X40788Y-27162D01*
X40783Y-27088D01*
X40764Y-27017D01*
X40732Y-26951D01*
X40718Y-26930D01*
X40662Y-26903D01*
X40659Y-26905D01*
X40659Y-26900D01*
X40632Y-26844D01*
X40568Y-26808D01*
X40499Y-26784D01*
X40426Y-26774D01*
X40352Y-26779D01*
X40281Y-26798D01*
X40215Y-26830D01*
X40194Y-26844D01*
X40166Y-26900D01*
X40413Y-27146D01*
X40659Y-26900D01*
X40659Y-26905D01*
X40416Y-27149D01*
X40662Y-27396D01*
X40718Y-27368D01*
X40754Y-27304D01*
X40778Y-27235D01*
X40788Y-27162D01*
X40788Y-28701D01*
X40780Y-28689D01*
X40763Y-28672D01*
X40744Y-28659D01*
X40722Y-28650D01*
X40700Y-28646D01*
X40676Y-28646D01*
X40659Y-28646D01*
X40659Y-27398D01*
X40413Y-27152D01*
X40410Y-27155D01*
X40410Y-27149D01*
X40164Y-26903D01*
X40108Y-26930D01*
X40071Y-26994D01*
X40048Y-27063D01*
X40038Y-27136D01*
X40043Y-27210D01*
X40062Y-27281D01*
X40094Y-27347D01*
X40108Y-27368D01*
X40164Y-27396D01*
X40410Y-27149D01*
X40410Y-27155D01*
X40166Y-27398D01*
X40194Y-27454D01*
X40258Y-27491D01*
X40327Y-27514D01*
X40400Y-27524D01*
X40474Y-27519D01*
X40545Y-27500D01*
X40611Y-27468D01*
X40632Y-27454D01*
X40659Y-27398D01*
X40659Y-28646D01*
X40126Y-28646D01*
X40103Y-28650D01*
X40082Y-28659D01*
X40063Y-28672D01*
X40046Y-28689D01*
X40033Y-28708D01*
X40024Y-28729D01*
X40020Y-28752D01*
X40020Y-28776D01*
X40020Y-29326D01*
X40024Y-29348D01*
X40033Y-29370D01*
X40046Y-29389D01*
X40063Y-29406D01*
X40082Y-29419D01*
X40103Y-29427D01*
X40126Y-29432D01*
X40150Y-29432D01*
X40700Y-29432D01*
X40722Y-29427D01*
X40744Y-29419D01*
X40763Y-29406D01*
X40780Y-29389D01*
X40793Y-29370D01*
X40801Y-29348D01*
X40806Y-29326D01*
X40806Y-29302D01*
X40806Y-29196D01*
X41078Y-29196D01*
X41093Y-29195D01*
X41107Y-29194D01*
X41108Y-29193D01*
X41109Y-29193D01*
X41123Y-29189D01*
X41137Y-29185D01*
X41137Y-29185D01*
X41138Y-29184D01*
X41151Y-29178D01*
X41164Y-29171D01*
X41165Y-29170D01*
X41165Y-29170D01*
X41177Y-29161D01*
X41188Y-29152D01*
X41189Y-29151D01*
X41189Y-29151D01*
X41189Y-29151D01*
X41190Y-29150D01*
X41410Y-28930D01*
X41419Y-28919D01*
X41429Y-28907D01*
X41429Y-28907D01*
X41430Y-28906D01*
X41436Y-28893D01*
X41443Y-28880D01*
X41444Y-28880D01*
X41444Y-28879D01*
X41448Y-28865D01*
X41453Y-28851D01*
X41453Y-28850D01*
X41453Y-28850D01*
X41455Y-28835D01*
X41456Y-28821D01*
X41456Y-28819D01*
X41456Y-28819D01*
X41456Y-28819D01*
X41456Y-28818D01*
X41456Y-23307D01*
X41455Y-23292D01*
X41454Y-23278D01*
X41453Y-23277D01*
X41453Y-23276D01*
X41449Y-23262D01*
X41445Y-23248D01*
X41445Y-23247D01*
X41444Y-23247D01*
X41437Y-23234D01*
X41431Y-23221D01*
X41430Y-23220D01*
X41430Y-23219D01*
X41421Y-23208D01*
X41412Y-23197D01*
X41410Y-23196D01*
X41410Y-23196D01*
X41410Y-23196D01*
X41410Y-23195D01*
X41253Y-23038D01*
X41241Y-23029D01*
X41230Y-23019D01*
X41229Y-23019D01*
X41229Y-23018D01*
X41216Y-23011D01*
X41203Y-23004D01*
X41202Y-23004D01*
X41202Y-23004D01*
X41188Y-22999D01*
X41174Y-22995D01*
X41173Y-22995D01*
X41172Y-22995D01*
X41158Y-22993D01*
X41143Y-22992D01*
X41142Y-22992D01*
X41142Y-22992D01*
X41142Y-22992D01*
X41141Y-22992D01*
X40806Y-22992D01*
X40806Y-22862D01*
X40801Y-22840D01*
X40793Y-22818D01*
X40780Y-22799D01*
X40763Y-22782D01*
X40744Y-22769D01*
X40722Y-22761D01*
X40700Y-22756D01*
X40694Y-22756D01*
X40695Y-22755D01*
X42474Y-22755D01*
X42636Y-22918D01*
X42636Y-24935D01*
X42619Y-24947D01*
X42602Y-24963D01*
X42589Y-24983D01*
X42580Y-25004D01*
X42576Y-25027D01*
X42576Y-25050D01*
X42576Y-25350D01*
X42580Y-25373D01*
X42589Y-25394D01*
X42602Y-25414D01*
X42619Y-25430D01*
X42636Y-25442D01*
X42636Y-25530D01*
X42638Y-25544D01*
X42639Y-25559D01*
X42639Y-25560D01*
X42639Y-25561D01*
X42644Y-25575D01*
X42648Y-25588D01*
X42648Y-25589D01*
X42648Y-25590D01*
X42655Y-25603D01*
X42662Y-25616D01*
X42662Y-25616D01*
X42663Y-25617D01*
X42672Y-25628D01*
X42681Y-25640D01*
X42682Y-25641D01*
X42682Y-25641D01*
X42682Y-25641D01*
X42682Y-25641D01*
X42821Y-25780D01*
X42832Y-25789D01*
X42844Y-25799D01*
X42844Y-25799D01*
X42845Y-25800D01*
X42858Y-25807D01*
X42871Y-25814D01*
X42871Y-25814D01*
X42872Y-25814D01*
X42886Y-25818D01*
X42900Y-25823D01*
X42901Y-25823D01*
X42901Y-25823D01*
X42916Y-25825D01*
X42930Y-25826D01*
X42932Y-25826D01*
X42932Y-25826D01*
X42932Y-25826D01*
X42933Y-25826D01*
X43444Y-25826D01*
X43459Y-25825D01*
X43473Y-25824D01*
X43474Y-25823D01*
X43475Y-25823D01*
X43489Y-25819D01*
X43503Y-25815D01*
X43504Y-25815D01*
X43504Y-25814D01*
X43517Y-25808D01*
X43530Y-25801D01*
X43531Y-25800D01*
X43532Y-25800D01*
X43543Y-25791D01*
X43554Y-25782D01*
X43555Y-25781D01*
X43555Y-25781D01*
X43555Y-25781D01*
X43556Y-25780D01*
X43655Y-25681D01*
X43664Y-25669D01*
X43674Y-25658D01*
X43674Y-25658D01*
X43675Y-25657D01*
X43682Y-25644D01*
X43689Y-25631D01*
X43689Y-25631D01*
X43689Y-25630D01*
X43693Y-25616D01*
X43698Y-25602D01*
X43698Y-25601D01*
X43698Y-25601D01*
X43700Y-25586D01*
X43701Y-25572D01*
X43701Y-25570D01*
X43701Y-25570D01*
X43701Y-25570D01*
X43701Y-25569D01*
X43701Y-25442D01*
X43719Y-25430D01*
X43736Y-25414D01*
X43748Y-25394D01*
X43757Y-25373D01*
X43762Y-25350D01*
X43762Y-25346D01*
X43804Y-25346D01*
X43903Y-25445D01*
X43914Y-25454D01*
X43925Y-25463D01*
X43926Y-25463D01*
X43927Y-25464D01*
X43939Y-25471D01*
X43952Y-25478D01*
X43953Y-25478D01*
X43954Y-25479D01*
X43968Y-25483D01*
X43982Y-25487D01*
X43982Y-25487D01*
X43983Y-25488D01*
X43998Y-25489D01*
X44012Y-25491D01*
X44014Y-25491D01*
X44014Y-25491D01*
X44014Y-25491D01*
X44014Y-25491D01*
X44272Y-25491D01*
X44272Y-25520D01*
X44276Y-25543D01*
X44285Y-25564D01*
X44298Y-25583D01*
X44315Y-25600D01*
X44334Y-25613D01*
X44355Y-25622D01*
X44378Y-25626D01*
X44401Y-25626D01*
X44951Y-25626D01*
X44974Y-25622D01*
X44996Y-25613D01*
X45015Y-25600D01*
X45032Y-25583D01*
X45045Y-25564D01*
X45053Y-25543D01*
X45058Y-25520D01*
X45058Y-27184D01*
X45038Y-27184D01*
X45038Y-27154D01*
X45038Y-26268D01*
X45038Y-26110D01*
X45038Y-26057D01*
X45038Y-25898D01*
X45034Y-25879D01*
X45027Y-25862D01*
X45016Y-25845D01*
X45003Y-25832D01*
X44986Y-25821D01*
X44969Y-25814D01*
X44950Y-25810D01*
X44930Y-25810D01*
X44691Y-25810D01*
X44667Y-25834D01*
X44667Y-26081D01*
X45014Y-26081D01*
X45038Y-26057D01*
X45038Y-26110D01*
X45014Y-26085D01*
X44667Y-26085D01*
X44667Y-26332D01*
X44691Y-26357D01*
X44930Y-26357D01*
X44950Y-26357D01*
X44969Y-26353D01*
X44986Y-26345D01*
X45003Y-26335D01*
X45016Y-26321D01*
X45027Y-26305D01*
X45034Y-26287D01*
X45038Y-26268D01*
X45038Y-27154D01*
X45034Y-27132D01*
X45025Y-27110D01*
X45012Y-27091D01*
X44995Y-27074D01*
X44976Y-27061D01*
X44955Y-27052D01*
X44932Y-27048D01*
X44909Y-27048D01*
X44359Y-27048D01*
X44336Y-27052D01*
X44314Y-27061D01*
X44295Y-27074D01*
X44291Y-27078D01*
X44291Y-27038D01*
X44315Y-27023D01*
X44356Y-26983D01*
X44389Y-26936D01*
X44413Y-26884D01*
X44426Y-26828D01*
X44426Y-26762D01*
X44415Y-26706D01*
X44393Y-26653D01*
X44362Y-26605D01*
X44321Y-26564D01*
X44273Y-26532D01*
X44220Y-26509D01*
X44164Y-26498D01*
X44149Y-26498D01*
X44187Y-26483D01*
X44236Y-26452D01*
X44278Y-26412D01*
X44311Y-26365D01*
X44325Y-26333D01*
X44327Y-26335D01*
X44343Y-26345D01*
X44361Y-26353D01*
X44380Y-26357D01*
X44400Y-26357D01*
X44638Y-26357D01*
X44663Y-26332D01*
X44663Y-26085D01*
X44655Y-26085D01*
X44655Y-26081D01*
X44663Y-26081D01*
X44663Y-25834D01*
X44638Y-25810D01*
X44400Y-25810D01*
X44380Y-25810D01*
X44361Y-25814D01*
X44343Y-25821D01*
X44327Y-25832D01*
X44313Y-25845D01*
X44303Y-25862D01*
X44295Y-25879D01*
X44291Y-25898D01*
X44291Y-26047D01*
X44283Y-26034D01*
X44242Y-25993D01*
X44195Y-25961D01*
X44142Y-25939D01*
X44085Y-25927D01*
X44028Y-25927D01*
X43971Y-25937D01*
X43918Y-25959D01*
X43870Y-25990D01*
X43829Y-26031D01*
X43829Y-26031D01*
X43762Y-26031D01*
X43762Y-26027D01*
X43757Y-26004D01*
X43748Y-25983D01*
X43736Y-25963D01*
X43719Y-25947D01*
X43700Y-25934D01*
X43678Y-25925D01*
X43655Y-25920D01*
X43632Y-25920D01*
X43432Y-25920D01*
X43409Y-25925D01*
X43388Y-25934D01*
X43369Y-25947D01*
X43352Y-25963D01*
X43339Y-25983D01*
X43330Y-26004D01*
X43326Y-26027D01*
X43326Y-26050D01*
X43326Y-26350D01*
X43330Y-26373D01*
X43339Y-26394D01*
X43352Y-26414D01*
X43369Y-26430D01*
X43386Y-26442D01*
X43386Y-27048D01*
X43335Y-27048D01*
X43312Y-27052D01*
X43291Y-27061D01*
X43271Y-27074D01*
X43255Y-27091D01*
X43242Y-27110D01*
X43233Y-27132D01*
X43229Y-27153D01*
X43216Y-27177D01*
X43207Y-27206D01*
X43204Y-27237D01*
X43207Y-27267D01*
X43216Y-27297D01*
X43228Y-27321D01*
X43228Y-27528D01*
X43233Y-27550D01*
X43242Y-27572D01*
X43255Y-27591D01*
X43271Y-27608D01*
X43291Y-27621D01*
X43312Y-27630D01*
X43335Y-27634D01*
X43358Y-27634D01*
X43908Y-27634D01*
X43931Y-27630D01*
X43952Y-27621D01*
X43972Y-27608D01*
X43976Y-27604D01*
X43976Y-27858D01*
X43973Y-27853D01*
X43959Y-27840D01*
X43943Y-27829D01*
X43925Y-27821D01*
X43906Y-27818D01*
X43887Y-27818D01*
X43648Y-27818D01*
X43624Y-27842D01*
X43624Y-28089D01*
X43970Y-28089D01*
X43995Y-28064D01*
X43995Y-28046D01*
X44001Y-28058D01*
X44002Y-28058D01*
X44002Y-28059D01*
X44011Y-28070D01*
X44020Y-28082D01*
X44022Y-28083D01*
X44022Y-28083D01*
X44022Y-28083D01*
X44022Y-28083D01*
X44140Y-28201D01*
X44151Y-28211D01*
X44162Y-28220D01*
X44163Y-28220D01*
X44164Y-28221D01*
X44177Y-28228D01*
X44189Y-28235D01*
X44190Y-28235D01*
X44191Y-28235D01*
X44205Y-28240D01*
X44219Y-28244D01*
X44220Y-28244D01*
X44220Y-28244D01*
X44235Y-28246D01*
X44249Y-28248D01*
X44251Y-28248D01*
X44251Y-28248D01*
X44251Y-28248D01*
X44251Y-28248D01*
X44252Y-28248D01*
X44252Y-28278D01*
X44257Y-28300D01*
X44266Y-28322D01*
X44278Y-28341D01*
X44295Y-28358D01*
X44314Y-28371D01*
X44336Y-28380D01*
X44359Y-28384D01*
X44382Y-28384D01*
X44463Y-28384D01*
X44186Y-28661D01*
X43995Y-28661D01*
X43995Y-28276D01*
X43995Y-28118D01*
X43970Y-28093D01*
X43624Y-28093D01*
X43624Y-28340D01*
X43648Y-28364D01*
X43887Y-28364D01*
X43906Y-28364D01*
X43925Y-28361D01*
X43943Y-28353D01*
X43959Y-28342D01*
X43973Y-28329D01*
X43984Y-28313D01*
X43991Y-28295D01*
X43995Y-28276D01*
X43995Y-28661D01*
X43740Y-28661D01*
X43725Y-28662D01*
X43711Y-28664D01*
X43710Y-28664D01*
X43709Y-28664D01*
X43695Y-28668D01*
X43681Y-28672D01*
X43680Y-28673D01*
X43680Y-28673D01*
X43667Y-28680D01*
X43654Y-28686D01*
X43653Y-28687D01*
X43653Y-28687D01*
X43641Y-28696D01*
X43630Y-28705D01*
X43629Y-28707D01*
X43629Y-28707D01*
X43629Y-28707D01*
X43628Y-28707D01*
X43620Y-28716D01*
X43620Y-28340D01*
X43620Y-28093D01*
X43620Y-28089D01*
X43620Y-27842D01*
X43595Y-27818D01*
X43356Y-27818D01*
X43337Y-27818D01*
X43318Y-27821D01*
X43300Y-27829D01*
X43284Y-27840D01*
X43270Y-27853D01*
X43259Y-27869D01*
X43252Y-27887D01*
X43248Y-27906D01*
X43248Y-28064D01*
X43273Y-28089D01*
X43620Y-28089D01*
X43620Y-28093D01*
X43273Y-28093D01*
X43248Y-28118D01*
X43248Y-28276D01*
X43252Y-28295D01*
X43259Y-28313D01*
X43270Y-28329D01*
X43284Y-28342D01*
X43300Y-28353D01*
X43318Y-28361D01*
X43337Y-28364D01*
X43356Y-28364D01*
X43595Y-28364D01*
X43620Y-28340D01*
X43620Y-28716D01*
X43510Y-28825D01*
X43501Y-28836D01*
X43492Y-28848D01*
X43491Y-28848D01*
X43491Y-28849D01*
X43484Y-28862D01*
X43477Y-28874D01*
X43477Y-28875D01*
X43476Y-28876D01*
X43472Y-28890D01*
X43468Y-28904D01*
X43467Y-28905D01*
X43467Y-28905D01*
X43466Y-28920D01*
X43464Y-28934D01*
X43464Y-28936D01*
X43464Y-28936D01*
X43464Y-28936D01*
X43464Y-28937D01*
X43464Y-28986D01*
X43430Y-28986D01*
X43407Y-28991D01*
X43386Y-29000D01*
X43366Y-29013D01*
X43350Y-29029D01*
X43337Y-29049D01*
X43328Y-29070D01*
X43323Y-29093D01*
X43323Y-29116D01*
X43323Y-29476D01*
X43328Y-29499D01*
X43337Y-29520D01*
X43348Y-29538D01*
X43347Y-29538D01*
X43346Y-29539D01*
X43345Y-29539D01*
X43332Y-29546D01*
X43319Y-29552D01*
X43319Y-29553D01*
X43318Y-29553D01*
X43307Y-29563D01*
X43295Y-29572D01*
X43294Y-29573D01*
X43294Y-29573D01*
X43294Y-29573D01*
X43294Y-29573D01*
X43160Y-29707D01*
X43151Y-29718D01*
X43142Y-29729D01*
X43141Y-29730D01*
X43141Y-29730D01*
X43134Y-29743D01*
X43127Y-29756D01*
X43127Y-29757D01*
X43126Y-29757D01*
X43122Y-29771D01*
X43118Y-29785D01*
X43117Y-29786D01*
X43117Y-29786D01*
X43089Y-29786D01*
X43089Y-27528D01*
X43089Y-27504D01*
X43089Y-27154D01*
X43085Y-27132D01*
X43076Y-27110D01*
X43063Y-27091D01*
X43047Y-27074D01*
X43027Y-27061D01*
X43006Y-27052D01*
X42983Y-27048D01*
X42960Y-27048D01*
X42951Y-27048D01*
X42951Y-26442D01*
X42969Y-26430D01*
X42986Y-26414D01*
X42998Y-26394D01*
X43007Y-26373D01*
X43012Y-26350D01*
X43012Y-26327D01*
X43012Y-26027D01*
X43007Y-26004D01*
X42998Y-25983D01*
X42986Y-25963D01*
X42969Y-25947D01*
X42950Y-25934D01*
X42928Y-25925D01*
X42905Y-25920D01*
X42882Y-25920D01*
X42682Y-25920D01*
X42659Y-25925D01*
X42638Y-25934D01*
X42619Y-25947D01*
X42602Y-25963D01*
X42589Y-25983D01*
X42580Y-26004D01*
X42576Y-26027D01*
X42576Y-26050D01*
X42576Y-26350D01*
X42580Y-26373D01*
X42589Y-26394D01*
X42602Y-26414D01*
X42619Y-26430D01*
X42636Y-26442D01*
X42636Y-27048D01*
X42410Y-27048D01*
X42387Y-27052D01*
X42365Y-27061D01*
X42346Y-27074D01*
X42330Y-27091D01*
X42317Y-27110D01*
X42308Y-27132D01*
X42303Y-27154D01*
X42303Y-27178D01*
X42303Y-27528D01*
X42308Y-27550D01*
X42317Y-27572D01*
X42330Y-27591D01*
X42346Y-27608D01*
X42365Y-27621D01*
X42387Y-27630D01*
X42410Y-27634D01*
X42433Y-27634D01*
X42983Y-27634D01*
X43006Y-27630D01*
X43027Y-27621D01*
X43047Y-27608D01*
X43063Y-27591D01*
X43076Y-27572D01*
X43085Y-27550D01*
X43089Y-27528D01*
X43089Y-29786D01*
X43080Y-29786D01*
X43070Y-29788D01*
X43070Y-28276D01*
X43070Y-28118D01*
X43070Y-28064D01*
X43070Y-27906D01*
X43066Y-27887D01*
X43059Y-27869D01*
X43048Y-27853D01*
X43034Y-27840D01*
X43018Y-27829D01*
X43000Y-27821D01*
X42981Y-27818D01*
X42962Y-27818D01*
X42723Y-27818D01*
X42698Y-27842D01*
X42698Y-28089D01*
X43045Y-28089D01*
X43070Y-28064D01*
X43070Y-28118D01*
X43045Y-28093D01*
X42698Y-28093D01*
X42698Y-28340D01*
X42723Y-28364D01*
X42962Y-28364D01*
X42981Y-28364D01*
X43000Y-28361D01*
X43018Y-28353D01*
X43034Y-28342D01*
X43048Y-28329D01*
X43059Y-28313D01*
X43066Y-28295D01*
X43070Y-28276D01*
X43070Y-29788D01*
X43057Y-29791D01*
X43036Y-29800D01*
X43016Y-29813D01*
X43000Y-29829D01*
X42987Y-29849D01*
X42978Y-29870D01*
X42973Y-29893D01*
X42973Y-29916D01*
X42973Y-30276D01*
X42978Y-30299D01*
X42987Y-30320D01*
X43000Y-30340D01*
X43016Y-30356D01*
X43036Y-30369D01*
X43057Y-30378D01*
X43080Y-30383D01*
X43103Y-30383D01*
X43114Y-30383D01*
X43114Y-30516D01*
X43115Y-30530D01*
X43117Y-30545D01*
X43117Y-30545D01*
X43117Y-30546D01*
X43121Y-30560D01*
X43125Y-30574D01*
X43126Y-30575D01*
X43126Y-30576D01*
X43133Y-30588D01*
X43139Y-30601D01*
X43140Y-30602D01*
X43140Y-30603D01*
X43150Y-30614D01*
X43159Y-30625D01*
X43160Y-30627D01*
X43160Y-30627D01*
X43160Y-30627D01*
X43160Y-30627D01*
X43586Y-31053D01*
X43275Y-31053D01*
X43252Y-31057D01*
X43231Y-31066D01*
X43212Y-31079D01*
X43195Y-31095D01*
X43182Y-31115D01*
X43173Y-31136D01*
X43169Y-31159D01*
X43169Y-31182D01*
X43169Y-31456D01*
X42694Y-31456D01*
X42694Y-28340D01*
X42694Y-28093D01*
X42694Y-28089D01*
X42694Y-27842D01*
X42670Y-27818D01*
X42431Y-27818D01*
X42412Y-27818D01*
X42393Y-27821D01*
X42375Y-27829D01*
X42359Y-27840D01*
X42345Y-27853D01*
X42334Y-27869D01*
X42327Y-27887D01*
X42323Y-27906D01*
X42323Y-28064D01*
X42348Y-28089D01*
X42694Y-28089D01*
X42694Y-28093D01*
X42348Y-28093D01*
X42323Y-28118D01*
X42323Y-28276D01*
X42327Y-28295D01*
X42334Y-28313D01*
X42345Y-28329D01*
X42359Y-28342D01*
X42375Y-28353D01*
X42393Y-28361D01*
X42412Y-28364D01*
X42431Y-28364D01*
X42670Y-28364D01*
X42694Y-28340D01*
X42694Y-31456D01*
X41679Y-31456D01*
X41150Y-30928D01*
X41139Y-30918D01*
X41128Y-30909D01*
X41127Y-30909D01*
X41126Y-30908D01*
X41114Y-30901D01*
X41101Y-30894D01*
X41100Y-30894D01*
X41099Y-30893D01*
X41085Y-30889D01*
X41072Y-30885D01*
X41071Y-30885D01*
X41070Y-30884D01*
X41056Y-30883D01*
X41041Y-30881D01*
X41039Y-30881D01*
X41039Y-30881D01*
X41039Y-30881D01*
X41039Y-30881D01*
X40806Y-30881D01*
X40806Y-30000D01*
X40791Y-29925D01*
X40762Y-29853D01*
X40719Y-29789D01*
X40665Y-29735D01*
X40601Y-29691D01*
X40530Y-29662D01*
X40454Y-29646D01*
X40377Y-29645D01*
X40301Y-29660D01*
X40230Y-29689D01*
X40165Y-29731D01*
X40110Y-29785D01*
X40067Y-29849D01*
X40036Y-29919D01*
X40020Y-29995D01*
X40019Y-30072D01*
X40033Y-30148D01*
X40062Y-30219D01*
X40103Y-30284D01*
X40157Y-30340D01*
X40220Y-30384D01*
X40291Y-30415D01*
X40366Y-30431D01*
X40443Y-30433D01*
X40519Y-30419D01*
X40591Y-30391D01*
X40656Y-30350D01*
X40712Y-30297D01*
X40756Y-30234D01*
X40788Y-30164D01*
X40805Y-30088D01*
X40806Y-30000D01*
X40806Y-30881D01*
X40773Y-30881D01*
X40762Y-30853D01*
X40719Y-30789D01*
X40665Y-30735D01*
X40601Y-30691D01*
X40530Y-30662D01*
X40454Y-30646D01*
X40377Y-30645D01*
X40301Y-30660D01*
X40230Y-30689D01*
X40165Y-30731D01*
X40110Y-30785D01*
X40067Y-30849D01*
X40036Y-30919D01*
X40020Y-30995D01*
X40019Y-31072D01*
X40033Y-31148D01*
X40062Y-31219D01*
X40103Y-31284D01*
X40157Y-31340D01*
X40220Y-31384D01*
X40255Y-31399D01*
X40255Y-32775D01*
X40257Y-32790D01*
X40258Y-32804D01*
X40258Y-32805D01*
X40258Y-32806D01*
X40263Y-32820D01*
X40267Y-32834D01*
X40267Y-32834D01*
X40267Y-32835D01*
X40274Y-32848D01*
X40281Y-32861D01*
X40281Y-32862D01*
X40282Y-32862D01*
X40291Y-32874D01*
X40300Y-32885D01*
X40301Y-32886D01*
X40301Y-32886D01*
X40301Y-32886D01*
X40302Y-32886D01*
X40748Y-33332D01*
X40748Y-33544D01*
X40618Y-33544D01*
X40596Y-33549D01*
X40574Y-33557D01*
X40555Y-33570D01*
X40538Y-33587D01*
X40525Y-33606D01*
X40516Y-33628D01*
X40512Y-33650D01*
X40512Y-33674D01*
X40512Y-33680D01*
X40453Y-33680D01*
X40439Y-33681D01*
X40424Y-33682D01*
X40423Y-33683D01*
X40423Y-33683D01*
X40409Y-33687D01*
X40395Y-33691D01*
X40394Y-33691D01*
X40393Y-33692D01*
X40380Y-33698D01*
X40367Y-33705D01*
X40367Y-33706D01*
X40366Y-33706D01*
X40355Y-33715D01*
X40343Y-33724D01*
X40342Y-33725D01*
X40342Y-33725D01*
X40342Y-33725D01*
X40342Y-33726D01*
X40203Y-33865D01*
X40194Y-33876D01*
X40185Y-33887D01*
X40184Y-33888D01*
X40184Y-33888D01*
X40177Y-33901D01*
X40170Y-33914D01*
X40169Y-33915D01*
X40169Y-33915D01*
X40165Y-33929D01*
X40160Y-33943D01*
X40160Y-33944D01*
X40160Y-33945D01*
X40159Y-33959D01*
X40157Y-33974D01*
X40157Y-33975D01*
X40157Y-33975D01*
X40157Y-33975D01*
X40157Y-33976D01*
X40157Y-35039D01*
X40158Y-35053D01*
X40160Y-35068D01*
X40160Y-35069D01*
X40160Y-35069D01*
X40164Y-35083D01*
X40168Y-35097D01*
X40169Y-35098D01*
X40169Y-35099D01*
X40176Y-35112D01*
X40182Y-35125D01*
X40183Y-35125D01*
X40183Y-35126D01*
X40192Y-35137D01*
X40202Y-35149D01*
X40203Y-35150D01*
X40203Y-35150D01*
X40203Y-35150D01*
X40203Y-35150D01*
X40478Y-35425D01*
X40489Y-35434D01*
X40500Y-35443D01*
X40501Y-35444D01*
X40501Y-35444D01*
X40514Y-35451D01*
X40527Y-35458D01*
X40528Y-35458D01*
X40529Y-35459D01*
X40542Y-35463D01*
X40556Y-35468D01*
X40557Y-35468D01*
X40558Y-35468D01*
X40572Y-35469D01*
X40587Y-35471D01*
X40588Y-35471D01*
X40589Y-35471D01*
X40589Y-35471D01*
X40589Y-35471D01*
X42658Y-35471D01*
X42658Y-35500D01*
X42662Y-35523D01*
X42671Y-35544D01*
X42684Y-35564D01*
X42700Y-35580D01*
X42720Y-35593D01*
X42741Y-35602D01*
X42764Y-35607D01*
X42787Y-35607D01*
X42893Y-35607D01*
X42893Y-35610D01*
X42895Y-35624D01*
X42896Y-35639D01*
X42896Y-35639D01*
X42896Y-35640D01*
X42900Y-35654D01*
X42904Y-35668D01*
X42905Y-35669D01*
X42905Y-35670D01*
X42912Y-35683D01*
X42919Y-35696D01*
X42919Y-35696D01*
X42920Y-35697D01*
X42929Y-35708D01*
X42938Y-35720D01*
X42939Y-35721D01*
X42939Y-35721D01*
X42939Y-35721D01*
X42939Y-35721D01*
X42998Y-35780D01*
X43010Y-35789D01*
X43010Y-35790D01*
X42785Y-35790D01*
X42766Y-35790D01*
X42747Y-35794D01*
X42729Y-35801D01*
X42713Y-35812D01*
X42699Y-35826D01*
X42688Y-35842D01*
X42681Y-35860D01*
X42677Y-35879D01*
X42677Y-36037D01*
X42702Y-36062D01*
X43049Y-36062D01*
X43049Y-36054D01*
X43053Y-36054D01*
X43053Y-36062D01*
X43400Y-36062D01*
X43424Y-36037D01*
X43424Y-35879D01*
X43420Y-35860D01*
X43413Y-35842D01*
X43402Y-35826D01*
X43753Y-35826D01*
X43753Y-36232D01*
X43758Y-36254D01*
X43766Y-36276D01*
X43773Y-36285D01*
X43773Y-36942D01*
X43774Y-36957D01*
X43775Y-36971D01*
X43776Y-36972D01*
X43776Y-36973D01*
X43780Y-36987D01*
X43784Y-37001D01*
X43784Y-37001D01*
X43785Y-37002D01*
X43791Y-37015D01*
X43798Y-37028D01*
X43799Y-37028D01*
X43799Y-37029D01*
X43808Y-37040D01*
X43817Y-37052D01*
X43818Y-37053D01*
X43818Y-37053D01*
X43818Y-37053D01*
X43819Y-37053D01*
X43963Y-37197D01*
X43974Y-37207D01*
X43985Y-37216D01*
X43986Y-37216D01*
X43987Y-37217D01*
X44000Y-37224D01*
X44012Y-37231D01*
X44013Y-37231D01*
X44014Y-37232D01*
X44028Y-37236D01*
X44042Y-37240D01*
X44042Y-37240D01*
X44043Y-37240D01*
X44058Y-37242D01*
X44072Y-37244D01*
X44074Y-37244D01*
X44074Y-37244D01*
X44074Y-37244D01*
X44074Y-37244D01*
X47677Y-37244D01*
X47691Y-37242D01*
X47706Y-37241D01*
X47706Y-37241D01*
X47707Y-37241D01*
X47721Y-37236D01*
X47735Y-37232D01*
X47736Y-37232D01*
X47737Y-37232D01*
X47750Y-37225D01*
X47762Y-37218D01*
X47763Y-37218D01*
X47764Y-37217D01*
X47775Y-37208D01*
X47786Y-37199D01*
X47788Y-37198D01*
X47788Y-37198D01*
X47788Y-37198D01*
X47788Y-37197D01*
X48064Y-36922D01*
X48073Y-36911D01*
X48082Y-36899D01*
X48083Y-36899D01*
X48083Y-36898D01*
X48090Y-36885D01*
X48097Y-36873D01*
X48097Y-36872D01*
X48098Y-36871D01*
X48102Y-36857D01*
X48106Y-36843D01*
X48106Y-36842D01*
X48107Y-36842D01*
X48108Y-36827D01*
X48110Y-36813D01*
X48110Y-36811D01*
X48110Y-36811D01*
X48110Y-36811D01*
X48110Y-36811D01*
X48110Y-34474D01*
X48146Y-34438D01*
X48148Y-34447D01*
X48157Y-34469D01*
X48170Y-34488D01*
X48186Y-34505D01*
X48205Y-34518D01*
X48227Y-34526D01*
X48250Y-34531D01*
X48273Y-34531D01*
X48923Y-34531D01*
X48945Y-34526D01*
X48967Y-34518D01*
X48986Y-34505D01*
X49003Y-34488D01*
X49016Y-34469D01*
X49024Y-34447D01*
X49029Y-34425D01*
X49029Y-38937D01*
X49009Y-38937D01*
X49009Y-35423D01*
X49009Y-35290D01*
X49009Y-35237D01*
X49009Y-35104D01*
X49006Y-35085D01*
X48998Y-35067D01*
X48987Y-35051D01*
X48974Y-35037D01*
X48958Y-35026D01*
X48940Y-35019D01*
X48921Y-35015D01*
X48901Y-35015D01*
X48613Y-35015D01*
X48588Y-35040D01*
X48588Y-35261D01*
X48985Y-35261D01*
X49009Y-35237D01*
X49009Y-35290D01*
X48985Y-35265D01*
X48588Y-35265D01*
X48588Y-35487D01*
X48613Y-35511D01*
X48901Y-35511D01*
X48921Y-35511D01*
X48940Y-35508D01*
X48958Y-35500D01*
X48974Y-35489D01*
X48987Y-35476D01*
X48998Y-35460D01*
X49006Y-35442D01*
X49009Y-35423D01*
X49009Y-38937D01*
X48584Y-38937D01*
X48584Y-35487D01*
X48584Y-35265D01*
X48584Y-35261D01*
X48584Y-35040D01*
X48560Y-35015D01*
X48271Y-35015D01*
X48252Y-35015D01*
X48233Y-35019D01*
X48215Y-35026D01*
X48199Y-35037D01*
X48185Y-35051D01*
X48174Y-35067D01*
X48167Y-35085D01*
X48163Y-35104D01*
X48163Y-35237D01*
X48187Y-35261D01*
X48584Y-35261D01*
X48584Y-35265D01*
X48187Y-35265D01*
X48163Y-35290D01*
X48163Y-35423D01*
X48167Y-35442D01*
X48174Y-35460D01*
X48185Y-35476D01*
X48199Y-35489D01*
X48215Y-35500D01*
X48233Y-35508D01*
X48252Y-35511D01*
X48271Y-35511D01*
X48560Y-35511D01*
X48584Y-35487D01*
X48584Y-38937D01*
X43424Y-38937D01*
X43424Y-36248D01*
X43424Y-36090D01*
X43400Y-36065D01*
X43053Y-36065D01*
X43053Y-36312D01*
X43077Y-36337D01*
X43316Y-36337D01*
X43335Y-36337D01*
X43354Y-36333D01*
X43372Y-36326D01*
X43388Y-36315D01*
X43402Y-36301D01*
X43413Y-36285D01*
X43420Y-36267D01*
X43424Y-36248D01*
X43424Y-38937D01*
X43049Y-38937D01*
X43049Y-36312D01*
X43049Y-36065D01*
X42702Y-36065D01*
X42677Y-36090D01*
X42677Y-36248D01*
X42681Y-36267D01*
X42688Y-36285D01*
X42699Y-36301D01*
X42713Y-36315D01*
X42729Y-36326D01*
X42747Y-36333D01*
X42766Y-36337D01*
X42785Y-36337D01*
X43024Y-36337D01*
X43049Y-36312D01*
X43049Y-38937D01*
X41847Y-38937D01*
X41847Y-37828D01*
X41836Y-37652D01*
X41791Y-37480D01*
X41713Y-37321D01*
X41676Y-37266D01*
X41567Y-37175D01*
X41564Y-37178D01*
X41564Y-37172D01*
X41473Y-37063D01*
X41321Y-36974D01*
X41153Y-36916D01*
X40978Y-36893D01*
X40801Y-36903D01*
X40630Y-36948D01*
X40471Y-37026D01*
X40415Y-37063D01*
X40325Y-37172D01*
X40944Y-37792D01*
X41564Y-37172D01*
X41564Y-37178D01*
X40947Y-37795D01*
X41567Y-38414D01*
X41676Y-38324D01*
X41765Y-38171D01*
X41823Y-38004D01*
X41847Y-37828D01*
X41847Y-38937D01*
X41564Y-38937D01*
X41564Y-38417D01*
X40944Y-37798D01*
X40942Y-37800D01*
X40942Y-37795D01*
X40322Y-37175D01*
X40213Y-37266D01*
X40124Y-37419D01*
X40066Y-37586D01*
X40042Y-37761D01*
X40053Y-37938D01*
X40098Y-38109D01*
X40176Y-38268D01*
X40213Y-38324D01*
X40322Y-38414D01*
X40942Y-37795D01*
X40942Y-37800D01*
X40325Y-38417D01*
X40415Y-38526D01*
X40568Y-38615D01*
X40736Y-38673D01*
X40911Y-38697D01*
X41088Y-38686D01*
X41259Y-38641D01*
X41418Y-38563D01*
X41473Y-38526D01*
X41564Y-38417D01*
X41564Y-38937D01*
X39805Y-38937D01*
X39803Y-38936D01*
X39803Y-38935D01*
X39803Y-20120D01*
X39803Y-20118D01*
X39805Y-20118D01*
X54683Y-20118D01*
X54684Y-20118D01*
X54685Y-20120D01*
X54685Y-22437D01*
X54445Y-22437D01*
X54445Y-21293D01*
X54434Y-21116D01*
X54389Y-20945D01*
X54312Y-20786D01*
X54274Y-20730D01*
X54165Y-20640D01*
X54162Y-20643D01*
X54162Y-20637D01*
X54072Y-20528D01*
X53919Y-20439D01*
X53752Y-20381D01*
X53576Y-20357D01*
X53400Y-20368D01*
X53228Y-20413D01*
X53069Y-20491D01*
X53014Y-20528D01*
X52923Y-20637D01*
X53543Y-21257D01*
X54162Y-20637D01*
X54162Y-20643D01*
X53546Y-21259D01*
X54165Y-21879D01*
X54274Y-21788D01*
X54363Y-21636D01*
X54421Y-21468D01*
X54445Y-21293D01*
X54445Y-22437D01*
X54162Y-22437D01*
X54162Y-21882D01*
X53543Y-21262D01*
X53540Y-21265D01*
X53540Y-21259D01*
X52920Y-20640D01*
X52811Y-20730D01*
X52722Y-20883D01*
X52665Y-21051D01*
X52641Y-21226D01*
X52651Y-21403D01*
X52697Y-21574D01*
X52774Y-21733D01*
X52811Y-21788D01*
X52920Y-21879D01*
X53540Y-21259D01*
X53540Y-21265D01*
X52923Y-21882D01*
X53014Y-21991D01*
X53167Y-22080D01*
X53334Y-22138D01*
X53509Y-22161D01*
X53686Y-22151D01*
X53857Y-22106D01*
X54016Y-22028D01*
X54072Y-21991D01*
X54162Y-21882D01*
X54162Y-22437D01*
X50508Y-22437D01*
X50508Y-24618D01*
X50281Y-24618D01*
X50281Y-24614D01*
X50276Y-24591D01*
X50268Y-24570D01*
X50255Y-24550D01*
X50238Y-24534D01*
X50219Y-24521D01*
X50197Y-24512D01*
X50175Y-24507D01*
X50151Y-24507D01*
X49502Y-24507D01*
X49479Y-24512D01*
X49457Y-24521D01*
X49438Y-24534D01*
X49422Y-24550D01*
X49409Y-24570D01*
X49400Y-24591D01*
X49395Y-24614D01*
X49395Y-24637D01*
X49395Y-24936D01*
X49400Y-24959D01*
X49409Y-24981D01*
X49422Y-25000D01*
X49438Y-25016D01*
X49451Y-25025D01*
X49438Y-25034D01*
X49422Y-25050D01*
X49409Y-25070D01*
X49400Y-25091D01*
X49395Y-25114D01*
X49395Y-25137D01*
X49395Y-25436D01*
X49400Y-25459D01*
X49409Y-25481D01*
X49422Y-25500D01*
X49438Y-25516D01*
X49451Y-25525D01*
X49438Y-25534D01*
X49422Y-25550D01*
X49409Y-25570D01*
X49400Y-25591D01*
X49395Y-25614D01*
X49395Y-25637D01*
X49395Y-25936D01*
X49400Y-25959D01*
X49409Y-25981D01*
X49422Y-26000D01*
X49438Y-26016D01*
X49457Y-26029D01*
X49479Y-26038D01*
X49502Y-26043D01*
X49525Y-26043D01*
X50175Y-26043D01*
X50197Y-26038D01*
X50219Y-26029D01*
X50238Y-26016D01*
X50255Y-26000D01*
X50268Y-25981D01*
X50276Y-25959D01*
X50281Y-25936D01*
X50281Y-25933D01*
X50508Y-25933D01*
X50508Y-29381D01*
X50281Y-29381D01*
X50281Y-29378D01*
X50276Y-29355D01*
X50268Y-29333D01*
X50255Y-29314D01*
X50238Y-29298D01*
X50219Y-29285D01*
X50197Y-29276D01*
X50175Y-29271D01*
X50151Y-29271D01*
X49502Y-29271D01*
X49479Y-29276D01*
X49457Y-29285D01*
X49438Y-29298D01*
X49422Y-29314D01*
X49409Y-29333D01*
X49400Y-29355D01*
X49395Y-29378D01*
X49395Y-29401D01*
X49395Y-29700D01*
X49400Y-29723D01*
X49409Y-29744D01*
X49422Y-29764D01*
X49438Y-29780D01*
X49451Y-29789D01*
X49438Y-29798D01*
X49422Y-29814D01*
X49409Y-29833D01*
X49400Y-29855D01*
X49395Y-29878D01*
X49395Y-29901D01*
X49395Y-30200D01*
X49400Y-30223D01*
X49409Y-30244D01*
X49422Y-30264D01*
X49438Y-30280D01*
X49451Y-30289D01*
X49438Y-30298D01*
X49422Y-30314D01*
X49409Y-30333D01*
X49400Y-30355D01*
X49395Y-30378D01*
X49395Y-30401D01*
X49395Y-30700D01*
X49400Y-30723D01*
X49409Y-30744D01*
X49422Y-30764D01*
X49438Y-30780D01*
X49457Y-30793D01*
X49479Y-30802D01*
X49502Y-30807D01*
X49525Y-30807D01*
X50175Y-30807D01*
X50197Y-30802D01*
X50219Y-30793D01*
X50238Y-30780D01*
X50255Y-30764D01*
X50268Y-30744D01*
X50276Y-30723D01*
X50281Y-30700D01*
X50281Y-30696D01*
X50508Y-30696D01*
X50508Y-34106D01*
X50281Y-34106D01*
X50281Y-34102D01*
X50276Y-34079D01*
X50268Y-34058D01*
X50255Y-34038D01*
X50238Y-34022D01*
X50219Y-34009D01*
X50197Y-34000D01*
X50175Y-33996D01*
X50151Y-33996D01*
X49502Y-33996D01*
X49479Y-34000D01*
X49457Y-34009D01*
X49438Y-34022D01*
X49422Y-34038D01*
X49409Y-34058D01*
X49400Y-34079D01*
X49395Y-34102D01*
X49395Y-34125D01*
X49395Y-34425D01*
X49400Y-34447D01*
X49409Y-34469D01*
X49422Y-34488D01*
X49438Y-34505D01*
X49451Y-34513D01*
X49438Y-34522D01*
X49422Y-34538D01*
X49409Y-34558D01*
X49400Y-34579D01*
X49395Y-34602D01*
X49395Y-34625D01*
X49395Y-34925D01*
X49400Y-34947D01*
X49409Y-34969D01*
X49422Y-34988D01*
X49438Y-35005D01*
X49451Y-35013D01*
X49438Y-35022D01*
X49422Y-35038D01*
X49409Y-35058D01*
X49400Y-35079D01*
X49395Y-35102D01*
X49395Y-35125D01*
X49395Y-35425D01*
X49400Y-35447D01*
X49409Y-35469D01*
X49422Y-35488D01*
X49438Y-35505D01*
X49457Y-35518D01*
X49479Y-35526D01*
X49502Y-35531D01*
X49525Y-35531D01*
X50175Y-35531D01*
X50197Y-35526D01*
X50219Y-35518D01*
X50238Y-35505D01*
X50255Y-35488D01*
X50268Y-35469D01*
X50276Y-35447D01*
X50281Y-35425D01*
X50281Y-35421D01*
X50508Y-35421D01*
X50508Y-36617D01*
X50668Y-36617D01*
X50668Y-37362D01*
X52363Y-37362D01*
X52363Y-36617D01*
X54685Y-36617D01*
X54685Y-38935D01*
X54685Y-38935D01*
G37*
G54D11*
X54685Y-38935D02*
X54684Y-38936D01*
X54683Y-38937D01*
X54445Y-38937D01*
X54445Y-37828D01*
X54434Y-37652D01*
X54389Y-37480D01*
X54312Y-37321D01*
X54274Y-37266D01*
X54165Y-37175D01*
X54162Y-37178D01*
X54162Y-37172D01*
X54072Y-37063D01*
X53919Y-36974D01*
X53752Y-36916D01*
X53576Y-36893D01*
X53400Y-36903D01*
X53228Y-36948D01*
X53069Y-37026D01*
X53014Y-37063D01*
X52923Y-37172D01*
X53543Y-37792D01*
X54162Y-37172D01*
X54162Y-37178D01*
X53546Y-37795D01*
X54165Y-38414D01*
X54274Y-38324D01*
X54363Y-38171D01*
X54421Y-38004D01*
X54445Y-37828D01*
X54445Y-38937D01*
X54162Y-38937D01*
X54162Y-38417D01*
X53543Y-37798D01*
X53540Y-37800D01*
X53540Y-37795D01*
X52920Y-37175D01*
X52811Y-37266D01*
X52722Y-37419D01*
X52665Y-37586D01*
X52641Y-37761D01*
X52651Y-37938D01*
X52697Y-38109D01*
X52774Y-38268D01*
X52811Y-38324D01*
X52920Y-38414D01*
X53540Y-37795D01*
X53540Y-37800D01*
X52923Y-38417D01*
X53014Y-38526D01*
X53167Y-38615D01*
X53334Y-38673D01*
X53509Y-38697D01*
X53686Y-38686D01*
X53857Y-38641D01*
X54016Y-38563D01*
X54072Y-38526D01*
X54162Y-38417D01*
X54162Y-38937D01*
X49029Y-38937D01*
X49029Y-34425D01*
X49029Y-34401D01*
X49029Y-34102D01*
X49029Y-29700D01*
X49029Y-29677D01*
X49029Y-29378D01*
X49024Y-29355D01*
X49016Y-29333D01*
X49009Y-29324D01*
X49009Y-25934D01*
X49009Y-25802D01*
X49009Y-25749D01*
X49009Y-25616D01*
X49006Y-25597D01*
X48998Y-25579D01*
X48987Y-25563D01*
X48974Y-25549D01*
X48958Y-25538D01*
X48940Y-25531D01*
X48921Y-25527D01*
X48901Y-25527D01*
X48613Y-25527D01*
X48588Y-25552D01*
X48588Y-25773D01*
X48985Y-25773D01*
X49009Y-25749D01*
X49009Y-25802D01*
X48985Y-25777D01*
X48588Y-25777D01*
X48588Y-25999D01*
X48613Y-26023D01*
X48901Y-26023D01*
X48921Y-26023D01*
X48940Y-26019D01*
X48958Y-26012D01*
X48974Y-26001D01*
X48987Y-25987D01*
X48998Y-25971D01*
X49006Y-25953D01*
X49009Y-25934D01*
X49009Y-29324D01*
X49003Y-29314D01*
X48986Y-29298D01*
X48967Y-29285D01*
X48945Y-29276D01*
X48923Y-29271D01*
X48899Y-29271D01*
X48584Y-29271D01*
X48584Y-25999D01*
X48584Y-25777D01*
X48584Y-25773D01*
X48584Y-25552D01*
X48560Y-25527D01*
X48271Y-25527D01*
X48252Y-25527D01*
X48233Y-25531D01*
X48215Y-25538D01*
X48199Y-25549D01*
X48185Y-25563D01*
X48174Y-25579D01*
X48167Y-25597D01*
X48163Y-25616D01*
X48163Y-25749D01*
X48187Y-25773D01*
X48584Y-25773D01*
X48584Y-25777D01*
X48187Y-25777D01*
X48163Y-25802D01*
X48163Y-25934D01*
X48167Y-25953D01*
X48174Y-25971D01*
X48185Y-25987D01*
X48199Y-26001D01*
X48215Y-26012D01*
X48233Y-26019D01*
X48252Y-26023D01*
X48271Y-26023D01*
X48560Y-26023D01*
X48584Y-25999D01*
X48584Y-29271D01*
X48250Y-29271D01*
X48227Y-29276D01*
X48205Y-29285D01*
X48186Y-29298D01*
X48170Y-29314D01*
X48157Y-29333D01*
X48148Y-29355D01*
X48143Y-29378D01*
X48143Y-29381D01*
X47881Y-29381D01*
X47867Y-29383D01*
X47852Y-29384D01*
X47852Y-29384D01*
X47851Y-29384D01*
X47837Y-29389D01*
X47823Y-29393D01*
X47822Y-29393D01*
X47821Y-29393D01*
X47809Y-29400D01*
X47796Y-29407D01*
X47795Y-29407D01*
X47794Y-29408D01*
X47783Y-29417D01*
X47772Y-29426D01*
X47770Y-29427D01*
X47770Y-29427D01*
X47770Y-29427D01*
X47770Y-29428D01*
X47368Y-29829D01*
X47359Y-29840D01*
X47350Y-29851D01*
X47349Y-29852D01*
X47349Y-29853D01*
X47342Y-29866D01*
X47335Y-29878D01*
X47335Y-29879D01*
X47334Y-29880D01*
X47330Y-29894D01*
X47326Y-29908D01*
X47326Y-29909D01*
X47325Y-29909D01*
X47324Y-29924D01*
X47322Y-29938D01*
X47322Y-29940D01*
X47322Y-29940D01*
X47322Y-29940D01*
X47322Y-29940D01*
X47322Y-36450D01*
X47316Y-36456D01*
X44710Y-36456D01*
X44688Y-36433D01*
X44688Y-36338D01*
X44801Y-36338D01*
X44824Y-36334D01*
X44845Y-36325D01*
X44865Y-36312D01*
X44881Y-36295D01*
X44894Y-36276D01*
X44903Y-36254D01*
X44907Y-36232D01*
X44907Y-36208D01*
X44907Y-36161D01*
X46811Y-36161D01*
X46825Y-36159D01*
X46839Y-36158D01*
X46840Y-36158D01*
X46841Y-36158D01*
X46855Y-36154D01*
X46869Y-36150D01*
X46870Y-36149D01*
X46871Y-36149D01*
X46883Y-36142D01*
X46896Y-36136D01*
X46897Y-36135D01*
X46898Y-36135D01*
X46909Y-36125D01*
X46920Y-36116D01*
X46921Y-36115D01*
X46921Y-36115D01*
X46922Y-36115D01*
X46922Y-36115D01*
X47020Y-36016D01*
X47030Y-36005D01*
X47039Y-35994D01*
X47039Y-35993D01*
X47040Y-35993D01*
X47047Y-35980D01*
X47054Y-35967D01*
X47054Y-35966D01*
X47054Y-35966D01*
X47059Y-35952D01*
X47063Y-35938D01*
X47063Y-35937D01*
X47063Y-35936D01*
X47065Y-35922D01*
X47066Y-35907D01*
X47066Y-35906D01*
X47066Y-35906D01*
X47066Y-35906D01*
X47066Y-35905D01*
X47066Y-25537D01*
X47671Y-24933D01*
X48143Y-24933D01*
X48143Y-24936D01*
X48148Y-24959D01*
X48157Y-24981D01*
X48170Y-25000D01*
X48186Y-25016D01*
X48205Y-25029D01*
X48227Y-25038D01*
X48250Y-25043D01*
X48273Y-25043D01*
X48923Y-25043D01*
X48945Y-25038D01*
X48967Y-25029D01*
X48986Y-25016D01*
X49003Y-25000D01*
X49016Y-24981D01*
X49024Y-24959D01*
X49029Y-24936D01*
X49029Y-24913D01*
X49029Y-24614D01*
X49024Y-24591D01*
X49016Y-24570D01*
X49003Y-24550D01*
X48986Y-24534D01*
X48967Y-24521D01*
X48945Y-24512D01*
X48923Y-24507D01*
X48899Y-24507D01*
X48250Y-24507D01*
X48227Y-24512D01*
X48205Y-24521D01*
X48186Y-24534D01*
X48170Y-24550D01*
X48157Y-24570D01*
X48148Y-24591D01*
X48143Y-24614D01*
X48143Y-24618D01*
X47606Y-24618D01*
X47591Y-24619D01*
X47577Y-24620D01*
X47576Y-24621D01*
X47575Y-24621D01*
X47561Y-24625D01*
X47547Y-24629D01*
X47547Y-24629D01*
X47546Y-24629D01*
X47533Y-24636D01*
X47520Y-24643D01*
X47519Y-24644D01*
X47519Y-24644D01*
X47507Y-24653D01*
X47496Y-24662D01*
X47495Y-24663D01*
X47495Y-24663D01*
X47495Y-24663D01*
X47494Y-24664D01*
X46798Y-25361D01*
X46788Y-25372D01*
X46779Y-25383D01*
X46779Y-25384D01*
X46778Y-25384D01*
X46771Y-25397D01*
X46764Y-25410D01*
X46764Y-25411D01*
X46764Y-25411D01*
X46759Y-25425D01*
X46755Y-25439D01*
X46755Y-25440D01*
X46755Y-25441D01*
X46753Y-25455D01*
X46751Y-25470D01*
X46751Y-25471D01*
X46751Y-25471D01*
X46751Y-25471D01*
X46751Y-25472D01*
X46751Y-35840D01*
X46745Y-35846D01*
X46259Y-35846D01*
X46259Y-33326D01*
X46259Y-33307D01*
X46259Y-32900D01*
X46259Y-32847D01*
X46259Y-32440D01*
X46259Y-32421D01*
X46256Y-32402D01*
X46248Y-32384D01*
X46237Y-32368D01*
X46224Y-32354D01*
X46208Y-32343D01*
X46190Y-32336D01*
X46171Y-32332D01*
X45676Y-32332D01*
X45651Y-32357D01*
X45651Y-32872D01*
X46235Y-32872D01*
X46259Y-32847D01*
X46259Y-32900D01*
X46235Y-32875D01*
X45651Y-32875D01*
X45651Y-33390D01*
X45676Y-33415D01*
X46171Y-33415D01*
X46190Y-33411D01*
X46208Y-33404D01*
X46224Y-33393D01*
X46237Y-33379D01*
X46248Y-33363D01*
X46256Y-33345D01*
X46259Y-33326D01*
X46259Y-35846D01*
X45647Y-35846D01*
X45647Y-33390D01*
X45647Y-32875D01*
X45647Y-32872D01*
X45647Y-32357D01*
X45623Y-32332D01*
X45128Y-32332D01*
X45109Y-32336D01*
X45091Y-32343D01*
X45075Y-32354D01*
X45061Y-32368D01*
X45050Y-32384D01*
X45043Y-32402D01*
X45039Y-32421D01*
X45039Y-32440D01*
X45039Y-32847D01*
X45063Y-32872D01*
X45647Y-32872D01*
X45647Y-32875D01*
X45063Y-32875D01*
X45039Y-32900D01*
X45039Y-33307D01*
X45039Y-33326D01*
X45043Y-33345D01*
X45050Y-33363D01*
X45061Y-33379D01*
X45075Y-33393D01*
X45091Y-33404D01*
X45109Y-33411D01*
X45128Y-33415D01*
X45623Y-33415D01*
X45647Y-33390D01*
X45647Y-35846D01*
X44907Y-35846D01*
X44907Y-35775D01*
X44903Y-35752D01*
X44894Y-35731D01*
X44881Y-35712D01*
X44865Y-35695D01*
X44845Y-35682D01*
X44824Y-35673D01*
X44801Y-35669D01*
X44778Y-35669D01*
X44660Y-35669D01*
X44637Y-35673D01*
X44630Y-35676D01*
X44624Y-35673D01*
X44601Y-35669D01*
X44578Y-35669D01*
X44460Y-35669D01*
X44437Y-35673D01*
X44415Y-35682D01*
X44404Y-35690D01*
X44399Y-35688D01*
X44357Y-35688D01*
X44332Y-35713D01*
X44332Y-36001D01*
X44340Y-36001D01*
X44340Y-36005D01*
X44332Y-36005D01*
X44332Y-36294D01*
X44357Y-36318D01*
X44373Y-36318D01*
X44373Y-36499D01*
X44374Y-36513D01*
X44375Y-36528D01*
X44376Y-36528D01*
X44376Y-36529D01*
X44380Y-36543D01*
X44384Y-36557D01*
X44384Y-36558D01*
X44385Y-36559D01*
X44391Y-36572D01*
X44398Y-36584D01*
X44399Y-36585D01*
X44399Y-36586D01*
X44408Y-36597D01*
X44417Y-36609D01*
X44418Y-36610D01*
X44418Y-36610D01*
X44418Y-36610D01*
X44419Y-36610D01*
X44534Y-36725D01*
X44545Y-36734D01*
X44556Y-36744D01*
X44557Y-36744D01*
X44558Y-36745D01*
X44570Y-36751D01*
X44583Y-36758D01*
X44584Y-36759D01*
X44585Y-36759D01*
X44599Y-36763D01*
X44612Y-36768D01*
X44613Y-36768D01*
X44614Y-36768D01*
X44628Y-36770D01*
X44643Y-36771D01*
X44645Y-36771D01*
X44645Y-36771D01*
X44645Y-36771D01*
X44645Y-36771D01*
X47381Y-36771D01*
X47396Y-36770D01*
X47410Y-36768D01*
X47411Y-36768D01*
X47412Y-36768D01*
X47426Y-36764D01*
X47440Y-36760D01*
X47441Y-36760D01*
X47441Y-36759D01*
X47454Y-36752D01*
X47467Y-36746D01*
X47468Y-36745D01*
X47469Y-36745D01*
X47480Y-36736D01*
X47491Y-36727D01*
X47492Y-36725D01*
X47492Y-36725D01*
X47492Y-36725D01*
X47493Y-36725D01*
X47591Y-36627D01*
X47600Y-36615D01*
X47610Y-36604D01*
X47610Y-36603D01*
X47611Y-36603D01*
X47618Y-36590D01*
X47625Y-36577D01*
X47625Y-36576D01*
X47625Y-36576D01*
X47629Y-36562D01*
X47634Y-36548D01*
X47634Y-36547D01*
X47634Y-36546D01*
X47636Y-36532D01*
X47637Y-36517D01*
X47637Y-36516D01*
X47637Y-36516D01*
X47637Y-36516D01*
X47637Y-36515D01*
X47637Y-30006D01*
X47947Y-29696D01*
X48143Y-29696D01*
X48143Y-29700D01*
X48148Y-29723D01*
X48157Y-29744D01*
X48170Y-29764D01*
X48186Y-29780D01*
X48205Y-29793D01*
X48227Y-29802D01*
X48250Y-29807D01*
X48273Y-29807D01*
X48923Y-29807D01*
X48945Y-29802D01*
X48967Y-29793D01*
X48986Y-29780D01*
X49003Y-29764D01*
X49016Y-29744D01*
X49024Y-29723D01*
X49029Y-29700D01*
X49029Y-34102D01*
X49024Y-34079D01*
X49016Y-34058D01*
X49009Y-34048D01*
X49009Y-30698D01*
X49009Y-30565D01*
X49009Y-30512D01*
X49009Y-30380D01*
X49006Y-30361D01*
X48998Y-30343D01*
X48987Y-30327D01*
X48974Y-30313D01*
X48958Y-30302D01*
X48940Y-30295D01*
X48921Y-30291D01*
X48901Y-30291D01*
X48613Y-30291D01*
X48588Y-30315D01*
X48588Y-30537D01*
X48985Y-30537D01*
X49009Y-30512D01*
X49009Y-30565D01*
X48985Y-30541D01*
X48588Y-30541D01*
X48588Y-30762D01*
X48613Y-30787D01*
X48901Y-30787D01*
X48921Y-30787D01*
X48940Y-30783D01*
X48958Y-30776D01*
X48974Y-30765D01*
X48987Y-30751D01*
X48998Y-30735D01*
X49006Y-30717D01*
X49009Y-30698D01*
X49009Y-34048D01*
X49003Y-34038D01*
X48986Y-34022D01*
X48967Y-34009D01*
X48945Y-34000D01*
X48923Y-33996D01*
X48899Y-33996D01*
X48584Y-33996D01*
X48584Y-30762D01*
X48584Y-30541D01*
X48584Y-30537D01*
X48584Y-30315D01*
X48560Y-30291D01*
X48271Y-30291D01*
X48252Y-30291D01*
X48233Y-30295D01*
X48215Y-30302D01*
X48199Y-30313D01*
X48185Y-30327D01*
X48174Y-30343D01*
X48167Y-30361D01*
X48163Y-30380D01*
X48163Y-30512D01*
X48187Y-30537D01*
X48584Y-30537D01*
X48584Y-30541D01*
X48187Y-30541D01*
X48163Y-30565D01*
X48163Y-30698D01*
X48167Y-30717D01*
X48174Y-30735D01*
X48185Y-30751D01*
X48199Y-30765D01*
X48215Y-30776D01*
X48233Y-30783D01*
X48252Y-30787D01*
X48271Y-30787D01*
X48560Y-30787D01*
X48584Y-30762D01*
X48584Y-33996D01*
X48250Y-33996D01*
X48227Y-34000D01*
X48205Y-34009D01*
X48186Y-34022D01*
X48170Y-34038D01*
X48157Y-34058D01*
X48148Y-34079D01*
X48143Y-34102D01*
X48143Y-34106D01*
X48098Y-34106D01*
X48083Y-34107D01*
X48069Y-34108D01*
X48068Y-34109D01*
X48067Y-34109D01*
X48053Y-34113D01*
X48039Y-34117D01*
X48039Y-34117D01*
X48038Y-34118D01*
X48025Y-34125D01*
X48012Y-34131D01*
X48012Y-34132D01*
X48011Y-34132D01*
X47999Y-34141D01*
X47988Y-34150D01*
X47987Y-34152D01*
X47987Y-34152D01*
X47987Y-34152D01*
X47987Y-34152D01*
X47841Y-34298D01*
X47832Y-34309D01*
X47822Y-34320D01*
X47822Y-34321D01*
X47821Y-34321D01*
X47815Y-34334D01*
X47808Y-34347D01*
X47807Y-34348D01*
X47807Y-34348D01*
X47803Y-34362D01*
X47798Y-34376D01*
X47798Y-34377D01*
X47798Y-34378D01*
X47796Y-34392D01*
X47795Y-34407D01*
X47795Y-34408D01*
X47795Y-34408D01*
X47795Y-34408D01*
X47795Y-34409D01*
X47795Y-36745D01*
X47611Y-36929D01*
X44140Y-36929D01*
X44088Y-36877D01*
X44088Y-36338D01*
X44201Y-36338D01*
X44224Y-36334D01*
X44245Y-36325D01*
X44256Y-36317D01*
X44261Y-36318D01*
X44304Y-36318D01*
X44328Y-36294D01*
X44328Y-36005D01*
X44320Y-36005D01*
X44320Y-36001D01*
X44328Y-36001D01*
X44328Y-35713D01*
X44304Y-35688D01*
X44286Y-35688D01*
X44285Y-35676D01*
X44285Y-35675D01*
X44285Y-35674D01*
X44280Y-35661D01*
X44276Y-35647D01*
X44276Y-35646D01*
X44276Y-35645D01*
X44269Y-35632D01*
X44262Y-35619D01*
X44262Y-35619D01*
X44261Y-35618D01*
X44252Y-35607D01*
X44243Y-35595D01*
X44242Y-35594D01*
X44242Y-35594D01*
X44242Y-35594D01*
X44242Y-35594D01*
X44205Y-35557D01*
X44194Y-35548D01*
X44183Y-35539D01*
X44182Y-35538D01*
X44182Y-35538D01*
X44169Y-35531D01*
X44156Y-35524D01*
X44155Y-35524D01*
X44155Y-35523D01*
X44141Y-35519D01*
X44127Y-35515D01*
X44126Y-35515D01*
X44125Y-35514D01*
X44111Y-35513D01*
X44096Y-35511D01*
X44095Y-35511D01*
X44095Y-35511D01*
X44095Y-35511D01*
X44094Y-35511D01*
X43442Y-35511D01*
X43444Y-35500D01*
X43444Y-35477D01*
X43444Y-35471D01*
X44174Y-35471D01*
X44188Y-35470D01*
X44203Y-35468D01*
X44203Y-35468D01*
X44204Y-35468D01*
X44218Y-35464D01*
X44232Y-35460D01*
X44233Y-35459D01*
X44234Y-35459D01*
X44247Y-35452D01*
X44259Y-35446D01*
X44260Y-35445D01*
X44261Y-35445D01*
X44272Y-35435D01*
X44284Y-35426D01*
X44285Y-35425D01*
X44285Y-35425D01*
X44285Y-35425D01*
X44285Y-35425D01*
X44835Y-34875D01*
X44844Y-34863D01*
X44854Y-34852D01*
X44854Y-34852D01*
X44855Y-34851D01*
X44862Y-34838D01*
X44869Y-34825D01*
X44869Y-34825D01*
X44869Y-34824D01*
X44874Y-34810D01*
X44878Y-34796D01*
X44878Y-34795D01*
X44878Y-34794D01*
X44880Y-34780D01*
X44881Y-34765D01*
X44881Y-34764D01*
X44881Y-34764D01*
X44881Y-34764D01*
X44881Y-34763D01*
X44881Y-34435D01*
X44888Y-34426D01*
X44897Y-34404D01*
X44901Y-34381D01*
X44901Y-34358D01*
X44901Y-33925D01*
X44897Y-33902D01*
X44888Y-33881D01*
X44875Y-33861D01*
X44858Y-33845D01*
X44839Y-33832D01*
X44817Y-33823D01*
X44795Y-33818D01*
X44771Y-33818D01*
X44685Y-33818D01*
X44685Y-33608D01*
X44796Y-33497D01*
X44805Y-33485D01*
X44814Y-33474D01*
X44815Y-33474D01*
X44815Y-33473D01*
X44822Y-33460D01*
X44829Y-33447D01*
X44830Y-33447D01*
X44830Y-33446D01*
X44834Y-33432D01*
X44839Y-33418D01*
X44839Y-33417D01*
X44839Y-33416D01*
X44840Y-33402D01*
X44842Y-33388D01*
X44842Y-33386D01*
X44842Y-33386D01*
X44842Y-33386D01*
X44842Y-33385D01*
X44842Y-31915D01*
X44986Y-31771D01*
X45019Y-31771D01*
X45019Y-32068D01*
X45024Y-32091D01*
X45033Y-32113D01*
X45046Y-32132D01*
X45062Y-32148D01*
X45081Y-32161D01*
X45103Y-32170D01*
X45126Y-32175D01*
X45149Y-32175D01*
X46173Y-32175D01*
X46195Y-32170D01*
X46217Y-32161D01*
X46236Y-32148D01*
X46253Y-32132D01*
X46266Y-32113D01*
X46274Y-32091D01*
X46279Y-32068D01*
X46279Y-32045D01*
X46279Y-31159D01*
X46274Y-31136D01*
X46266Y-31115D01*
X46253Y-31095D01*
X46236Y-31079D01*
X46217Y-31066D01*
X46195Y-31057D01*
X46173Y-31053D01*
X46149Y-31053D01*
X45904Y-31053D01*
X45904Y-30276D01*
X45904Y-30253D01*
X45904Y-29893D01*
X45899Y-29870D01*
X45890Y-29849D01*
X45877Y-29829D01*
X45861Y-29813D01*
X45841Y-29800D01*
X45820Y-29791D01*
X45797Y-29786D01*
X45774Y-29786D01*
X45414Y-29786D01*
X45391Y-29791D01*
X45369Y-29800D01*
X45350Y-29813D01*
X45334Y-29829D01*
X45321Y-29849D01*
X45312Y-29870D01*
X45307Y-29893D01*
X45307Y-29916D01*
X45307Y-30276D01*
X45312Y-30299D01*
X45321Y-30320D01*
X45334Y-30340D01*
X45350Y-30356D01*
X45369Y-30369D01*
X45391Y-30378D01*
X45414Y-30383D01*
X45437Y-30383D01*
X45448Y-30383D01*
X45448Y-30431D01*
X45417Y-30461D01*
X45385Y-30455D01*
X45327Y-30454D01*
X45271Y-30465D01*
X45217Y-30487D01*
X45169Y-30518D01*
X45128Y-30558D01*
X45096Y-30606D01*
X45073Y-30658D01*
X45061Y-30715D01*
X45060Y-30772D01*
X45071Y-30829D01*
X45092Y-30882D01*
X45123Y-30930D01*
X45163Y-30972D01*
X45210Y-31005D01*
X45263Y-31028D01*
X45319Y-31040D01*
X45376Y-31041D01*
X45433Y-31031D01*
X45487Y-31010D01*
X45535Y-30980D01*
X45577Y-30940D01*
X45610Y-30893D01*
X45633Y-30840D01*
X45646Y-30784D01*
X45647Y-30719D01*
X45640Y-30684D01*
X45717Y-30607D01*
X45726Y-30596D01*
X45735Y-30585D01*
X45736Y-30584D01*
X45736Y-30584D01*
X45743Y-30571D01*
X45750Y-30558D01*
X45750Y-30557D01*
X45751Y-30556D01*
X45755Y-30543D01*
X45759Y-30529D01*
X45760Y-30528D01*
X45760Y-30527D01*
X45761Y-30513D01*
X45763Y-30498D01*
X45763Y-30497D01*
X45763Y-30497D01*
X45763Y-30496D01*
X45763Y-30496D01*
X45763Y-30383D01*
X45797Y-30383D01*
X45820Y-30378D01*
X45841Y-30369D01*
X45861Y-30356D01*
X45877Y-30340D01*
X45890Y-30320D01*
X45899Y-30299D01*
X45904Y-30276D01*
X45904Y-31053D01*
X45126Y-31053D01*
X45103Y-31057D01*
X45081Y-31066D01*
X45062Y-31079D01*
X45046Y-31095D01*
X45033Y-31115D01*
X45024Y-31136D01*
X45019Y-31159D01*
X45019Y-31182D01*
X45019Y-31456D01*
X44921Y-31456D01*
X44906Y-31458D01*
X44892Y-31459D01*
X44891Y-31459D01*
X44890Y-31459D01*
X44876Y-31463D01*
X44862Y-31467D01*
X44862Y-31468D01*
X44861Y-31468D01*
X44848Y-31475D01*
X44835Y-31482D01*
X44834Y-31482D01*
X44834Y-31483D01*
X44822Y-31492D01*
X44811Y-31501D01*
X44810Y-31502D01*
X44810Y-31502D01*
X44810Y-31502D01*
X44809Y-31502D01*
X44573Y-31739D01*
X44564Y-31750D01*
X44555Y-31761D01*
X44554Y-31762D01*
X44554Y-31762D01*
X44547Y-31775D01*
X44540Y-31788D01*
X44540Y-31789D01*
X44539Y-31789D01*
X44535Y-31803D01*
X44531Y-31817D01*
X44530Y-31818D01*
X44530Y-31819D01*
X44529Y-31833D01*
X44527Y-31848D01*
X44527Y-31849D01*
X44527Y-31849D01*
X44527Y-31849D01*
X44527Y-31850D01*
X44527Y-33320D01*
X44416Y-33431D01*
X44410Y-33439D01*
X44382Y-33411D01*
X44386Y-33408D01*
X44402Y-33392D01*
X44415Y-33372D01*
X44424Y-33351D01*
X44429Y-33328D01*
X44429Y-33305D01*
X44429Y-32419D01*
X44424Y-32396D01*
X44415Y-32375D01*
X44402Y-32355D01*
X44386Y-32339D01*
X44366Y-32326D01*
X44345Y-32317D01*
X44322Y-32312D01*
X44299Y-32312D01*
X43275Y-32312D01*
X43252Y-32317D01*
X43231Y-32326D01*
X43212Y-32339D01*
X43195Y-32355D01*
X43182Y-32375D01*
X43173Y-32396D01*
X43169Y-32419D01*
X43169Y-32442D01*
X43169Y-33328D01*
X43173Y-33351D01*
X43182Y-33372D01*
X43195Y-33392D01*
X43212Y-33408D01*
X43231Y-33421D01*
X43252Y-33430D01*
X43275Y-33435D01*
X43299Y-33435D01*
X43418Y-33435D01*
X43406Y-33439D01*
X43358Y-33471D01*
X43317Y-33511D01*
X43285Y-33558D01*
X43262Y-33611D01*
X43250Y-33667D01*
X43249Y-33725D01*
X43260Y-33781D01*
X43281Y-33835D01*
X43312Y-33883D01*
X43352Y-33925D01*
X43399Y-33957D01*
X43452Y-33980D01*
X43508Y-33993D01*
X43565Y-33994D01*
X43622Y-33984D01*
X43676Y-33963D01*
X43724Y-33932D01*
X43766Y-33893D01*
X43771Y-33886D01*
X43764Y-33902D01*
X43759Y-33925D01*
X43759Y-33948D01*
X43759Y-33996D01*
X43681Y-33996D01*
X43666Y-33997D01*
X43652Y-33998D01*
X43651Y-33998D01*
X43650Y-33999D01*
X43636Y-34003D01*
X43622Y-34007D01*
X43621Y-34007D01*
X43621Y-34007D01*
X43608Y-34014D01*
X43595Y-34021D01*
X43594Y-34021D01*
X43593Y-34022D01*
X43582Y-34031D01*
X43571Y-34040D01*
X43570Y-34041D01*
X43570Y-34041D01*
X43570Y-34041D01*
X43569Y-34042D01*
X43517Y-34094D01*
X42249Y-34094D01*
X42256Y-34087D01*
X42269Y-34068D01*
X42278Y-34047D01*
X42282Y-34024D01*
X42282Y-34000D01*
X42282Y-33650D01*
X42278Y-33628D01*
X42269Y-33606D01*
X42256Y-33587D01*
X42240Y-33570D01*
X42220Y-33557D01*
X42199Y-33549D01*
X42176Y-33544D01*
X42153Y-33544D01*
X41603Y-33544D01*
X41580Y-33549D01*
X41558Y-33557D01*
X41539Y-33570D01*
X41523Y-33587D01*
X41510Y-33606D01*
X41501Y-33628D01*
X41496Y-33650D01*
X41496Y-33674D01*
X41496Y-33680D01*
X41298Y-33680D01*
X41298Y-33650D01*
X41294Y-33628D01*
X41285Y-33606D01*
X41272Y-33587D01*
X41255Y-33570D01*
X41236Y-33557D01*
X41214Y-33549D01*
X41192Y-33544D01*
X41168Y-33544D01*
X41062Y-33544D01*
X41062Y-33267D01*
X41061Y-33253D01*
X41060Y-33238D01*
X41060Y-33237D01*
X41059Y-33237D01*
X41055Y-33223D01*
X41051Y-33209D01*
X41051Y-33208D01*
X41051Y-33207D01*
X41044Y-33194D01*
X41037Y-33181D01*
X41037Y-33181D01*
X41036Y-33180D01*
X41027Y-33169D01*
X41018Y-33157D01*
X41017Y-33156D01*
X41017Y-33156D01*
X41017Y-33156D01*
X41016Y-33156D01*
X40570Y-32710D01*
X40570Y-31399D01*
X40591Y-31391D01*
X40656Y-31350D01*
X40712Y-31297D01*
X40756Y-31234D01*
X40773Y-31196D01*
X40974Y-31196D01*
X41502Y-31725D01*
X41514Y-31734D01*
X41525Y-31744D01*
X41525Y-31744D01*
X41526Y-31745D01*
X41539Y-31751D01*
X41552Y-31758D01*
X41552Y-31759D01*
X41553Y-31759D01*
X41567Y-31763D01*
X41581Y-31768D01*
X41582Y-31768D01*
X41583Y-31768D01*
X41597Y-31770D01*
X41611Y-31771D01*
X41613Y-31771D01*
X41613Y-31771D01*
X41613Y-31771D01*
X41614Y-31771D01*
X43169Y-31771D01*
X43169Y-32068D01*
X43173Y-32091D01*
X43182Y-32113D01*
X43195Y-32132D01*
X43212Y-32148D01*
X43231Y-32161D01*
X43252Y-32170D01*
X43275Y-32175D01*
X43299Y-32175D01*
X44322Y-32175D01*
X44345Y-32170D01*
X44366Y-32161D01*
X44386Y-32148D01*
X44402Y-32132D01*
X44415Y-32113D01*
X44424Y-32091D01*
X44429Y-32068D01*
X44429Y-32045D01*
X44429Y-31159D01*
X44424Y-31136D01*
X44415Y-31115D01*
X44402Y-31095D01*
X44386Y-31079D01*
X44366Y-31066D01*
X44345Y-31057D01*
X44322Y-31053D01*
X44299Y-31053D01*
X43956Y-31053D01*
X43956Y-31043D01*
X43955Y-31028D01*
X43954Y-31014D01*
X43953Y-31013D01*
X43953Y-31012D01*
X43950Y-31001D01*
X43998Y-31002D01*
X44055Y-30992D01*
X44109Y-30971D01*
X44157Y-30940D01*
X44199Y-30901D01*
X44232Y-30854D01*
X44255Y-30801D01*
X44268Y-30745D01*
X44269Y-30679D01*
X44258Y-30623D01*
X44236Y-30570D01*
X44204Y-30522D01*
X44164Y-30481D01*
X44129Y-30458D01*
X44129Y-30383D01*
X44163Y-30383D01*
X44186Y-30378D01*
X44207Y-30369D01*
X44227Y-30356D01*
X44243Y-30340D01*
X44256Y-30320D01*
X44262Y-30306D01*
X44305Y-30335D01*
X44357Y-30358D01*
X44413Y-30371D01*
X44471Y-30372D01*
X44528Y-30362D01*
X44581Y-30341D01*
X44619Y-30317D01*
X44621Y-30320D01*
X44634Y-30340D01*
X44650Y-30356D01*
X44669Y-30369D01*
X44691Y-30378D01*
X44714Y-30383D01*
X44737Y-30383D01*
X45097Y-30383D01*
X45120Y-30378D01*
X45141Y-30369D01*
X45161Y-30356D01*
X45177Y-30340D01*
X45190Y-30320D01*
X45199Y-30299D01*
X45204Y-30276D01*
X45204Y-30253D01*
X45204Y-29893D01*
X45199Y-29870D01*
X45190Y-29849D01*
X45177Y-29829D01*
X45161Y-29813D01*
X45141Y-29800D01*
X45120Y-29791D01*
X45097Y-29786D01*
X45074Y-29786D01*
X45057Y-29786D01*
X45056Y-29782D01*
X45052Y-29768D01*
X45051Y-29767D01*
X45051Y-29767D01*
X45044Y-29754D01*
X45037Y-29741D01*
X45037Y-29740D01*
X45037Y-29740D01*
X45027Y-29728D01*
X45018Y-29717D01*
X45017Y-29716D01*
X45017Y-29716D01*
X45017Y-29716D01*
X45017Y-29715D01*
X44875Y-29573D01*
X44863Y-29564D01*
X44852Y-29555D01*
X44852Y-29554D01*
X44851Y-29554D01*
X44838Y-29547D01*
X44825Y-29540D01*
X44825Y-29540D01*
X44824Y-29539D01*
X44810Y-29535D01*
X44796Y-29531D01*
X44795Y-29530D01*
X44794Y-29530D01*
X44780Y-29529D01*
X44765Y-29527D01*
X44764Y-29527D01*
X44764Y-29527D01*
X44764Y-29527D01*
X44763Y-29527D01*
X44623Y-29527D01*
X44630Y-29523D01*
X44671Y-29483D01*
X44700Y-29442D01*
X44957Y-29442D01*
X44957Y-29476D01*
X44962Y-29499D01*
X44971Y-29520D01*
X44984Y-29540D01*
X45000Y-29556D01*
X45019Y-29569D01*
X45041Y-29578D01*
X45064Y-29583D01*
X45087Y-29583D01*
X45447Y-29583D01*
X45470Y-29578D01*
X45491Y-29569D01*
X45511Y-29556D01*
X45527Y-29540D01*
X45540Y-29520D01*
X45549Y-29499D01*
X45554Y-29476D01*
X45554Y-29453D01*
X45554Y-29093D01*
X45549Y-29070D01*
X45540Y-29049D01*
X45527Y-29029D01*
X45511Y-29013D01*
X45491Y-29000D01*
X45470Y-28991D01*
X45447Y-28986D01*
X45424Y-28986D01*
X45413Y-28986D01*
X45413Y-28982D01*
X45662Y-28733D01*
X45671Y-28722D01*
X45681Y-28711D01*
X45681Y-28710D01*
X45682Y-28709D01*
X45688Y-28696D01*
X45695Y-28684D01*
X45696Y-28683D01*
X45696Y-28682D01*
X45700Y-28668D01*
X45705Y-28654D01*
X45705Y-28653D01*
X45705Y-28653D01*
X45707Y-28638D01*
X45708Y-28624D01*
X45708Y-28622D01*
X45708Y-28622D01*
X45708Y-28622D01*
X45708Y-28622D01*
X45708Y-28384D01*
X45837Y-28384D01*
X45860Y-28380D01*
X45882Y-28371D01*
X45901Y-28358D01*
X45917Y-28341D01*
X45930Y-28322D01*
X45939Y-28300D01*
X45944Y-28278D01*
X45944Y-28254D01*
X45944Y-27904D01*
X45939Y-27882D01*
X45930Y-27860D01*
X45917Y-27841D01*
X45901Y-27824D01*
X45882Y-27811D01*
X45860Y-27802D01*
X45837Y-27798D01*
X45814Y-27798D01*
X45264Y-27798D01*
X45241Y-27802D01*
X45220Y-27811D01*
X45200Y-27824D01*
X45184Y-27841D01*
X45171Y-27860D01*
X45162Y-27882D01*
X45158Y-27904D01*
X45158Y-27928D01*
X45158Y-28278D01*
X45162Y-28300D01*
X45171Y-28322D01*
X45184Y-28341D01*
X45200Y-28358D01*
X45220Y-28371D01*
X45241Y-28380D01*
X45264Y-28384D01*
X45287Y-28384D01*
X45393Y-28384D01*
X45393Y-28556D01*
X45144Y-28805D01*
X45135Y-28817D01*
X45125Y-28828D01*
X45125Y-28829D01*
X45125Y-28829D01*
X45118Y-28842D01*
X45111Y-28855D01*
X45110Y-28856D01*
X45110Y-28856D01*
X45106Y-28870D01*
X45101Y-28884D01*
X45101Y-28885D01*
X45101Y-28886D01*
X45100Y-28900D01*
X45098Y-28915D01*
X45098Y-28916D01*
X45098Y-28916D01*
X45098Y-28916D01*
X45098Y-28917D01*
X45098Y-28986D01*
X45064Y-28986D01*
X45041Y-28991D01*
X45019Y-29000D01*
X45000Y-29013D01*
X44984Y-29029D01*
X44971Y-29049D01*
X44962Y-29070D01*
X44957Y-29093D01*
X44957Y-29116D01*
X44957Y-29127D01*
X44691Y-29127D01*
X44677Y-29105D01*
X44636Y-29064D01*
X44588Y-29032D01*
X44535Y-29009D01*
X44479Y-28998D01*
X44422Y-28998D01*
X44365Y-29008D01*
X44312Y-29030D01*
X44264Y-29061D01*
X44223Y-29102D01*
X44190Y-29149D01*
X44168Y-29202D01*
X44156Y-29258D01*
X44155Y-29315D01*
X44165Y-29372D01*
X44186Y-29425D01*
X44217Y-29474D01*
X44257Y-29515D01*
X44275Y-29527D01*
X43902Y-29527D01*
X43906Y-29520D01*
X43915Y-29499D01*
X43920Y-29476D01*
X43920Y-29453D01*
X43920Y-29093D01*
X43915Y-29070D01*
X43906Y-29049D01*
X43893Y-29029D01*
X43877Y-29013D01*
X43857Y-29000D01*
X43836Y-28991D01*
X43813Y-28986D01*
X43794Y-28986D01*
X43805Y-28976D01*
X44251Y-28976D01*
X44266Y-28974D01*
X44280Y-28973D01*
X44281Y-28973D01*
X44282Y-28973D01*
X44296Y-28969D01*
X44310Y-28965D01*
X44311Y-28964D01*
X44311Y-28964D01*
X44324Y-28957D01*
X44337Y-28950D01*
X44338Y-28950D01*
X44339Y-28950D01*
X44350Y-28940D01*
X44361Y-28931D01*
X44362Y-28930D01*
X44362Y-28930D01*
X44362Y-28930D01*
X44363Y-28930D01*
X44757Y-28536D01*
X44766Y-28525D01*
X44775Y-28514D01*
X44776Y-28513D01*
X44776Y-28512D01*
X44783Y-28499D01*
X44790Y-28487D01*
X44790Y-28486D01*
X44791Y-28485D01*
X44795Y-28471D01*
X44799Y-28457D01*
X44799Y-28457D01*
X44800Y-28456D01*
X44801Y-28441D01*
X44803Y-28427D01*
X44803Y-28425D01*
X44803Y-28425D01*
X44803Y-28425D01*
X44803Y-28425D01*
X44803Y-28384D01*
X44932Y-28384D01*
X44955Y-28380D01*
X44976Y-28371D01*
X44995Y-28358D01*
X45012Y-28341D01*
X45025Y-28322D01*
X45034Y-28300D01*
X45038Y-28278D01*
X45038Y-28254D01*
X45038Y-27904D01*
X45034Y-27882D01*
X45025Y-27860D01*
X45012Y-27841D01*
X44995Y-27824D01*
X44976Y-27811D01*
X44955Y-27802D01*
X44932Y-27798D01*
X44909Y-27798D01*
X44359Y-27798D01*
X44336Y-27802D01*
X44314Y-27811D01*
X44295Y-27824D01*
X44291Y-27828D01*
X44291Y-27604D01*
X44295Y-27608D01*
X44314Y-27621D01*
X44336Y-27630D01*
X44359Y-27634D01*
X44382Y-27634D01*
X44932Y-27634D01*
X44955Y-27630D01*
X44976Y-27621D01*
X44995Y-27608D01*
X45012Y-27591D01*
X45025Y-27572D01*
X45034Y-27550D01*
X45038Y-27528D01*
X45038Y-27504D01*
X45038Y-27499D01*
X45158Y-27499D01*
X45158Y-27528D01*
X45162Y-27550D01*
X45171Y-27572D01*
X45184Y-27591D01*
X45200Y-27608D01*
X45220Y-27621D01*
X45241Y-27630D01*
X45264Y-27634D01*
X45287Y-27634D01*
X45837Y-27634D01*
X45860Y-27630D01*
X45882Y-27621D01*
X45901Y-27608D01*
X45917Y-27591D01*
X45930Y-27572D01*
X45939Y-27550D01*
X45944Y-27528D01*
X45944Y-27504D01*
X45944Y-27499D01*
X46103Y-27499D01*
X46107Y-27505D01*
X46147Y-27547D01*
X46194Y-27579D01*
X46247Y-27602D01*
X46303Y-27615D01*
X46361Y-27616D01*
X46417Y-27606D01*
X46471Y-27585D01*
X46519Y-27554D01*
X46561Y-27515D01*
X46594Y-27468D01*
X46618Y-27415D01*
X46630Y-27359D01*
X46631Y-27294D01*
X46620Y-27237D01*
X46598Y-27184D01*
X46566Y-27136D01*
X46526Y-27095D01*
X46478Y-27063D01*
X46425Y-27041D01*
X46369Y-27029D01*
X46311Y-27029D01*
X46255Y-27040D01*
X46202Y-27061D01*
X46154Y-27093D01*
X46112Y-27133D01*
X46080Y-27180D01*
X46079Y-27184D01*
X46058Y-27184D01*
X46058Y-22953D01*
X46043Y-22877D01*
X46014Y-22806D01*
X45971Y-22742D01*
X45917Y-22687D01*
X45853Y-22644D01*
X45782Y-22614D01*
X45706Y-22599D01*
X45629Y-22598D01*
X45553Y-22613D01*
X45482Y-22642D01*
X45417Y-22684D01*
X45362Y-22738D01*
X45319Y-22801D01*
X45288Y-22872D01*
X45272Y-22948D01*
X45271Y-23025D01*
X45285Y-23101D01*
X45314Y-23172D01*
X45355Y-23237D01*
X45409Y-23292D01*
X45472Y-23336D01*
X45543Y-23367D01*
X45618Y-23384D01*
X45695Y-23385D01*
X45771Y-23372D01*
X45843Y-23344D01*
X45908Y-23303D01*
X45964Y-23250D01*
X46008Y-23187D01*
X46040Y-23116D01*
X46057Y-23041D01*
X46058Y-22953D01*
X46058Y-27184D01*
X45944Y-27184D01*
X45944Y-27154D01*
X45939Y-27132D01*
X45930Y-27110D01*
X45917Y-27091D01*
X45901Y-27074D01*
X45882Y-27061D01*
X45860Y-27052D01*
X45837Y-27048D01*
X45814Y-27048D01*
X45264Y-27048D01*
X45241Y-27052D01*
X45220Y-27061D01*
X45200Y-27074D01*
X45184Y-27091D01*
X45171Y-27110D01*
X45162Y-27132D01*
X45158Y-27154D01*
X45158Y-27178D01*
X45158Y-27184D01*
X45058Y-27184D01*
X45058Y-22953D01*
X45043Y-22877D01*
X45014Y-22806D01*
X44971Y-22742D01*
X44917Y-22687D01*
X44853Y-22644D01*
X44782Y-22614D01*
X44706Y-22599D01*
X44629Y-22598D01*
X44553Y-22613D01*
X44482Y-22642D01*
X44417Y-22684D01*
X44362Y-22738D01*
X44319Y-22801D01*
X44288Y-22872D01*
X44272Y-22948D01*
X44271Y-23025D01*
X44285Y-23101D01*
X44314Y-23172D01*
X44355Y-23237D01*
X44409Y-23292D01*
X44472Y-23336D01*
X44543Y-23367D01*
X44618Y-23384D01*
X44695Y-23385D01*
X44771Y-23372D01*
X44843Y-23344D01*
X44908Y-23303D01*
X44964Y-23250D01*
X45008Y-23187D01*
X45040Y-23116D01*
X45057Y-23041D01*
X45058Y-22953D01*
X45058Y-27184D01*
X45058Y-27184D01*
X45058Y-25520D01*
X45058Y-25497D01*
X45058Y-25147D01*
X45053Y-25124D01*
X45045Y-25102D01*
X45032Y-25083D01*
X45015Y-25066D01*
X44996Y-25053D01*
X44974Y-25045D01*
X44951Y-25040D01*
X44928Y-25040D01*
X44378Y-25040D01*
X44355Y-25045D01*
X44334Y-25053D01*
X44315Y-25066D01*
X44298Y-25083D01*
X44285Y-25102D01*
X44276Y-25124D01*
X44272Y-25147D01*
X44272Y-25170D01*
X44272Y-25176D01*
X44079Y-25176D01*
X44058Y-25154D01*
X44058Y-23278D01*
X44058Y-23255D01*
X44058Y-22705D01*
X44053Y-22682D01*
X44045Y-22661D01*
X44032Y-22641D01*
X44015Y-22625D01*
X43996Y-22612D01*
X43974Y-22603D01*
X43951Y-22599D01*
X43928Y-22599D01*
X43378Y-22599D01*
X43355Y-22603D01*
X43334Y-22612D01*
X43315Y-22625D01*
X43298Y-22641D01*
X43285Y-22661D01*
X43276Y-22682D01*
X43272Y-22705D01*
X43272Y-22728D01*
X43272Y-23278D01*
X43276Y-23301D01*
X43285Y-23323D01*
X43298Y-23342D01*
X43315Y-23358D01*
X43334Y-23371D01*
X43355Y-23380D01*
X43378Y-23385D01*
X43401Y-23385D01*
X43951Y-23385D01*
X43974Y-23380D01*
X43996Y-23371D01*
X44015Y-23358D01*
X44032Y-23342D01*
X44045Y-23323D01*
X44053Y-23301D01*
X44058Y-23278D01*
X44058Y-25154D01*
X43981Y-25077D01*
X43970Y-25068D01*
X43959Y-25059D01*
X43958Y-25058D01*
X43957Y-25058D01*
X43944Y-25051D01*
X43932Y-25044D01*
X43931Y-25043D01*
X43930Y-25043D01*
X43916Y-25039D01*
X43902Y-25034D01*
X43901Y-25034D01*
X43901Y-25034D01*
X43886Y-25033D01*
X43872Y-25031D01*
X43870Y-25031D01*
X43870Y-25031D01*
X43870Y-25031D01*
X43870Y-25031D01*
X43762Y-25031D01*
X43762Y-25027D01*
X43757Y-25004D01*
X43748Y-24983D01*
X43736Y-24963D01*
X43719Y-24947D01*
X43700Y-24934D01*
X43678Y-24925D01*
X43655Y-24920D01*
X43632Y-24920D01*
X43432Y-24920D01*
X43409Y-24925D01*
X43388Y-24934D01*
X43369Y-24947D01*
X43352Y-24963D01*
X43344Y-24975D01*
X43332Y-24962D01*
X43315Y-24951D01*
X43298Y-24944D01*
X43278Y-24940D01*
X43195Y-24940D01*
X43171Y-24965D01*
X43171Y-25187D01*
X43179Y-25187D01*
X43179Y-25190D01*
X43171Y-25190D01*
X43171Y-25412D01*
X43195Y-25437D01*
X43278Y-25437D01*
X43298Y-25433D01*
X43315Y-25426D01*
X43332Y-25415D01*
X43344Y-25402D01*
X43352Y-25414D01*
X43369Y-25430D01*
X43386Y-25442D01*
X43386Y-25504D01*
X43379Y-25511D01*
X42998Y-25511D01*
X42951Y-25465D01*
X42951Y-25442D01*
X42969Y-25430D01*
X42986Y-25414D01*
X42993Y-25402D01*
X43006Y-25415D01*
X43022Y-25426D01*
X43040Y-25433D01*
X43059Y-25437D01*
X43142Y-25437D01*
X43167Y-25412D01*
X43167Y-25190D01*
X43159Y-25190D01*
X43159Y-25187D01*
X43167Y-25187D01*
X43167Y-24965D01*
X43142Y-24940D01*
X43059Y-24940D01*
X43040Y-24944D01*
X43022Y-24951D01*
X43006Y-24962D01*
X42993Y-24975D01*
X42986Y-24963D01*
X42969Y-24947D01*
X42951Y-24935D01*
X42951Y-22853D01*
X42950Y-22838D01*
X42949Y-22824D01*
X42948Y-22823D01*
X42948Y-22822D01*
X42944Y-22808D01*
X42940Y-22794D01*
X42940Y-22794D01*
X42939Y-22793D01*
X42933Y-22780D01*
X42926Y-22767D01*
X42925Y-22766D01*
X42925Y-22766D01*
X42916Y-22754D01*
X42907Y-22743D01*
X42906Y-22742D01*
X42906Y-22742D01*
X42906Y-22742D01*
X42905Y-22741D01*
X42650Y-22487D01*
X42639Y-22477D01*
X42628Y-22468D01*
X42627Y-22468D01*
X42626Y-22467D01*
X42614Y-22460D01*
X42601Y-22453D01*
X42600Y-22453D01*
X42599Y-22453D01*
X42585Y-22448D01*
X42572Y-22444D01*
X42571Y-22444D01*
X42570Y-22444D01*
X42556Y-22442D01*
X42541Y-22440D01*
X42539Y-22440D01*
X42539Y-22440D01*
X42539Y-22440D01*
X42539Y-22440D01*
X41847Y-22440D01*
X41847Y-21293D01*
X41836Y-21116D01*
X41791Y-20945D01*
X41713Y-20786D01*
X41676Y-20730D01*
X41567Y-20640D01*
X41564Y-20643D01*
X41564Y-20637D01*
X41473Y-20528D01*
X41321Y-20439D01*
X41153Y-20381D01*
X40978Y-20357D01*
X40801Y-20368D01*
X40630Y-20413D01*
X40471Y-20491D01*
X40415Y-20528D01*
X40325Y-20637D01*
X40944Y-21257D01*
X41564Y-20637D01*
X41564Y-20643D01*
X40947Y-21259D01*
X41567Y-21879D01*
X41676Y-21788D01*
X41765Y-21636D01*
X41823Y-21468D01*
X41847Y-21293D01*
X41847Y-22440D01*
X41564Y-22440D01*
X41564Y-21882D01*
X40944Y-21262D01*
X40942Y-21265D01*
X40942Y-21259D01*
X40322Y-20640D01*
X40213Y-20730D01*
X40124Y-20883D01*
X40066Y-21051D01*
X40042Y-21226D01*
X40053Y-21403D01*
X40098Y-21574D01*
X40176Y-21733D01*
X40213Y-21788D01*
X40322Y-21879D01*
X40942Y-21259D01*
X40942Y-21265D01*
X40325Y-21882D01*
X40415Y-21991D01*
X40568Y-22080D01*
X40736Y-22138D01*
X40911Y-22161D01*
X41088Y-22151D01*
X41259Y-22106D01*
X41418Y-22028D01*
X41473Y-21991D01*
X41564Y-21882D01*
X41564Y-22440D01*
X40629Y-22440D01*
X40615Y-22442D01*
X40600Y-22443D01*
X40600Y-22443D01*
X40599Y-22443D01*
X40585Y-22448D01*
X40571Y-22452D01*
X40570Y-22452D01*
X40569Y-22452D01*
X40557Y-22459D01*
X40544Y-22466D01*
X40543Y-22466D01*
X40542Y-22467D01*
X40531Y-22476D01*
X40520Y-22485D01*
X40518Y-22486D01*
X40518Y-22486D01*
X40518Y-22486D01*
X40518Y-22487D01*
X40302Y-22703D01*
X40292Y-22714D01*
X40283Y-22725D01*
X40283Y-22726D01*
X40282Y-22727D01*
X40275Y-22740D01*
X40268Y-22752D01*
X40268Y-22753D01*
X40267Y-22754D01*
X40267Y-22756D01*
X40126Y-22756D01*
X40103Y-22761D01*
X40082Y-22769D01*
X40063Y-22782D01*
X40046Y-22799D01*
X40033Y-22818D01*
X40024Y-22840D01*
X40020Y-22862D01*
X40020Y-22886D01*
X40020Y-23436D01*
X40024Y-23459D01*
X40033Y-23480D01*
X40046Y-23499D01*
X40063Y-23516D01*
X40082Y-23529D01*
X40103Y-23538D01*
X40126Y-23542D01*
X40150Y-23542D01*
X40700Y-23542D01*
X40722Y-23538D01*
X40744Y-23529D01*
X40763Y-23516D01*
X40780Y-23499D01*
X40793Y-23480D01*
X40801Y-23459D01*
X40806Y-23436D01*
X40806Y-23412D01*
X40806Y-23307D01*
X41076Y-23307D01*
X41141Y-23372D01*
X41141Y-28753D01*
X41013Y-28881D01*
X40806Y-28881D01*
X40806Y-26111D01*
X40806Y-25111D01*
X40806Y-24111D01*
X40791Y-24035D01*
X40762Y-23964D01*
X40719Y-23899D01*
X40665Y-23845D01*
X40601Y-23802D01*
X40530Y-23772D01*
X40454Y-23756D01*
X40377Y-23756D01*
X40301Y-23770D01*
X40230Y-23799D01*
X40165Y-23841D01*
X40110Y-23895D01*
X40067Y-23959D01*
X40036Y-24030D01*
X40020Y-24105D01*
X40019Y-24182D01*
X40033Y-24258D01*
X40062Y-24330D01*
X40103Y-24394D01*
X40157Y-24450D01*
X40220Y-24494D01*
X40291Y-24525D01*
X40366Y-24541D01*
X40443Y-24543D01*
X40519Y-24530D01*
X40591Y-24502D01*
X40656Y-24460D01*
X40712Y-24407D01*
X40756Y-24344D01*
X40788Y-24274D01*
X40805Y-24199D01*
X40806Y-24111D01*
X40806Y-25111D01*
X40791Y-25035D01*
X40762Y-24964D01*
X40719Y-24899D01*
X40665Y-24845D01*
X40601Y-24802D01*
X40530Y-24772D01*
X40454Y-24756D01*
X40377Y-24756D01*
X40301Y-24770D01*
X40230Y-24799D01*
X40165Y-24841D01*
X40110Y-24895D01*
X40067Y-24959D01*
X40036Y-25030D01*
X40020Y-25105D01*
X40019Y-25182D01*
X40033Y-25258D01*
X40062Y-25330D01*
X40103Y-25394D01*
X40157Y-25450D01*
X40220Y-25494D01*
X40291Y-25525D01*
X40366Y-25541D01*
X40443Y-25543D01*
X40519Y-25530D01*
X40591Y-25502D01*
X40656Y-25460D01*
X40712Y-25407D01*
X40756Y-25344D01*
X40788Y-25274D01*
X40805Y-25199D01*
X40806Y-25111D01*
X40806Y-26111D01*
X40791Y-26035D01*
X40762Y-25964D01*
X40719Y-25899D01*
X40665Y-25845D01*
X40601Y-25802D01*
X40530Y-25772D01*
X40454Y-25756D01*
X40377Y-25756D01*
X40301Y-25770D01*
X40230Y-25799D01*
X40165Y-25841D01*
X40110Y-25895D01*
X40067Y-25959D01*
X40036Y-26030D01*
X40020Y-26105D01*
X40019Y-26182D01*
X40033Y-26258D01*
X40062Y-26330D01*
X40103Y-26394D01*
X40157Y-26450D01*
X40220Y-26494D01*
X40291Y-26525D01*
X40366Y-26541D01*
X40443Y-26543D01*
X40519Y-26530D01*
X40591Y-26502D01*
X40656Y-26460D01*
X40712Y-26407D01*
X40756Y-26344D01*
X40788Y-26274D01*
X40805Y-26199D01*
X40806Y-26111D01*
X40806Y-28881D01*
X40806Y-28881D01*
X40806Y-28752D01*
X40801Y-28729D01*
X40793Y-28708D01*
X40788Y-28701D01*
X40788Y-27162D01*
X40783Y-27088D01*
X40764Y-27017D01*
X40732Y-26951D01*
X40718Y-26930D01*
X40662Y-26903D01*
X40659Y-26905D01*
X40659Y-26900D01*
X40632Y-26844D01*
X40568Y-26808D01*
X40499Y-26784D01*
X40426Y-26774D01*
X40352Y-26779D01*
X40281Y-26798D01*
X40215Y-26830D01*
X40194Y-26844D01*
X40166Y-26900D01*
X40413Y-27146D01*
X40659Y-26900D01*
X40659Y-26905D01*
X40416Y-27149D01*
X40662Y-27396D01*
X40718Y-27368D01*
X40754Y-27304D01*
X40778Y-27235D01*
X40788Y-27162D01*
X40788Y-28701D01*
X40780Y-28689D01*
X40763Y-28672D01*
X40744Y-28659D01*
X40722Y-28650D01*
X40700Y-28646D01*
X40676Y-28646D01*
X40659Y-28646D01*
X40659Y-27398D01*
X40413Y-27152D01*
X40410Y-27155D01*
X40410Y-27149D01*
X40164Y-26903D01*
X40108Y-26930D01*
X40071Y-26994D01*
X40048Y-27063D01*
X40038Y-27136D01*
X40043Y-27210D01*
X40062Y-27281D01*
X40094Y-27347D01*
X40108Y-27368D01*
X40164Y-27396D01*
X40410Y-27149D01*
X40410Y-27155D01*
X40166Y-27398D01*
X40194Y-27454D01*
X40258Y-27491D01*
X40327Y-27514D01*
X40400Y-27524D01*
X40474Y-27519D01*
X40545Y-27500D01*
X40611Y-27468D01*
X40632Y-27454D01*
X40659Y-27398D01*
X40659Y-28646D01*
X40126Y-28646D01*
X40103Y-28650D01*
X40082Y-28659D01*
X40063Y-28672D01*
X40046Y-28689D01*
X40033Y-28708D01*
X40024Y-28729D01*
X40020Y-28752D01*
X40020Y-28776D01*
X40020Y-29326D01*
X40024Y-29348D01*
X40033Y-29370D01*
X40046Y-29389D01*
X40063Y-29406D01*
X40082Y-29419D01*
X40103Y-29427D01*
X40126Y-29432D01*
X40150Y-29432D01*
X40700Y-29432D01*
X40722Y-29427D01*
X40744Y-29419D01*
X40763Y-29406D01*
X40780Y-29389D01*
X40793Y-29370D01*
X40801Y-29348D01*
X40806Y-29326D01*
X40806Y-29302D01*
X40806Y-29196D01*
X41078Y-29196D01*
X41093Y-29195D01*
X41107Y-29194D01*
X41108Y-29193D01*
X41109Y-29193D01*
X41123Y-29189D01*
X41137Y-29185D01*
X41137Y-29185D01*
X41138Y-29184D01*
X41151Y-29178D01*
X41164Y-29171D01*
X41165Y-29170D01*
X41165Y-29170D01*
X41177Y-29161D01*
X41188Y-29152D01*
X41189Y-29151D01*
X41189Y-29151D01*
X41189Y-29151D01*
X41190Y-29150D01*
X41410Y-28930D01*
X41419Y-28919D01*
X41429Y-28907D01*
X41429Y-28907D01*
X41430Y-28906D01*
X41436Y-28893D01*
X41443Y-28880D01*
X41444Y-28880D01*
X41444Y-28879D01*
X41448Y-28865D01*
X41453Y-28851D01*
X41453Y-28850D01*
X41453Y-28850D01*
X41455Y-28835D01*
X41456Y-28821D01*
X41456Y-28819D01*
X41456Y-28819D01*
X41456Y-28819D01*
X41456Y-28818D01*
X41456Y-23307D01*
X41455Y-23292D01*
X41454Y-23278D01*
X41453Y-23277D01*
X41453Y-23276D01*
X41449Y-23262D01*
X41445Y-23248D01*
X41445Y-23247D01*
X41444Y-23247D01*
X41437Y-23234D01*
X41431Y-23221D01*
X41430Y-23220D01*
X41430Y-23219D01*
X41421Y-23208D01*
X41412Y-23197D01*
X41410Y-23196D01*
X41410Y-23196D01*
X41410Y-23196D01*
X41410Y-23195D01*
X41253Y-23038D01*
X41241Y-23029D01*
X41230Y-23019D01*
X41229Y-23019D01*
X41229Y-23018D01*
X41216Y-23011D01*
X41203Y-23004D01*
X41202Y-23004D01*
X41202Y-23004D01*
X41188Y-22999D01*
X41174Y-22995D01*
X41173Y-22995D01*
X41172Y-22995D01*
X41158Y-22993D01*
X41143Y-22992D01*
X41142Y-22992D01*
X41142Y-22992D01*
X41142Y-22992D01*
X41141Y-22992D01*
X40806Y-22992D01*
X40806Y-22862D01*
X40801Y-22840D01*
X40793Y-22818D01*
X40780Y-22799D01*
X40763Y-22782D01*
X40744Y-22769D01*
X40722Y-22761D01*
X40700Y-22756D01*
X40694Y-22756D01*
X40695Y-22755D01*
X42474Y-22755D01*
X42636Y-22918D01*
X42636Y-24935D01*
X42619Y-24947D01*
X42602Y-24963D01*
X42589Y-24983D01*
X42580Y-25004D01*
X42576Y-25027D01*
X42576Y-25050D01*
X42576Y-25350D01*
X42580Y-25373D01*
X42589Y-25394D01*
X42602Y-25414D01*
X42619Y-25430D01*
X42636Y-25442D01*
X42636Y-25530D01*
X42638Y-25544D01*
X42639Y-25559D01*
X42639Y-25560D01*
X42639Y-25561D01*
X42644Y-25575D01*
X42648Y-25588D01*
X42648Y-25589D01*
X42648Y-25590D01*
X42655Y-25603D01*
X42662Y-25616D01*
X42662Y-25616D01*
X42663Y-25617D01*
X42672Y-25628D01*
X42681Y-25640D01*
X42682Y-25641D01*
X42682Y-25641D01*
X42682Y-25641D01*
X42682Y-25641D01*
X42821Y-25780D01*
X42832Y-25789D01*
X42844Y-25799D01*
X42844Y-25799D01*
X42845Y-25800D01*
X42858Y-25807D01*
X42871Y-25814D01*
X42871Y-25814D01*
X42872Y-25814D01*
X42886Y-25818D01*
X42900Y-25823D01*
X42901Y-25823D01*
X42901Y-25823D01*
X42916Y-25825D01*
X42930Y-25826D01*
X42932Y-25826D01*
X42932Y-25826D01*
X42932Y-25826D01*
X42933Y-25826D01*
X43444Y-25826D01*
X43459Y-25825D01*
X43473Y-25824D01*
X43474Y-25823D01*
X43475Y-25823D01*
X43489Y-25819D01*
X43503Y-25815D01*
X43504Y-25815D01*
X43504Y-25814D01*
X43517Y-25808D01*
X43530Y-25801D01*
X43531Y-25800D01*
X43532Y-25800D01*
X43543Y-25791D01*
X43554Y-25782D01*
X43555Y-25781D01*
X43555Y-25781D01*
X43555Y-25781D01*
X43556Y-25780D01*
X43655Y-25681D01*
X43664Y-25669D01*
X43674Y-25658D01*
X43674Y-25658D01*
X43675Y-25657D01*
X43682Y-25644D01*
X43689Y-25631D01*
X43689Y-25631D01*
X43689Y-25630D01*
X43693Y-25616D01*
X43698Y-25602D01*
X43698Y-25601D01*
X43698Y-25601D01*
X43700Y-25586D01*
X43701Y-25572D01*
X43701Y-25570D01*
X43701Y-25570D01*
X43701Y-25570D01*
X43701Y-25569D01*
X43701Y-25442D01*
X43719Y-25430D01*
X43736Y-25414D01*
X43748Y-25394D01*
X43757Y-25373D01*
X43762Y-25350D01*
X43762Y-25346D01*
X43804Y-25346D01*
X43903Y-25445D01*
X43914Y-25454D01*
X43925Y-25463D01*
X43926Y-25463D01*
X43927Y-25464D01*
X43939Y-25471D01*
X43952Y-25478D01*
X43953Y-25478D01*
X43954Y-25479D01*
X43968Y-25483D01*
X43982Y-25487D01*
X43982Y-25487D01*
X43983Y-25488D01*
X43998Y-25489D01*
X44012Y-25491D01*
X44014Y-25491D01*
X44014Y-25491D01*
X44014Y-25491D01*
X44014Y-25491D01*
X44272Y-25491D01*
X44272Y-25520D01*
X44276Y-25543D01*
X44285Y-25564D01*
X44298Y-25583D01*
X44315Y-25600D01*
X44334Y-25613D01*
X44355Y-25622D01*
X44378Y-25626D01*
X44401Y-25626D01*
X44951Y-25626D01*
X44974Y-25622D01*
X44996Y-25613D01*
X45015Y-25600D01*
X45032Y-25583D01*
X45045Y-25564D01*
X45053Y-25543D01*
X45058Y-25520D01*
X45058Y-27184D01*
X45038Y-27184D01*
X45038Y-27154D01*
X45038Y-26268D01*
X45038Y-26110D01*
X45038Y-26057D01*
X45038Y-25898D01*
X45034Y-25879D01*
X45027Y-25862D01*
X45016Y-25845D01*
X45003Y-25832D01*
X44986Y-25821D01*
X44969Y-25814D01*
X44950Y-25810D01*
X44930Y-25810D01*
X44691Y-25810D01*
X44667Y-25834D01*
X44667Y-26081D01*
X45014Y-26081D01*
X45038Y-26057D01*
X45038Y-26110D01*
X45014Y-26085D01*
X44667Y-26085D01*
X44667Y-26332D01*
X44691Y-26357D01*
X44930Y-26357D01*
X44950Y-26357D01*
X44969Y-26353D01*
X44986Y-26345D01*
X45003Y-26335D01*
X45016Y-26321D01*
X45027Y-26305D01*
X45034Y-26287D01*
X45038Y-26268D01*
X45038Y-27154D01*
X45034Y-27132D01*
X45025Y-27110D01*
X45012Y-27091D01*
X44995Y-27074D01*
X44976Y-27061D01*
X44955Y-27052D01*
X44932Y-27048D01*
X44909Y-27048D01*
X44359Y-27048D01*
X44336Y-27052D01*
X44314Y-27061D01*
X44295Y-27074D01*
X44291Y-27078D01*
X44291Y-27038D01*
X44315Y-27023D01*
X44356Y-26983D01*
X44389Y-26936D01*
X44413Y-26884D01*
X44426Y-26828D01*
X44426Y-26762D01*
X44415Y-26706D01*
X44393Y-26653D01*
X44362Y-26605D01*
X44321Y-26564D01*
X44273Y-26532D01*
X44220Y-26509D01*
X44164Y-26498D01*
X44149Y-26498D01*
X44187Y-26483D01*
X44236Y-26452D01*
X44278Y-26412D01*
X44311Y-26365D01*
X44325Y-26333D01*
X44327Y-26335D01*
X44343Y-26345D01*
X44361Y-26353D01*
X44380Y-26357D01*
X44400Y-26357D01*
X44638Y-26357D01*
X44663Y-26332D01*
X44663Y-26085D01*
X44655Y-26085D01*
X44655Y-26081D01*
X44663Y-26081D01*
X44663Y-25834D01*
X44638Y-25810D01*
X44400Y-25810D01*
X44380Y-25810D01*
X44361Y-25814D01*
X44343Y-25821D01*
X44327Y-25832D01*
X44313Y-25845D01*
X44303Y-25862D01*
X44295Y-25879D01*
X44291Y-25898D01*
X44291Y-26047D01*
X44283Y-26034D01*
X44242Y-25993D01*
X44195Y-25961D01*
X44142Y-25939D01*
X44085Y-25927D01*
X44028Y-25927D01*
X43971Y-25937D01*
X43918Y-25959D01*
X43870Y-25990D01*
X43829Y-26031D01*
X43829Y-26031D01*
X43762Y-26031D01*
X43762Y-26027D01*
X43757Y-26004D01*
X43748Y-25983D01*
X43736Y-25963D01*
X43719Y-25947D01*
X43700Y-25934D01*
X43678Y-25925D01*
X43655Y-25920D01*
X43632Y-25920D01*
X43432Y-25920D01*
X43409Y-25925D01*
X43388Y-25934D01*
X43369Y-25947D01*
X43352Y-25963D01*
X43339Y-25983D01*
X43330Y-26004D01*
X43326Y-26027D01*
X43326Y-26050D01*
X43326Y-26350D01*
X43330Y-26373D01*
X43339Y-26394D01*
X43352Y-26414D01*
X43369Y-26430D01*
X43386Y-26442D01*
X43386Y-27048D01*
X43335Y-27048D01*
X43312Y-27052D01*
X43291Y-27061D01*
X43271Y-27074D01*
X43255Y-27091D01*
X43242Y-27110D01*
X43233Y-27132D01*
X43229Y-27153D01*
X43216Y-27177D01*
X43207Y-27206D01*
X43204Y-27237D01*
X43207Y-27267D01*
X43216Y-27297D01*
X43228Y-27321D01*
X43228Y-27528D01*
X43233Y-27550D01*
X43242Y-27572D01*
X43255Y-27591D01*
X43271Y-27608D01*
X43291Y-27621D01*
X43312Y-27630D01*
X43335Y-27634D01*
X43358Y-27634D01*
X43908Y-27634D01*
X43931Y-27630D01*
X43952Y-27621D01*
X43972Y-27608D01*
X43976Y-27604D01*
X43976Y-27858D01*
X43973Y-27853D01*
X43959Y-27840D01*
X43943Y-27829D01*
X43925Y-27821D01*
X43906Y-27818D01*
X43887Y-27818D01*
X43648Y-27818D01*
X43624Y-27842D01*
X43624Y-28089D01*
X43970Y-28089D01*
X43995Y-28064D01*
X43995Y-28046D01*
X44001Y-28058D01*
X44002Y-28058D01*
X44002Y-28059D01*
X44011Y-28070D01*
X44020Y-28082D01*
X44022Y-28083D01*
X44022Y-28083D01*
X44022Y-28083D01*
X44022Y-28083D01*
X44140Y-28201D01*
X44151Y-28211D01*
X44162Y-28220D01*
X44163Y-28220D01*
X44164Y-28221D01*
X44177Y-28228D01*
X44189Y-28235D01*
X44190Y-28235D01*
X44191Y-28235D01*
X44205Y-28240D01*
X44219Y-28244D01*
X44220Y-28244D01*
X44220Y-28244D01*
X44235Y-28246D01*
X44249Y-28248D01*
X44251Y-28248D01*
X44251Y-28248D01*
X44251Y-28248D01*
X44251Y-28248D01*
X44252Y-28248D01*
X44252Y-28278D01*
X44257Y-28300D01*
X44266Y-28322D01*
X44278Y-28341D01*
X44295Y-28358D01*
X44314Y-28371D01*
X44336Y-28380D01*
X44359Y-28384D01*
X44382Y-28384D01*
X44463Y-28384D01*
X44186Y-28661D01*
X43995Y-28661D01*
X43995Y-28276D01*
X43995Y-28118D01*
X43970Y-28093D01*
X43624Y-28093D01*
X43624Y-28340D01*
X43648Y-28364D01*
X43887Y-28364D01*
X43906Y-28364D01*
X43925Y-28361D01*
X43943Y-28353D01*
X43959Y-28342D01*
X43973Y-28329D01*
X43984Y-28313D01*
X43991Y-28295D01*
X43995Y-28276D01*
X43995Y-28661D01*
X43740Y-28661D01*
X43725Y-28662D01*
X43711Y-28664D01*
X43710Y-28664D01*
X43709Y-28664D01*
X43695Y-28668D01*
X43681Y-28672D01*
X43680Y-28673D01*
X43680Y-28673D01*
X43667Y-28680D01*
X43654Y-28686D01*
X43653Y-28687D01*
X43653Y-28687D01*
X43641Y-28696D01*
X43630Y-28705D01*
X43629Y-28707D01*
X43629Y-28707D01*
X43629Y-28707D01*
X43628Y-28707D01*
X43620Y-28716D01*
X43620Y-28340D01*
X43620Y-28093D01*
X43620Y-28089D01*
X43620Y-27842D01*
X43595Y-27818D01*
X43356Y-27818D01*
X43337Y-27818D01*
X43318Y-27821D01*
X43300Y-27829D01*
X43284Y-27840D01*
X43270Y-27853D01*
X43259Y-27869D01*
X43252Y-27887D01*
X43248Y-27906D01*
X43248Y-28064D01*
X43273Y-28089D01*
X43620Y-28089D01*
X43620Y-28093D01*
X43273Y-28093D01*
X43248Y-28118D01*
X43248Y-28276D01*
X43252Y-28295D01*
X43259Y-28313D01*
X43270Y-28329D01*
X43284Y-28342D01*
X43300Y-28353D01*
X43318Y-28361D01*
X43337Y-28364D01*
X43356Y-28364D01*
X43595Y-28364D01*
X43620Y-28340D01*
X43620Y-28716D01*
X43510Y-28825D01*
X43501Y-28836D01*
X43492Y-28848D01*
X43491Y-28848D01*
X43491Y-28849D01*
X43484Y-28862D01*
X43477Y-28874D01*
X43477Y-28875D01*
X43476Y-28876D01*
X43472Y-28890D01*
X43468Y-28904D01*
X43467Y-28905D01*
X43467Y-28905D01*
X43466Y-28920D01*
X43464Y-28934D01*
X43464Y-28936D01*
X43464Y-28936D01*
X43464Y-28936D01*
X43464Y-28937D01*
X43464Y-28986D01*
X43430Y-28986D01*
X43407Y-28991D01*
X43386Y-29000D01*
X43366Y-29013D01*
X43350Y-29029D01*
X43337Y-29049D01*
X43328Y-29070D01*
X43323Y-29093D01*
X43323Y-29116D01*
X43323Y-29476D01*
X43328Y-29499D01*
X43337Y-29520D01*
X43348Y-29538D01*
X43347Y-29538D01*
X43346Y-29539D01*
X43345Y-29539D01*
X43332Y-29546D01*
X43319Y-29552D01*
X43319Y-29553D01*
X43318Y-29553D01*
X43307Y-29563D01*
X43295Y-29572D01*
X43294Y-29573D01*
X43294Y-29573D01*
X43294Y-29573D01*
X43294Y-29573D01*
X43160Y-29707D01*
X43151Y-29718D01*
X43142Y-29729D01*
X43141Y-29730D01*
X43141Y-29730D01*
X43134Y-29743D01*
X43127Y-29756D01*
X43127Y-29757D01*
X43126Y-29757D01*
X43122Y-29771D01*
X43118Y-29785D01*
X43117Y-29786D01*
X43117Y-29786D01*
X43089Y-29786D01*
X43089Y-27528D01*
X43089Y-27504D01*
X43089Y-27154D01*
X43085Y-27132D01*
X43076Y-27110D01*
X43063Y-27091D01*
X43047Y-27074D01*
X43027Y-27061D01*
X43006Y-27052D01*
X42983Y-27048D01*
X42960Y-27048D01*
X42951Y-27048D01*
X42951Y-26442D01*
X42969Y-26430D01*
X42986Y-26414D01*
X42998Y-26394D01*
X43007Y-26373D01*
X43012Y-26350D01*
X43012Y-26327D01*
X43012Y-26027D01*
X43007Y-26004D01*
X42998Y-25983D01*
X42986Y-25963D01*
X42969Y-25947D01*
X42950Y-25934D01*
X42928Y-25925D01*
X42905Y-25920D01*
X42882Y-25920D01*
X42682Y-25920D01*
X42659Y-25925D01*
X42638Y-25934D01*
X42619Y-25947D01*
X42602Y-25963D01*
X42589Y-25983D01*
X42580Y-26004D01*
X42576Y-26027D01*
X42576Y-26050D01*
X42576Y-26350D01*
X42580Y-26373D01*
X42589Y-26394D01*
X42602Y-26414D01*
X42619Y-26430D01*
X42636Y-26442D01*
X42636Y-27048D01*
X42410Y-27048D01*
X42387Y-27052D01*
X42365Y-27061D01*
X42346Y-27074D01*
X42330Y-27091D01*
X42317Y-27110D01*
X42308Y-27132D01*
X42303Y-27154D01*
X42303Y-27178D01*
X42303Y-27528D01*
X42308Y-27550D01*
X42317Y-27572D01*
X42330Y-27591D01*
X42346Y-27608D01*
X42365Y-27621D01*
X42387Y-27630D01*
X42410Y-27634D01*
X42433Y-27634D01*
X42983Y-27634D01*
X43006Y-27630D01*
X43027Y-27621D01*
X43047Y-27608D01*
X43063Y-27591D01*
X43076Y-27572D01*
X43085Y-27550D01*
X43089Y-27528D01*
X43089Y-29786D01*
X43080Y-29786D01*
X43070Y-29788D01*
X43070Y-28276D01*
X43070Y-28118D01*
X43070Y-28064D01*
X43070Y-27906D01*
X43066Y-27887D01*
X43059Y-27869D01*
X43048Y-27853D01*
X43034Y-27840D01*
X43018Y-27829D01*
X43000Y-27821D01*
X42981Y-27818D01*
X42962Y-27818D01*
X42723Y-27818D01*
X42698Y-27842D01*
X42698Y-28089D01*
X43045Y-28089D01*
X43070Y-28064D01*
X43070Y-28118D01*
X43045Y-28093D01*
X42698Y-28093D01*
X42698Y-28340D01*
X42723Y-28364D01*
X42962Y-28364D01*
X42981Y-28364D01*
X43000Y-28361D01*
X43018Y-28353D01*
X43034Y-28342D01*
X43048Y-28329D01*
X43059Y-28313D01*
X43066Y-28295D01*
X43070Y-28276D01*
X43070Y-29788D01*
X43057Y-29791D01*
X43036Y-29800D01*
X43016Y-29813D01*
X43000Y-29829D01*
X42987Y-29849D01*
X42978Y-29870D01*
X42973Y-29893D01*
X42973Y-29916D01*
X42973Y-30276D01*
X42978Y-30299D01*
X42987Y-30320D01*
X43000Y-30340D01*
X43016Y-30356D01*
X43036Y-30369D01*
X43057Y-30378D01*
X43080Y-30383D01*
X43103Y-30383D01*
X43114Y-30383D01*
X43114Y-30516D01*
X43115Y-30530D01*
X43117Y-30545D01*
X43117Y-30545D01*
X43117Y-30546D01*
X43121Y-30560D01*
X43125Y-30574D01*
X43126Y-30575D01*
X43126Y-30576D01*
X43133Y-30588D01*
X43139Y-30601D01*
X43140Y-30602D01*
X43140Y-30603D01*
X43150Y-30614D01*
X43159Y-30625D01*
X43160Y-30627D01*
X43160Y-30627D01*
X43160Y-30627D01*
X43160Y-30627D01*
X43586Y-31053D01*
X43275Y-31053D01*
X43252Y-31057D01*
X43231Y-31066D01*
X43212Y-31079D01*
X43195Y-31095D01*
X43182Y-31115D01*
X43173Y-31136D01*
X43169Y-31159D01*
X43169Y-31182D01*
X43169Y-31456D01*
X42694Y-31456D01*
X42694Y-28340D01*
X42694Y-28093D01*
X42694Y-28089D01*
X42694Y-27842D01*
X42670Y-27818D01*
X42431Y-27818D01*
X42412Y-27818D01*
X42393Y-27821D01*
X42375Y-27829D01*
X42359Y-27840D01*
X42345Y-27853D01*
X42334Y-27869D01*
X42327Y-27887D01*
X42323Y-27906D01*
X42323Y-28064D01*
X42348Y-28089D01*
X42694Y-28089D01*
X42694Y-28093D01*
X42348Y-28093D01*
X42323Y-28118D01*
X42323Y-28276D01*
X42327Y-28295D01*
X42334Y-28313D01*
X42345Y-28329D01*
X42359Y-28342D01*
X42375Y-28353D01*
X42393Y-28361D01*
X42412Y-28364D01*
X42431Y-28364D01*
X42670Y-28364D01*
X42694Y-28340D01*
X42694Y-31456D01*
X41679Y-31456D01*
X41150Y-30928D01*
X41139Y-30918D01*
X41128Y-30909D01*
X41127Y-30909D01*
X41126Y-30908D01*
X41114Y-30901D01*
X41101Y-30894D01*
X41100Y-30894D01*
X41099Y-30893D01*
X41085Y-30889D01*
X41072Y-30885D01*
X41071Y-30885D01*
X41070Y-30884D01*
X41056Y-30883D01*
X41041Y-30881D01*
X41039Y-30881D01*
X41039Y-30881D01*
X41039Y-30881D01*
X41039Y-30881D01*
X40806Y-30881D01*
X40806Y-30000D01*
X40791Y-29925D01*
X40762Y-29853D01*
X40719Y-29789D01*
X40665Y-29735D01*
X40601Y-29691D01*
X40530Y-29662D01*
X40454Y-29646D01*
X40377Y-29645D01*
X40301Y-29660D01*
X40230Y-29689D01*
X40165Y-29731D01*
X40110Y-29785D01*
X40067Y-29849D01*
X40036Y-29919D01*
X40020Y-29995D01*
X40019Y-30072D01*
X40033Y-30148D01*
X40062Y-30219D01*
X40103Y-30284D01*
X40157Y-30340D01*
X40220Y-30384D01*
X40291Y-30415D01*
X40366Y-30431D01*
X40443Y-30433D01*
X40519Y-30419D01*
X40591Y-30391D01*
X40656Y-30350D01*
X40712Y-30297D01*
X40756Y-30234D01*
X40788Y-30164D01*
X40805Y-30088D01*
X40806Y-30000D01*
X40806Y-30881D01*
X40773Y-30881D01*
X40762Y-30853D01*
X40719Y-30789D01*
X40665Y-30735D01*
X40601Y-30691D01*
X40530Y-30662D01*
X40454Y-30646D01*
X40377Y-30645D01*
X40301Y-30660D01*
X40230Y-30689D01*
X40165Y-30731D01*
X40110Y-30785D01*
X40067Y-30849D01*
X40036Y-30919D01*
X40020Y-30995D01*
X40019Y-31072D01*
X40033Y-31148D01*
X40062Y-31219D01*
X40103Y-31284D01*
X40157Y-31340D01*
X40220Y-31384D01*
X40255Y-31399D01*
X40255Y-32775D01*
X40257Y-32790D01*
X40258Y-32804D01*
X40258Y-32805D01*
X40258Y-32806D01*
X40263Y-32820D01*
X40267Y-32834D01*
X40267Y-32834D01*
X40267Y-32835D01*
X40274Y-32848D01*
X40281Y-32861D01*
X40281Y-32862D01*
X40282Y-32862D01*
X40291Y-32874D01*
X40300Y-32885D01*
X40301Y-32886D01*
X40301Y-32886D01*
X40301Y-32886D01*
X40302Y-32886D01*
X40748Y-33332D01*
X40748Y-33544D01*
X40618Y-33544D01*
X40596Y-33549D01*
X40574Y-33557D01*
X40555Y-33570D01*
X40538Y-33587D01*
X40525Y-33606D01*
X40516Y-33628D01*
X40512Y-33650D01*
X40512Y-33674D01*
X40512Y-33680D01*
X40453Y-33680D01*
X40439Y-33681D01*
X40424Y-33682D01*
X40423Y-33683D01*
X40423Y-33683D01*
X40409Y-33687D01*
X40395Y-33691D01*
X40394Y-33691D01*
X40393Y-33692D01*
X40380Y-33698D01*
X40367Y-33705D01*
X40367Y-33706D01*
X40366Y-33706D01*
X40355Y-33715D01*
X40343Y-33724D01*
X40342Y-33725D01*
X40342Y-33725D01*
X40342Y-33725D01*
X40342Y-33726D01*
X40203Y-33865D01*
X40194Y-33876D01*
X40185Y-33887D01*
X40184Y-33888D01*
X40184Y-33888D01*
X40177Y-33901D01*
X40170Y-33914D01*
X40169Y-33915D01*
X40169Y-33915D01*
X40165Y-33929D01*
X40160Y-33943D01*
X40160Y-33944D01*
X40160Y-33945D01*
X40159Y-33959D01*
X40157Y-33974D01*
X40157Y-33975D01*
X40157Y-33975D01*
X40157Y-33975D01*
X40157Y-33976D01*
X40157Y-35039D01*
X40158Y-35053D01*
X40160Y-35068D01*
X40160Y-35069D01*
X40160Y-35069D01*
X40164Y-35083D01*
X40168Y-35097D01*
X40169Y-35098D01*
X40169Y-35099D01*
X40176Y-35112D01*
X40182Y-35125D01*
X40183Y-35125D01*
X40183Y-35126D01*
X40192Y-35137D01*
X40202Y-35149D01*
X40203Y-35150D01*
X40203Y-35150D01*
X40203Y-35150D01*
X40203Y-35150D01*
X40478Y-35425D01*
X40489Y-35434D01*
X40500Y-35443D01*
X40501Y-35444D01*
X40501Y-35444D01*
X40514Y-35451D01*
X40527Y-35458D01*
X40528Y-35458D01*
X40529Y-35459D01*
X40542Y-35463D01*
X40556Y-35468D01*
X40557Y-35468D01*
X40558Y-35468D01*
X40572Y-35469D01*
X40587Y-35471D01*
X40588Y-35471D01*
X40589Y-35471D01*
X40589Y-35471D01*
X40589Y-35471D01*
X42658Y-35471D01*
X42658Y-35500D01*
X42662Y-35523D01*
X42671Y-35544D01*
X42684Y-35564D01*
X42700Y-35580D01*
X42720Y-35593D01*
X42741Y-35602D01*
X42764Y-35607D01*
X42787Y-35607D01*
X42893Y-35607D01*
X42893Y-35610D01*
X42895Y-35624D01*
X42896Y-35639D01*
X42896Y-35639D01*
X42896Y-35640D01*
X42900Y-35654D01*
X42904Y-35668D01*
X42905Y-35669D01*
X42905Y-35670D01*
X42912Y-35683D01*
X42919Y-35696D01*
X42919Y-35696D01*
X42920Y-35697D01*
X42929Y-35708D01*
X42938Y-35720D01*
X42939Y-35721D01*
X42939Y-35721D01*
X42939Y-35721D01*
X42939Y-35721D01*
X42998Y-35780D01*
X43010Y-35789D01*
X43010Y-35790D01*
X42785Y-35790D01*
X42766Y-35790D01*
X42747Y-35794D01*
X42729Y-35801D01*
X42713Y-35812D01*
X42699Y-35826D01*
X42688Y-35842D01*
X42681Y-35860D01*
X42677Y-35879D01*
X42677Y-36037D01*
X42702Y-36062D01*
X43049Y-36062D01*
X43049Y-36054D01*
X43053Y-36054D01*
X43053Y-36062D01*
X43400Y-36062D01*
X43424Y-36037D01*
X43424Y-35879D01*
X43420Y-35860D01*
X43413Y-35842D01*
X43402Y-35826D01*
X43753Y-35826D01*
X43753Y-36232D01*
X43758Y-36254D01*
X43766Y-36276D01*
X43773Y-36285D01*
X43773Y-36942D01*
X43774Y-36957D01*
X43775Y-36971D01*
X43776Y-36972D01*
X43776Y-36973D01*
X43780Y-36987D01*
X43784Y-37001D01*
X43784Y-37001D01*
X43785Y-37002D01*
X43791Y-37015D01*
X43798Y-37028D01*
X43799Y-37028D01*
X43799Y-37029D01*
X43808Y-37040D01*
X43817Y-37052D01*
X43818Y-37053D01*
X43818Y-37053D01*
X43818Y-37053D01*
X43819Y-37053D01*
X43963Y-37197D01*
X43974Y-37207D01*
X43985Y-37216D01*
X43986Y-37216D01*
X43987Y-37217D01*
X44000Y-37224D01*
X44012Y-37231D01*
X44013Y-37231D01*
X44014Y-37232D01*
X44028Y-37236D01*
X44042Y-37240D01*
X44042Y-37240D01*
X44043Y-37240D01*
X44058Y-37242D01*
X44072Y-37244D01*
X44074Y-37244D01*
X44074Y-37244D01*
X44074Y-37244D01*
X44074Y-37244D01*
X47677Y-37244D01*
X47691Y-37242D01*
X47706Y-37241D01*
X47706Y-37241D01*
X47707Y-37241D01*
X47721Y-37236D01*
X47735Y-37232D01*
X47736Y-37232D01*
X47737Y-37232D01*
X47750Y-37225D01*
X47762Y-37218D01*
X47763Y-37218D01*
X47764Y-37217D01*
X47775Y-37208D01*
X47786Y-37199D01*
X47788Y-37198D01*
X47788Y-37198D01*
X47788Y-37198D01*
X47788Y-37197D01*
X48064Y-36922D01*
X48073Y-36911D01*
X48082Y-36899D01*
X48083Y-36899D01*
X48083Y-36898D01*
X48090Y-36885D01*
X48097Y-36873D01*
X48097Y-36872D01*
X48098Y-36871D01*
X48102Y-36857D01*
X48106Y-36843D01*
X48106Y-36842D01*
X48107Y-36842D01*
X48108Y-36827D01*
X48110Y-36813D01*
X48110Y-36811D01*
X48110Y-36811D01*
X48110Y-36811D01*
X48110Y-36811D01*
X48110Y-34474D01*
X48146Y-34438D01*
X48148Y-34447D01*
X48157Y-34469D01*
X48170Y-34488D01*
X48186Y-34505D01*
X48205Y-34518D01*
X48227Y-34526D01*
X48250Y-34531D01*
X48273Y-34531D01*
X48923Y-34531D01*
X48945Y-34526D01*
X48967Y-34518D01*
X48986Y-34505D01*
X49003Y-34488D01*
X49016Y-34469D01*
X49024Y-34447D01*
X49029Y-34425D01*
X49029Y-38937D01*
X49009Y-38937D01*
X49009Y-35423D01*
X49009Y-35290D01*
X49009Y-35237D01*
X49009Y-35104D01*
X49006Y-35085D01*
X48998Y-35067D01*
X48987Y-35051D01*
X48974Y-35037D01*
X48958Y-35026D01*
X48940Y-35019D01*
X48921Y-35015D01*
X48901Y-35015D01*
X48613Y-35015D01*
X48588Y-35040D01*
X48588Y-35261D01*
X48985Y-35261D01*
X49009Y-35237D01*
X49009Y-35290D01*
X48985Y-35265D01*
X48588Y-35265D01*
X48588Y-35487D01*
X48613Y-35511D01*
X48901Y-35511D01*
X48921Y-35511D01*
X48940Y-35508D01*
X48958Y-35500D01*
X48974Y-35489D01*
X48987Y-35476D01*
X48998Y-35460D01*
X49006Y-35442D01*
X49009Y-35423D01*
X49009Y-38937D01*
X48584Y-38937D01*
X48584Y-35487D01*
X48584Y-35265D01*
X48584Y-35261D01*
X48584Y-35040D01*
X48560Y-35015D01*
X48271Y-35015D01*
X48252Y-35015D01*
X48233Y-35019D01*
X48215Y-35026D01*
X48199Y-35037D01*
X48185Y-35051D01*
X48174Y-35067D01*
X48167Y-35085D01*
X48163Y-35104D01*
X48163Y-35237D01*
X48187Y-35261D01*
X48584Y-35261D01*
X48584Y-35265D01*
X48187Y-35265D01*
X48163Y-35290D01*
X48163Y-35423D01*
X48167Y-35442D01*
X48174Y-35460D01*
X48185Y-35476D01*
X48199Y-35489D01*
X48215Y-35500D01*
X48233Y-35508D01*
X48252Y-35511D01*
X48271Y-35511D01*
X48560Y-35511D01*
X48584Y-35487D01*
X48584Y-38937D01*
X43424Y-38937D01*
X43424Y-36248D01*
X43424Y-36090D01*
X43400Y-36065D01*
X43053Y-36065D01*
X43053Y-36312D01*
X43077Y-36337D01*
X43316Y-36337D01*
X43335Y-36337D01*
X43354Y-36333D01*
X43372Y-36326D01*
X43388Y-36315D01*
X43402Y-36301D01*
X43413Y-36285D01*
X43420Y-36267D01*
X43424Y-36248D01*
X43424Y-38937D01*
X43049Y-38937D01*
X43049Y-36312D01*
X43049Y-36065D01*
X42702Y-36065D01*
X42677Y-36090D01*
X42677Y-36248D01*
X42681Y-36267D01*
X42688Y-36285D01*
X42699Y-36301D01*
X42713Y-36315D01*
X42729Y-36326D01*
X42747Y-36333D01*
X42766Y-36337D01*
X42785Y-36337D01*
X43024Y-36337D01*
X43049Y-36312D01*
X43049Y-38937D01*
X41847Y-38937D01*
X41847Y-37828D01*
X41836Y-37652D01*
X41791Y-37480D01*
X41713Y-37321D01*
X41676Y-37266D01*
X41567Y-37175D01*
X41564Y-37178D01*
X41564Y-37172D01*
X41473Y-37063D01*
X41321Y-36974D01*
X41153Y-36916D01*
X40978Y-36893D01*
X40801Y-36903D01*
X40630Y-36948D01*
X40471Y-37026D01*
X40415Y-37063D01*
X40325Y-37172D01*
X40944Y-37792D01*
X41564Y-37172D01*
X41564Y-37178D01*
X40947Y-37795D01*
X41567Y-38414D01*
X41676Y-38324D01*
X41765Y-38171D01*
X41823Y-38004D01*
X41847Y-37828D01*
X41847Y-38937D01*
X41564Y-38937D01*
X41564Y-38417D01*
X40944Y-37798D01*
X40942Y-37800D01*
X40942Y-37795D01*
X40322Y-37175D01*
X40213Y-37266D01*
X40124Y-37419D01*
X40066Y-37586D01*
X40042Y-37761D01*
X40053Y-37938D01*
X40098Y-38109D01*
X40176Y-38268D01*
X40213Y-38324D01*
X40322Y-38414D01*
X40942Y-37795D01*
X40942Y-37800D01*
X40325Y-38417D01*
X40415Y-38526D01*
X40568Y-38615D01*
X40736Y-38673D01*
X40911Y-38697D01*
X41088Y-38686D01*
X41259Y-38641D01*
X41418Y-38563D01*
X41473Y-38526D01*
X41564Y-38417D01*
X41564Y-38937D01*
X39805Y-38937D01*
X39803Y-38936D01*
X39803Y-38935D01*
X39803Y-20120D01*
X39803Y-20118D01*
X39805Y-20118D01*
X54683Y-20118D01*
X54684Y-20118D01*
X54685Y-20120D01*
X54685Y-22437D01*
X54445Y-22437D01*
X54445Y-21293D01*
X54434Y-21116D01*
X54389Y-20945D01*
X54312Y-20786D01*
X54274Y-20730D01*
X54165Y-20640D01*
X54162Y-20643D01*
X54162Y-20637D01*
X54072Y-20528D01*
X53919Y-20439D01*
X53752Y-20381D01*
X53576Y-20357D01*
X53400Y-20368D01*
X53228Y-20413D01*
X53069Y-20491D01*
X53014Y-20528D01*
X52923Y-20637D01*
X53543Y-21257D01*
X54162Y-20637D01*
X54162Y-20643D01*
X53546Y-21259D01*
X54165Y-21879D01*
X54274Y-21788D01*
X54363Y-21636D01*
X54421Y-21468D01*
X54445Y-21293D01*
X54445Y-22437D01*
X54162Y-22437D01*
X54162Y-21882D01*
X53543Y-21262D01*
X53540Y-21265D01*
X53540Y-21259D01*
X52920Y-20640D01*
X52811Y-20730D01*
X52722Y-20883D01*
X52665Y-21051D01*
X52641Y-21226D01*
X52651Y-21403D01*
X52697Y-21574D01*
X52774Y-21733D01*
X52811Y-21788D01*
X52920Y-21879D01*
X53540Y-21259D01*
X53540Y-21265D01*
X52923Y-21882D01*
X53014Y-21991D01*
X53167Y-22080D01*
X53334Y-22138D01*
X53509Y-22161D01*
X53686Y-22151D01*
X53857Y-22106D01*
X54016Y-22028D01*
X54072Y-21991D01*
X54162Y-21882D01*
X54162Y-22437D01*
X50508Y-22437D01*
X50508Y-24618D01*
X50281Y-24618D01*
X50281Y-24614D01*
X50276Y-24591D01*
X50268Y-24570D01*
X50255Y-24550D01*
X50238Y-24534D01*
X50219Y-24521D01*
X50197Y-24512D01*
X50175Y-24507D01*
X50151Y-24507D01*
X49502Y-24507D01*
X49479Y-24512D01*
X49457Y-24521D01*
X49438Y-24534D01*
X49422Y-24550D01*
X49409Y-24570D01*
X49400Y-24591D01*
X49395Y-24614D01*
X49395Y-24637D01*
X49395Y-24936D01*
X49400Y-24959D01*
X49409Y-24981D01*
X49422Y-25000D01*
X49438Y-25016D01*
X49451Y-25025D01*
X49438Y-25034D01*
X49422Y-25050D01*
X49409Y-25070D01*
X49400Y-25091D01*
X49395Y-25114D01*
X49395Y-25137D01*
X49395Y-25436D01*
X49400Y-25459D01*
X49409Y-25481D01*
X49422Y-25500D01*
X49438Y-25516D01*
X49451Y-25525D01*
X49438Y-25534D01*
X49422Y-25550D01*
X49409Y-25570D01*
X49400Y-25591D01*
X49395Y-25614D01*
X49395Y-25637D01*
X49395Y-25936D01*
X49400Y-25959D01*
X49409Y-25981D01*
X49422Y-26000D01*
X49438Y-26016D01*
X49457Y-26029D01*
X49479Y-26038D01*
X49502Y-26043D01*
X49525Y-26043D01*
X50175Y-26043D01*
X50197Y-26038D01*
X50219Y-26029D01*
X50238Y-26016D01*
X50255Y-26000D01*
X50268Y-25981D01*
X50276Y-25959D01*
X50281Y-25936D01*
X50281Y-25933D01*
X50508Y-25933D01*
X50508Y-29381D01*
X50281Y-29381D01*
X50281Y-29378D01*
X50276Y-29355D01*
X50268Y-29333D01*
X50255Y-29314D01*
X50238Y-29298D01*
X50219Y-29285D01*
X50197Y-29276D01*
X50175Y-29271D01*
X50151Y-29271D01*
X49502Y-29271D01*
X49479Y-29276D01*
X49457Y-29285D01*
X49438Y-29298D01*
X49422Y-29314D01*
X49409Y-29333D01*
X49400Y-29355D01*
X49395Y-29378D01*
X49395Y-29401D01*
X49395Y-29700D01*
X49400Y-29723D01*
X49409Y-29744D01*
X49422Y-29764D01*
X49438Y-29780D01*
X49451Y-29789D01*
X49438Y-29798D01*
X49422Y-29814D01*
X49409Y-29833D01*
X49400Y-29855D01*
X49395Y-29878D01*
X49395Y-29901D01*
X49395Y-30200D01*
X49400Y-30223D01*
X49409Y-30244D01*
X49422Y-30264D01*
X49438Y-30280D01*
X49451Y-30289D01*
X49438Y-30298D01*
X49422Y-30314D01*
X49409Y-30333D01*
X49400Y-30355D01*
X49395Y-30378D01*
X49395Y-30401D01*
X49395Y-30700D01*
X49400Y-30723D01*
X49409Y-30744D01*
X49422Y-30764D01*
X49438Y-30780D01*
X49457Y-30793D01*
X49479Y-30802D01*
X49502Y-30807D01*
X49525Y-30807D01*
X50175Y-30807D01*
X50197Y-30802D01*
X50219Y-30793D01*
X50238Y-30780D01*
X50255Y-30764D01*
X50268Y-30744D01*
X50276Y-30723D01*
X50281Y-30700D01*
X50281Y-30696D01*
X50508Y-30696D01*
X50508Y-34106D01*
X50281Y-34106D01*
X50281Y-34102D01*
X50276Y-34079D01*
X50268Y-34058D01*
X50255Y-34038D01*
X50238Y-34022D01*
X50219Y-34009D01*
X50197Y-34000D01*
X50175Y-33996D01*
X50151Y-33996D01*
X49502Y-33996D01*
X49479Y-34000D01*
X49457Y-34009D01*
X49438Y-34022D01*
X49422Y-34038D01*
X49409Y-34058D01*
X49400Y-34079D01*
X49395Y-34102D01*
X49395Y-34125D01*
X49395Y-34425D01*
X49400Y-34447D01*
X49409Y-34469D01*
X49422Y-34488D01*
X49438Y-34505D01*
X49451Y-34513D01*
X49438Y-34522D01*
X49422Y-34538D01*
X49409Y-34558D01*
X49400Y-34579D01*
X49395Y-34602D01*
X49395Y-34625D01*
X49395Y-34925D01*
X49400Y-34947D01*
X49409Y-34969D01*
X49422Y-34988D01*
X49438Y-35005D01*
X49451Y-35013D01*
X49438Y-35022D01*
X49422Y-35038D01*
X49409Y-35058D01*
X49400Y-35079D01*
X49395Y-35102D01*
X49395Y-35125D01*
X49395Y-35425D01*
X49400Y-35447D01*
X49409Y-35469D01*
X49422Y-35488D01*
X49438Y-35505D01*
X49457Y-35518D01*
X49479Y-35526D01*
X49502Y-35531D01*
X49525Y-35531D01*
X50175Y-35531D01*
X50197Y-35526D01*
X50219Y-35518D01*
X50238Y-35505D01*
X50255Y-35488D01*
X50268Y-35469D01*
X50276Y-35447D01*
X50281Y-35425D01*
X50281Y-35421D01*
X50508Y-35421D01*
X50508Y-36617D01*
X50668Y-36617D01*
X50668Y-37362D01*
X52363Y-37362D01*
X52363Y-36617D01*
X54685Y-36617D01*
X54685Y-38935D01*
M02*
