G04 #@! TF.FileFunction,Soldermask,Bot*
%FSLAX46Y46*%
G04 Gerber Fmt 4.6, Leading zero omitted, Abs format (unit mm)*
G04 Created by KiCad (PCBNEW 0.201501172016+5377~20~ubuntu14.04.1-product) date Sun 18 Jan 2015 11:08:57 AM PST*
%MOMM*%
G01*
G04 APERTURE LIST*
%ADD10C,0.100000*%
%ADD11R,1.397000X1.397000*%
%ADD12C,1.397000*%
%ADD13C,4.064000*%
%ADD14C,0.500000*%
G04 APERTURE END LIST*
D10*
X128000000Y-99950000D02*
G75*
G03X130000000Y-97950000I0J2000000D01*
G01*
X100000000Y-97950000D02*
G75*
G03X102000000Y-99950000I2000000J0D01*
G01*
X130000000Y-52000000D02*
G75*
G03X128000000Y-50000000I-2000000J0D01*
G01*
X102000000Y-50000000D02*
G75*
G03X100000000Y-52000000I0J-2000000D01*
G01*
X128000000Y-50000000D02*
X102000000Y-50000000D01*
X130000000Y-97900000D02*
X130000000Y-52000000D01*
X102000000Y-99950000D02*
X128000000Y-99950000D01*
X100000000Y-52000000D02*
X100000000Y-97900000D01*
D11*
X121000000Y-62930000D03*
D12*
X121000000Y-65470000D03*
D13*
X104000000Y-54000000D03*
X122000000Y-54000000D03*
X104000000Y-96000000D03*
X122000000Y-96000000D03*
D11*
X102650000Y-58800000D03*
D12*
X102650000Y-61340000D03*
X102650000Y-63880000D03*
X102650000Y-66420000D03*
X102650000Y-68960000D03*
D11*
X102650000Y-73760000D03*
D12*
X102650000Y-76300000D03*
X102650000Y-78840000D03*
D11*
X110910000Y-58400000D03*
D12*
X113450000Y-58400000D03*
X115990000Y-58400000D03*
D11*
X121000000Y-75030000D03*
D12*
X121000000Y-77570000D03*
D11*
X121000000Y-87030000D03*
D12*
X121000000Y-89570000D03*
D11*
X102630000Y-84100000D03*
D12*
X105170000Y-84100000D03*
D14*
X112350000Y-92650000D03*
X113350000Y-93000000D03*
X114500000Y-93000000D03*
X115600000Y-92550000D03*
X116500000Y-91600000D03*
X117150000Y-90450000D03*
X117150000Y-89400000D03*
X117150000Y-88350000D03*
X117600000Y-87400000D03*
X118400000Y-86700000D03*
X114650000Y-90000000D03*
X114650000Y-88900000D03*
X114650000Y-87800000D03*
X114900000Y-86800000D03*
X115650000Y-86050000D03*
X116450000Y-85300000D03*
X117100000Y-84450000D03*
X117100000Y-83300000D03*
X117100000Y-82100000D03*
X117100000Y-80800000D03*
X117100000Y-79500000D03*
X117100000Y-78150000D03*
X117100000Y-76900000D03*
X117100000Y-75600000D03*
X117100000Y-74250000D03*
X117100000Y-72800000D03*
X117100000Y-71300000D03*
X117100000Y-69800000D03*
X117100000Y-68350000D03*
X117100000Y-67000000D03*
X117100000Y-65600000D03*
X117100000Y-64350000D03*
X117350000Y-63150000D03*
X118250000Y-62400000D03*
X114600000Y-91650000D03*
X115350000Y-90950000D03*
X115850000Y-90000000D03*
X115850000Y-88900000D03*
X115850000Y-87800000D03*
X116550000Y-86800000D03*
X117350000Y-86000000D03*
X118150000Y-85200000D03*
X119150000Y-86000000D03*
X119600000Y-84850000D03*
X118350000Y-83950000D03*
X118350000Y-82700000D03*
X118350000Y-81350000D03*
X118350000Y-80000000D03*
X118350000Y-78800000D03*
X118350000Y-77550000D03*
X118350000Y-76300000D03*
X118350000Y-74950000D03*
X118350000Y-73550000D03*
X118350000Y-72050000D03*
X118350000Y-70550000D03*
X118350000Y-69050000D03*
X118350000Y-67650000D03*
X118350000Y-66250000D03*
X118350000Y-64950000D03*
X118850000Y-63850000D03*
X119600000Y-83350000D03*
X119600000Y-81950000D03*
X119600000Y-80700000D03*
X119600000Y-79400000D03*
X110950000Y-92650000D03*
X111350000Y-93850000D03*
X112500000Y-94150000D03*
X113750000Y-94150000D03*
X114850000Y-94150000D03*
X116100000Y-93850000D03*
X116950000Y-93100000D03*
X117750000Y-92250000D03*
X118550000Y-91250000D03*
X118550000Y-89950000D03*
X118550000Y-88850000D03*
X119000000Y-87900000D03*
M02*
