G04 #@! TF.FileFunction,Copper,L2,Bot,Signal*
%FSLAX46Y46*%
G04 Gerber Fmt 4.6, Leading zero omitted, Abs format (unit mm)*
G04 Created by KiCad (PCBNEW 0.201501172016+5377~20~ubuntu14.04.1-product) date Sun 18 Jan 2015 11:08:57 AM PST*
%MOMM*%
G01*
G04 APERTURE LIST*
%ADD10C,0.100000*%
%ADD11R,1.397000X1.397000*%
%ADD12C,1.397000*%
%ADD13C,4.064000*%
%ADD14C,0.500000*%
%ADD15C,0.889000*%
%ADD16C,0.200000*%
%ADD17C,0.150000*%
G04 APERTURE END LIST*
D10*
X128000000Y-99950000D02*
G75*
G03X130000000Y-97950000I0J2000000D01*
G01*
X100000000Y-97950000D02*
G75*
G03X102000000Y-99950000I2000000J0D01*
G01*
X130000000Y-52000000D02*
G75*
G03X128000000Y-50000000I-2000000J0D01*
G01*
X102000000Y-50000000D02*
G75*
G03X100000000Y-52000000I0J-2000000D01*
G01*
X128000000Y-50000000D02*
X102000000Y-50000000D01*
X130000000Y-97900000D02*
X130000000Y-52000000D01*
X102000000Y-99950000D02*
X128000000Y-99950000D01*
X100000000Y-52000000D02*
X100000000Y-97900000D01*
D11*
X121000000Y-62930000D03*
D12*
X121000000Y-65470000D03*
D13*
X104000000Y-54000000D03*
X122000000Y-54000000D03*
X104000000Y-96000000D03*
X122000000Y-96000000D03*
D11*
X102650000Y-58800000D03*
D12*
X102650000Y-61340000D03*
X102650000Y-63880000D03*
X102650000Y-66420000D03*
X102650000Y-68960000D03*
D11*
X102650000Y-73760000D03*
D12*
X102650000Y-76300000D03*
X102650000Y-78840000D03*
D11*
X110910000Y-58400000D03*
D12*
X113450000Y-58400000D03*
X115990000Y-58400000D03*
D11*
X121000000Y-75030000D03*
D12*
X121000000Y-77570000D03*
D11*
X121000000Y-87030000D03*
D12*
X121000000Y-89570000D03*
D11*
X102630000Y-84100000D03*
D12*
X105170000Y-84100000D03*
D14*
X112350000Y-92650000D03*
X113350000Y-93000000D03*
X114500000Y-93000000D03*
X115600000Y-92550000D03*
X116500000Y-91600000D03*
X117150000Y-90450000D03*
X117150000Y-89400000D03*
X117150000Y-88350000D03*
X117600000Y-87400000D03*
X118400000Y-86700000D03*
X114650000Y-90000000D03*
X114650000Y-88900000D03*
X114650000Y-87800000D03*
X114900000Y-86800000D03*
X115650000Y-86050000D03*
X116450000Y-85300000D03*
X117100000Y-84450000D03*
X117100000Y-83300000D03*
X117100000Y-82100000D03*
X117100000Y-80800000D03*
X117100000Y-79500000D03*
X117100000Y-78150000D03*
X117100000Y-76900000D03*
X117100000Y-75600000D03*
X117100000Y-74250000D03*
X117100000Y-72800000D03*
X117100000Y-71300000D03*
X117100000Y-69800000D03*
X117100000Y-68350000D03*
X117100000Y-67000000D03*
X117100000Y-65600000D03*
X117100000Y-64350000D03*
X117350000Y-63150000D03*
X118250000Y-62400000D03*
X114600000Y-91650000D03*
X115350000Y-90950000D03*
X115850000Y-90000000D03*
X115850000Y-88900000D03*
X115850000Y-87800000D03*
X116550000Y-86800000D03*
X117350000Y-86000000D03*
X118150000Y-85200000D03*
X119150000Y-86000000D03*
X119600000Y-84850000D03*
X118350000Y-83950000D03*
X118350000Y-82700000D03*
X118350000Y-81350000D03*
X118350000Y-80000000D03*
X118350000Y-78800000D03*
X118350000Y-77550000D03*
X118350000Y-76300000D03*
X118350000Y-74950000D03*
X118350000Y-73550000D03*
X118350000Y-72050000D03*
X118350000Y-70550000D03*
X118350000Y-69050000D03*
X118350000Y-67650000D03*
X118350000Y-66250000D03*
X118350000Y-64950000D03*
X118850000Y-63850000D03*
X119600000Y-83350000D03*
X119600000Y-81950000D03*
X119600000Y-80700000D03*
X119600000Y-79400000D03*
X110950000Y-92650000D03*
X111350000Y-93850000D03*
X112500000Y-94150000D03*
X113750000Y-94150000D03*
X114850000Y-94150000D03*
X116100000Y-93850000D03*
X116950000Y-93100000D03*
X117750000Y-92250000D03*
X118550000Y-91250000D03*
X118550000Y-89950000D03*
X118550000Y-88850000D03*
X119000000Y-87900000D03*
D15*
X106650000Y-71400000D03*
X115650000Y-66600000D03*
X111850000Y-66500000D03*
X113050000Y-74350000D03*
X107050000Y-91150000D03*
X107700000Y-83750000D03*
X111700000Y-77700000D03*
X115850000Y-77850000D03*
X110150000Y-86750000D03*
X101400000Y-91150000D03*
X114050000Y-77850000D03*
D16*
X102650000Y-61340000D02*
X104260000Y-61340000D01*
X115990000Y-56840000D02*
X115990000Y-58400000D01*
X115300000Y-56150000D02*
X115990000Y-56840000D01*
X107800000Y-56150000D02*
X115300000Y-56150000D01*
X106750000Y-57200000D02*
X107800000Y-56150000D01*
X106750000Y-58850000D02*
X106750000Y-57200000D01*
X104260000Y-61340000D02*
X106750000Y-58850000D01*
X102650000Y-63880000D02*
X104580000Y-63880000D01*
X106650000Y-65950000D02*
X106650000Y-71400000D01*
X104580000Y-63880000D02*
X106650000Y-65950000D01*
X102650000Y-76300000D02*
X113700000Y-76300000D01*
X115650000Y-74350000D02*
X115650000Y-66600000D01*
X113700000Y-76300000D02*
X115650000Y-74350000D01*
X110910000Y-58400000D02*
X110910000Y-61710000D01*
X111850000Y-62650000D02*
X111850000Y-66500000D01*
X110910000Y-61710000D02*
X111850000Y-62650000D01*
X102650000Y-66420000D02*
X104620000Y-66420000D01*
X106850000Y-74350000D02*
X113050000Y-74350000D01*
X105300000Y-72800000D02*
X106850000Y-74350000D01*
X105300000Y-67100000D02*
X105300000Y-72800000D01*
X104620000Y-66420000D02*
X105300000Y-67100000D01*
X107700000Y-86400000D02*
X107700000Y-83750000D01*
X107050000Y-87050000D02*
X107700000Y-86400000D01*
X107050000Y-91150000D02*
X107050000Y-87050000D01*
X107700000Y-81700000D02*
X107700000Y-83750000D01*
X111700000Y-77700000D02*
X107700000Y-81700000D01*
X110150000Y-83550000D02*
X110150000Y-86750000D01*
X115850000Y-77850000D02*
X110150000Y-83550000D01*
X110150000Y-90150000D02*
X110150000Y-86750000D01*
X108100000Y-92200000D02*
X110150000Y-90150000D01*
X102450000Y-92200000D02*
X108100000Y-92200000D01*
X101400000Y-91150000D02*
X102450000Y-92200000D01*
X113450000Y-58400000D02*
X113450000Y-59950000D01*
X116400000Y-75500000D02*
X114050000Y-77850000D01*
X116400000Y-62900000D02*
X116400000Y-75500000D01*
X113450000Y-59950000D02*
X116400000Y-62900000D01*
D17*
G36*
X128925000Y-98918934D02*
X128918934Y-98925000D01*
X124317221Y-98925000D01*
X124317221Y-96066024D01*
X124317221Y-54066024D01*
X124285577Y-53612688D01*
X124166099Y-53174236D01*
X123963380Y-52767517D01*
X123890019Y-52657723D01*
X123608155Y-52427201D01*
X123572799Y-52462556D01*
X123572799Y-52391845D01*
X123342277Y-52109981D01*
X122947761Y-51884433D01*
X122516823Y-51740184D01*
X122066024Y-51682779D01*
X121612688Y-51714423D01*
X121174236Y-51833901D01*
X120767517Y-52036620D01*
X120657723Y-52109981D01*
X120427201Y-52391845D01*
X122000000Y-53964645D01*
X123572799Y-52391845D01*
X123572799Y-52462556D01*
X122035355Y-54000000D01*
X123608155Y-55572799D01*
X123890019Y-55342277D01*
X124115567Y-54947761D01*
X124259816Y-54516823D01*
X124317221Y-54066024D01*
X124317221Y-96066024D01*
X124285577Y-95612688D01*
X124166099Y-95174236D01*
X123963380Y-94767517D01*
X123890019Y-94657723D01*
X123608155Y-94427201D01*
X123572799Y-94462556D01*
X123572799Y-94391845D01*
X123572799Y-55608155D01*
X122000000Y-54035355D01*
X121964645Y-54070710D01*
X121964645Y-54000000D01*
X120391845Y-52427201D01*
X120109981Y-52657723D01*
X119884433Y-53052239D01*
X119740184Y-53483177D01*
X119682779Y-53933976D01*
X119714423Y-54387312D01*
X119833901Y-54825764D01*
X120036620Y-55232483D01*
X120109981Y-55342277D01*
X120391845Y-55572799D01*
X121964645Y-54000000D01*
X121964645Y-54070710D01*
X120427201Y-55608155D01*
X120657723Y-55890019D01*
X121052239Y-56115567D01*
X121483177Y-56259816D01*
X121933976Y-56317221D01*
X122387312Y-56285577D01*
X122825764Y-56166099D01*
X123232483Y-55963380D01*
X123342277Y-55890019D01*
X123572799Y-55608155D01*
X123572799Y-94391845D01*
X123342277Y-94109981D01*
X122947761Y-93884433D01*
X122516823Y-93740184D01*
X122066024Y-93682779D01*
X121978117Y-93688915D01*
X121978117Y-89583412D01*
X121978117Y-77583412D01*
X121978117Y-65483412D01*
X121974831Y-65444598D01*
X121974831Y-63628500D01*
X121974831Y-62231500D01*
X121971204Y-62186875D01*
X121948047Y-62112821D01*
X121905216Y-62048123D01*
X121846087Y-61997884D01*
X121775322Y-61966063D01*
X121698500Y-61955169D01*
X120301500Y-61955169D01*
X120256875Y-61958796D01*
X120182821Y-61981953D01*
X120118123Y-62024784D01*
X120067884Y-62083913D01*
X120036063Y-62154678D01*
X120025169Y-62231500D01*
X120025169Y-63628500D01*
X120028796Y-63673125D01*
X120051953Y-63747179D01*
X120094784Y-63811877D01*
X120153913Y-63862116D01*
X120224678Y-63893937D01*
X120301500Y-63904831D01*
X121698500Y-63904831D01*
X121743125Y-63901204D01*
X121817179Y-63878047D01*
X121881877Y-63835216D01*
X121932116Y-63776087D01*
X121963937Y-63705322D01*
X121974831Y-63628500D01*
X121974831Y-65444598D01*
X121961940Y-65292332D01*
X121908795Y-65108082D01*
X121820725Y-64937739D01*
X121805825Y-64915436D01*
X121660520Y-64844836D01*
X121625164Y-64880191D01*
X121625164Y-64809480D01*
X121554564Y-64664175D01*
X121386700Y-64571470D01*
X121203975Y-64513293D01*
X121013412Y-64491883D01*
X120822332Y-64508060D01*
X120638082Y-64561205D01*
X120467739Y-64649275D01*
X120445436Y-64664175D01*
X120374836Y-64809480D01*
X121000000Y-65434645D01*
X121625164Y-64809480D01*
X121625164Y-64880191D01*
X121035355Y-65470000D01*
X121660520Y-66095164D01*
X121805825Y-66024564D01*
X121898530Y-65856700D01*
X121956707Y-65673975D01*
X121978117Y-65483412D01*
X121978117Y-77583412D01*
X121974831Y-77544598D01*
X121974831Y-75728500D01*
X121974831Y-74331500D01*
X121971204Y-74286875D01*
X121948047Y-74212821D01*
X121905216Y-74148123D01*
X121846087Y-74097884D01*
X121775322Y-74066063D01*
X121698500Y-74055169D01*
X121625164Y-74055169D01*
X121625164Y-66130520D01*
X121000000Y-65505355D01*
X120964645Y-65540710D01*
X120964645Y-65470000D01*
X120339480Y-64844836D01*
X120194175Y-64915436D01*
X120101470Y-65083300D01*
X120043293Y-65266025D01*
X120021883Y-65456588D01*
X120038060Y-65647668D01*
X120091205Y-65831918D01*
X120179275Y-66002261D01*
X120194175Y-66024564D01*
X120339480Y-66095164D01*
X120964645Y-65470000D01*
X120964645Y-65540710D01*
X120374836Y-66130520D01*
X120445436Y-66275825D01*
X120613300Y-66368530D01*
X120796025Y-66426707D01*
X120986588Y-66448117D01*
X121177668Y-66431940D01*
X121361918Y-66378795D01*
X121532261Y-66290725D01*
X121554564Y-66275825D01*
X121625164Y-66130520D01*
X121625164Y-74055169D01*
X120301500Y-74055169D01*
X120256875Y-74058796D01*
X120182821Y-74081953D01*
X120118123Y-74124784D01*
X120067884Y-74183913D01*
X120036063Y-74254678D01*
X120025169Y-74331500D01*
X120025169Y-75728500D01*
X120028796Y-75773125D01*
X120051953Y-75847179D01*
X120094784Y-75911877D01*
X120153913Y-75962116D01*
X120224678Y-75993937D01*
X120301500Y-76004831D01*
X121698500Y-76004831D01*
X121743125Y-76001204D01*
X121817179Y-75978047D01*
X121881877Y-75935216D01*
X121932116Y-75876087D01*
X121963937Y-75805322D01*
X121974831Y-75728500D01*
X121974831Y-77544598D01*
X121961940Y-77392332D01*
X121908795Y-77208082D01*
X121820725Y-77037739D01*
X121805825Y-77015436D01*
X121660520Y-76944836D01*
X121625164Y-76980191D01*
X121625164Y-76909480D01*
X121554564Y-76764175D01*
X121386700Y-76671470D01*
X121203975Y-76613293D01*
X121013412Y-76591883D01*
X120822332Y-76608060D01*
X120638082Y-76661205D01*
X120467739Y-76749275D01*
X120445436Y-76764175D01*
X120374836Y-76909480D01*
X121000000Y-77534645D01*
X121625164Y-76909480D01*
X121625164Y-76980191D01*
X121035355Y-77570000D01*
X121660520Y-78195164D01*
X121805825Y-78124564D01*
X121898530Y-77956700D01*
X121956707Y-77773975D01*
X121978117Y-77583412D01*
X121978117Y-89583412D01*
X121974831Y-89544598D01*
X121974831Y-87728500D01*
X121974831Y-86331500D01*
X121971204Y-86286875D01*
X121948047Y-86212821D01*
X121905216Y-86148123D01*
X121846087Y-86097884D01*
X121775322Y-86066063D01*
X121698500Y-86055169D01*
X121625164Y-86055169D01*
X121625164Y-78230520D01*
X121000000Y-77605355D01*
X120964645Y-77640710D01*
X120964645Y-77570000D01*
X120339480Y-76944836D01*
X120194175Y-77015436D01*
X120101470Y-77183300D01*
X120043293Y-77366025D01*
X120021883Y-77556588D01*
X120038060Y-77747668D01*
X120091205Y-77931918D01*
X120179275Y-78102261D01*
X120194175Y-78124564D01*
X120339480Y-78195164D01*
X120964645Y-77570000D01*
X120964645Y-77640710D01*
X120374836Y-78230520D01*
X120445436Y-78375825D01*
X120613300Y-78468530D01*
X120796025Y-78526707D01*
X120986588Y-78548117D01*
X121177668Y-78531940D01*
X121361918Y-78478795D01*
X121532261Y-78390725D01*
X121554564Y-78375825D01*
X121625164Y-78230520D01*
X121625164Y-86055169D01*
X120301500Y-86055169D01*
X120256875Y-86058796D01*
X120182821Y-86081953D01*
X120118123Y-86124784D01*
X120067884Y-86183913D01*
X120036063Y-86254678D01*
X120025169Y-86331500D01*
X120025169Y-87728500D01*
X120028796Y-87773125D01*
X120051953Y-87847179D01*
X120094784Y-87911877D01*
X120153913Y-87962116D01*
X120224678Y-87993937D01*
X120301500Y-88004831D01*
X121698500Y-88004831D01*
X121743125Y-88001204D01*
X121817179Y-87978047D01*
X121881877Y-87935216D01*
X121932116Y-87876087D01*
X121963937Y-87805322D01*
X121974831Y-87728500D01*
X121974831Y-89544598D01*
X121961940Y-89392332D01*
X121908795Y-89208082D01*
X121820725Y-89037739D01*
X121805825Y-89015436D01*
X121660520Y-88944836D01*
X121625164Y-88980191D01*
X121625164Y-88909480D01*
X121554564Y-88764175D01*
X121386700Y-88671470D01*
X121203975Y-88613293D01*
X121013412Y-88591883D01*
X120822332Y-88608060D01*
X120638082Y-88661205D01*
X120467739Y-88749275D01*
X120445436Y-88764175D01*
X120374836Y-88909480D01*
X121000000Y-89534645D01*
X121625164Y-88909480D01*
X121625164Y-88980191D01*
X121035355Y-89570000D01*
X121660520Y-90195164D01*
X121805825Y-90124564D01*
X121898530Y-89956700D01*
X121956707Y-89773975D01*
X121978117Y-89583412D01*
X121978117Y-93688915D01*
X121625164Y-93713552D01*
X121625164Y-90230520D01*
X121000000Y-89605355D01*
X120964645Y-89640710D01*
X120964645Y-89570000D01*
X120339480Y-88944836D01*
X120194175Y-89015436D01*
X120101470Y-89183300D01*
X120043293Y-89366025D01*
X120021883Y-89556588D01*
X120038060Y-89747668D01*
X120091205Y-89931918D01*
X120179275Y-90102261D01*
X120194175Y-90124564D01*
X120339480Y-90195164D01*
X120964645Y-89570000D01*
X120964645Y-89640710D01*
X120374836Y-90230520D01*
X120445436Y-90375825D01*
X120613300Y-90468530D01*
X120796025Y-90526707D01*
X120986588Y-90548117D01*
X121177668Y-90531940D01*
X121361918Y-90478795D01*
X121532261Y-90390725D01*
X121554564Y-90375825D01*
X121625164Y-90230520D01*
X121625164Y-93713552D01*
X121612688Y-93714423D01*
X121174236Y-93833901D01*
X120767517Y-94036620D01*
X120657723Y-94109981D01*
X120427201Y-94391845D01*
X122000000Y-95964645D01*
X123572799Y-94391845D01*
X123572799Y-94462556D01*
X122035355Y-96000000D01*
X123608155Y-97572799D01*
X123890019Y-97342277D01*
X124115567Y-96947761D01*
X124259816Y-96516823D01*
X124317221Y-96066024D01*
X124317221Y-98925000D01*
X123572799Y-98925000D01*
X123572799Y-97608155D01*
X122000000Y-96035355D01*
X121964645Y-96070710D01*
X121964645Y-96000000D01*
X120391845Y-94427201D01*
X120109981Y-94657723D01*
X119884433Y-95052239D01*
X119740184Y-95483177D01*
X119682779Y-95933976D01*
X119714423Y-96387312D01*
X119833901Y-96825764D01*
X120036620Y-97232483D01*
X120109981Y-97342277D01*
X120391845Y-97572799D01*
X121964645Y-96000000D01*
X121964645Y-96070710D01*
X120427201Y-97608155D01*
X120657723Y-97890019D01*
X121052239Y-98115567D01*
X121483177Y-98259816D01*
X121933976Y-98317221D01*
X122387312Y-98285577D01*
X122825764Y-98166099D01*
X123232483Y-97963380D01*
X123342277Y-97890019D01*
X123572799Y-97608155D01*
X123572799Y-98925000D01*
X116963541Y-98925000D01*
X116963541Y-58304543D01*
X116926460Y-58117266D01*
X116853708Y-57940758D01*
X116748058Y-57781743D01*
X116613535Y-57646276D01*
X116455260Y-57539519D01*
X116365000Y-57501576D01*
X116365000Y-56840000D01*
X116361620Y-56805530D01*
X116358601Y-56771018D01*
X116358050Y-56769122D01*
X116357858Y-56767162D01*
X116347852Y-56734021D01*
X116338182Y-56700736D01*
X116337274Y-56698985D01*
X116336705Y-56697099D01*
X116320449Y-56666528D01*
X116304501Y-56635760D01*
X116303270Y-56634218D01*
X116302345Y-56632478D01*
X116280443Y-56605624D01*
X116258841Y-56578563D01*
X116256136Y-56575820D01*
X116256089Y-56575762D01*
X116256035Y-56575717D01*
X116255165Y-56574835D01*
X115565165Y-55884835D01*
X115538425Y-55862870D01*
X115511863Y-55840582D01*
X115510132Y-55839630D01*
X115508611Y-55838381D01*
X115478103Y-55822022D01*
X115447728Y-55805324D01*
X115445849Y-55804728D01*
X115444111Y-55803796D01*
X115411001Y-55793673D01*
X115377967Y-55783195D01*
X115376004Y-55782974D01*
X115374121Y-55782399D01*
X115339647Y-55778896D01*
X115305236Y-55775037D01*
X115301385Y-55775009D01*
X115301309Y-55775002D01*
X115301237Y-55775008D01*
X115300000Y-55775000D01*
X107800000Y-55775000D01*
X107765530Y-55778379D01*
X107731018Y-55781399D01*
X107729122Y-55781949D01*
X107727162Y-55782142D01*
X107694008Y-55792151D01*
X107660737Y-55801818D01*
X107658987Y-55802724D01*
X107657099Y-55803295D01*
X107626489Y-55819570D01*
X107595761Y-55835499D01*
X107594221Y-55836727D01*
X107592478Y-55837655D01*
X107565602Y-55859574D01*
X107538563Y-55881159D01*
X107535820Y-55883863D01*
X107535762Y-55883911D01*
X107535717Y-55883964D01*
X107534835Y-55884835D01*
X106484835Y-56934835D01*
X106462870Y-56961574D01*
X106440582Y-56988137D01*
X106439630Y-56989867D01*
X106438381Y-56991389D01*
X106422022Y-57021896D01*
X106405324Y-57052272D01*
X106404728Y-57054150D01*
X106403796Y-57055889D01*
X106393673Y-57088998D01*
X106383195Y-57122033D01*
X106382974Y-57123995D01*
X106382399Y-57125879D01*
X106378896Y-57160352D01*
X106375037Y-57194764D01*
X106375009Y-57198614D01*
X106375002Y-57198691D01*
X106375008Y-57198762D01*
X106375000Y-57200000D01*
X106375000Y-58694670D01*
X106317221Y-58752449D01*
X106317221Y-54066024D01*
X106285577Y-53612688D01*
X106166099Y-53174236D01*
X105963380Y-52767517D01*
X105890019Y-52657723D01*
X105608155Y-52427201D01*
X105572799Y-52462556D01*
X105572799Y-52391845D01*
X105342277Y-52109981D01*
X104947761Y-51884433D01*
X104516823Y-51740184D01*
X104066024Y-51682779D01*
X103612688Y-51714423D01*
X103174236Y-51833901D01*
X102767517Y-52036620D01*
X102657723Y-52109981D01*
X102427201Y-52391845D01*
X104000000Y-53964645D01*
X105572799Y-52391845D01*
X105572799Y-52462556D01*
X104035355Y-54000000D01*
X105608155Y-55572799D01*
X105890019Y-55342277D01*
X106115567Y-54947761D01*
X106259816Y-54516823D01*
X106317221Y-54066024D01*
X106317221Y-58752449D01*
X105572799Y-59496871D01*
X105572799Y-55608155D01*
X104000000Y-54035355D01*
X103964645Y-54070710D01*
X103964645Y-54000000D01*
X102391845Y-52427201D01*
X102109981Y-52657723D01*
X101884433Y-53052239D01*
X101740184Y-53483177D01*
X101682779Y-53933976D01*
X101714423Y-54387312D01*
X101833901Y-54825764D01*
X102036620Y-55232483D01*
X102109981Y-55342277D01*
X102391845Y-55572799D01*
X103964645Y-54000000D01*
X103964645Y-54070710D01*
X102427201Y-55608155D01*
X102657723Y-55890019D01*
X103052239Y-56115567D01*
X103483177Y-56259816D01*
X103933976Y-56317221D01*
X104387312Y-56285577D01*
X104825764Y-56166099D01*
X105232483Y-55963380D01*
X105342277Y-55890019D01*
X105572799Y-55608155D01*
X105572799Y-59496871D01*
X104104670Y-60965000D01*
X103624831Y-60965000D01*
X103624831Y-59498500D01*
X103624831Y-58101500D01*
X103621204Y-58056875D01*
X103598047Y-57982821D01*
X103555216Y-57918123D01*
X103496087Y-57867884D01*
X103425322Y-57836063D01*
X103348500Y-57825169D01*
X101951500Y-57825169D01*
X101906875Y-57828796D01*
X101832821Y-57851953D01*
X101768123Y-57894784D01*
X101717884Y-57953913D01*
X101686063Y-58024678D01*
X101675169Y-58101500D01*
X101675169Y-59498500D01*
X101678796Y-59543125D01*
X101701953Y-59617179D01*
X101744784Y-59681877D01*
X101803913Y-59732116D01*
X101874678Y-59763937D01*
X101951500Y-59774831D01*
X103348500Y-59774831D01*
X103393125Y-59771204D01*
X103467179Y-59748047D01*
X103531877Y-59705216D01*
X103582116Y-59646087D01*
X103613937Y-59575322D01*
X103624831Y-59498500D01*
X103624831Y-60965000D01*
X103548430Y-60965000D01*
X103513708Y-60880758D01*
X103408058Y-60721743D01*
X103273535Y-60586276D01*
X103115260Y-60479519D01*
X102939265Y-60405537D01*
X102752251Y-60367149D01*
X102561342Y-60365816D01*
X102373811Y-60401589D01*
X102196799Y-60473107D01*
X102037050Y-60577644D01*
X101900648Y-60711219D01*
X101792788Y-60868744D01*
X101717579Y-61044219D01*
X101677886Y-61230960D01*
X101675221Y-61421855D01*
X101709684Y-61609631D01*
X101779964Y-61787138D01*
X101883383Y-61947613D01*
X102016003Y-62084944D01*
X102172771Y-62193901D01*
X102347716Y-62270333D01*
X102534176Y-62311329D01*
X102725047Y-62315327D01*
X102913060Y-62282175D01*
X103091053Y-62213136D01*
X103252246Y-62110840D01*
X103390500Y-61979183D01*
X103500549Y-61823179D01*
X103548713Y-61715000D01*
X104260000Y-61715000D01*
X104294473Y-61711619D01*
X104328982Y-61708601D01*
X104330877Y-61708050D01*
X104332838Y-61707858D01*
X104365991Y-61697848D01*
X104399263Y-61688182D01*
X104401012Y-61687275D01*
X104402901Y-61686705D01*
X104433510Y-61670429D01*
X104464239Y-61654501D01*
X104465778Y-61653272D01*
X104467522Y-61652345D01*
X104494422Y-61630406D01*
X104521436Y-61608841D01*
X104524178Y-61606137D01*
X104524238Y-61606089D01*
X104524283Y-61606033D01*
X104525165Y-61605165D01*
X107015165Y-59115165D01*
X107037111Y-59088447D01*
X107059418Y-59061863D01*
X107060371Y-59060129D01*
X107061619Y-59058610D01*
X107077965Y-59028124D01*
X107094676Y-58997728D01*
X107095272Y-58995849D01*
X107096204Y-58994111D01*
X107106339Y-58960960D01*
X107116805Y-58927967D01*
X107117024Y-58926009D01*
X107117602Y-58924121D01*
X107121108Y-58889597D01*
X107124963Y-58855236D01*
X107124990Y-58851385D01*
X107124998Y-58851309D01*
X107124991Y-58851237D01*
X107125000Y-58850000D01*
X107125000Y-57355330D01*
X107955330Y-56525000D01*
X115144670Y-56525000D01*
X115615000Y-56995330D01*
X115615000Y-57501511D01*
X115536799Y-57533107D01*
X115377050Y-57637644D01*
X115240648Y-57771219D01*
X115132788Y-57928744D01*
X115057579Y-58104219D01*
X115017886Y-58290960D01*
X115015221Y-58481855D01*
X115049684Y-58669631D01*
X115119964Y-58847138D01*
X115223383Y-59007613D01*
X115356003Y-59144944D01*
X115512771Y-59253901D01*
X115687716Y-59330333D01*
X115874176Y-59371329D01*
X116065047Y-59375327D01*
X116253060Y-59342175D01*
X116431053Y-59273136D01*
X116592246Y-59170840D01*
X116730500Y-59039183D01*
X116840549Y-58883179D01*
X116918200Y-58708771D01*
X116960497Y-58522602D01*
X116963541Y-58304543D01*
X116963541Y-98925000D01*
X116775000Y-98925000D01*
X116775000Y-75500000D01*
X116775000Y-62900000D01*
X116771619Y-62865526D01*
X116768601Y-62831018D01*
X116768050Y-62829122D01*
X116767858Y-62827162D01*
X116757848Y-62794008D01*
X116748182Y-62760737D01*
X116747275Y-62758987D01*
X116746705Y-62757099D01*
X116730429Y-62726489D01*
X116714501Y-62695761D01*
X116713272Y-62694221D01*
X116712345Y-62692478D01*
X116690406Y-62665577D01*
X116668841Y-62638564D01*
X116666137Y-62635821D01*
X116666089Y-62635762D01*
X116666033Y-62635716D01*
X116665165Y-62634835D01*
X113825000Y-59794670D01*
X113825000Y-59298756D01*
X113891053Y-59273136D01*
X114052246Y-59170840D01*
X114190500Y-59039183D01*
X114300549Y-58883179D01*
X114378200Y-58708771D01*
X114420497Y-58522602D01*
X114423541Y-58304543D01*
X114386460Y-58117266D01*
X114313708Y-57940758D01*
X114208058Y-57781743D01*
X114073535Y-57646276D01*
X113915260Y-57539519D01*
X113739265Y-57465537D01*
X113552251Y-57427149D01*
X113361342Y-57425816D01*
X113173811Y-57461589D01*
X112996799Y-57533107D01*
X112837050Y-57637644D01*
X112700648Y-57771219D01*
X112592788Y-57928744D01*
X112517579Y-58104219D01*
X112477886Y-58290960D01*
X112475221Y-58481855D01*
X112509684Y-58669631D01*
X112579964Y-58847138D01*
X112683383Y-59007613D01*
X112816003Y-59144944D01*
X112972771Y-59253901D01*
X113075000Y-59298563D01*
X113075000Y-59950000D01*
X113078380Y-59984473D01*
X113081399Y-60018982D01*
X113081949Y-60020877D01*
X113082142Y-60022838D01*
X113092151Y-60055991D01*
X113101818Y-60089263D01*
X113102724Y-60091012D01*
X113103295Y-60092901D01*
X113119570Y-60123510D01*
X113135499Y-60154239D01*
X113136727Y-60155778D01*
X113137655Y-60157522D01*
X113159593Y-60184422D01*
X113181159Y-60211436D01*
X113183862Y-60214178D01*
X113183911Y-60214238D01*
X113183966Y-60214283D01*
X113184835Y-60215165D01*
X116025000Y-63055330D01*
X116025000Y-65985030D01*
X115993867Y-65964031D01*
X115863791Y-65909352D01*
X115725572Y-65880980D01*
X115584474Y-65879995D01*
X115445872Y-65906434D01*
X115315046Y-65959292D01*
X115196977Y-66036553D01*
X115096164Y-66135277D01*
X115016447Y-66251701D01*
X114960861Y-66381392D01*
X114931525Y-66519410D01*
X114929555Y-66660497D01*
X114955026Y-66799281D01*
X115006969Y-66930473D01*
X115083405Y-67049078D01*
X115181422Y-67150578D01*
X115275000Y-67215616D01*
X115275000Y-74194670D01*
X113769531Y-75700139D01*
X113769531Y-74279449D01*
X113742124Y-74141036D01*
X113688354Y-74010581D01*
X113610270Y-73893055D01*
X113510845Y-73792934D01*
X113393867Y-73714031D01*
X113263791Y-73659352D01*
X113125572Y-73630980D01*
X112984474Y-73629995D01*
X112845872Y-73656434D01*
X112715046Y-73709292D01*
X112596977Y-73786553D01*
X112569531Y-73813430D01*
X112569531Y-66429449D01*
X112542124Y-66291036D01*
X112488354Y-66160581D01*
X112410270Y-66043055D01*
X112310845Y-65942934D01*
X112225000Y-65885030D01*
X112225000Y-62650000D01*
X112221629Y-62615621D01*
X112218602Y-62581018D01*
X112218049Y-62579117D01*
X112217858Y-62577162D01*
X112207861Y-62544049D01*
X112198182Y-62510737D01*
X112197275Y-62508987D01*
X112196705Y-62507099D01*
X112180429Y-62476489D01*
X112164501Y-62445761D01*
X112163272Y-62444221D01*
X112162345Y-62442478D01*
X112140406Y-62415577D01*
X112118841Y-62388564D01*
X112116137Y-62385821D01*
X112116089Y-62385762D01*
X112116033Y-62385716D01*
X112115165Y-62384835D01*
X111285000Y-61554670D01*
X111285000Y-59374831D01*
X111608500Y-59374831D01*
X111653125Y-59371204D01*
X111727179Y-59348047D01*
X111791877Y-59305216D01*
X111842116Y-59246087D01*
X111873937Y-59175322D01*
X111884831Y-59098500D01*
X111884831Y-57701500D01*
X111881204Y-57656875D01*
X111858047Y-57582821D01*
X111815216Y-57518123D01*
X111756087Y-57467884D01*
X111685322Y-57436063D01*
X111608500Y-57425169D01*
X110211500Y-57425169D01*
X110166875Y-57428796D01*
X110092821Y-57451953D01*
X110028123Y-57494784D01*
X109977884Y-57553913D01*
X109946063Y-57624678D01*
X109935169Y-57701500D01*
X109935169Y-59098500D01*
X109938796Y-59143125D01*
X109961953Y-59217179D01*
X110004784Y-59281877D01*
X110063913Y-59332116D01*
X110134678Y-59363937D01*
X110211500Y-59374831D01*
X110535000Y-59374831D01*
X110535000Y-61710000D01*
X110538380Y-61744473D01*
X110541399Y-61778982D01*
X110541949Y-61780877D01*
X110542142Y-61782838D01*
X110552151Y-61815991D01*
X110561818Y-61849263D01*
X110562724Y-61851012D01*
X110563295Y-61852901D01*
X110579570Y-61883510D01*
X110595499Y-61914239D01*
X110596727Y-61915778D01*
X110597655Y-61917522D01*
X110619593Y-61944422D01*
X110641159Y-61971436D01*
X110643862Y-61974178D01*
X110643911Y-61974238D01*
X110643966Y-61974283D01*
X110644835Y-61975165D01*
X111475000Y-62805330D01*
X111475000Y-65885496D01*
X111396977Y-65936553D01*
X111296164Y-66035277D01*
X111216447Y-66151701D01*
X111160861Y-66281392D01*
X111131525Y-66419410D01*
X111129555Y-66560497D01*
X111155026Y-66699281D01*
X111206969Y-66830473D01*
X111283405Y-66949078D01*
X111381422Y-67050578D01*
X111497287Y-67131106D01*
X111626587Y-67187596D01*
X111764396Y-67217895D01*
X111905466Y-67220850D01*
X112044424Y-67196348D01*
X112175976Y-67145323D01*
X112295112Y-67069717D01*
X112397293Y-66972411D01*
X112478628Y-66857111D01*
X112536019Y-66728208D01*
X112567280Y-66590614D01*
X112569531Y-66429449D01*
X112569531Y-73813430D01*
X112496164Y-73885277D01*
X112434729Y-73975000D01*
X107369531Y-73975000D01*
X107369531Y-71329449D01*
X107342124Y-71191036D01*
X107288354Y-71060581D01*
X107210270Y-70943055D01*
X107110845Y-70842934D01*
X107025000Y-70785030D01*
X107025000Y-65950000D01*
X107021619Y-65915526D01*
X107018601Y-65881018D01*
X107018050Y-65879122D01*
X107017858Y-65877162D01*
X107007848Y-65844008D01*
X106998182Y-65810737D01*
X106997275Y-65808987D01*
X106996705Y-65807099D01*
X106980429Y-65776489D01*
X106964501Y-65745761D01*
X106963272Y-65744221D01*
X106962345Y-65742478D01*
X106940425Y-65715602D01*
X106918841Y-65688563D01*
X106916136Y-65685820D01*
X106916089Y-65685762D01*
X106916035Y-65685717D01*
X106915165Y-65684835D01*
X104845165Y-63614835D01*
X104818425Y-63592870D01*
X104791863Y-63570582D01*
X104790132Y-63569630D01*
X104788611Y-63568381D01*
X104758103Y-63552022D01*
X104727728Y-63535324D01*
X104725849Y-63534728D01*
X104724111Y-63533796D01*
X104691001Y-63523673D01*
X104657967Y-63513195D01*
X104656004Y-63512974D01*
X104654121Y-63512399D01*
X104619647Y-63508896D01*
X104585236Y-63505037D01*
X104581385Y-63505009D01*
X104581309Y-63505002D01*
X104581237Y-63505008D01*
X104580000Y-63505000D01*
X103548430Y-63505000D01*
X103513708Y-63420758D01*
X103408058Y-63261743D01*
X103273535Y-63126276D01*
X103115260Y-63019519D01*
X102939265Y-62945537D01*
X102752251Y-62907149D01*
X102561342Y-62905816D01*
X102373811Y-62941589D01*
X102196799Y-63013107D01*
X102037050Y-63117644D01*
X101900648Y-63251219D01*
X101792788Y-63408744D01*
X101717579Y-63584219D01*
X101677886Y-63770960D01*
X101675221Y-63961855D01*
X101709684Y-64149631D01*
X101779964Y-64327138D01*
X101883383Y-64487613D01*
X102016003Y-64624944D01*
X102172771Y-64733901D01*
X102347716Y-64810333D01*
X102534176Y-64851329D01*
X102725047Y-64855327D01*
X102913060Y-64822175D01*
X103091053Y-64753136D01*
X103252246Y-64650840D01*
X103390500Y-64519183D01*
X103500549Y-64363179D01*
X103548713Y-64255000D01*
X104424670Y-64255000D01*
X106275000Y-66105330D01*
X106275000Y-70785496D01*
X106196977Y-70836553D01*
X106096164Y-70935277D01*
X106016447Y-71051701D01*
X105960861Y-71181392D01*
X105931525Y-71319410D01*
X105929555Y-71460497D01*
X105955026Y-71599281D01*
X106006969Y-71730473D01*
X106083405Y-71849078D01*
X106181422Y-71950578D01*
X106297287Y-72031106D01*
X106426587Y-72087596D01*
X106564396Y-72117895D01*
X106705466Y-72120850D01*
X106844424Y-72096348D01*
X106975976Y-72045323D01*
X107095112Y-71969717D01*
X107197293Y-71872411D01*
X107278628Y-71757111D01*
X107336019Y-71628208D01*
X107367280Y-71490614D01*
X107369531Y-71329449D01*
X107369531Y-73975000D01*
X107005330Y-73975000D01*
X105675000Y-72644670D01*
X105675000Y-67100000D01*
X105671620Y-67065530D01*
X105668601Y-67031018D01*
X105668050Y-67029122D01*
X105667858Y-67027162D01*
X105657848Y-66994008D01*
X105648182Y-66960737D01*
X105647275Y-66958987D01*
X105646705Y-66957099D01*
X105630429Y-66926489D01*
X105614501Y-66895761D01*
X105613272Y-66894221D01*
X105612345Y-66892478D01*
X105590425Y-66865602D01*
X105568841Y-66838563D01*
X105566136Y-66835820D01*
X105566089Y-66835762D01*
X105566035Y-66835717D01*
X105565165Y-66834835D01*
X104885165Y-66154835D01*
X104858425Y-66132870D01*
X104831863Y-66110582D01*
X104830132Y-66109630D01*
X104828611Y-66108381D01*
X104798103Y-66092022D01*
X104767728Y-66075324D01*
X104765849Y-66074728D01*
X104764111Y-66073796D01*
X104731001Y-66063673D01*
X104697967Y-66053195D01*
X104696004Y-66052974D01*
X104694121Y-66052399D01*
X104659647Y-66048896D01*
X104625236Y-66045037D01*
X104621385Y-66045009D01*
X104621309Y-66045002D01*
X104621237Y-66045008D01*
X104620000Y-66045000D01*
X103548430Y-66045000D01*
X103513708Y-65960758D01*
X103408058Y-65801743D01*
X103273535Y-65666276D01*
X103115260Y-65559519D01*
X102939265Y-65485537D01*
X102752251Y-65447149D01*
X102561342Y-65445816D01*
X102373811Y-65481589D01*
X102196799Y-65553107D01*
X102037050Y-65657644D01*
X101900648Y-65791219D01*
X101792788Y-65948744D01*
X101717579Y-66124219D01*
X101677886Y-66310960D01*
X101675221Y-66501855D01*
X101709684Y-66689631D01*
X101779964Y-66867138D01*
X101883383Y-67027613D01*
X102016003Y-67164944D01*
X102172771Y-67273901D01*
X102347716Y-67350333D01*
X102534176Y-67391329D01*
X102725047Y-67395327D01*
X102913060Y-67362175D01*
X103091053Y-67293136D01*
X103252246Y-67190840D01*
X103390500Y-67059183D01*
X103500549Y-66903179D01*
X103548713Y-66795000D01*
X104464670Y-66795000D01*
X104925000Y-67255330D01*
X104925000Y-72800000D01*
X104928380Y-72834473D01*
X104931399Y-72868982D01*
X104931949Y-72870877D01*
X104932142Y-72872838D01*
X104942151Y-72905991D01*
X104951818Y-72939263D01*
X104952724Y-72941012D01*
X104953295Y-72942901D01*
X104969570Y-72973510D01*
X104985499Y-73004239D01*
X104986727Y-73005778D01*
X104987655Y-73007522D01*
X105009593Y-73034422D01*
X105031159Y-73061436D01*
X105033862Y-73064178D01*
X105033911Y-73064238D01*
X105033966Y-73064283D01*
X105034835Y-73065165D01*
X106584835Y-74615165D01*
X106611574Y-74637129D01*
X106638137Y-74659418D01*
X106639867Y-74660369D01*
X106641389Y-74661619D01*
X106671896Y-74677977D01*
X106702272Y-74694676D01*
X106704150Y-74695271D01*
X106705889Y-74696204D01*
X106738998Y-74706326D01*
X106772033Y-74716805D01*
X106773995Y-74717025D01*
X106775879Y-74717601D01*
X106810352Y-74721103D01*
X106844764Y-74724963D01*
X106848614Y-74724990D01*
X106848691Y-74724998D01*
X106848762Y-74724991D01*
X106850000Y-74725000D01*
X112435664Y-74725000D01*
X112483405Y-74799078D01*
X112581422Y-74900578D01*
X112697287Y-74981106D01*
X112826587Y-75037596D01*
X112964396Y-75067895D01*
X113105466Y-75070850D01*
X113244424Y-75046348D01*
X113375976Y-74995323D01*
X113495112Y-74919717D01*
X113597293Y-74822411D01*
X113678628Y-74707111D01*
X113736019Y-74578208D01*
X113767280Y-74440614D01*
X113769531Y-74279449D01*
X113769531Y-75700139D01*
X113544670Y-75925000D01*
X103628117Y-75925000D01*
X103628117Y-68973412D01*
X103611940Y-68782332D01*
X103558795Y-68598082D01*
X103470725Y-68427739D01*
X103455825Y-68405436D01*
X103310520Y-68334836D01*
X103275164Y-68370191D01*
X103275164Y-68299480D01*
X103204564Y-68154175D01*
X103036700Y-68061470D01*
X102853975Y-68003293D01*
X102663412Y-67981883D01*
X102472332Y-67998060D01*
X102288082Y-68051205D01*
X102117739Y-68139275D01*
X102095436Y-68154175D01*
X102024836Y-68299480D01*
X102650000Y-68924645D01*
X103275164Y-68299480D01*
X103275164Y-68370191D01*
X102685355Y-68960000D01*
X103310520Y-69585164D01*
X103455825Y-69514564D01*
X103548530Y-69346700D01*
X103606707Y-69163975D01*
X103628117Y-68973412D01*
X103628117Y-75925000D01*
X103624831Y-75925000D01*
X103624831Y-74458500D01*
X103624831Y-73061500D01*
X103621204Y-73016875D01*
X103598047Y-72942821D01*
X103555216Y-72878123D01*
X103496087Y-72827884D01*
X103425322Y-72796063D01*
X103348500Y-72785169D01*
X103275164Y-72785169D01*
X103275164Y-69620520D01*
X102650000Y-68995355D01*
X102614645Y-69030710D01*
X102614645Y-68960000D01*
X101989480Y-68334836D01*
X101844175Y-68405436D01*
X101751470Y-68573300D01*
X101693293Y-68756025D01*
X101671883Y-68946588D01*
X101688060Y-69137668D01*
X101741205Y-69321918D01*
X101829275Y-69492261D01*
X101844175Y-69514564D01*
X101989480Y-69585164D01*
X102614645Y-68960000D01*
X102614645Y-69030710D01*
X102024836Y-69620520D01*
X102095436Y-69765825D01*
X102263300Y-69858530D01*
X102446025Y-69916707D01*
X102636588Y-69938117D01*
X102827668Y-69921940D01*
X103011918Y-69868795D01*
X103182261Y-69780725D01*
X103204564Y-69765825D01*
X103275164Y-69620520D01*
X103275164Y-72785169D01*
X101951500Y-72785169D01*
X101906875Y-72788796D01*
X101832821Y-72811953D01*
X101768123Y-72854784D01*
X101717884Y-72913913D01*
X101686063Y-72984678D01*
X101675169Y-73061500D01*
X101675169Y-74458500D01*
X101678796Y-74503125D01*
X101701953Y-74577179D01*
X101744784Y-74641877D01*
X101803913Y-74692116D01*
X101874678Y-74723937D01*
X101951500Y-74734831D01*
X103348500Y-74734831D01*
X103393125Y-74731204D01*
X103467179Y-74708047D01*
X103531877Y-74665216D01*
X103582116Y-74606087D01*
X103613937Y-74535322D01*
X103624831Y-74458500D01*
X103624831Y-75925000D01*
X103548430Y-75925000D01*
X103513708Y-75840758D01*
X103408058Y-75681743D01*
X103273535Y-75546276D01*
X103115260Y-75439519D01*
X102939265Y-75365537D01*
X102752251Y-75327149D01*
X102561342Y-75325816D01*
X102373811Y-75361589D01*
X102196799Y-75433107D01*
X102037050Y-75537644D01*
X101900648Y-75671219D01*
X101792788Y-75828744D01*
X101717579Y-76004219D01*
X101677886Y-76190960D01*
X101675221Y-76381855D01*
X101709684Y-76569631D01*
X101779964Y-76747138D01*
X101883383Y-76907613D01*
X102016003Y-77044944D01*
X102172771Y-77153901D01*
X102347716Y-77230333D01*
X102534176Y-77271329D01*
X102725047Y-77275327D01*
X102913060Y-77242175D01*
X103091053Y-77173136D01*
X103252246Y-77070840D01*
X103390500Y-76939183D01*
X103500549Y-76783179D01*
X103548713Y-76675000D01*
X113700000Y-76675000D01*
X113734473Y-76671619D01*
X113768982Y-76668601D01*
X113770877Y-76668050D01*
X113772838Y-76667858D01*
X113805991Y-76657848D01*
X113839263Y-76648182D01*
X113841012Y-76647275D01*
X113842901Y-76646705D01*
X113873510Y-76630429D01*
X113904239Y-76614501D01*
X113905778Y-76613272D01*
X113907522Y-76612345D01*
X113934422Y-76590406D01*
X113961436Y-76568841D01*
X113964178Y-76566137D01*
X113964238Y-76566089D01*
X113964283Y-76566033D01*
X113965165Y-76565165D01*
X115915165Y-74615165D01*
X115937129Y-74588425D01*
X115959418Y-74561863D01*
X115960369Y-74560132D01*
X115961619Y-74558611D01*
X115977968Y-74528119D01*
X115994676Y-74497728D01*
X115995272Y-74495847D01*
X115996203Y-74494112D01*
X116006316Y-74461033D01*
X116016805Y-74427967D01*
X116017025Y-74426004D01*
X116017601Y-74424121D01*
X116021103Y-74389647D01*
X116024963Y-74355236D01*
X116024990Y-74351385D01*
X116024998Y-74351309D01*
X116024991Y-74351237D01*
X116025000Y-74350000D01*
X116025000Y-75344670D01*
X114219424Y-77150245D01*
X114125572Y-77130980D01*
X113984474Y-77129995D01*
X113845872Y-77156434D01*
X113715046Y-77209292D01*
X113596977Y-77286553D01*
X113496164Y-77385277D01*
X113416447Y-77501701D01*
X113360861Y-77631392D01*
X113331525Y-77769410D01*
X113329555Y-77910497D01*
X113355026Y-78049281D01*
X113406969Y-78180473D01*
X113483405Y-78299078D01*
X113581422Y-78400578D01*
X113697287Y-78481106D01*
X113826587Y-78537596D01*
X113964396Y-78567895D01*
X114105466Y-78570850D01*
X114244424Y-78546348D01*
X114375976Y-78495323D01*
X114495112Y-78419717D01*
X114597293Y-78322411D01*
X114678628Y-78207111D01*
X114736019Y-78078208D01*
X114767280Y-77940614D01*
X114769531Y-77779449D01*
X114749920Y-77680409D01*
X116665165Y-75765165D01*
X116687129Y-75738425D01*
X116709418Y-75711863D01*
X116710369Y-75710132D01*
X116711619Y-75708611D01*
X116727977Y-75678103D01*
X116744676Y-75647728D01*
X116745271Y-75645849D01*
X116746204Y-75644111D01*
X116756339Y-75610960D01*
X116766805Y-75577967D01*
X116767024Y-75576009D01*
X116767602Y-75574121D01*
X116771108Y-75539597D01*
X116774963Y-75505236D01*
X116774990Y-75501385D01*
X116774998Y-75501309D01*
X116774991Y-75501237D01*
X116775000Y-75500000D01*
X116775000Y-98925000D01*
X106317221Y-98925000D01*
X106317221Y-96066024D01*
X106285577Y-95612688D01*
X106166099Y-95174236D01*
X105963380Y-94767517D01*
X105890019Y-94657723D01*
X105608155Y-94427201D01*
X105572799Y-94462556D01*
X105572799Y-94391845D01*
X105342277Y-94109981D01*
X104947761Y-93884433D01*
X104516823Y-93740184D01*
X104066024Y-93682779D01*
X103612688Y-93714423D01*
X103174236Y-93833901D01*
X102767517Y-94036620D01*
X102657723Y-94109981D01*
X102427201Y-94391845D01*
X104000000Y-95964645D01*
X105572799Y-94391845D01*
X105572799Y-94462556D01*
X104035355Y-96000000D01*
X105608155Y-97572799D01*
X105890019Y-97342277D01*
X106115567Y-96947761D01*
X106259816Y-96516823D01*
X106317221Y-96066024D01*
X106317221Y-98925000D01*
X105572799Y-98925000D01*
X105572799Y-97608155D01*
X104000000Y-96035355D01*
X103964645Y-96070710D01*
X103964645Y-96000000D01*
X102391845Y-94427201D01*
X102109981Y-94657723D01*
X101884433Y-95052239D01*
X101740184Y-95483177D01*
X101682779Y-95933976D01*
X101714423Y-96387312D01*
X101833901Y-96825764D01*
X102036620Y-97232483D01*
X102109981Y-97342277D01*
X102391845Y-97572799D01*
X103964645Y-96000000D01*
X103964645Y-96070710D01*
X102427201Y-97608155D01*
X102657723Y-97890019D01*
X103052239Y-98115567D01*
X103483177Y-98259816D01*
X103933976Y-98317221D01*
X104387312Y-98285577D01*
X104825764Y-98166099D01*
X105232483Y-97963380D01*
X105342277Y-97890019D01*
X105572799Y-97608155D01*
X105572799Y-98925000D01*
X101081066Y-98925000D01*
X101075000Y-98918934D01*
X101075000Y-91793213D01*
X101176587Y-91837596D01*
X101314396Y-91867895D01*
X101455466Y-91870850D01*
X101570275Y-91850605D01*
X102184835Y-92465165D01*
X102211574Y-92487129D01*
X102238137Y-92509418D01*
X102239867Y-92510369D01*
X102241389Y-92511619D01*
X102271896Y-92527977D01*
X102302272Y-92544676D01*
X102304150Y-92545271D01*
X102305889Y-92546204D01*
X102338998Y-92556326D01*
X102372033Y-92566805D01*
X102373995Y-92567025D01*
X102375879Y-92567601D01*
X102410352Y-92571103D01*
X102444764Y-92574963D01*
X102448614Y-92574990D01*
X102448691Y-92574998D01*
X102448762Y-92574991D01*
X102450000Y-92575000D01*
X108100000Y-92575000D01*
X108134473Y-92571619D01*
X108168982Y-92568601D01*
X108170877Y-92568050D01*
X108172838Y-92567858D01*
X108205991Y-92557848D01*
X108239263Y-92548182D01*
X108241012Y-92547275D01*
X108242901Y-92546705D01*
X108273510Y-92530429D01*
X108304239Y-92514501D01*
X108305778Y-92513272D01*
X108307522Y-92512345D01*
X108334422Y-92490406D01*
X108361436Y-92468841D01*
X108364178Y-92466137D01*
X108364238Y-92466089D01*
X108364283Y-92466033D01*
X108365165Y-92465165D01*
X110415165Y-90415165D01*
X110437129Y-90388425D01*
X110459418Y-90361863D01*
X110460369Y-90360132D01*
X110461619Y-90358611D01*
X110477977Y-90328103D01*
X110494676Y-90297728D01*
X110495271Y-90295849D01*
X110496204Y-90294111D01*
X110506339Y-90260960D01*
X110516805Y-90227967D01*
X110517024Y-90226009D01*
X110517602Y-90224121D01*
X110521108Y-90189597D01*
X110524963Y-90155236D01*
X110524990Y-90151385D01*
X110524998Y-90151309D01*
X110524991Y-90151237D01*
X110525000Y-90150000D01*
X110525000Y-87364211D01*
X110595112Y-87319717D01*
X110697293Y-87222411D01*
X110778628Y-87107111D01*
X110836019Y-86978208D01*
X110867280Y-86840614D01*
X110869531Y-86679449D01*
X110842124Y-86541036D01*
X110788354Y-86410581D01*
X110710270Y-86293055D01*
X110610845Y-86192934D01*
X110525000Y-86135030D01*
X110525000Y-83705330D01*
X115680811Y-78549518D01*
X115764396Y-78567895D01*
X115905466Y-78570850D01*
X116044424Y-78546348D01*
X116175976Y-78495323D01*
X116295112Y-78419717D01*
X116397293Y-78322411D01*
X116478628Y-78207111D01*
X116536019Y-78078208D01*
X116567280Y-77940614D01*
X116569531Y-77779449D01*
X116542124Y-77641036D01*
X116488354Y-77510581D01*
X116410270Y-77393055D01*
X116310845Y-77292934D01*
X116193867Y-77214031D01*
X116063791Y-77159352D01*
X115925572Y-77130980D01*
X115784474Y-77129995D01*
X115645872Y-77156434D01*
X115515046Y-77209292D01*
X115396977Y-77286553D01*
X115296164Y-77385277D01*
X115216447Y-77501701D01*
X115160861Y-77631392D01*
X115131525Y-77769410D01*
X115129555Y-77910497D01*
X115149654Y-78020015D01*
X109884835Y-83284835D01*
X109862870Y-83311574D01*
X109840582Y-83338137D01*
X109839630Y-83339867D01*
X109838381Y-83341389D01*
X109822022Y-83371896D01*
X109805324Y-83402272D01*
X109804728Y-83404150D01*
X109803796Y-83405889D01*
X109793673Y-83438998D01*
X109783195Y-83472033D01*
X109782974Y-83473995D01*
X109782399Y-83475879D01*
X109778896Y-83510352D01*
X109775037Y-83544764D01*
X109775009Y-83548614D01*
X109775002Y-83548691D01*
X109775008Y-83548762D01*
X109775000Y-83550000D01*
X109775000Y-86135496D01*
X109696977Y-86186553D01*
X109596164Y-86285277D01*
X109516447Y-86401701D01*
X109460861Y-86531392D01*
X109431525Y-86669410D01*
X109429555Y-86810497D01*
X109455026Y-86949281D01*
X109506969Y-87080473D01*
X109583405Y-87199078D01*
X109681422Y-87300578D01*
X109775000Y-87365616D01*
X109775000Y-89994670D01*
X107944670Y-91825000D01*
X107299463Y-91825000D01*
X107375976Y-91795323D01*
X107495112Y-91719717D01*
X107597293Y-91622411D01*
X107678628Y-91507111D01*
X107736019Y-91378208D01*
X107767280Y-91240614D01*
X107769531Y-91079449D01*
X107742124Y-90941036D01*
X107688354Y-90810581D01*
X107610270Y-90693055D01*
X107510845Y-90592934D01*
X107425000Y-90535030D01*
X107425000Y-87205330D01*
X107965165Y-86665165D01*
X107987129Y-86638425D01*
X108009418Y-86611863D01*
X108010369Y-86610132D01*
X108011619Y-86608611D01*
X108027977Y-86578103D01*
X108044676Y-86547728D01*
X108045271Y-86545849D01*
X108046204Y-86544111D01*
X108056339Y-86510960D01*
X108066805Y-86477967D01*
X108067024Y-86476009D01*
X108067602Y-86474121D01*
X108071108Y-86439597D01*
X108074963Y-86405236D01*
X108074990Y-86401385D01*
X108074998Y-86401309D01*
X108074991Y-86401237D01*
X108075000Y-86400000D01*
X108075000Y-84364211D01*
X108145112Y-84319717D01*
X108247293Y-84222411D01*
X108328628Y-84107111D01*
X108386019Y-83978208D01*
X108417280Y-83840614D01*
X108419531Y-83679449D01*
X108392124Y-83541036D01*
X108338354Y-83410581D01*
X108260270Y-83293055D01*
X108160845Y-83192934D01*
X108075000Y-83135030D01*
X108075000Y-81855330D01*
X111530811Y-78399518D01*
X111614396Y-78417895D01*
X111755466Y-78420850D01*
X111894424Y-78396348D01*
X112025976Y-78345323D01*
X112145112Y-78269717D01*
X112247293Y-78172411D01*
X112328628Y-78057111D01*
X112386019Y-77928208D01*
X112417280Y-77790614D01*
X112419531Y-77629449D01*
X112392124Y-77491036D01*
X112338354Y-77360581D01*
X112260270Y-77243055D01*
X112160845Y-77142934D01*
X112043867Y-77064031D01*
X111913791Y-77009352D01*
X111775572Y-76980980D01*
X111634474Y-76979995D01*
X111495872Y-77006434D01*
X111365046Y-77059292D01*
X111246977Y-77136553D01*
X111146164Y-77235277D01*
X111066447Y-77351701D01*
X111010861Y-77481392D01*
X110981525Y-77619410D01*
X110979555Y-77760497D01*
X110999654Y-77870015D01*
X107434835Y-81434835D01*
X107412870Y-81461574D01*
X107390582Y-81488137D01*
X107389630Y-81489867D01*
X107388381Y-81491389D01*
X107372022Y-81521896D01*
X107355324Y-81552272D01*
X107354728Y-81554150D01*
X107353796Y-81555889D01*
X107343673Y-81588998D01*
X107333195Y-81622033D01*
X107332974Y-81623995D01*
X107332399Y-81625879D01*
X107328896Y-81660352D01*
X107325037Y-81694764D01*
X107325009Y-81698614D01*
X107325002Y-81698691D01*
X107325008Y-81698762D01*
X107325000Y-81700000D01*
X107325000Y-83135496D01*
X107246977Y-83186553D01*
X107146164Y-83285277D01*
X107066447Y-83401701D01*
X107010861Y-83531392D01*
X106981525Y-83669410D01*
X106979555Y-83810497D01*
X107005026Y-83949281D01*
X107056969Y-84080473D01*
X107133405Y-84199078D01*
X107231422Y-84300578D01*
X107325000Y-84365616D01*
X107325000Y-86244670D01*
X106784835Y-86784835D01*
X106762870Y-86811574D01*
X106740582Y-86838137D01*
X106739630Y-86839867D01*
X106738381Y-86841389D01*
X106722022Y-86871896D01*
X106705324Y-86902272D01*
X106704728Y-86904150D01*
X106703796Y-86905889D01*
X106693673Y-86938998D01*
X106683195Y-86972033D01*
X106682974Y-86973995D01*
X106682399Y-86975879D01*
X106678896Y-87010352D01*
X106675037Y-87044764D01*
X106675009Y-87048614D01*
X106675002Y-87048691D01*
X106675008Y-87048762D01*
X106675000Y-87050000D01*
X106675000Y-90535496D01*
X106596977Y-90586553D01*
X106496164Y-90685277D01*
X106416447Y-90801701D01*
X106360861Y-90931392D01*
X106331525Y-91069410D01*
X106329555Y-91210497D01*
X106355026Y-91349281D01*
X106406969Y-91480473D01*
X106483405Y-91599078D01*
X106581422Y-91700578D01*
X106697287Y-91781106D01*
X106797756Y-91825000D01*
X106143541Y-91825000D01*
X106143541Y-84004543D01*
X106106460Y-83817266D01*
X106033708Y-83640758D01*
X105928058Y-83481743D01*
X105793535Y-83346276D01*
X105635260Y-83239519D01*
X105459265Y-83165537D01*
X105272251Y-83127149D01*
X105081342Y-83125816D01*
X104893811Y-83161589D01*
X104716799Y-83233107D01*
X104557050Y-83337644D01*
X104420648Y-83471219D01*
X104312788Y-83628744D01*
X104237579Y-83804219D01*
X104197886Y-83990960D01*
X104195221Y-84181855D01*
X104229684Y-84369631D01*
X104299964Y-84547138D01*
X104403383Y-84707613D01*
X104536003Y-84844944D01*
X104692771Y-84953901D01*
X104867716Y-85030333D01*
X105054176Y-85071329D01*
X105245047Y-85075327D01*
X105433060Y-85042175D01*
X105611053Y-84973136D01*
X105772246Y-84870840D01*
X105910500Y-84739183D01*
X106020549Y-84583179D01*
X106098200Y-84408771D01*
X106140497Y-84222602D01*
X106143541Y-84004543D01*
X106143541Y-91825000D01*
X103623541Y-91825000D01*
X103623541Y-78744543D01*
X103586460Y-78557266D01*
X103513708Y-78380758D01*
X103408058Y-78221743D01*
X103273535Y-78086276D01*
X103115260Y-77979519D01*
X102939265Y-77905537D01*
X102752251Y-77867149D01*
X102561342Y-77865816D01*
X102373811Y-77901589D01*
X102196799Y-77973107D01*
X102037050Y-78077644D01*
X101900648Y-78211219D01*
X101792788Y-78368744D01*
X101717579Y-78544219D01*
X101677886Y-78730960D01*
X101675221Y-78921855D01*
X101709684Y-79109631D01*
X101779964Y-79287138D01*
X101883383Y-79447613D01*
X102016003Y-79584944D01*
X102172771Y-79693901D01*
X102347716Y-79770333D01*
X102534176Y-79811329D01*
X102725047Y-79815327D01*
X102913060Y-79782175D01*
X103091053Y-79713136D01*
X103252246Y-79610840D01*
X103390500Y-79479183D01*
X103500549Y-79323179D01*
X103578200Y-79148771D01*
X103620497Y-78962602D01*
X103623541Y-78744543D01*
X103623541Y-91825000D01*
X103604831Y-91825000D01*
X103604831Y-84798500D01*
X103604831Y-83401500D01*
X103601204Y-83356875D01*
X103578047Y-83282821D01*
X103535216Y-83218123D01*
X103476087Y-83167884D01*
X103405322Y-83136063D01*
X103328500Y-83125169D01*
X101931500Y-83125169D01*
X101886875Y-83128796D01*
X101812821Y-83151953D01*
X101748123Y-83194784D01*
X101697884Y-83253913D01*
X101666063Y-83324678D01*
X101655169Y-83401500D01*
X101655169Y-84798500D01*
X101658796Y-84843125D01*
X101681953Y-84917179D01*
X101724784Y-84981877D01*
X101783913Y-85032116D01*
X101854678Y-85063937D01*
X101931500Y-85074831D01*
X103328500Y-85074831D01*
X103373125Y-85071204D01*
X103447179Y-85048047D01*
X103511877Y-85005216D01*
X103562116Y-84946087D01*
X103593937Y-84875322D01*
X103604831Y-84798500D01*
X103604831Y-91825000D01*
X102605330Y-91825000D01*
X102099444Y-91319114D01*
X102117280Y-91240614D01*
X102119531Y-91079449D01*
X102092124Y-90941036D01*
X102038354Y-90810581D01*
X101960270Y-90693055D01*
X101860845Y-90592934D01*
X101743867Y-90514031D01*
X101613791Y-90459352D01*
X101475572Y-90430980D01*
X101334474Y-90429995D01*
X101195872Y-90456434D01*
X101075000Y-90505270D01*
X101075000Y-51081066D01*
X101081066Y-51075000D01*
X128918934Y-51075000D01*
X128925000Y-51081066D01*
X128925000Y-98918934D01*
X128925000Y-98918934D01*
G37*
X128925000Y-98918934D02*
X128918934Y-98925000D01*
X124317221Y-98925000D01*
X124317221Y-96066024D01*
X124317221Y-54066024D01*
X124285577Y-53612688D01*
X124166099Y-53174236D01*
X123963380Y-52767517D01*
X123890019Y-52657723D01*
X123608155Y-52427201D01*
X123572799Y-52462556D01*
X123572799Y-52391845D01*
X123342277Y-52109981D01*
X122947761Y-51884433D01*
X122516823Y-51740184D01*
X122066024Y-51682779D01*
X121612688Y-51714423D01*
X121174236Y-51833901D01*
X120767517Y-52036620D01*
X120657723Y-52109981D01*
X120427201Y-52391845D01*
X122000000Y-53964645D01*
X123572799Y-52391845D01*
X123572799Y-52462556D01*
X122035355Y-54000000D01*
X123608155Y-55572799D01*
X123890019Y-55342277D01*
X124115567Y-54947761D01*
X124259816Y-54516823D01*
X124317221Y-54066024D01*
X124317221Y-96066024D01*
X124285577Y-95612688D01*
X124166099Y-95174236D01*
X123963380Y-94767517D01*
X123890019Y-94657723D01*
X123608155Y-94427201D01*
X123572799Y-94462556D01*
X123572799Y-94391845D01*
X123572799Y-55608155D01*
X122000000Y-54035355D01*
X121964645Y-54070710D01*
X121964645Y-54000000D01*
X120391845Y-52427201D01*
X120109981Y-52657723D01*
X119884433Y-53052239D01*
X119740184Y-53483177D01*
X119682779Y-53933976D01*
X119714423Y-54387312D01*
X119833901Y-54825764D01*
X120036620Y-55232483D01*
X120109981Y-55342277D01*
X120391845Y-55572799D01*
X121964645Y-54000000D01*
X121964645Y-54070710D01*
X120427201Y-55608155D01*
X120657723Y-55890019D01*
X121052239Y-56115567D01*
X121483177Y-56259816D01*
X121933976Y-56317221D01*
X122387312Y-56285577D01*
X122825764Y-56166099D01*
X123232483Y-55963380D01*
X123342277Y-55890019D01*
X123572799Y-55608155D01*
X123572799Y-94391845D01*
X123342277Y-94109981D01*
X122947761Y-93884433D01*
X122516823Y-93740184D01*
X122066024Y-93682779D01*
X121978117Y-93688915D01*
X121978117Y-89583412D01*
X121978117Y-77583412D01*
X121978117Y-65483412D01*
X121974831Y-65444598D01*
X121974831Y-63628500D01*
X121974831Y-62231500D01*
X121971204Y-62186875D01*
X121948047Y-62112821D01*
X121905216Y-62048123D01*
X121846087Y-61997884D01*
X121775322Y-61966063D01*
X121698500Y-61955169D01*
X120301500Y-61955169D01*
X120256875Y-61958796D01*
X120182821Y-61981953D01*
X120118123Y-62024784D01*
X120067884Y-62083913D01*
X120036063Y-62154678D01*
X120025169Y-62231500D01*
X120025169Y-63628500D01*
X120028796Y-63673125D01*
X120051953Y-63747179D01*
X120094784Y-63811877D01*
X120153913Y-63862116D01*
X120224678Y-63893937D01*
X120301500Y-63904831D01*
X121698500Y-63904831D01*
X121743125Y-63901204D01*
X121817179Y-63878047D01*
X121881877Y-63835216D01*
X121932116Y-63776087D01*
X121963937Y-63705322D01*
X121974831Y-63628500D01*
X121974831Y-65444598D01*
X121961940Y-65292332D01*
X121908795Y-65108082D01*
X121820725Y-64937739D01*
X121805825Y-64915436D01*
X121660520Y-64844836D01*
X121625164Y-64880191D01*
X121625164Y-64809480D01*
X121554564Y-64664175D01*
X121386700Y-64571470D01*
X121203975Y-64513293D01*
X121013412Y-64491883D01*
X120822332Y-64508060D01*
X120638082Y-64561205D01*
X120467739Y-64649275D01*
X120445436Y-64664175D01*
X120374836Y-64809480D01*
X121000000Y-65434645D01*
X121625164Y-64809480D01*
X121625164Y-64880191D01*
X121035355Y-65470000D01*
X121660520Y-66095164D01*
X121805825Y-66024564D01*
X121898530Y-65856700D01*
X121956707Y-65673975D01*
X121978117Y-65483412D01*
X121978117Y-77583412D01*
X121974831Y-77544598D01*
X121974831Y-75728500D01*
X121974831Y-74331500D01*
X121971204Y-74286875D01*
X121948047Y-74212821D01*
X121905216Y-74148123D01*
X121846087Y-74097884D01*
X121775322Y-74066063D01*
X121698500Y-74055169D01*
X121625164Y-74055169D01*
X121625164Y-66130520D01*
X121000000Y-65505355D01*
X120964645Y-65540710D01*
X120964645Y-65470000D01*
X120339480Y-64844836D01*
X120194175Y-64915436D01*
X120101470Y-65083300D01*
X120043293Y-65266025D01*
X120021883Y-65456588D01*
X120038060Y-65647668D01*
X120091205Y-65831918D01*
X120179275Y-66002261D01*
X120194175Y-66024564D01*
X120339480Y-66095164D01*
X120964645Y-65470000D01*
X120964645Y-65540710D01*
X120374836Y-66130520D01*
X120445436Y-66275825D01*
X120613300Y-66368530D01*
X120796025Y-66426707D01*
X120986588Y-66448117D01*
X121177668Y-66431940D01*
X121361918Y-66378795D01*
X121532261Y-66290725D01*
X121554564Y-66275825D01*
X121625164Y-66130520D01*
X121625164Y-74055169D01*
X120301500Y-74055169D01*
X120256875Y-74058796D01*
X120182821Y-74081953D01*
X120118123Y-74124784D01*
X120067884Y-74183913D01*
X120036063Y-74254678D01*
X120025169Y-74331500D01*
X120025169Y-75728500D01*
X120028796Y-75773125D01*
X120051953Y-75847179D01*
X120094784Y-75911877D01*
X120153913Y-75962116D01*
X120224678Y-75993937D01*
X120301500Y-76004831D01*
X121698500Y-76004831D01*
X121743125Y-76001204D01*
X121817179Y-75978047D01*
X121881877Y-75935216D01*
X121932116Y-75876087D01*
X121963937Y-75805322D01*
X121974831Y-75728500D01*
X121974831Y-77544598D01*
X121961940Y-77392332D01*
X121908795Y-77208082D01*
X121820725Y-77037739D01*
X121805825Y-77015436D01*
X121660520Y-76944836D01*
X121625164Y-76980191D01*
X121625164Y-76909480D01*
X121554564Y-76764175D01*
X121386700Y-76671470D01*
X121203975Y-76613293D01*
X121013412Y-76591883D01*
X120822332Y-76608060D01*
X120638082Y-76661205D01*
X120467739Y-76749275D01*
X120445436Y-76764175D01*
X120374836Y-76909480D01*
X121000000Y-77534645D01*
X121625164Y-76909480D01*
X121625164Y-76980191D01*
X121035355Y-77570000D01*
X121660520Y-78195164D01*
X121805825Y-78124564D01*
X121898530Y-77956700D01*
X121956707Y-77773975D01*
X121978117Y-77583412D01*
X121978117Y-89583412D01*
X121974831Y-89544598D01*
X121974831Y-87728500D01*
X121974831Y-86331500D01*
X121971204Y-86286875D01*
X121948047Y-86212821D01*
X121905216Y-86148123D01*
X121846087Y-86097884D01*
X121775322Y-86066063D01*
X121698500Y-86055169D01*
X121625164Y-86055169D01*
X121625164Y-78230520D01*
X121000000Y-77605355D01*
X120964645Y-77640710D01*
X120964645Y-77570000D01*
X120339480Y-76944836D01*
X120194175Y-77015436D01*
X120101470Y-77183300D01*
X120043293Y-77366025D01*
X120021883Y-77556588D01*
X120038060Y-77747668D01*
X120091205Y-77931918D01*
X120179275Y-78102261D01*
X120194175Y-78124564D01*
X120339480Y-78195164D01*
X120964645Y-77570000D01*
X120964645Y-77640710D01*
X120374836Y-78230520D01*
X120445436Y-78375825D01*
X120613300Y-78468530D01*
X120796025Y-78526707D01*
X120986588Y-78548117D01*
X121177668Y-78531940D01*
X121361918Y-78478795D01*
X121532261Y-78390725D01*
X121554564Y-78375825D01*
X121625164Y-78230520D01*
X121625164Y-86055169D01*
X120301500Y-86055169D01*
X120256875Y-86058796D01*
X120182821Y-86081953D01*
X120118123Y-86124784D01*
X120067884Y-86183913D01*
X120036063Y-86254678D01*
X120025169Y-86331500D01*
X120025169Y-87728500D01*
X120028796Y-87773125D01*
X120051953Y-87847179D01*
X120094784Y-87911877D01*
X120153913Y-87962116D01*
X120224678Y-87993937D01*
X120301500Y-88004831D01*
X121698500Y-88004831D01*
X121743125Y-88001204D01*
X121817179Y-87978047D01*
X121881877Y-87935216D01*
X121932116Y-87876087D01*
X121963937Y-87805322D01*
X121974831Y-87728500D01*
X121974831Y-89544598D01*
X121961940Y-89392332D01*
X121908795Y-89208082D01*
X121820725Y-89037739D01*
X121805825Y-89015436D01*
X121660520Y-88944836D01*
X121625164Y-88980191D01*
X121625164Y-88909480D01*
X121554564Y-88764175D01*
X121386700Y-88671470D01*
X121203975Y-88613293D01*
X121013412Y-88591883D01*
X120822332Y-88608060D01*
X120638082Y-88661205D01*
X120467739Y-88749275D01*
X120445436Y-88764175D01*
X120374836Y-88909480D01*
X121000000Y-89534645D01*
X121625164Y-88909480D01*
X121625164Y-88980191D01*
X121035355Y-89570000D01*
X121660520Y-90195164D01*
X121805825Y-90124564D01*
X121898530Y-89956700D01*
X121956707Y-89773975D01*
X121978117Y-89583412D01*
X121978117Y-93688915D01*
X121625164Y-93713552D01*
X121625164Y-90230520D01*
X121000000Y-89605355D01*
X120964645Y-89640710D01*
X120964645Y-89570000D01*
X120339480Y-88944836D01*
X120194175Y-89015436D01*
X120101470Y-89183300D01*
X120043293Y-89366025D01*
X120021883Y-89556588D01*
X120038060Y-89747668D01*
X120091205Y-89931918D01*
X120179275Y-90102261D01*
X120194175Y-90124564D01*
X120339480Y-90195164D01*
X120964645Y-89570000D01*
X120964645Y-89640710D01*
X120374836Y-90230520D01*
X120445436Y-90375825D01*
X120613300Y-90468530D01*
X120796025Y-90526707D01*
X120986588Y-90548117D01*
X121177668Y-90531940D01*
X121361918Y-90478795D01*
X121532261Y-90390725D01*
X121554564Y-90375825D01*
X121625164Y-90230520D01*
X121625164Y-93713552D01*
X121612688Y-93714423D01*
X121174236Y-93833901D01*
X120767517Y-94036620D01*
X120657723Y-94109981D01*
X120427201Y-94391845D01*
X122000000Y-95964645D01*
X123572799Y-94391845D01*
X123572799Y-94462556D01*
X122035355Y-96000000D01*
X123608155Y-97572799D01*
X123890019Y-97342277D01*
X124115567Y-96947761D01*
X124259816Y-96516823D01*
X124317221Y-96066024D01*
X124317221Y-98925000D01*
X123572799Y-98925000D01*
X123572799Y-97608155D01*
X122000000Y-96035355D01*
X121964645Y-96070710D01*
X121964645Y-96000000D01*
X120391845Y-94427201D01*
X120109981Y-94657723D01*
X119884433Y-95052239D01*
X119740184Y-95483177D01*
X119682779Y-95933976D01*
X119714423Y-96387312D01*
X119833901Y-96825764D01*
X120036620Y-97232483D01*
X120109981Y-97342277D01*
X120391845Y-97572799D01*
X121964645Y-96000000D01*
X121964645Y-96070710D01*
X120427201Y-97608155D01*
X120657723Y-97890019D01*
X121052239Y-98115567D01*
X121483177Y-98259816D01*
X121933976Y-98317221D01*
X122387312Y-98285577D01*
X122825764Y-98166099D01*
X123232483Y-97963380D01*
X123342277Y-97890019D01*
X123572799Y-97608155D01*
X123572799Y-98925000D01*
X116963541Y-98925000D01*
X116963541Y-58304543D01*
X116926460Y-58117266D01*
X116853708Y-57940758D01*
X116748058Y-57781743D01*
X116613535Y-57646276D01*
X116455260Y-57539519D01*
X116365000Y-57501576D01*
X116365000Y-56840000D01*
X116361620Y-56805530D01*
X116358601Y-56771018D01*
X116358050Y-56769122D01*
X116357858Y-56767162D01*
X116347852Y-56734021D01*
X116338182Y-56700736D01*
X116337274Y-56698985D01*
X116336705Y-56697099D01*
X116320449Y-56666528D01*
X116304501Y-56635760D01*
X116303270Y-56634218D01*
X116302345Y-56632478D01*
X116280443Y-56605624D01*
X116258841Y-56578563D01*
X116256136Y-56575820D01*
X116256089Y-56575762D01*
X116256035Y-56575717D01*
X116255165Y-56574835D01*
X115565165Y-55884835D01*
X115538425Y-55862870D01*
X115511863Y-55840582D01*
X115510132Y-55839630D01*
X115508611Y-55838381D01*
X115478103Y-55822022D01*
X115447728Y-55805324D01*
X115445849Y-55804728D01*
X115444111Y-55803796D01*
X115411001Y-55793673D01*
X115377967Y-55783195D01*
X115376004Y-55782974D01*
X115374121Y-55782399D01*
X115339647Y-55778896D01*
X115305236Y-55775037D01*
X115301385Y-55775009D01*
X115301309Y-55775002D01*
X115301237Y-55775008D01*
X115300000Y-55775000D01*
X107800000Y-55775000D01*
X107765530Y-55778379D01*
X107731018Y-55781399D01*
X107729122Y-55781949D01*
X107727162Y-55782142D01*
X107694008Y-55792151D01*
X107660737Y-55801818D01*
X107658987Y-55802724D01*
X107657099Y-55803295D01*
X107626489Y-55819570D01*
X107595761Y-55835499D01*
X107594221Y-55836727D01*
X107592478Y-55837655D01*
X107565602Y-55859574D01*
X107538563Y-55881159D01*
X107535820Y-55883863D01*
X107535762Y-55883911D01*
X107535717Y-55883964D01*
X107534835Y-55884835D01*
X106484835Y-56934835D01*
X106462870Y-56961574D01*
X106440582Y-56988137D01*
X106439630Y-56989867D01*
X106438381Y-56991389D01*
X106422022Y-57021896D01*
X106405324Y-57052272D01*
X106404728Y-57054150D01*
X106403796Y-57055889D01*
X106393673Y-57088998D01*
X106383195Y-57122033D01*
X106382974Y-57123995D01*
X106382399Y-57125879D01*
X106378896Y-57160352D01*
X106375037Y-57194764D01*
X106375009Y-57198614D01*
X106375002Y-57198691D01*
X106375008Y-57198762D01*
X106375000Y-57200000D01*
X106375000Y-58694670D01*
X106317221Y-58752449D01*
X106317221Y-54066024D01*
X106285577Y-53612688D01*
X106166099Y-53174236D01*
X105963380Y-52767517D01*
X105890019Y-52657723D01*
X105608155Y-52427201D01*
X105572799Y-52462556D01*
X105572799Y-52391845D01*
X105342277Y-52109981D01*
X104947761Y-51884433D01*
X104516823Y-51740184D01*
X104066024Y-51682779D01*
X103612688Y-51714423D01*
X103174236Y-51833901D01*
X102767517Y-52036620D01*
X102657723Y-52109981D01*
X102427201Y-52391845D01*
X104000000Y-53964645D01*
X105572799Y-52391845D01*
X105572799Y-52462556D01*
X104035355Y-54000000D01*
X105608155Y-55572799D01*
X105890019Y-55342277D01*
X106115567Y-54947761D01*
X106259816Y-54516823D01*
X106317221Y-54066024D01*
X106317221Y-58752449D01*
X105572799Y-59496871D01*
X105572799Y-55608155D01*
X104000000Y-54035355D01*
X103964645Y-54070710D01*
X103964645Y-54000000D01*
X102391845Y-52427201D01*
X102109981Y-52657723D01*
X101884433Y-53052239D01*
X101740184Y-53483177D01*
X101682779Y-53933976D01*
X101714423Y-54387312D01*
X101833901Y-54825764D01*
X102036620Y-55232483D01*
X102109981Y-55342277D01*
X102391845Y-55572799D01*
X103964645Y-54000000D01*
X103964645Y-54070710D01*
X102427201Y-55608155D01*
X102657723Y-55890019D01*
X103052239Y-56115567D01*
X103483177Y-56259816D01*
X103933976Y-56317221D01*
X104387312Y-56285577D01*
X104825764Y-56166099D01*
X105232483Y-55963380D01*
X105342277Y-55890019D01*
X105572799Y-55608155D01*
X105572799Y-59496871D01*
X104104670Y-60965000D01*
X103624831Y-60965000D01*
X103624831Y-59498500D01*
X103624831Y-58101500D01*
X103621204Y-58056875D01*
X103598047Y-57982821D01*
X103555216Y-57918123D01*
X103496087Y-57867884D01*
X103425322Y-57836063D01*
X103348500Y-57825169D01*
X101951500Y-57825169D01*
X101906875Y-57828796D01*
X101832821Y-57851953D01*
X101768123Y-57894784D01*
X101717884Y-57953913D01*
X101686063Y-58024678D01*
X101675169Y-58101500D01*
X101675169Y-59498500D01*
X101678796Y-59543125D01*
X101701953Y-59617179D01*
X101744784Y-59681877D01*
X101803913Y-59732116D01*
X101874678Y-59763937D01*
X101951500Y-59774831D01*
X103348500Y-59774831D01*
X103393125Y-59771204D01*
X103467179Y-59748047D01*
X103531877Y-59705216D01*
X103582116Y-59646087D01*
X103613937Y-59575322D01*
X103624831Y-59498500D01*
X103624831Y-60965000D01*
X103548430Y-60965000D01*
X103513708Y-60880758D01*
X103408058Y-60721743D01*
X103273535Y-60586276D01*
X103115260Y-60479519D01*
X102939265Y-60405537D01*
X102752251Y-60367149D01*
X102561342Y-60365816D01*
X102373811Y-60401589D01*
X102196799Y-60473107D01*
X102037050Y-60577644D01*
X101900648Y-60711219D01*
X101792788Y-60868744D01*
X101717579Y-61044219D01*
X101677886Y-61230960D01*
X101675221Y-61421855D01*
X101709684Y-61609631D01*
X101779964Y-61787138D01*
X101883383Y-61947613D01*
X102016003Y-62084944D01*
X102172771Y-62193901D01*
X102347716Y-62270333D01*
X102534176Y-62311329D01*
X102725047Y-62315327D01*
X102913060Y-62282175D01*
X103091053Y-62213136D01*
X103252246Y-62110840D01*
X103390500Y-61979183D01*
X103500549Y-61823179D01*
X103548713Y-61715000D01*
X104260000Y-61715000D01*
X104294473Y-61711619D01*
X104328982Y-61708601D01*
X104330877Y-61708050D01*
X104332838Y-61707858D01*
X104365991Y-61697848D01*
X104399263Y-61688182D01*
X104401012Y-61687275D01*
X104402901Y-61686705D01*
X104433510Y-61670429D01*
X104464239Y-61654501D01*
X104465778Y-61653272D01*
X104467522Y-61652345D01*
X104494422Y-61630406D01*
X104521436Y-61608841D01*
X104524178Y-61606137D01*
X104524238Y-61606089D01*
X104524283Y-61606033D01*
X104525165Y-61605165D01*
X107015165Y-59115165D01*
X107037111Y-59088447D01*
X107059418Y-59061863D01*
X107060371Y-59060129D01*
X107061619Y-59058610D01*
X107077965Y-59028124D01*
X107094676Y-58997728D01*
X107095272Y-58995849D01*
X107096204Y-58994111D01*
X107106339Y-58960960D01*
X107116805Y-58927967D01*
X107117024Y-58926009D01*
X107117602Y-58924121D01*
X107121108Y-58889597D01*
X107124963Y-58855236D01*
X107124990Y-58851385D01*
X107124998Y-58851309D01*
X107124991Y-58851237D01*
X107125000Y-58850000D01*
X107125000Y-57355330D01*
X107955330Y-56525000D01*
X115144670Y-56525000D01*
X115615000Y-56995330D01*
X115615000Y-57501511D01*
X115536799Y-57533107D01*
X115377050Y-57637644D01*
X115240648Y-57771219D01*
X115132788Y-57928744D01*
X115057579Y-58104219D01*
X115017886Y-58290960D01*
X115015221Y-58481855D01*
X115049684Y-58669631D01*
X115119964Y-58847138D01*
X115223383Y-59007613D01*
X115356003Y-59144944D01*
X115512771Y-59253901D01*
X115687716Y-59330333D01*
X115874176Y-59371329D01*
X116065047Y-59375327D01*
X116253060Y-59342175D01*
X116431053Y-59273136D01*
X116592246Y-59170840D01*
X116730500Y-59039183D01*
X116840549Y-58883179D01*
X116918200Y-58708771D01*
X116960497Y-58522602D01*
X116963541Y-58304543D01*
X116963541Y-98925000D01*
X116775000Y-98925000D01*
X116775000Y-75500000D01*
X116775000Y-62900000D01*
X116771619Y-62865526D01*
X116768601Y-62831018D01*
X116768050Y-62829122D01*
X116767858Y-62827162D01*
X116757848Y-62794008D01*
X116748182Y-62760737D01*
X116747275Y-62758987D01*
X116746705Y-62757099D01*
X116730429Y-62726489D01*
X116714501Y-62695761D01*
X116713272Y-62694221D01*
X116712345Y-62692478D01*
X116690406Y-62665577D01*
X116668841Y-62638564D01*
X116666137Y-62635821D01*
X116666089Y-62635762D01*
X116666033Y-62635716D01*
X116665165Y-62634835D01*
X113825000Y-59794670D01*
X113825000Y-59298756D01*
X113891053Y-59273136D01*
X114052246Y-59170840D01*
X114190500Y-59039183D01*
X114300549Y-58883179D01*
X114378200Y-58708771D01*
X114420497Y-58522602D01*
X114423541Y-58304543D01*
X114386460Y-58117266D01*
X114313708Y-57940758D01*
X114208058Y-57781743D01*
X114073535Y-57646276D01*
X113915260Y-57539519D01*
X113739265Y-57465537D01*
X113552251Y-57427149D01*
X113361342Y-57425816D01*
X113173811Y-57461589D01*
X112996799Y-57533107D01*
X112837050Y-57637644D01*
X112700648Y-57771219D01*
X112592788Y-57928744D01*
X112517579Y-58104219D01*
X112477886Y-58290960D01*
X112475221Y-58481855D01*
X112509684Y-58669631D01*
X112579964Y-58847138D01*
X112683383Y-59007613D01*
X112816003Y-59144944D01*
X112972771Y-59253901D01*
X113075000Y-59298563D01*
X113075000Y-59950000D01*
X113078380Y-59984473D01*
X113081399Y-60018982D01*
X113081949Y-60020877D01*
X113082142Y-60022838D01*
X113092151Y-60055991D01*
X113101818Y-60089263D01*
X113102724Y-60091012D01*
X113103295Y-60092901D01*
X113119570Y-60123510D01*
X113135499Y-60154239D01*
X113136727Y-60155778D01*
X113137655Y-60157522D01*
X113159593Y-60184422D01*
X113181159Y-60211436D01*
X113183862Y-60214178D01*
X113183911Y-60214238D01*
X113183966Y-60214283D01*
X113184835Y-60215165D01*
X116025000Y-63055330D01*
X116025000Y-65985030D01*
X115993867Y-65964031D01*
X115863791Y-65909352D01*
X115725572Y-65880980D01*
X115584474Y-65879995D01*
X115445872Y-65906434D01*
X115315046Y-65959292D01*
X115196977Y-66036553D01*
X115096164Y-66135277D01*
X115016447Y-66251701D01*
X114960861Y-66381392D01*
X114931525Y-66519410D01*
X114929555Y-66660497D01*
X114955026Y-66799281D01*
X115006969Y-66930473D01*
X115083405Y-67049078D01*
X115181422Y-67150578D01*
X115275000Y-67215616D01*
X115275000Y-74194670D01*
X113769531Y-75700139D01*
X113769531Y-74279449D01*
X113742124Y-74141036D01*
X113688354Y-74010581D01*
X113610270Y-73893055D01*
X113510845Y-73792934D01*
X113393867Y-73714031D01*
X113263791Y-73659352D01*
X113125572Y-73630980D01*
X112984474Y-73629995D01*
X112845872Y-73656434D01*
X112715046Y-73709292D01*
X112596977Y-73786553D01*
X112569531Y-73813430D01*
X112569531Y-66429449D01*
X112542124Y-66291036D01*
X112488354Y-66160581D01*
X112410270Y-66043055D01*
X112310845Y-65942934D01*
X112225000Y-65885030D01*
X112225000Y-62650000D01*
X112221629Y-62615621D01*
X112218602Y-62581018D01*
X112218049Y-62579117D01*
X112217858Y-62577162D01*
X112207861Y-62544049D01*
X112198182Y-62510737D01*
X112197275Y-62508987D01*
X112196705Y-62507099D01*
X112180429Y-62476489D01*
X112164501Y-62445761D01*
X112163272Y-62444221D01*
X112162345Y-62442478D01*
X112140406Y-62415577D01*
X112118841Y-62388564D01*
X112116137Y-62385821D01*
X112116089Y-62385762D01*
X112116033Y-62385716D01*
X112115165Y-62384835D01*
X111285000Y-61554670D01*
X111285000Y-59374831D01*
X111608500Y-59374831D01*
X111653125Y-59371204D01*
X111727179Y-59348047D01*
X111791877Y-59305216D01*
X111842116Y-59246087D01*
X111873937Y-59175322D01*
X111884831Y-59098500D01*
X111884831Y-57701500D01*
X111881204Y-57656875D01*
X111858047Y-57582821D01*
X111815216Y-57518123D01*
X111756087Y-57467884D01*
X111685322Y-57436063D01*
X111608500Y-57425169D01*
X110211500Y-57425169D01*
X110166875Y-57428796D01*
X110092821Y-57451953D01*
X110028123Y-57494784D01*
X109977884Y-57553913D01*
X109946063Y-57624678D01*
X109935169Y-57701500D01*
X109935169Y-59098500D01*
X109938796Y-59143125D01*
X109961953Y-59217179D01*
X110004784Y-59281877D01*
X110063913Y-59332116D01*
X110134678Y-59363937D01*
X110211500Y-59374831D01*
X110535000Y-59374831D01*
X110535000Y-61710000D01*
X110538380Y-61744473D01*
X110541399Y-61778982D01*
X110541949Y-61780877D01*
X110542142Y-61782838D01*
X110552151Y-61815991D01*
X110561818Y-61849263D01*
X110562724Y-61851012D01*
X110563295Y-61852901D01*
X110579570Y-61883510D01*
X110595499Y-61914239D01*
X110596727Y-61915778D01*
X110597655Y-61917522D01*
X110619593Y-61944422D01*
X110641159Y-61971436D01*
X110643862Y-61974178D01*
X110643911Y-61974238D01*
X110643966Y-61974283D01*
X110644835Y-61975165D01*
X111475000Y-62805330D01*
X111475000Y-65885496D01*
X111396977Y-65936553D01*
X111296164Y-66035277D01*
X111216447Y-66151701D01*
X111160861Y-66281392D01*
X111131525Y-66419410D01*
X111129555Y-66560497D01*
X111155026Y-66699281D01*
X111206969Y-66830473D01*
X111283405Y-66949078D01*
X111381422Y-67050578D01*
X111497287Y-67131106D01*
X111626587Y-67187596D01*
X111764396Y-67217895D01*
X111905466Y-67220850D01*
X112044424Y-67196348D01*
X112175976Y-67145323D01*
X112295112Y-67069717D01*
X112397293Y-66972411D01*
X112478628Y-66857111D01*
X112536019Y-66728208D01*
X112567280Y-66590614D01*
X112569531Y-66429449D01*
X112569531Y-73813430D01*
X112496164Y-73885277D01*
X112434729Y-73975000D01*
X107369531Y-73975000D01*
X107369531Y-71329449D01*
X107342124Y-71191036D01*
X107288354Y-71060581D01*
X107210270Y-70943055D01*
X107110845Y-70842934D01*
X107025000Y-70785030D01*
X107025000Y-65950000D01*
X107021619Y-65915526D01*
X107018601Y-65881018D01*
X107018050Y-65879122D01*
X107017858Y-65877162D01*
X107007848Y-65844008D01*
X106998182Y-65810737D01*
X106997275Y-65808987D01*
X106996705Y-65807099D01*
X106980429Y-65776489D01*
X106964501Y-65745761D01*
X106963272Y-65744221D01*
X106962345Y-65742478D01*
X106940425Y-65715602D01*
X106918841Y-65688563D01*
X106916136Y-65685820D01*
X106916089Y-65685762D01*
X106916035Y-65685717D01*
X106915165Y-65684835D01*
X104845165Y-63614835D01*
X104818425Y-63592870D01*
X104791863Y-63570582D01*
X104790132Y-63569630D01*
X104788611Y-63568381D01*
X104758103Y-63552022D01*
X104727728Y-63535324D01*
X104725849Y-63534728D01*
X104724111Y-63533796D01*
X104691001Y-63523673D01*
X104657967Y-63513195D01*
X104656004Y-63512974D01*
X104654121Y-63512399D01*
X104619647Y-63508896D01*
X104585236Y-63505037D01*
X104581385Y-63505009D01*
X104581309Y-63505002D01*
X104581237Y-63505008D01*
X104580000Y-63505000D01*
X103548430Y-63505000D01*
X103513708Y-63420758D01*
X103408058Y-63261743D01*
X103273535Y-63126276D01*
X103115260Y-63019519D01*
X102939265Y-62945537D01*
X102752251Y-62907149D01*
X102561342Y-62905816D01*
X102373811Y-62941589D01*
X102196799Y-63013107D01*
X102037050Y-63117644D01*
X101900648Y-63251219D01*
X101792788Y-63408744D01*
X101717579Y-63584219D01*
X101677886Y-63770960D01*
X101675221Y-63961855D01*
X101709684Y-64149631D01*
X101779964Y-64327138D01*
X101883383Y-64487613D01*
X102016003Y-64624944D01*
X102172771Y-64733901D01*
X102347716Y-64810333D01*
X102534176Y-64851329D01*
X102725047Y-64855327D01*
X102913060Y-64822175D01*
X103091053Y-64753136D01*
X103252246Y-64650840D01*
X103390500Y-64519183D01*
X103500549Y-64363179D01*
X103548713Y-64255000D01*
X104424670Y-64255000D01*
X106275000Y-66105330D01*
X106275000Y-70785496D01*
X106196977Y-70836553D01*
X106096164Y-70935277D01*
X106016447Y-71051701D01*
X105960861Y-71181392D01*
X105931525Y-71319410D01*
X105929555Y-71460497D01*
X105955026Y-71599281D01*
X106006969Y-71730473D01*
X106083405Y-71849078D01*
X106181422Y-71950578D01*
X106297287Y-72031106D01*
X106426587Y-72087596D01*
X106564396Y-72117895D01*
X106705466Y-72120850D01*
X106844424Y-72096348D01*
X106975976Y-72045323D01*
X107095112Y-71969717D01*
X107197293Y-71872411D01*
X107278628Y-71757111D01*
X107336019Y-71628208D01*
X107367280Y-71490614D01*
X107369531Y-71329449D01*
X107369531Y-73975000D01*
X107005330Y-73975000D01*
X105675000Y-72644670D01*
X105675000Y-67100000D01*
X105671620Y-67065530D01*
X105668601Y-67031018D01*
X105668050Y-67029122D01*
X105667858Y-67027162D01*
X105657848Y-66994008D01*
X105648182Y-66960737D01*
X105647275Y-66958987D01*
X105646705Y-66957099D01*
X105630429Y-66926489D01*
X105614501Y-66895761D01*
X105613272Y-66894221D01*
X105612345Y-66892478D01*
X105590425Y-66865602D01*
X105568841Y-66838563D01*
X105566136Y-66835820D01*
X105566089Y-66835762D01*
X105566035Y-66835717D01*
X105565165Y-66834835D01*
X104885165Y-66154835D01*
X104858425Y-66132870D01*
X104831863Y-66110582D01*
X104830132Y-66109630D01*
X104828611Y-66108381D01*
X104798103Y-66092022D01*
X104767728Y-66075324D01*
X104765849Y-66074728D01*
X104764111Y-66073796D01*
X104731001Y-66063673D01*
X104697967Y-66053195D01*
X104696004Y-66052974D01*
X104694121Y-66052399D01*
X104659647Y-66048896D01*
X104625236Y-66045037D01*
X104621385Y-66045009D01*
X104621309Y-66045002D01*
X104621237Y-66045008D01*
X104620000Y-66045000D01*
X103548430Y-66045000D01*
X103513708Y-65960758D01*
X103408058Y-65801743D01*
X103273535Y-65666276D01*
X103115260Y-65559519D01*
X102939265Y-65485537D01*
X102752251Y-65447149D01*
X102561342Y-65445816D01*
X102373811Y-65481589D01*
X102196799Y-65553107D01*
X102037050Y-65657644D01*
X101900648Y-65791219D01*
X101792788Y-65948744D01*
X101717579Y-66124219D01*
X101677886Y-66310960D01*
X101675221Y-66501855D01*
X101709684Y-66689631D01*
X101779964Y-66867138D01*
X101883383Y-67027613D01*
X102016003Y-67164944D01*
X102172771Y-67273901D01*
X102347716Y-67350333D01*
X102534176Y-67391329D01*
X102725047Y-67395327D01*
X102913060Y-67362175D01*
X103091053Y-67293136D01*
X103252246Y-67190840D01*
X103390500Y-67059183D01*
X103500549Y-66903179D01*
X103548713Y-66795000D01*
X104464670Y-66795000D01*
X104925000Y-67255330D01*
X104925000Y-72800000D01*
X104928380Y-72834473D01*
X104931399Y-72868982D01*
X104931949Y-72870877D01*
X104932142Y-72872838D01*
X104942151Y-72905991D01*
X104951818Y-72939263D01*
X104952724Y-72941012D01*
X104953295Y-72942901D01*
X104969570Y-72973510D01*
X104985499Y-73004239D01*
X104986727Y-73005778D01*
X104987655Y-73007522D01*
X105009593Y-73034422D01*
X105031159Y-73061436D01*
X105033862Y-73064178D01*
X105033911Y-73064238D01*
X105033966Y-73064283D01*
X105034835Y-73065165D01*
X106584835Y-74615165D01*
X106611574Y-74637129D01*
X106638137Y-74659418D01*
X106639867Y-74660369D01*
X106641389Y-74661619D01*
X106671896Y-74677977D01*
X106702272Y-74694676D01*
X106704150Y-74695271D01*
X106705889Y-74696204D01*
X106738998Y-74706326D01*
X106772033Y-74716805D01*
X106773995Y-74717025D01*
X106775879Y-74717601D01*
X106810352Y-74721103D01*
X106844764Y-74724963D01*
X106848614Y-74724990D01*
X106848691Y-74724998D01*
X106848762Y-74724991D01*
X106850000Y-74725000D01*
X112435664Y-74725000D01*
X112483405Y-74799078D01*
X112581422Y-74900578D01*
X112697287Y-74981106D01*
X112826587Y-75037596D01*
X112964396Y-75067895D01*
X113105466Y-75070850D01*
X113244424Y-75046348D01*
X113375976Y-74995323D01*
X113495112Y-74919717D01*
X113597293Y-74822411D01*
X113678628Y-74707111D01*
X113736019Y-74578208D01*
X113767280Y-74440614D01*
X113769531Y-74279449D01*
X113769531Y-75700139D01*
X113544670Y-75925000D01*
X103628117Y-75925000D01*
X103628117Y-68973412D01*
X103611940Y-68782332D01*
X103558795Y-68598082D01*
X103470725Y-68427739D01*
X103455825Y-68405436D01*
X103310520Y-68334836D01*
X103275164Y-68370191D01*
X103275164Y-68299480D01*
X103204564Y-68154175D01*
X103036700Y-68061470D01*
X102853975Y-68003293D01*
X102663412Y-67981883D01*
X102472332Y-67998060D01*
X102288082Y-68051205D01*
X102117739Y-68139275D01*
X102095436Y-68154175D01*
X102024836Y-68299480D01*
X102650000Y-68924645D01*
X103275164Y-68299480D01*
X103275164Y-68370191D01*
X102685355Y-68960000D01*
X103310520Y-69585164D01*
X103455825Y-69514564D01*
X103548530Y-69346700D01*
X103606707Y-69163975D01*
X103628117Y-68973412D01*
X103628117Y-75925000D01*
X103624831Y-75925000D01*
X103624831Y-74458500D01*
X103624831Y-73061500D01*
X103621204Y-73016875D01*
X103598047Y-72942821D01*
X103555216Y-72878123D01*
X103496087Y-72827884D01*
X103425322Y-72796063D01*
X103348500Y-72785169D01*
X103275164Y-72785169D01*
X103275164Y-69620520D01*
X102650000Y-68995355D01*
X102614645Y-69030710D01*
X102614645Y-68960000D01*
X101989480Y-68334836D01*
X101844175Y-68405436D01*
X101751470Y-68573300D01*
X101693293Y-68756025D01*
X101671883Y-68946588D01*
X101688060Y-69137668D01*
X101741205Y-69321918D01*
X101829275Y-69492261D01*
X101844175Y-69514564D01*
X101989480Y-69585164D01*
X102614645Y-68960000D01*
X102614645Y-69030710D01*
X102024836Y-69620520D01*
X102095436Y-69765825D01*
X102263300Y-69858530D01*
X102446025Y-69916707D01*
X102636588Y-69938117D01*
X102827668Y-69921940D01*
X103011918Y-69868795D01*
X103182261Y-69780725D01*
X103204564Y-69765825D01*
X103275164Y-69620520D01*
X103275164Y-72785169D01*
X101951500Y-72785169D01*
X101906875Y-72788796D01*
X101832821Y-72811953D01*
X101768123Y-72854784D01*
X101717884Y-72913913D01*
X101686063Y-72984678D01*
X101675169Y-73061500D01*
X101675169Y-74458500D01*
X101678796Y-74503125D01*
X101701953Y-74577179D01*
X101744784Y-74641877D01*
X101803913Y-74692116D01*
X101874678Y-74723937D01*
X101951500Y-74734831D01*
X103348500Y-74734831D01*
X103393125Y-74731204D01*
X103467179Y-74708047D01*
X103531877Y-74665216D01*
X103582116Y-74606087D01*
X103613937Y-74535322D01*
X103624831Y-74458500D01*
X103624831Y-75925000D01*
X103548430Y-75925000D01*
X103513708Y-75840758D01*
X103408058Y-75681743D01*
X103273535Y-75546276D01*
X103115260Y-75439519D01*
X102939265Y-75365537D01*
X102752251Y-75327149D01*
X102561342Y-75325816D01*
X102373811Y-75361589D01*
X102196799Y-75433107D01*
X102037050Y-75537644D01*
X101900648Y-75671219D01*
X101792788Y-75828744D01*
X101717579Y-76004219D01*
X101677886Y-76190960D01*
X101675221Y-76381855D01*
X101709684Y-76569631D01*
X101779964Y-76747138D01*
X101883383Y-76907613D01*
X102016003Y-77044944D01*
X102172771Y-77153901D01*
X102347716Y-77230333D01*
X102534176Y-77271329D01*
X102725047Y-77275327D01*
X102913060Y-77242175D01*
X103091053Y-77173136D01*
X103252246Y-77070840D01*
X103390500Y-76939183D01*
X103500549Y-76783179D01*
X103548713Y-76675000D01*
X113700000Y-76675000D01*
X113734473Y-76671619D01*
X113768982Y-76668601D01*
X113770877Y-76668050D01*
X113772838Y-76667858D01*
X113805991Y-76657848D01*
X113839263Y-76648182D01*
X113841012Y-76647275D01*
X113842901Y-76646705D01*
X113873510Y-76630429D01*
X113904239Y-76614501D01*
X113905778Y-76613272D01*
X113907522Y-76612345D01*
X113934422Y-76590406D01*
X113961436Y-76568841D01*
X113964178Y-76566137D01*
X113964238Y-76566089D01*
X113964283Y-76566033D01*
X113965165Y-76565165D01*
X115915165Y-74615165D01*
X115937129Y-74588425D01*
X115959418Y-74561863D01*
X115960369Y-74560132D01*
X115961619Y-74558611D01*
X115977968Y-74528119D01*
X115994676Y-74497728D01*
X115995272Y-74495847D01*
X115996203Y-74494112D01*
X116006316Y-74461033D01*
X116016805Y-74427967D01*
X116017025Y-74426004D01*
X116017601Y-74424121D01*
X116021103Y-74389647D01*
X116024963Y-74355236D01*
X116024990Y-74351385D01*
X116024998Y-74351309D01*
X116024991Y-74351237D01*
X116025000Y-74350000D01*
X116025000Y-75344670D01*
X114219424Y-77150245D01*
X114125572Y-77130980D01*
X113984474Y-77129995D01*
X113845872Y-77156434D01*
X113715046Y-77209292D01*
X113596977Y-77286553D01*
X113496164Y-77385277D01*
X113416447Y-77501701D01*
X113360861Y-77631392D01*
X113331525Y-77769410D01*
X113329555Y-77910497D01*
X113355026Y-78049281D01*
X113406969Y-78180473D01*
X113483405Y-78299078D01*
X113581422Y-78400578D01*
X113697287Y-78481106D01*
X113826587Y-78537596D01*
X113964396Y-78567895D01*
X114105466Y-78570850D01*
X114244424Y-78546348D01*
X114375976Y-78495323D01*
X114495112Y-78419717D01*
X114597293Y-78322411D01*
X114678628Y-78207111D01*
X114736019Y-78078208D01*
X114767280Y-77940614D01*
X114769531Y-77779449D01*
X114749920Y-77680409D01*
X116665165Y-75765165D01*
X116687129Y-75738425D01*
X116709418Y-75711863D01*
X116710369Y-75710132D01*
X116711619Y-75708611D01*
X116727977Y-75678103D01*
X116744676Y-75647728D01*
X116745271Y-75645849D01*
X116746204Y-75644111D01*
X116756339Y-75610960D01*
X116766805Y-75577967D01*
X116767024Y-75576009D01*
X116767602Y-75574121D01*
X116771108Y-75539597D01*
X116774963Y-75505236D01*
X116774990Y-75501385D01*
X116774998Y-75501309D01*
X116774991Y-75501237D01*
X116775000Y-75500000D01*
X116775000Y-98925000D01*
X106317221Y-98925000D01*
X106317221Y-96066024D01*
X106285577Y-95612688D01*
X106166099Y-95174236D01*
X105963380Y-94767517D01*
X105890019Y-94657723D01*
X105608155Y-94427201D01*
X105572799Y-94462556D01*
X105572799Y-94391845D01*
X105342277Y-94109981D01*
X104947761Y-93884433D01*
X104516823Y-93740184D01*
X104066024Y-93682779D01*
X103612688Y-93714423D01*
X103174236Y-93833901D01*
X102767517Y-94036620D01*
X102657723Y-94109981D01*
X102427201Y-94391845D01*
X104000000Y-95964645D01*
X105572799Y-94391845D01*
X105572799Y-94462556D01*
X104035355Y-96000000D01*
X105608155Y-97572799D01*
X105890019Y-97342277D01*
X106115567Y-96947761D01*
X106259816Y-96516823D01*
X106317221Y-96066024D01*
X106317221Y-98925000D01*
X105572799Y-98925000D01*
X105572799Y-97608155D01*
X104000000Y-96035355D01*
X103964645Y-96070710D01*
X103964645Y-96000000D01*
X102391845Y-94427201D01*
X102109981Y-94657723D01*
X101884433Y-95052239D01*
X101740184Y-95483177D01*
X101682779Y-95933976D01*
X101714423Y-96387312D01*
X101833901Y-96825764D01*
X102036620Y-97232483D01*
X102109981Y-97342277D01*
X102391845Y-97572799D01*
X103964645Y-96000000D01*
X103964645Y-96070710D01*
X102427201Y-97608155D01*
X102657723Y-97890019D01*
X103052239Y-98115567D01*
X103483177Y-98259816D01*
X103933976Y-98317221D01*
X104387312Y-98285577D01*
X104825764Y-98166099D01*
X105232483Y-97963380D01*
X105342277Y-97890019D01*
X105572799Y-97608155D01*
X105572799Y-98925000D01*
X101081066Y-98925000D01*
X101075000Y-98918934D01*
X101075000Y-91793213D01*
X101176587Y-91837596D01*
X101314396Y-91867895D01*
X101455466Y-91870850D01*
X101570275Y-91850605D01*
X102184835Y-92465165D01*
X102211574Y-92487129D01*
X102238137Y-92509418D01*
X102239867Y-92510369D01*
X102241389Y-92511619D01*
X102271896Y-92527977D01*
X102302272Y-92544676D01*
X102304150Y-92545271D01*
X102305889Y-92546204D01*
X102338998Y-92556326D01*
X102372033Y-92566805D01*
X102373995Y-92567025D01*
X102375879Y-92567601D01*
X102410352Y-92571103D01*
X102444764Y-92574963D01*
X102448614Y-92574990D01*
X102448691Y-92574998D01*
X102448762Y-92574991D01*
X102450000Y-92575000D01*
X108100000Y-92575000D01*
X108134473Y-92571619D01*
X108168982Y-92568601D01*
X108170877Y-92568050D01*
X108172838Y-92567858D01*
X108205991Y-92557848D01*
X108239263Y-92548182D01*
X108241012Y-92547275D01*
X108242901Y-92546705D01*
X108273510Y-92530429D01*
X108304239Y-92514501D01*
X108305778Y-92513272D01*
X108307522Y-92512345D01*
X108334422Y-92490406D01*
X108361436Y-92468841D01*
X108364178Y-92466137D01*
X108364238Y-92466089D01*
X108364283Y-92466033D01*
X108365165Y-92465165D01*
X110415165Y-90415165D01*
X110437129Y-90388425D01*
X110459418Y-90361863D01*
X110460369Y-90360132D01*
X110461619Y-90358611D01*
X110477977Y-90328103D01*
X110494676Y-90297728D01*
X110495271Y-90295849D01*
X110496204Y-90294111D01*
X110506339Y-90260960D01*
X110516805Y-90227967D01*
X110517024Y-90226009D01*
X110517602Y-90224121D01*
X110521108Y-90189597D01*
X110524963Y-90155236D01*
X110524990Y-90151385D01*
X110524998Y-90151309D01*
X110524991Y-90151237D01*
X110525000Y-90150000D01*
X110525000Y-87364211D01*
X110595112Y-87319717D01*
X110697293Y-87222411D01*
X110778628Y-87107111D01*
X110836019Y-86978208D01*
X110867280Y-86840614D01*
X110869531Y-86679449D01*
X110842124Y-86541036D01*
X110788354Y-86410581D01*
X110710270Y-86293055D01*
X110610845Y-86192934D01*
X110525000Y-86135030D01*
X110525000Y-83705330D01*
X115680811Y-78549518D01*
X115764396Y-78567895D01*
X115905466Y-78570850D01*
X116044424Y-78546348D01*
X116175976Y-78495323D01*
X116295112Y-78419717D01*
X116397293Y-78322411D01*
X116478628Y-78207111D01*
X116536019Y-78078208D01*
X116567280Y-77940614D01*
X116569531Y-77779449D01*
X116542124Y-77641036D01*
X116488354Y-77510581D01*
X116410270Y-77393055D01*
X116310845Y-77292934D01*
X116193867Y-77214031D01*
X116063791Y-77159352D01*
X115925572Y-77130980D01*
X115784474Y-77129995D01*
X115645872Y-77156434D01*
X115515046Y-77209292D01*
X115396977Y-77286553D01*
X115296164Y-77385277D01*
X115216447Y-77501701D01*
X115160861Y-77631392D01*
X115131525Y-77769410D01*
X115129555Y-77910497D01*
X115149654Y-78020015D01*
X109884835Y-83284835D01*
X109862870Y-83311574D01*
X109840582Y-83338137D01*
X109839630Y-83339867D01*
X109838381Y-83341389D01*
X109822022Y-83371896D01*
X109805324Y-83402272D01*
X109804728Y-83404150D01*
X109803796Y-83405889D01*
X109793673Y-83438998D01*
X109783195Y-83472033D01*
X109782974Y-83473995D01*
X109782399Y-83475879D01*
X109778896Y-83510352D01*
X109775037Y-83544764D01*
X109775009Y-83548614D01*
X109775002Y-83548691D01*
X109775008Y-83548762D01*
X109775000Y-83550000D01*
X109775000Y-86135496D01*
X109696977Y-86186553D01*
X109596164Y-86285277D01*
X109516447Y-86401701D01*
X109460861Y-86531392D01*
X109431525Y-86669410D01*
X109429555Y-86810497D01*
X109455026Y-86949281D01*
X109506969Y-87080473D01*
X109583405Y-87199078D01*
X109681422Y-87300578D01*
X109775000Y-87365616D01*
X109775000Y-89994670D01*
X107944670Y-91825000D01*
X107299463Y-91825000D01*
X107375976Y-91795323D01*
X107495112Y-91719717D01*
X107597293Y-91622411D01*
X107678628Y-91507111D01*
X107736019Y-91378208D01*
X107767280Y-91240614D01*
X107769531Y-91079449D01*
X107742124Y-90941036D01*
X107688354Y-90810581D01*
X107610270Y-90693055D01*
X107510845Y-90592934D01*
X107425000Y-90535030D01*
X107425000Y-87205330D01*
X107965165Y-86665165D01*
X107987129Y-86638425D01*
X108009418Y-86611863D01*
X108010369Y-86610132D01*
X108011619Y-86608611D01*
X108027977Y-86578103D01*
X108044676Y-86547728D01*
X108045271Y-86545849D01*
X108046204Y-86544111D01*
X108056339Y-86510960D01*
X108066805Y-86477967D01*
X108067024Y-86476009D01*
X108067602Y-86474121D01*
X108071108Y-86439597D01*
X108074963Y-86405236D01*
X108074990Y-86401385D01*
X108074998Y-86401309D01*
X108074991Y-86401237D01*
X108075000Y-86400000D01*
X108075000Y-84364211D01*
X108145112Y-84319717D01*
X108247293Y-84222411D01*
X108328628Y-84107111D01*
X108386019Y-83978208D01*
X108417280Y-83840614D01*
X108419531Y-83679449D01*
X108392124Y-83541036D01*
X108338354Y-83410581D01*
X108260270Y-83293055D01*
X108160845Y-83192934D01*
X108075000Y-83135030D01*
X108075000Y-81855330D01*
X111530811Y-78399518D01*
X111614396Y-78417895D01*
X111755466Y-78420850D01*
X111894424Y-78396348D01*
X112025976Y-78345323D01*
X112145112Y-78269717D01*
X112247293Y-78172411D01*
X112328628Y-78057111D01*
X112386019Y-77928208D01*
X112417280Y-77790614D01*
X112419531Y-77629449D01*
X112392124Y-77491036D01*
X112338354Y-77360581D01*
X112260270Y-77243055D01*
X112160845Y-77142934D01*
X112043867Y-77064031D01*
X111913791Y-77009352D01*
X111775572Y-76980980D01*
X111634474Y-76979995D01*
X111495872Y-77006434D01*
X111365046Y-77059292D01*
X111246977Y-77136553D01*
X111146164Y-77235277D01*
X111066447Y-77351701D01*
X111010861Y-77481392D01*
X110981525Y-77619410D01*
X110979555Y-77760497D01*
X110999654Y-77870015D01*
X107434835Y-81434835D01*
X107412870Y-81461574D01*
X107390582Y-81488137D01*
X107389630Y-81489867D01*
X107388381Y-81491389D01*
X107372022Y-81521896D01*
X107355324Y-81552272D01*
X107354728Y-81554150D01*
X107353796Y-81555889D01*
X107343673Y-81588998D01*
X107333195Y-81622033D01*
X107332974Y-81623995D01*
X107332399Y-81625879D01*
X107328896Y-81660352D01*
X107325037Y-81694764D01*
X107325009Y-81698614D01*
X107325002Y-81698691D01*
X107325008Y-81698762D01*
X107325000Y-81700000D01*
X107325000Y-83135496D01*
X107246977Y-83186553D01*
X107146164Y-83285277D01*
X107066447Y-83401701D01*
X107010861Y-83531392D01*
X106981525Y-83669410D01*
X106979555Y-83810497D01*
X107005026Y-83949281D01*
X107056969Y-84080473D01*
X107133405Y-84199078D01*
X107231422Y-84300578D01*
X107325000Y-84365616D01*
X107325000Y-86244670D01*
X106784835Y-86784835D01*
X106762870Y-86811574D01*
X106740582Y-86838137D01*
X106739630Y-86839867D01*
X106738381Y-86841389D01*
X106722022Y-86871896D01*
X106705324Y-86902272D01*
X106704728Y-86904150D01*
X106703796Y-86905889D01*
X106693673Y-86938998D01*
X106683195Y-86972033D01*
X106682974Y-86973995D01*
X106682399Y-86975879D01*
X106678896Y-87010352D01*
X106675037Y-87044764D01*
X106675009Y-87048614D01*
X106675002Y-87048691D01*
X106675008Y-87048762D01*
X106675000Y-87050000D01*
X106675000Y-90535496D01*
X106596977Y-90586553D01*
X106496164Y-90685277D01*
X106416447Y-90801701D01*
X106360861Y-90931392D01*
X106331525Y-91069410D01*
X106329555Y-91210497D01*
X106355026Y-91349281D01*
X106406969Y-91480473D01*
X106483405Y-91599078D01*
X106581422Y-91700578D01*
X106697287Y-91781106D01*
X106797756Y-91825000D01*
X106143541Y-91825000D01*
X106143541Y-84004543D01*
X106106460Y-83817266D01*
X106033708Y-83640758D01*
X105928058Y-83481743D01*
X105793535Y-83346276D01*
X105635260Y-83239519D01*
X105459265Y-83165537D01*
X105272251Y-83127149D01*
X105081342Y-83125816D01*
X104893811Y-83161589D01*
X104716799Y-83233107D01*
X104557050Y-83337644D01*
X104420648Y-83471219D01*
X104312788Y-83628744D01*
X104237579Y-83804219D01*
X104197886Y-83990960D01*
X104195221Y-84181855D01*
X104229684Y-84369631D01*
X104299964Y-84547138D01*
X104403383Y-84707613D01*
X104536003Y-84844944D01*
X104692771Y-84953901D01*
X104867716Y-85030333D01*
X105054176Y-85071329D01*
X105245047Y-85075327D01*
X105433060Y-85042175D01*
X105611053Y-84973136D01*
X105772246Y-84870840D01*
X105910500Y-84739183D01*
X106020549Y-84583179D01*
X106098200Y-84408771D01*
X106140497Y-84222602D01*
X106143541Y-84004543D01*
X106143541Y-91825000D01*
X103623541Y-91825000D01*
X103623541Y-78744543D01*
X103586460Y-78557266D01*
X103513708Y-78380758D01*
X103408058Y-78221743D01*
X103273535Y-78086276D01*
X103115260Y-77979519D01*
X102939265Y-77905537D01*
X102752251Y-77867149D01*
X102561342Y-77865816D01*
X102373811Y-77901589D01*
X102196799Y-77973107D01*
X102037050Y-78077644D01*
X101900648Y-78211219D01*
X101792788Y-78368744D01*
X101717579Y-78544219D01*
X101677886Y-78730960D01*
X101675221Y-78921855D01*
X101709684Y-79109631D01*
X101779964Y-79287138D01*
X101883383Y-79447613D01*
X102016003Y-79584944D01*
X102172771Y-79693901D01*
X102347716Y-79770333D01*
X102534176Y-79811329D01*
X102725047Y-79815327D01*
X102913060Y-79782175D01*
X103091053Y-79713136D01*
X103252246Y-79610840D01*
X103390500Y-79479183D01*
X103500549Y-79323179D01*
X103578200Y-79148771D01*
X103620497Y-78962602D01*
X103623541Y-78744543D01*
X103623541Y-91825000D01*
X103604831Y-91825000D01*
X103604831Y-84798500D01*
X103604831Y-83401500D01*
X103601204Y-83356875D01*
X103578047Y-83282821D01*
X103535216Y-83218123D01*
X103476087Y-83167884D01*
X103405322Y-83136063D01*
X103328500Y-83125169D01*
X101931500Y-83125169D01*
X101886875Y-83128796D01*
X101812821Y-83151953D01*
X101748123Y-83194784D01*
X101697884Y-83253913D01*
X101666063Y-83324678D01*
X101655169Y-83401500D01*
X101655169Y-84798500D01*
X101658796Y-84843125D01*
X101681953Y-84917179D01*
X101724784Y-84981877D01*
X101783913Y-85032116D01*
X101854678Y-85063937D01*
X101931500Y-85074831D01*
X103328500Y-85074831D01*
X103373125Y-85071204D01*
X103447179Y-85048047D01*
X103511877Y-85005216D01*
X103562116Y-84946087D01*
X103593937Y-84875322D01*
X103604831Y-84798500D01*
X103604831Y-91825000D01*
X102605330Y-91825000D01*
X102099444Y-91319114D01*
X102117280Y-91240614D01*
X102119531Y-91079449D01*
X102092124Y-90941036D01*
X102038354Y-90810581D01*
X101960270Y-90693055D01*
X101860845Y-90592934D01*
X101743867Y-90514031D01*
X101613791Y-90459352D01*
X101475572Y-90430980D01*
X101334474Y-90429995D01*
X101195872Y-90456434D01*
X101075000Y-90505270D01*
X101075000Y-51081066D01*
X101081066Y-51075000D01*
X128918934Y-51075000D01*
X128925000Y-51081066D01*
X128925000Y-98918934D01*
M02*
