%FSLAX34Y34*%
G04 Gerber Fmt 3.4, Leading zero omitted, Abs format*
G04 (created by PCBNEW (2014-03-19 BZR 4756)-product) date Fri 30 May 2014 09:46:42 PM PDT*
%MOIN*%
G01*
G70*
G90*
G04 APERTURE LIST*
%ADD10C,0.003937*%
%ADD11R,0.055000X0.055000*%
%ADD12C,0.055000*%
%ADD13C,0.160000*%
%ADD14C,0.007874*%
%ADD15C,0.035000*%
%ADD16C,0.007874*%
G04 APERTURE END LIST*
G54D10*
G54D11*
X40944Y-24208D03*
G54D12*
X40944Y-25208D03*
X40944Y-26208D03*
X40944Y-27208D03*
G54D11*
X47598Y-24775D03*
G54D12*
X47598Y-25775D03*
G54D11*
X47637Y-29539D03*
G54D12*
X47637Y-30539D03*
G54D11*
X47637Y-34263D03*
G54D12*
X47637Y-35263D03*
G54D13*
X40944Y-21259D03*
X49606Y-21259D03*
X40944Y-37795D03*
X49606Y-37795D03*
G54D14*
X41732Y-35826D03*
X41732Y-35000D03*
X42559Y-33937D03*
X46456Y-34763D03*
X45275Y-34763D03*
X45275Y-34251D03*
X45275Y-35275D03*
X42559Y-33543D03*
X46456Y-30039D03*
X45275Y-30039D03*
X45275Y-29527D03*
X45275Y-30551D03*
X46456Y-25275D03*
X45275Y-25275D03*
X45275Y-25787D03*
X45275Y-24763D03*
G54D15*
X48818Y-23405D03*
X48818Y-28110D03*
X48818Y-32854D03*
G54D16*
X48818Y-23405D02*
X48228Y-23996D01*
X48228Y-23996D02*
X48228Y-25145D01*
X48228Y-25145D02*
X47598Y-25775D01*
X48818Y-28110D02*
X48267Y-28661D01*
X48267Y-28661D02*
X48267Y-29909D01*
X48267Y-29909D02*
X47637Y-30539D01*
X48818Y-32854D02*
X48267Y-33405D01*
X48267Y-33405D02*
X48267Y-34633D01*
X48267Y-34633D02*
X47637Y-35263D01*
G54D10*
G36*
X50748Y-38937D02*
X50548Y-38937D01*
X50548Y-37822D01*
X50535Y-37638D01*
X50486Y-37459D01*
X50404Y-37294D01*
X50374Y-37249D01*
X50255Y-37160D01*
X50241Y-37174D01*
X50241Y-37146D01*
X50152Y-37027D01*
X49991Y-36935D01*
X49816Y-36876D01*
X49633Y-36853D01*
X49449Y-36866D01*
X49270Y-36914D01*
X49105Y-36996D01*
X49060Y-37027D01*
X48971Y-37146D01*
X49606Y-37781D01*
X50241Y-37146D01*
X50241Y-37174D01*
X49620Y-37795D01*
X50255Y-38430D01*
X50374Y-38341D01*
X50466Y-38180D01*
X50524Y-38005D01*
X50548Y-37822D01*
X50548Y-38937D01*
X50241Y-38937D01*
X50241Y-38444D01*
X49606Y-37809D01*
X49592Y-37823D01*
X49592Y-37795D01*
X48957Y-37160D01*
X48838Y-37249D01*
X48746Y-37409D01*
X48687Y-37584D01*
X48664Y-37768D01*
X48677Y-37952D01*
X48725Y-38130D01*
X48808Y-38296D01*
X48838Y-38341D01*
X48957Y-38430D01*
X49592Y-37795D01*
X49592Y-37823D01*
X48971Y-38444D01*
X49060Y-38563D01*
X49220Y-38655D01*
X49395Y-38713D01*
X49579Y-38737D01*
X49763Y-38724D01*
X49941Y-38675D01*
X50107Y-38593D01*
X50152Y-38563D01*
X50241Y-38444D01*
X50241Y-38937D01*
X41886Y-38937D01*
X41886Y-37822D01*
X41886Y-21287D01*
X41874Y-21102D01*
X41825Y-20924D01*
X41743Y-20759D01*
X41712Y-20713D01*
X41593Y-20624D01*
X41579Y-20638D01*
X41579Y-20610D01*
X41490Y-20491D01*
X41330Y-20399D01*
X41155Y-20341D01*
X40972Y-20317D01*
X40787Y-20330D01*
X40609Y-20379D01*
X40444Y-20461D01*
X40398Y-20491D01*
X40309Y-20610D01*
X40944Y-21245D01*
X41579Y-20610D01*
X41579Y-20638D01*
X40958Y-21259D01*
X41593Y-21894D01*
X41712Y-21805D01*
X41804Y-21645D01*
X41863Y-21470D01*
X41886Y-21287D01*
X41886Y-37822D01*
X41874Y-37638D01*
X41825Y-37459D01*
X41743Y-37294D01*
X41712Y-37249D01*
X41593Y-37160D01*
X41579Y-37174D01*
X41579Y-37146D01*
X41579Y-21908D01*
X40944Y-21273D01*
X40930Y-21287D01*
X40930Y-21259D01*
X40295Y-20624D01*
X40176Y-20713D01*
X40085Y-20874D01*
X40026Y-21049D01*
X40002Y-21232D01*
X40015Y-21416D01*
X40064Y-21595D01*
X40146Y-21760D01*
X40176Y-21805D01*
X40295Y-21894D01*
X40930Y-21259D01*
X40930Y-21287D01*
X40309Y-21908D01*
X40398Y-22027D01*
X40559Y-22119D01*
X40734Y-22178D01*
X40917Y-22201D01*
X41102Y-22188D01*
X41280Y-22140D01*
X41445Y-22058D01*
X41490Y-22027D01*
X41579Y-21908D01*
X41579Y-37146D01*
X41490Y-37027D01*
X41377Y-36962D01*
X41377Y-26166D01*
X41377Y-25166D01*
X41377Y-25166D01*
X41377Y-24499D01*
X41377Y-24468D01*
X41377Y-23918D01*
X41371Y-23887D01*
X41359Y-23859D01*
X41342Y-23833D01*
X41320Y-23811D01*
X41294Y-23794D01*
X41265Y-23782D01*
X41235Y-23776D01*
X41204Y-23776D01*
X40654Y-23776D01*
X40623Y-23782D01*
X40595Y-23794D01*
X40569Y-23811D01*
X40547Y-23833D01*
X40530Y-23859D01*
X40518Y-23887D01*
X40512Y-23918D01*
X40512Y-23949D01*
X40512Y-24499D01*
X40518Y-24529D01*
X40530Y-24558D01*
X40547Y-24584D01*
X40569Y-24605D01*
X40595Y-24623D01*
X40623Y-24635D01*
X40654Y-24641D01*
X40685Y-24641D01*
X41235Y-24641D01*
X41265Y-24635D01*
X41294Y-24623D01*
X41320Y-24605D01*
X41342Y-24584D01*
X41359Y-24558D01*
X41371Y-24529D01*
X41377Y-24499D01*
X41377Y-25166D01*
X41360Y-25083D01*
X41328Y-25004D01*
X41281Y-24933D01*
X41221Y-24873D01*
X41151Y-24826D01*
X41073Y-24793D01*
X40990Y-24776D01*
X40905Y-24775D01*
X40822Y-24791D01*
X40743Y-24823D01*
X40672Y-24869D01*
X40611Y-24929D01*
X40564Y-24999D01*
X40530Y-25077D01*
X40513Y-25160D01*
X40511Y-25245D01*
X40527Y-25328D01*
X40558Y-25407D01*
X40604Y-25478D01*
X40663Y-25539D01*
X40732Y-25588D01*
X40810Y-25621D01*
X40893Y-25640D01*
X40978Y-25641D01*
X41061Y-25627D01*
X41140Y-25596D01*
X41212Y-25551D01*
X41273Y-25492D01*
X41322Y-25423D01*
X41357Y-25345D01*
X41376Y-25263D01*
X41377Y-25166D01*
X41377Y-26166D01*
X41360Y-26083D01*
X41328Y-26004D01*
X41281Y-25933D01*
X41221Y-25873D01*
X41151Y-25826D01*
X41073Y-25793D01*
X40990Y-25776D01*
X40905Y-25775D01*
X40822Y-25791D01*
X40743Y-25823D01*
X40672Y-25869D01*
X40611Y-25929D01*
X40564Y-25999D01*
X40530Y-26077D01*
X40513Y-26160D01*
X40511Y-26245D01*
X40527Y-26328D01*
X40558Y-26407D01*
X40604Y-26478D01*
X40663Y-26539D01*
X40732Y-26588D01*
X40810Y-26621D01*
X40893Y-26640D01*
X40978Y-26641D01*
X41061Y-26627D01*
X41140Y-26596D01*
X41212Y-26551D01*
X41273Y-26492D01*
X41322Y-26423D01*
X41357Y-26345D01*
X41376Y-26263D01*
X41377Y-26166D01*
X41377Y-36962D01*
X41359Y-36952D01*
X41359Y-27215D01*
X41352Y-27134D01*
X41330Y-27055D01*
X41293Y-26983D01*
X41286Y-26972D01*
X41220Y-26946D01*
X41206Y-26960D01*
X41206Y-26932D01*
X41180Y-26867D01*
X41109Y-26827D01*
X41032Y-26803D01*
X40951Y-26793D01*
X40870Y-26800D01*
X40792Y-26823D01*
X40719Y-26860D01*
X40709Y-26867D01*
X40682Y-26932D01*
X40944Y-27194D01*
X41206Y-26932D01*
X41206Y-26960D01*
X40958Y-27208D01*
X41220Y-27470D01*
X41286Y-27444D01*
X41325Y-27373D01*
X41350Y-27295D01*
X41359Y-27215D01*
X41359Y-36952D01*
X41330Y-36935D01*
X41206Y-36893D01*
X41206Y-27484D01*
X40944Y-27222D01*
X40930Y-27236D01*
X40930Y-27208D01*
X40669Y-26946D01*
X40603Y-26972D01*
X40564Y-27043D01*
X40539Y-27121D01*
X40530Y-27202D01*
X40536Y-27283D01*
X40559Y-27361D01*
X40596Y-27433D01*
X40603Y-27444D01*
X40669Y-27470D01*
X40930Y-27208D01*
X40930Y-27236D01*
X40682Y-27484D01*
X40709Y-27549D01*
X40780Y-27589D01*
X40857Y-27614D01*
X40938Y-27623D01*
X41019Y-27616D01*
X41097Y-27594D01*
X41169Y-27557D01*
X41180Y-27549D01*
X41206Y-27484D01*
X41206Y-36893D01*
X41155Y-36876D01*
X40972Y-36853D01*
X40787Y-36866D01*
X40609Y-36914D01*
X40444Y-36996D01*
X40398Y-37027D01*
X40309Y-37146D01*
X40944Y-37781D01*
X41579Y-37146D01*
X41579Y-37174D01*
X40958Y-37795D01*
X41593Y-38430D01*
X41712Y-38341D01*
X41804Y-38180D01*
X41863Y-38005D01*
X41886Y-37822D01*
X41886Y-38937D01*
X41579Y-38937D01*
X41579Y-38444D01*
X40944Y-37809D01*
X40930Y-37823D01*
X40930Y-37795D01*
X40295Y-37160D01*
X40176Y-37249D01*
X40085Y-37409D01*
X40026Y-37584D01*
X40002Y-37768D01*
X40015Y-37952D01*
X40064Y-38130D01*
X40146Y-38296D01*
X40176Y-38341D01*
X40295Y-38430D01*
X40930Y-37795D01*
X40930Y-37823D01*
X40309Y-38444D01*
X40398Y-38563D01*
X40559Y-38655D01*
X40734Y-38713D01*
X40917Y-38737D01*
X41102Y-38724D01*
X41280Y-38675D01*
X41445Y-38593D01*
X41490Y-38563D01*
X41579Y-38444D01*
X41579Y-38937D01*
X39803Y-38937D01*
X39803Y-20118D01*
X50748Y-20118D01*
X50748Y-22437D01*
X50548Y-22437D01*
X50548Y-21287D01*
X50535Y-21102D01*
X50486Y-20924D01*
X50404Y-20759D01*
X50374Y-20713D01*
X50255Y-20624D01*
X50241Y-20638D01*
X50241Y-20610D01*
X50152Y-20491D01*
X49991Y-20399D01*
X49816Y-20341D01*
X49633Y-20317D01*
X49449Y-20330D01*
X49270Y-20379D01*
X49105Y-20461D01*
X49060Y-20491D01*
X48971Y-20610D01*
X49606Y-21245D01*
X50241Y-20610D01*
X50241Y-20638D01*
X49620Y-21259D01*
X50255Y-21894D01*
X50374Y-21805D01*
X50466Y-21645D01*
X50524Y-21470D01*
X50548Y-21287D01*
X50548Y-22437D01*
X50241Y-22437D01*
X50241Y-21908D01*
X49606Y-21273D01*
X49592Y-21287D01*
X49592Y-21259D01*
X48957Y-20624D01*
X48838Y-20713D01*
X48746Y-20874D01*
X48687Y-21049D01*
X48664Y-21232D01*
X48677Y-21416D01*
X48725Y-21595D01*
X48808Y-21760D01*
X48838Y-21805D01*
X48957Y-21894D01*
X49592Y-21259D01*
X49592Y-21287D01*
X48971Y-21908D01*
X49060Y-22027D01*
X49220Y-22119D01*
X49395Y-22178D01*
X49579Y-22201D01*
X49763Y-22188D01*
X49941Y-22140D01*
X50107Y-22058D01*
X50152Y-22027D01*
X50241Y-21908D01*
X50241Y-22437D01*
X46571Y-22437D01*
X46571Y-36617D01*
X50748Y-36617D01*
X50748Y-38937D01*
X50748Y-38937D01*
G37*
G54D16*
X50748Y-38937D02*
X50548Y-38937D01*
X50548Y-37822D01*
X50535Y-37638D01*
X50486Y-37459D01*
X50404Y-37294D01*
X50374Y-37249D01*
X50255Y-37160D01*
X50241Y-37174D01*
X50241Y-37146D01*
X50152Y-37027D01*
X49991Y-36935D01*
X49816Y-36876D01*
X49633Y-36853D01*
X49449Y-36866D01*
X49270Y-36914D01*
X49105Y-36996D01*
X49060Y-37027D01*
X48971Y-37146D01*
X49606Y-37781D01*
X50241Y-37146D01*
X50241Y-37174D01*
X49620Y-37795D01*
X50255Y-38430D01*
X50374Y-38341D01*
X50466Y-38180D01*
X50524Y-38005D01*
X50548Y-37822D01*
X50548Y-38937D01*
X50241Y-38937D01*
X50241Y-38444D01*
X49606Y-37809D01*
X49592Y-37823D01*
X49592Y-37795D01*
X48957Y-37160D01*
X48838Y-37249D01*
X48746Y-37409D01*
X48687Y-37584D01*
X48664Y-37768D01*
X48677Y-37952D01*
X48725Y-38130D01*
X48808Y-38296D01*
X48838Y-38341D01*
X48957Y-38430D01*
X49592Y-37795D01*
X49592Y-37823D01*
X48971Y-38444D01*
X49060Y-38563D01*
X49220Y-38655D01*
X49395Y-38713D01*
X49579Y-38737D01*
X49763Y-38724D01*
X49941Y-38675D01*
X50107Y-38593D01*
X50152Y-38563D01*
X50241Y-38444D01*
X50241Y-38937D01*
X41886Y-38937D01*
X41886Y-37822D01*
X41886Y-21287D01*
X41874Y-21102D01*
X41825Y-20924D01*
X41743Y-20759D01*
X41712Y-20713D01*
X41593Y-20624D01*
X41579Y-20638D01*
X41579Y-20610D01*
X41490Y-20491D01*
X41330Y-20399D01*
X41155Y-20341D01*
X40972Y-20317D01*
X40787Y-20330D01*
X40609Y-20379D01*
X40444Y-20461D01*
X40398Y-20491D01*
X40309Y-20610D01*
X40944Y-21245D01*
X41579Y-20610D01*
X41579Y-20638D01*
X40958Y-21259D01*
X41593Y-21894D01*
X41712Y-21805D01*
X41804Y-21645D01*
X41863Y-21470D01*
X41886Y-21287D01*
X41886Y-37822D01*
X41874Y-37638D01*
X41825Y-37459D01*
X41743Y-37294D01*
X41712Y-37249D01*
X41593Y-37160D01*
X41579Y-37174D01*
X41579Y-37146D01*
X41579Y-21908D01*
X40944Y-21273D01*
X40930Y-21287D01*
X40930Y-21259D01*
X40295Y-20624D01*
X40176Y-20713D01*
X40085Y-20874D01*
X40026Y-21049D01*
X40002Y-21232D01*
X40015Y-21416D01*
X40064Y-21595D01*
X40146Y-21760D01*
X40176Y-21805D01*
X40295Y-21894D01*
X40930Y-21259D01*
X40930Y-21287D01*
X40309Y-21908D01*
X40398Y-22027D01*
X40559Y-22119D01*
X40734Y-22178D01*
X40917Y-22201D01*
X41102Y-22188D01*
X41280Y-22140D01*
X41445Y-22058D01*
X41490Y-22027D01*
X41579Y-21908D01*
X41579Y-37146D01*
X41490Y-37027D01*
X41377Y-36962D01*
X41377Y-26166D01*
X41377Y-25166D01*
X41377Y-25166D01*
X41377Y-24499D01*
X41377Y-24468D01*
X41377Y-23918D01*
X41371Y-23887D01*
X41359Y-23859D01*
X41342Y-23833D01*
X41320Y-23811D01*
X41294Y-23794D01*
X41265Y-23782D01*
X41235Y-23776D01*
X41204Y-23776D01*
X40654Y-23776D01*
X40623Y-23782D01*
X40595Y-23794D01*
X40569Y-23811D01*
X40547Y-23833D01*
X40530Y-23859D01*
X40518Y-23887D01*
X40512Y-23918D01*
X40512Y-23949D01*
X40512Y-24499D01*
X40518Y-24529D01*
X40530Y-24558D01*
X40547Y-24584D01*
X40569Y-24605D01*
X40595Y-24623D01*
X40623Y-24635D01*
X40654Y-24641D01*
X40685Y-24641D01*
X41235Y-24641D01*
X41265Y-24635D01*
X41294Y-24623D01*
X41320Y-24605D01*
X41342Y-24584D01*
X41359Y-24558D01*
X41371Y-24529D01*
X41377Y-24499D01*
X41377Y-25166D01*
X41360Y-25083D01*
X41328Y-25004D01*
X41281Y-24933D01*
X41221Y-24873D01*
X41151Y-24826D01*
X41073Y-24793D01*
X40990Y-24776D01*
X40905Y-24775D01*
X40822Y-24791D01*
X40743Y-24823D01*
X40672Y-24869D01*
X40611Y-24929D01*
X40564Y-24999D01*
X40530Y-25077D01*
X40513Y-25160D01*
X40511Y-25245D01*
X40527Y-25328D01*
X40558Y-25407D01*
X40604Y-25478D01*
X40663Y-25539D01*
X40732Y-25588D01*
X40810Y-25621D01*
X40893Y-25640D01*
X40978Y-25641D01*
X41061Y-25627D01*
X41140Y-25596D01*
X41212Y-25551D01*
X41273Y-25492D01*
X41322Y-25423D01*
X41357Y-25345D01*
X41376Y-25263D01*
X41377Y-25166D01*
X41377Y-26166D01*
X41360Y-26083D01*
X41328Y-26004D01*
X41281Y-25933D01*
X41221Y-25873D01*
X41151Y-25826D01*
X41073Y-25793D01*
X40990Y-25776D01*
X40905Y-25775D01*
X40822Y-25791D01*
X40743Y-25823D01*
X40672Y-25869D01*
X40611Y-25929D01*
X40564Y-25999D01*
X40530Y-26077D01*
X40513Y-26160D01*
X40511Y-26245D01*
X40527Y-26328D01*
X40558Y-26407D01*
X40604Y-26478D01*
X40663Y-26539D01*
X40732Y-26588D01*
X40810Y-26621D01*
X40893Y-26640D01*
X40978Y-26641D01*
X41061Y-26627D01*
X41140Y-26596D01*
X41212Y-26551D01*
X41273Y-26492D01*
X41322Y-26423D01*
X41357Y-26345D01*
X41376Y-26263D01*
X41377Y-26166D01*
X41377Y-36962D01*
X41359Y-36952D01*
X41359Y-27215D01*
X41352Y-27134D01*
X41330Y-27055D01*
X41293Y-26983D01*
X41286Y-26972D01*
X41220Y-26946D01*
X41206Y-26960D01*
X41206Y-26932D01*
X41180Y-26867D01*
X41109Y-26827D01*
X41032Y-26803D01*
X40951Y-26793D01*
X40870Y-26800D01*
X40792Y-26823D01*
X40719Y-26860D01*
X40709Y-26867D01*
X40682Y-26932D01*
X40944Y-27194D01*
X41206Y-26932D01*
X41206Y-26960D01*
X40958Y-27208D01*
X41220Y-27470D01*
X41286Y-27444D01*
X41325Y-27373D01*
X41350Y-27295D01*
X41359Y-27215D01*
X41359Y-36952D01*
X41330Y-36935D01*
X41206Y-36893D01*
X41206Y-27484D01*
X40944Y-27222D01*
X40930Y-27236D01*
X40930Y-27208D01*
X40669Y-26946D01*
X40603Y-26972D01*
X40564Y-27043D01*
X40539Y-27121D01*
X40530Y-27202D01*
X40536Y-27283D01*
X40559Y-27361D01*
X40596Y-27433D01*
X40603Y-27444D01*
X40669Y-27470D01*
X40930Y-27208D01*
X40930Y-27236D01*
X40682Y-27484D01*
X40709Y-27549D01*
X40780Y-27589D01*
X40857Y-27614D01*
X40938Y-27623D01*
X41019Y-27616D01*
X41097Y-27594D01*
X41169Y-27557D01*
X41180Y-27549D01*
X41206Y-27484D01*
X41206Y-36893D01*
X41155Y-36876D01*
X40972Y-36853D01*
X40787Y-36866D01*
X40609Y-36914D01*
X40444Y-36996D01*
X40398Y-37027D01*
X40309Y-37146D01*
X40944Y-37781D01*
X41579Y-37146D01*
X41579Y-37174D01*
X40958Y-37795D01*
X41593Y-38430D01*
X41712Y-38341D01*
X41804Y-38180D01*
X41863Y-38005D01*
X41886Y-37822D01*
X41886Y-38937D01*
X41579Y-38937D01*
X41579Y-38444D01*
X40944Y-37809D01*
X40930Y-37823D01*
X40930Y-37795D01*
X40295Y-37160D01*
X40176Y-37249D01*
X40085Y-37409D01*
X40026Y-37584D01*
X40002Y-37768D01*
X40015Y-37952D01*
X40064Y-38130D01*
X40146Y-38296D01*
X40176Y-38341D01*
X40295Y-38430D01*
X40930Y-37795D01*
X40930Y-37823D01*
X40309Y-38444D01*
X40398Y-38563D01*
X40559Y-38655D01*
X40734Y-38713D01*
X40917Y-38737D01*
X41102Y-38724D01*
X41280Y-38675D01*
X41445Y-38593D01*
X41490Y-38563D01*
X41579Y-38444D01*
X41579Y-38937D01*
X39803Y-38937D01*
X39803Y-20118D01*
X50748Y-20118D01*
X50748Y-22437D01*
X50548Y-22437D01*
X50548Y-21287D01*
X50535Y-21102D01*
X50486Y-20924D01*
X50404Y-20759D01*
X50374Y-20713D01*
X50255Y-20624D01*
X50241Y-20638D01*
X50241Y-20610D01*
X50152Y-20491D01*
X49991Y-20399D01*
X49816Y-20341D01*
X49633Y-20317D01*
X49449Y-20330D01*
X49270Y-20379D01*
X49105Y-20461D01*
X49060Y-20491D01*
X48971Y-20610D01*
X49606Y-21245D01*
X50241Y-20610D01*
X50241Y-20638D01*
X49620Y-21259D01*
X50255Y-21894D01*
X50374Y-21805D01*
X50466Y-21645D01*
X50524Y-21470D01*
X50548Y-21287D01*
X50548Y-22437D01*
X50241Y-22437D01*
X50241Y-21908D01*
X49606Y-21273D01*
X49592Y-21287D01*
X49592Y-21259D01*
X48957Y-20624D01*
X48838Y-20713D01*
X48746Y-20874D01*
X48687Y-21049D01*
X48664Y-21232D01*
X48677Y-21416D01*
X48725Y-21595D01*
X48808Y-21760D01*
X48838Y-21805D01*
X48957Y-21894D01*
X49592Y-21259D01*
X49592Y-21287D01*
X48971Y-21908D01*
X49060Y-22027D01*
X49220Y-22119D01*
X49395Y-22178D01*
X49579Y-22201D01*
X49763Y-22188D01*
X49941Y-22140D01*
X50107Y-22058D01*
X50152Y-22027D01*
X50241Y-21908D01*
X50241Y-22437D01*
X46571Y-22437D01*
X46571Y-36617D01*
X50748Y-36617D01*
X50748Y-38937D01*
M02*
