%FSLAX34Y34*%
G04 Gerber Fmt 3.4, Leading zero omitted, Abs format*
G04 (created by PCBNEW (2014-03-19 BZR 4756)-product) date Tue 29 Jul 2014 07:39:38 PM PDT*
%MOIN*%
G01*
G70*
G90*
G04 APERTURE LIST*
%ADD10C,0.003937*%
%ADD11C,0.007874*%
%ADD12C,0.006890*%
%ADD13C,0.004724*%
%ADD14C,0.005906*%
%ADD15C,0.009843*%
%ADD16C,0.011811*%
%ADD17C,0.003900*%
%ADD18C,0.012000*%
%ADD19C,0.015000*%
%ADD20C,0.000100*%
%ADD21C,0.004700*%
%ADD22C,0.005000*%
%ADD23C,0.005100*%
G04 APERTURE END LIST*
G54D10*
G54D11*
X45531Y-23779D02*
X45531Y-23641D01*
X44862Y-23779D02*
X45531Y-23779D01*
X44862Y-23641D02*
X44862Y-23779D01*
X44527Y-23779D02*
X44527Y-23641D01*
X43877Y-23779D02*
X44527Y-23779D01*
X43877Y-23641D02*
X43877Y-23779D01*
G54D12*
X40232Y-32737D02*
X40232Y-32343D01*
X40382Y-32737D02*
X40382Y-32343D01*
X40562Y-32737D01*
X40562Y-32343D01*
X40667Y-32343D02*
X40847Y-32343D01*
X40757Y-32737D02*
X40757Y-32343D01*
X41057Y-32530D02*
X40952Y-32530D01*
X40952Y-32737D02*
X40952Y-32343D01*
X41102Y-32343D01*
X41447Y-32718D02*
X41492Y-32737D01*
X41567Y-32737D01*
X41597Y-32718D01*
X41612Y-32699D01*
X41627Y-32662D01*
X41627Y-32624D01*
X41612Y-32587D01*
X41597Y-32568D01*
X41567Y-32549D01*
X41507Y-32530D01*
X41477Y-32512D01*
X41462Y-32493D01*
X41447Y-32455D01*
X41447Y-32418D01*
X41462Y-32380D01*
X41477Y-32362D01*
X41507Y-32343D01*
X41582Y-32343D01*
X41627Y-32362D01*
X41762Y-32530D02*
X41867Y-32530D01*
X41912Y-32737D02*
X41762Y-32737D01*
X41762Y-32343D01*
X41912Y-32343D01*
X42197Y-32737D02*
X42047Y-32737D01*
X42047Y-32343D01*
G54D11*
X41220Y-30944D02*
X41082Y-30944D01*
X41220Y-30275D02*
X41220Y-30944D01*
X41082Y-30275D02*
X41220Y-30275D01*
X41220Y-29901D02*
X41082Y-29901D01*
X41220Y-29212D02*
X41220Y-29881D01*
X41082Y-29212D02*
X41220Y-29212D01*
G54D12*
X41318Y-30618D02*
X41558Y-30618D01*
X41438Y-30768D02*
X41438Y-30468D01*
X41678Y-30374D02*
X41873Y-30374D01*
X41768Y-30524D01*
X41813Y-30524D01*
X41843Y-30543D01*
X41858Y-30562D01*
X41873Y-30599D01*
X41873Y-30693D01*
X41858Y-30731D01*
X41843Y-30749D01*
X41813Y-30768D01*
X41723Y-30768D01*
X41693Y-30749D01*
X41678Y-30731D01*
X42008Y-30731D02*
X42023Y-30749D01*
X42008Y-30768D01*
X41993Y-30749D01*
X42008Y-30731D01*
X42008Y-30768D01*
X42128Y-30374D02*
X42323Y-30374D01*
X42218Y-30524D01*
X42263Y-30524D01*
X42293Y-30543D01*
X42308Y-30562D01*
X42323Y-30599D01*
X42323Y-30693D01*
X42308Y-30731D01*
X42293Y-30749D01*
X42263Y-30768D01*
X42173Y-30768D01*
X42143Y-30749D01*
X42128Y-30731D01*
X42413Y-30374D02*
X42518Y-30768D01*
X42623Y-30374D01*
X41327Y-29555D02*
X41567Y-29555D01*
X41447Y-29705D02*
X41447Y-29405D01*
X41867Y-29311D02*
X41717Y-29311D01*
X41702Y-29499D01*
X41717Y-29480D01*
X41747Y-29461D01*
X41822Y-29461D01*
X41852Y-29480D01*
X41867Y-29499D01*
X41882Y-29536D01*
X41882Y-29630D01*
X41867Y-29668D01*
X41852Y-29686D01*
X41822Y-29705D01*
X41747Y-29705D01*
X41717Y-29686D01*
X41702Y-29668D01*
X41972Y-29311D02*
X42077Y-29705D01*
X42182Y-29311D01*
X46357Y-22835D02*
X46552Y-22835D01*
X46447Y-22985D01*
X46492Y-22985D01*
X46522Y-23004D01*
X46537Y-23023D01*
X46552Y-23060D01*
X46552Y-23154D01*
X46537Y-23191D01*
X46522Y-23210D01*
X46492Y-23229D01*
X46402Y-23229D01*
X46372Y-23210D01*
X46357Y-23191D01*
X46687Y-23191D02*
X46702Y-23210D01*
X46687Y-23229D01*
X46672Y-23210D01*
X46687Y-23191D01*
X46687Y-23229D01*
X46807Y-22835D02*
X47002Y-22835D01*
X46897Y-22985D01*
X46942Y-22985D01*
X46972Y-23004D01*
X46987Y-23023D01*
X47002Y-23060D01*
X47002Y-23154D01*
X46987Y-23191D01*
X46972Y-23210D01*
X46942Y-23229D01*
X46852Y-23229D01*
X46822Y-23210D01*
X46807Y-23191D01*
X47092Y-22835D02*
X47197Y-23229D01*
X47302Y-22835D01*
X47632Y-23210D02*
X47677Y-23229D01*
X47752Y-23229D01*
X47782Y-23210D01*
X47797Y-23191D01*
X47812Y-23154D01*
X47812Y-23116D01*
X47797Y-23079D01*
X47782Y-23060D01*
X47752Y-23041D01*
X47692Y-23023D01*
X47662Y-23004D01*
X47647Y-22985D01*
X47632Y-22948D01*
X47632Y-22910D01*
X47647Y-22873D01*
X47662Y-22854D01*
X47692Y-22835D01*
X47767Y-22835D01*
X47812Y-22854D01*
X47947Y-23023D02*
X48052Y-23023D01*
X48097Y-23229D02*
X47947Y-23229D01*
X47947Y-22835D01*
X48097Y-22835D01*
X48382Y-23229D02*
X48232Y-23229D01*
X48232Y-22835D01*
X44918Y-24204D02*
X45023Y-24204D01*
X45068Y-24410D02*
X44918Y-24410D01*
X44918Y-24016D01*
X45068Y-24016D01*
X45173Y-24016D02*
X45383Y-24410D01*
X45383Y-24016D02*
X45173Y-24410D01*
X45458Y-24016D02*
X45638Y-24016D01*
X45548Y-24410D02*
X45548Y-24016D01*
X43374Y-24016D02*
X43479Y-24410D01*
X43584Y-24016D01*
X43869Y-24410D02*
X43764Y-24222D01*
X43689Y-24410D02*
X43689Y-24016D01*
X43809Y-24016D01*
X43839Y-24035D01*
X43854Y-24054D01*
X43869Y-24091D01*
X43869Y-24147D01*
X43854Y-24185D01*
X43839Y-24204D01*
X43809Y-24222D01*
X43689Y-24222D01*
X44004Y-24204D02*
X44109Y-24204D01*
X44154Y-24410D02*
X44004Y-24410D01*
X44004Y-24016D01*
X44154Y-24016D01*
X44454Y-24035D02*
X44424Y-24016D01*
X44379Y-24016D01*
X44334Y-24035D01*
X44304Y-24072D01*
X44289Y-24110D01*
X44274Y-24185D01*
X44274Y-24241D01*
X44289Y-24316D01*
X44304Y-24354D01*
X44334Y-24391D01*
X44379Y-24410D01*
X44409Y-24410D01*
X44454Y-24391D01*
X44469Y-24372D01*
X44469Y-24241D01*
X44409Y-24241D01*
G54D13*
X41138Y-23208D02*
X41318Y-23208D01*
X41228Y-23313D02*
X41228Y-23103D01*
X41543Y-23038D02*
X41431Y-23038D01*
X41420Y-23169D01*
X41431Y-23156D01*
X41453Y-23143D01*
X41510Y-23143D01*
X41532Y-23156D01*
X41543Y-23169D01*
X41555Y-23195D01*
X41555Y-23261D01*
X41543Y-23287D01*
X41532Y-23300D01*
X41510Y-23313D01*
X41453Y-23313D01*
X41431Y-23300D01*
X41420Y-23287D01*
X41622Y-23038D02*
X41701Y-23313D01*
X41780Y-23038D01*
G54D14*
X47927Y-38307D02*
X47916Y-38322D01*
X47882Y-38337D01*
X47859Y-38337D01*
X47826Y-38322D01*
X47803Y-38292D01*
X47792Y-38262D01*
X47781Y-38202D01*
X47781Y-38157D01*
X47792Y-38097D01*
X47803Y-38067D01*
X47826Y-38037D01*
X47859Y-38022D01*
X47882Y-38022D01*
X47916Y-38037D01*
X47927Y-38052D01*
X48028Y-38337D02*
X48028Y-38127D01*
X48028Y-38187D02*
X48039Y-38157D01*
X48051Y-38142D01*
X48073Y-38127D01*
X48096Y-38127D01*
X48264Y-38322D02*
X48242Y-38337D01*
X48197Y-38337D01*
X48174Y-38322D01*
X48163Y-38292D01*
X48163Y-38172D01*
X48174Y-38142D01*
X48197Y-38127D01*
X48242Y-38127D01*
X48264Y-38142D01*
X48276Y-38172D01*
X48276Y-38202D01*
X48163Y-38232D01*
X48478Y-38337D02*
X48478Y-38172D01*
X48467Y-38142D01*
X48444Y-38127D01*
X48399Y-38127D01*
X48377Y-38142D01*
X48478Y-38322D02*
X48456Y-38337D01*
X48399Y-38337D01*
X48377Y-38322D01*
X48366Y-38292D01*
X48366Y-38262D01*
X48377Y-38232D01*
X48399Y-38217D01*
X48456Y-38217D01*
X48478Y-38202D01*
X48557Y-38127D02*
X48647Y-38127D01*
X48591Y-38022D02*
X48591Y-38292D01*
X48602Y-38322D01*
X48624Y-38337D01*
X48647Y-38337D01*
X48726Y-38337D02*
X48726Y-38127D01*
X48726Y-38022D02*
X48714Y-38037D01*
X48726Y-38052D01*
X48737Y-38037D01*
X48726Y-38022D01*
X48726Y-38052D01*
X48816Y-38127D02*
X48872Y-38337D01*
X48928Y-38127D01*
X49108Y-38322D02*
X49086Y-38337D01*
X49041Y-38337D01*
X49018Y-38322D01*
X49007Y-38292D01*
X49007Y-38172D01*
X49018Y-38142D01*
X49041Y-38127D01*
X49086Y-38127D01*
X49108Y-38142D01*
X49119Y-38172D01*
X49119Y-38202D01*
X49007Y-38232D01*
X49535Y-38307D02*
X49524Y-38322D01*
X49491Y-38337D01*
X49468Y-38337D01*
X49434Y-38322D01*
X49412Y-38292D01*
X49401Y-38262D01*
X49389Y-38202D01*
X49389Y-38157D01*
X49401Y-38097D01*
X49412Y-38067D01*
X49434Y-38037D01*
X49468Y-38022D01*
X49491Y-38022D01*
X49524Y-38037D01*
X49535Y-38052D01*
X49670Y-38337D02*
X49648Y-38322D01*
X49637Y-38307D01*
X49625Y-38277D01*
X49625Y-38187D01*
X49637Y-38157D01*
X49648Y-38142D01*
X49670Y-38127D01*
X49704Y-38127D01*
X49727Y-38142D01*
X49738Y-38157D01*
X49749Y-38187D01*
X49749Y-38277D01*
X49738Y-38307D01*
X49727Y-38322D01*
X49704Y-38337D01*
X49670Y-38337D01*
X49850Y-38337D02*
X49850Y-38127D01*
X49850Y-38157D02*
X49862Y-38142D01*
X49884Y-38127D01*
X49918Y-38127D01*
X49940Y-38142D01*
X49952Y-38172D01*
X49952Y-38337D01*
X49952Y-38172D02*
X49963Y-38142D01*
X49985Y-38127D01*
X50019Y-38127D01*
X50042Y-38142D01*
X50053Y-38172D01*
X50053Y-38337D01*
X50165Y-38337D02*
X50165Y-38127D01*
X50165Y-38157D02*
X50177Y-38142D01*
X50199Y-38127D01*
X50233Y-38127D01*
X50255Y-38142D01*
X50267Y-38172D01*
X50267Y-38337D01*
X50267Y-38172D02*
X50278Y-38142D01*
X50300Y-38127D01*
X50334Y-38127D01*
X50357Y-38142D01*
X50368Y-38172D01*
X50368Y-38337D01*
X50514Y-38337D02*
X50492Y-38322D01*
X50480Y-38307D01*
X50469Y-38277D01*
X50469Y-38187D01*
X50480Y-38157D01*
X50492Y-38142D01*
X50514Y-38127D01*
X50548Y-38127D01*
X50570Y-38142D01*
X50582Y-38157D01*
X50593Y-38187D01*
X50593Y-38277D01*
X50582Y-38307D01*
X50570Y-38322D01*
X50548Y-38337D01*
X50514Y-38337D01*
X50694Y-38127D02*
X50694Y-38337D01*
X50694Y-38157D02*
X50705Y-38142D01*
X50728Y-38127D01*
X50762Y-38127D01*
X50784Y-38142D01*
X50795Y-38172D01*
X50795Y-38337D01*
X50897Y-38322D02*
X50919Y-38337D01*
X50964Y-38337D01*
X50987Y-38322D01*
X50998Y-38292D01*
X50998Y-38277D01*
X50987Y-38247D01*
X50964Y-38232D01*
X50930Y-38232D01*
X50908Y-38217D01*
X50897Y-38187D01*
X50897Y-38172D01*
X50908Y-38142D01*
X50930Y-38127D01*
X50964Y-38127D01*
X50987Y-38142D01*
X51392Y-38337D02*
X51279Y-38337D01*
X51279Y-38022D01*
X51470Y-38337D02*
X51470Y-38127D01*
X51470Y-38022D02*
X51459Y-38037D01*
X51470Y-38052D01*
X51482Y-38037D01*
X51470Y-38022D01*
X51470Y-38052D01*
X51684Y-38322D02*
X51661Y-38337D01*
X51616Y-38337D01*
X51594Y-38322D01*
X51583Y-38307D01*
X51571Y-38277D01*
X51571Y-38187D01*
X51583Y-38157D01*
X51594Y-38142D01*
X51616Y-38127D01*
X51661Y-38127D01*
X51684Y-38142D01*
X51875Y-38322D02*
X51853Y-38337D01*
X51808Y-38337D01*
X51785Y-38322D01*
X51774Y-38292D01*
X51774Y-38172D01*
X51785Y-38142D01*
X51808Y-38127D01*
X51853Y-38127D01*
X51875Y-38142D01*
X51886Y-38172D01*
X51886Y-38202D01*
X51774Y-38232D01*
X51988Y-38127D02*
X51988Y-38337D01*
X51988Y-38157D02*
X51999Y-38142D01*
X52021Y-38127D01*
X52055Y-38127D01*
X52078Y-38142D01*
X52089Y-38172D01*
X52089Y-38337D01*
X52190Y-38322D02*
X52213Y-38337D01*
X52258Y-38337D01*
X52280Y-38322D01*
X52291Y-38292D01*
X52291Y-38277D01*
X52280Y-38247D01*
X52258Y-38232D01*
X52224Y-38232D01*
X52201Y-38217D01*
X52190Y-38187D01*
X52190Y-38172D01*
X52201Y-38142D01*
X52224Y-38127D01*
X52258Y-38127D01*
X52280Y-38142D01*
X52483Y-38322D02*
X52460Y-38337D01*
X52415Y-38337D01*
X52393Y-38322D01*
X52381Y-38292D01*
X52381Y-38172D01*
X52393Y-38142D01*
X52415Y-38127D01*
X52460Y-38127D01*
X52483Y-38142D01*
X52494Y-38172D01*
X52494Y-38202D01*
X52381Y-38232D01*
X50807Y-38807D02*
X50795Y-38822D01*
X50762Y-38837D01*
X50739Y-38837D01*
X50705Y-38822D01*
X50683Y-38792D01*
X50672Y-38762D01*
X50660Y-38702D01*
X50660Y-38657D01*
X50672Y-38597D01*
X50683Y-38567D01*
X50705Y-38537D01*
X50739Y-38522D01*
X50762Y-38522D01*
X50795Y-38537D01*
X50807Y-38552D01*
X51043Y-38807D02*
X51032Y-38822D01*
X50998Y-38837D01*
X50975Y-38837D01*
X50942Y-38822D01*
X50919Y-38792D01*
X50908Y-38762D01*
X50897Y-38702D01*
X50897Y-38657D01*
X50908Y-38597D01*
X50919Y-38567D01*
X50942Y-38537D01*
X50975Y-38522D01*
X50998Y-38522D01*
X51032Y-38537D01*
X51043Y-38552D01*
X51144Y-38717D02*
X51324Y-38717D01*
X51515Y-38672D02*
X51549Y-38687D01*
X51560Y-38702D01*
X51571Y-38732D01*
X51571Y-38777D01*
X51560Y-38807D01*
X51549Y-38822D01*
X51526Y-38837D01*
X51437Y-38837D01*
X51437Y-38522D01*
X51515Y-38522D01*
X51538Y-38537D01*
X51549Y-38552D01*
X51560Y-38582D01*
X51560Y-38612D01*
X51549Y-38642D01*
X51538Y-38657D01*
X51515Y-38672D01*
X51437Y-38672D01*
X51718Y-38687D02*
X51718Y-38837D01*
X51639Y-38522D02*
X51718Y-38687D01*
X51796Y-38522D01*
X51875Y-38717D02*
X52055Y-38717D01*
X52156Y-38822D02*
X52190Y-38837D01*
X52246Y-38837D01*
X52269Y-38822D01*
X52280Y-38807D01*
X52291Y-38777D01*
X52291Y-38747D01*
X52280Y-38717D01*
X52269Y-38702D01*
X52246Y-38687D01*
X52201Y-38672D01*
X52179Y-38657D01*
X52168Y-38642D01*
X52156Y-38612D01*
X52156Y-38582D01*
X52168Y-38552D01*
X52179Y-38537D01*
X52201Y-38522D01*
X52258Y-38522D01*
X52291Y-38537D01*
X52381Y-38747D02*
X52494Y-38747D01*
X52359Y-38837D02*
X52438Y-38522D01*
X52516Y-38837D01*
G54D15*
X42387Y-21746D02*
X42350Y-21768D01*
X42275Y-21768D01*
X42237Y-21746D01*
X42218Y-21701D01*
X42218Y-21521D01*
X42237Y-21476D01*
X42275Y-21453D01*
X42350Y-21453D01*
X42387Y-21476D01*
X42406Y-21521D01*
X42406Y-21566D01*
X42218Y-21611D01*
X42518Y-21453D02*
X42668Y-21453D01*
X42574Y-21296D02*
X42574Y-21701D01*
X42593Y-21746D01*
X42631Y-21768D01*
X42668Y-21768D01*
X42799Y-21768D02*
X42799Y-21296D01*
X42968Y-21768D02*
X42968Y-21521D01*
X42949Y-21476D01*
X42912Y-21453D01*
X42856Y-21453D01*
X42818Y-21476D01*
X42799Y-21498D01*
X43306Y-21746D02*
X43268Y-21768D01*
X43193Y-21768D01*
X43156Y-21746D01*
X43137Y-21701D01*
X43137Y-21521D01*
X43156Y-21476D01*
X43193Y-21453D01*
X43268Y-21453D01*
X43306Y-21476D01*
X43324Y-21521D01*
X43324Y-21566D01*
X43137Y-21611D01*
X43493Y-21768D02*
X43493Y-21453D01*
X43493Y-21543D02*
X43512Y-21498D01*
X43531Y-21476D01*
X43568Y-21453D01*
X43606Y-21453D01*
X43737Y-21768D02*
X43737Y-21296D01*
X43774Y-21588D02*
X43887Y-21768D01*
X43887Y-21453D02*
X43737Y-21633D01*
X44056Y-21768D02*
X44056Y-21453D01*
X44056Y-21296D02*
X44037Y-21318D01*
X44056Y-21341D01*
X44074Y-21318D01*
X44056Y-21296D01*
X44056Y-21341D01*
X44187Y-21453D02*
X44337Y-21453D01*
X44243Y-21296D02*
X44243Y-21701D01*
X44262Y-21746D01*
X44299Y-21768D01*
X44337Y-21768D01*
X44468Y-21723D02*
X44487Y-21746D01*
X44468Y-21768D01*
X44449Y-21746D01*
X44468Y-21723D01*
X44468Y-21768D01*
X44824Y-21746D02*
X44787Y-21768D01*
X44712Y-21768D01*
X44674Y-21746D01*
X44655Y-21723D01*
X44637Y-21678D01*
X44637Y-21543D01*
X44655Y-21498D01*
X44674Y-21476D01*
X44712Y-21453D01*
X44787Y-21453D01*
X44824Y-21476D01*
X45049Y-21768D02*
X45012Y-21746D01*
X44993Y-21723D01*
X44974Y-21678D01*
X44974Y-21543D01*
X44993Y-21498D01*
X45012Y-21476D01*
X45049Y-21453D01*
X45105Y-21453D01*
X45143Y-21476D01*
X45162Y-21498D01*
X45180Y-21543D01*
X45180Y-21678D01*
X45162Y-21723D01*
X45143Y-21746D01*
X45105Y-21768D01*
X45049Y-21768D01*
X45349Y-21768D02*
X45349Y-21453D01*
X45349Y-21498D02*
X45368Y-21476D01*
X45405Y-21453D01*
X45462Y-21453D01*
X45499Y-21476D01*
X45518Y-21521D01*
X45518Y-21768D01*
X45518Y-21521D02*
X45537Y-21476D01*
X45574Y-21453D01*
X45630Y-21453D01*
X45668Y-21476D01*
X45687Y-21521D01*
X45687Y-21768D01*
X46155Y-21341D02*
X46174Y-21318D01*
X46212Y-21296D01*
X46305Y-21296D01*
X46343Y-21318D01*
X46362Y-21341D01*
X46380Y-21386D01*
X46380Y-21431D01*
X46362Y-21498D01*
X46137Y-21768D01*
X46380Y-21768D01*
X46624Y-21296D02*
X46661Y-21296D01*
X46699Y-21318D01*
X46718Y-21341D01*
X46736Y-21386D01*
X46755Y-21476D01*
X46755Y-21588D01*
X46736Y-21678D01*
X46718Y-21723D01*
X46699Y-21746D01*
X46661Y-21768D01*
X46624Y-21768D01*
X46586Y-21746D01*
X46568Y-21723D01*
X46549Y-21678D01*
X46530Y-21588D01*
X46530Y-21476D01*
X46549Y-21386D01*
X46568Y-21341D01*
X46586Y-21318D01*
X46624Y-21296D01*
X47130Y-21768D02*
X46905Y-21768D01*
X47018Y-21768D02*
X47018Y-21296D01*
X46980Y-21363D01*
X46943Y-21408D01*
X46905Y-21431D01*
X47468Y-21453D02*
X47468Y-21768D01*
X47374Y-21273D02*
X47280Y-21611D01*
X47524Y-21611D01*
G54D13*
X41119Y-24192D02*
X41299Y-24192D01*
X41209Y-24297D02*
X41209Y-24087D01*
X41389Y-24022D02*
X41535Y-24022D01*
X41456Y-24127D01*
X41490Y-24127D01*
X41512Y-24140D01*
X41524Y-24153D01*
X41535Y-24179D01*
X41535Y-24245D01*
X41524Y-24271D01*
X41512Y-24284D01*
X41490Y-24297D01*
X41422Y-24297D01*
X41400Y-24284D01*
X41389Y-24271D01*
X41636Y-24271D02*
X41647Y-24284D01*
X41636Y-24297D01*
X41625Y-24284D01*
X41636Y-24271D01*
X41636Y-24297D01*
X41726Y-24022D02*
X41872Y-24022D01*
X41794Y-24127D01*
X41827Y-24127D01*
X41850Y-24140D01*
X41861Y-24153D01*
X41872Y-24179D01*
X41872Y-24245D01*
X41861Y-24271D01*
X41850Y-24284D01*
X41827Y-24297D01*
X41760Y-24297D01*
X41737Y-24284D01*
X41726Y-24271D01*
X41940Y-24022D02*
X42019Y-24297D01*
X42097Y-24022D01*
X41096Y-25269D02*
X41130Y-25282D01*
X41186Y-25282D01*
X41209Y-25269D01*
X41220Y-25255D01*
X41231Y-25229D01*
X41231Y-25203D01*
X41220Y-25177D01*
X41209Y-25164D01*
X41186Y-25150D01*
X41141Y-25137D01*
X41119Y-25124D01*
X41107Y-25111D01*
X41096Y-25085D01*
X41096Y-25059D01*
X41107Y-25032D01*
X41119Y-25019D01*
X41141Y-25006D01*
X41197Y-25006D01*
X41231Y-25019D01*
X41467Y-25255D02*
X41456Y-25269D01*
X41422Y-25282D01*
X41400Y-25282D01*
X41366Y-25269D01*
X41344Y-25242D01*
X41332Y-25216D01*
X41321Y-25164D01*
X41321Y-25124D01*
X41332Y-25072D01*
X41344Y-25045D01*
X41366Y-25019D01*
X41400Y-25006D01*
X41422Y-25006D01*
X41456Y-25019D01*
X41467Y-25032D01*
X41681Y-25282D02*
X41569Y-25282D01*
X41569Y-25006D01*
X41091Y-26292D02*
X41124Y-26305D01*
X41181Y-26305D01*
X41203Y-26292D01*
X41214Y-26279D01*
X41226Y-26253D01*
X41226Y-26227D01*
X41214Y-26200D01*
X41203Y-26187D01*
X41181Y-26174D01*
X41136Y-26161D01*
X41113Y-26148D01*
X41102Y-26135D01*
X41091Y-26108D01*
X41091Y-26082D01*
X41102Y-26056D01*
X41113Y-26043D01*
X41136Y-26030D01*
X41192Y-26030D01*
X41226Y-26043D01*
X41327Y-26305D02*
X41327Y-26030D01*
X41383Y-26030D01*
X41417Y-26043D01*
X41439Y-26069D01*
X41451Y-26095D01*
X41462Y-26148D01*
X41462Y-26187D01*
X41451Y-26240D01*
X41439Y-26266D01*
X41417Y-26292D01*
X41383Y-26305D01*
X41327Y-26305D01*
X41552Y-26227D02*
X41664Y-26227D01*
X41529Y-26305D02*
X41608Y-26030D01*
X41687Y-26305D01*
X41197Y-27066D02*
X41175Y-27053D01*
X41141Y-27053D01*
X41107Y-27066D01*
X41085Y-27093D01*
X41074Y-27119D01*
X41062Y-27171D01*
X41062Y-27211D01*
X41074Y-27263D01*
X41085Y-27290D01*
X41107Y-27316D01*
X41141Y-27329D01*
X41164Y-27329D01*
X41197Y-27316D01*
X41209Y-27303D01*
X41209Y-27211D01*
X41164Y-27211D01*
X41310Y-27329D02*
X41310Y-27053D01*
X41445Y-27329D01*
X41445Y-27053D01*
X41557Y-27329D02*
X41557Y-27053D01*
X41614Y-27053D01*
X41647Y-27066D01*
X41670Y-27093D01*
X41681Y-27119D01*
X41692Y-27171D01*
X41692Y-27211D01*
X41681Y-27263D01*
X41670Y-27290D01*
X41647Y-27316D01*
X41614Y-27329D01*
X41557Y-27329D01*
G54D11*
X51152Y-23318D02*
X51134Y-23340D01*
X51077Y-23363D01*
X51040Y-23363D01*
X50984Y-23340D01*
X50946Y-23295D01*
X50928Y-23250D01*
X50909Y-23160D01*
X50909Y-23093D01*
X50928Y-23003D01*
X50946Y-22958D01*
X50984Y-22913D01*
X51040Y-22890D01*
X51077Y-22890D01*
X51134Y-22913D01*
X51152Y-22935D01*
X51509Y-23363D02*
X51321Y-23363D01*
X51321Y-22890D01*
X51640Y-23363D02*
X51640Y-22890D01*
X51865Y-23363D02*
X51696Y-23093D01*
X51865Y-22890D02*
X51640Y-23160D01*
X52109Y-22890D02*
X52146Y-22890D01*
X52184Y-22913D01*
X52202Y-22935D01*
X52221Y-22980D01*
X52240Y-23070D01*
X52240Y-23183D01*
X52221Y-23273D01*
X52202Y-23318D01*
X52184Y-23340D01*
X52146Y-23363D01*
X52109Y-23363D01*
X52071Y-23340D01*
X52052Y-23318D01*
X52034Y-23273D01*
X52015Y-23183D01*
X52015Y-23070D01*
X52034Y-22980D01*
X52052Y-22935D01*
X52071Y-22913D01*
X52109Y-22890D01*
X51152Y-28082D02*
X51134Y-28104D01*
X51077Y-28127D01*
X51040Y-28127D01*
X50984Y-28104D01*
X50946Y-28059D01*
X50928Y-28014D01*
X50909Y-27924D01*
X50909Y-27857D01*
X50928Y-27767D01*
X50946Y-27722D01*
X50984Y-27677D01*
X51040Y-27654D01*
X51077Y-27654D01*
X51134Y-27677D01*
X51152Y-27699D01*
X51509Y-28127D02*
X51321Y-28127D01*
X51321Y-27654D01*
X51640Y-28127D02*
X51640Y-27654D01*
X51865Y-28127D02*
X51696Y-27857D01*
X51865Y-27654D02*
X51640Y-27924D01*
X52240Y-28127D02*
X52015Y-28127D01*
X52127Y-28127D02*
X52127Y-27654D01*
X52090Y-27722D01*
X52052Y-27767D01*
X52015Y-27789D01*
X51152Y-32806D02*
X51134Y-32829D01*
X51077Y-32851D01*
X51040Y-32851D01*
X50984Y-32829D01*
X50946Y-32784D01*
X50928Y-32739D01*
X50909Y-32649D01*
X50909Y-32581D01*
X50928Y-32491D01*
X50946Y-32446D01*
X50984Y-32401D01*
X51040Y-32379D01*
X51077Y-32379D01*
X51134Y-32401D01*
X51152Y-32424D01*
X51509Y-32851D02*
X51321Y-32851D01*
X51321Y-32379D01*
X51640Y-32851D02*
X51640Y-32379D01*
X51865Y-32851D02*
X51696Y-32581D01*
X51865Y-32379D02*
X51640Y-32649D01*
X52015Y-32424D02*
X52034Y-32401D01*
X52071Y-32379D01*
X52165Y-32379D01*
X52202Y-32401D01*
X52221Y-32424D01*
X52240Y-32469D01*
X52240Y-32514D01*
X52221Y-32581D01*
X51996Y-32851D01*
X52240Y-32851D01*
G54D12*
X42191Y-37683D02*
X42191Y-37368D01*
X42309Y-37398D02*
X42322Y-37383D01*
X42349Y-37368D01*
X42414Y-37368D01*
X42440Y-37383D01*
X42454Y-37398D01*
X42467Y-37428D01*
X42467Y-37458D01*
X42454Y-37503D01*
X42296Y-37683D01*
X42467Y-37683D01*
X42742Y-37653D02*
X42729Y-37668D01*
X42690Y-37683D01*
X42664Y-37683D01*
X42624Y-37668D01*
X42598Y-37638D01*
X42585Y-37608D01*
X42572Y-37548D01*
X42572Y-37503D01*
X42585Y-37443D01*
X42598Y-37413D01*
X42624Y-37383D01*
X42664Y-37368D01*
X42690Y-37368D01*
X42729Y-37383D01*
X42742Y-37398D01*
X43057Y-37593D02*
X43188Y-37593D01*
X43031Y-37683D02*
X43123Y-37368D01*
X43215Y-37683D01*
X43425Y-37683D02*
X43425Y-37368D01*
X43425Y-37668D02*
X43398Y-37683D01*
X43346Y-37683D01*
X43320Y-37668D01*
X43307Y-37653D01*
X43293Y-37623D01*
X43293Y-37533D01*
X43307Y-37503D01*
X43320Y-37488D01*
X43346Y-37473D01*
X43398Y-37473D01*
X43425Y-37488D01*
X43674Y-37683D02*
X43674Y-37368D01*
X43674Y-37668D02*
X43648Y-37683D01*
X43595Y-37683D01*
X43569Y-37668D01*
X43556Y-37653D01*
X43543Y-37623D01*
X43543Y-37533D01*
X43556Y-37503D01*
X43569Y-37488D01*
X43595Y-37473D01*
X43648Y-37473D01*
X43674Y-37488D01*
X43805Y-37683D02*
X43805Y-37473D01*
X43805Y-37533D02*
X43818Y-37503D01*
X43832Y-37488D01*
X43858Y-37473D01*
X43884Y-37473D01*
X44081Y-37668D02*
X44055Y-37683D01*
X44002Y-37683D01*
X43976Y-37668D01*
X43963Y-37638D01*
X43963Y-37518D01*
X43976Y-37488D01*
X44002Y-37473D01*
X44055Y-37473D01*
X44081Y-37488D01*
X44094Y-37518D01*
X44094Y-37548D01*
X43963Y-37578D01*
X44199Y-37668D02*
X44225Y-37683D01*
X44278Y-37683D01*
X44304Y-37668D01*
X44317Y-37638D01*
X44317Y-37623D01*
X44304Y-37593D01*
X44278Y-37578D01*
X44238Y-37578D01*
X44212Y-37563D01*
X44199Y-37533D01*
X44199Y-37518D01*
X44212Y-37488D01*
X44238Y-37473D01*
X44278Y-37473D01*
X44304Y-37488D01*
X44422Y-37668D02*
X44448Y-37683D01*
X44501Y-37683D01*
X44527Y-37668D01*
X44540Y-37638D01*
X44540Y-37623D01*
X44527Y-37593D01*
X44501Y-37578D01*
X44461Y-37578D01*
X44435Y-37563D01*
X44422Y-37533D01*
X44422Y-37518D01*
X44435Y-37488D01*
X44461Y-37473D01*
X44501Y-37473D01*
X44527Y-37488D01*
X44658Y-37653D02*
X44671Y-37668D01*
X44658Y-37683D01*
X44645Y-37668D01*
X44658Y-37653D01*
X44658Y-37683D01*
X44658Y-37488D02*
X44671Y-37503D01*
X44658Y-37518D01*
X44645Y-37503D01*
X44658Y-37488D01*
X44658Y-37518D01*
X45052Y-37368D02*
X45078Y-37368D01*
X45104Y-37383D01*
X45118Y-37398D01*
X45131Y-37428D01*
X45144Y-37488D01*
X45144Y-37563D01*
X45131Y-37623D01*
X45118Y-37653D01*
X45104Y-37668D01*
X45078Y-37683D01*
X45052Y-37683D01*
X45026Y-37668D01*
X45013Y-37653D01*
X44999Y-37623D01*
X44986Y-37563D01*
X44986Y-37488D01*
X44999Y-37428D01*
X45013Y-37398D01*
X45026Y-37383D01*
X45052Y-37368D01*
X45236Y-37683D02*
X45380Y-37473D01*
X45236Y-37473D02*
X45380Y-37683D01*
X45603Y-37368D02*
X45551Y-37368D01*
X45524Y-37383D01*
X45511Y-37398D01*
X45485Y-37443D01*
X45472Y-37503D01*
X45472Y-37623D01*
X45485Y-37653D01*
X45498Y-37668D01*
X45524Y-37683D01*
X45577Y-37683D01*
X45603Y-37668D01*
X45616Y-37653D01*
X45629Y-37623D01*
X45629Y-37548D01*
X45616Y-37518D01*
X45603Y-37503D01*
X45577Y-37488D01*
X45524Y-37488D01*
X45498Y-37503D01*
X45485Y-37518D01*
X45472Y-37548D01*
X45800Y-37368D02*
X45826Y-37368D01*
X45853Y-37383D01*
X45866Y-37398D01*
X45879Y-37428D01*
X45892Y-37488D01*
X45892Y-37563D01*
X45879Y-37623D01*
X45866Y-37653D01*
X45853Y-37668D01*
X45826Y-37683D01*
X45800Y-37683D01*
X45774Y-37668D01*
X45761Y-37653D01*
X45748Y-37623D01*
X45734Y-37563D01*
X45734Y-37488D01*
X45748Y-37428D01*
X45761Y-37398D01*
X45774Y-37383D01*
X45800Y-37368D01*
X46299Y-37803D02*
X46286Y-37788D01*
X46259Y-37743D01*
X46246Y-37713D01*
X46233Y-37668D01*
X46220Y-37593D01*
X46220Y-37533D01*
X46233Y-37458D01*
X46246Y-37413D01*
X46259Y-37383D01*
X46286Y-37338D01*
X46299Y-37323D01*
X46377Y-37368D02*
X46561Y-37368D01*
X46443Y-37683D01*
X46666Y-37563D02*
X46876Y-37563D01*
X47007Y-37683D02*
X47007Y-37368D01*
X47007Y-37488D02*
X47034Y-37473D01*
X47086Y-37473D01*
X47112Y-37488D01*
X47125Y-37503D01*
X47139Y-37533D01*
X47139Y-37623D01*
X47125Y-37653D01*
X47112Y-37668D01*
X47086Y-37683D01*
X47034Y-37683D01*
X47007Y-37668D01*
X47257Y-37683D02*
X47257Y-37473D01*
X47257Y-37368D02*
X47244Y-37383D01*
X47257Y-37398D01*
X47270Y-37383D01*
X47257Y-37368D01*
X47257Y-37398D01*
X47349Y-37473D02*
X47454Y-37473D01*
X47388Y-37368D02*
X47388Y-37638D01*
X47401Y-37668D01*
X47427Y-37683D01*
X47454Y-37683D01*
X47519Y-37803D02*
X47532Y-37788D01*
X47559Y-37743D01*
X47572Y-37713D01*
X47585Y-37668D01*
X47598Y-37593D01*
X47598Y-37533D01*
X47585Y-37458D01*
X47572Y-37413D01*
X47559Y-37383D01*
X47532Y-37338D01*
X47519Y-37323D01*
X42244Y-37878D02*
X42270Y-37878D01*
X42296Y-37893D01*
X42309Y-37908D01*
X42322Y-37938D01*
X42335Y-37998D01*
X42335Y-38073D01*
X42322Y-38133D01*
X42309Y-38163D01*
X42296Y-38178D01*
X42270Y-38193D01*
X42244Y-38193D01*
X42217Y-38178D01*
X42204Y-38163D01*
X42191Y-38133D01*
X42178Y-38073D01*
X42178Y-37998D01*
X42191Y-37938D01*
X42204Y-37908D01*
X42217Y-37893D01*
X42244Y-37878D01*
X42427Y-38193D02*
X42572Y-37983D01*
X42427Y-37983D02*
X42572Y-38193D01*
X42834Y-38163D02*
X42821Y-38178D01*
X42782Y-38193D01*
X42755Y-38193D01*
X42716Y-38178D01*
X42690Y-38148D01*
X42677Y-38118D01*
X42664Y-38058D01*
X42664Y-38013D01*
X42677Y-37953D01*
X42690Y-37923D01*
X42716Y-37893D01*
X42755Y-37878D01*
X42782Y-37878D01*
X42821Y-37893D01*
X42834Y-37908D01*
X43005Y-37878D02*
X43031Y-37878D01*
X43057Y-37893D01*
X43070Y-37908D01*
X43083Y-37938D01*
X43097Y-37998D01*
X43097Y-38073D01*
X43083Y-38133D01*
X43070Y-38163D01*
X43057Y-38178D01*
X43031Y-38193D01*
X43005Y-38193D01*
X42979Y-38178D01*
X42965Y-38163D01*
X42952Y-38133D01*
X42939Y-38073D01*
X42939Y-37998D01*
X42952Y-37938D01*
X42965Y-37908D01*
X42979Y-37893D01*
X43005Y-37878D01*
X43503Y-38313D02*
X43490Y-38298D01*
X43464Y-38253D01*
X43451Y-38223D01*
X43438Y-38178D01*
X43425Y-38103D01*
X43425Y-38043D01*
X43438Y-37968D01*
X43451Y-37923D01*
X43464Y-37893D01*
X43490Y-37848D01*
X43503Y-37833D01*
X43648Y-38013D02*
X43622Y-37998D01*
X43608Y-37983D01*
X43595Y-37953D01*
X43595Y-37938D01*
X43608Y-37908D01*
X43622Y-37893D01*
X43648Y-37878D01*
X43700Y-37878D01*
X43727Y-37893D01*
X43740Y-37908D01*
X43753Y-37938D01*
X43753Y-37953D01*
X43740Y-37983D01*
X43727Y-37998D01*
X43700Y-38013D01*
X43648Y-38013D01*
X43622Y-38028D01*
X43608Y-38043D01*
X43595Y-38073D01*
X43595Y-38133D01*
X43608Y-38163D01*
X43622Y-38178D01*
X43648Y-38193D01*
X43700Y-38193D01*
X43727Y-38178D01*
X43740Y-38163D01*
X43753Y-38133D01*
X43753Y-38073D01*
X43740Y-38043D01*
X43727Y-38028D01*
X43700Y-38013D01*
X43871Y-38073D02*
X44081Y-38073D01*
X44212Y-38193D02*
X44212Y-37878D01*
X44212Y-37998D02*
X44238Y-37983D01*
X44291Y-37983D01*
X44317Y-37998D01*
X44330Y-38013D01*
X44343Y-38043D01*
X44343Y-38133D01*
X44330Y-38163D01*
X44317Y-38178D01*
X44291Y-38193D01*
X44238Y-38193D01*
X44212Y-38178D01*
X44461Y-38193D02*
X44461Y-37983D01*
X44461Y-37878D02*
X44448Y-37893D01*
X44461Y-37908D01*
X44475Y-37893D01*
X44461Y-37878D01*
X44461Y-37908D01*
X44553Y-37983D02*
X44658Y-37983D01*
X44593Y-37878D02*
X44593Y-38148D01*
X44606Y-38178D01*
X44632Y-38193D01*
X44658Y-38193D01*
X44934Y-37983D02*
X44986Y-38193D01*
X45039Y-38043D01*
X45091Y-38193D01*
X45144Y-37983D01*
X45249Y-38193D02*
X45249Y-37983D01*
X45249Y-38043D02*
X45262Y-38013D01*
X45275Y-37998D01*
X45301Y-37983D01*
X45328Y-37983D01*
X45419Y-38193D02*
X45419Y-37983D01*
X45419Y-37878D02*
X45406Y-37893D01*
X45419Y-37908D01*
X45433Y-37893D01*
X45419Y-37878D01*
X45419Y-37908D01*
X45511Y-37983D02*
X45616Y-37983D01*
X45551Y-37878D02*
X45551Y-38148D01*
X45564Y-38178D01*
X45590Y-38193D01*
X45616Y-38193D01*
X45813Y-38178D02*
X45787Y-38193D01*
X45734Y-38193D01*
X45708Y-38178D01*
X45695Y-38148D01*
X45695Y-38028D01*
X45708Y-37998D01*
X45734Y-37983D01*
X45787Y-37983D01*
X45813Y-37998D01*
X45826Y-38028D01*
X45826Y-38058D01*
X45695Y-38088D01*
X45918Y-38313D02*
X45931Y-38298D01*
X45958Y-38253D01*
X45971Y-38223D01*
X45984Y-38178D01*
X45997Y-38103D01*
X45997Y-38043D01*
X45984Y-37968D01*
X45971Y-37923D01*
X45958Y-37893D01*
X45931Y-37848D01*
X45918Y-37833D01*
X42244Y-38388D02*
X42270Y-38388D01*
X42296Y-38403D01*
X42309Y-38418D01*
X42322Y-38448D01*
X42335Y-38508D01*
X42335Y-38583D01*
X42322Y-38643D01*
X42309Y-38673D01*
X42296Y-38688D01*
X42270Y-38703D01*
X42244Y-38703D01*
X42217Y-38688D01*
X42204Y-38673D01*
X42191Y-38643D01*
X42178Y-38583D01*
X42178Y-38508D01*
X42191Y-38448D01*
X42204Y-38418D01*
X42217Y-38403D01*
X42244Y-38388D01*
X42427Y-38703D02*
X42572Y-38493D01*
X42427Y-38493D02*
X42572Y-38703D01*
X42834Y-38673D02*
X42821Y-38688D01*
X42782Y-38703D01*
X42755Y-38703D01*
X42716Y-38688D01*
X42690Y-38658D01*
X42677Y-38628D01*
X42664Y-38568D01*
X42664Y-38523D01*
X42677Y-38463D01*
X42690Y-38433D01*
X42716Y-38403D01*
X42755Y-38388D01*
X42782Y-38388D01*
X42821Y-38403D01*
X42834Y-38418D01*
X43097Y-38703D02*
X42939Y-38703D01*
X43018Y-38703D02*
X43018Y-38388D01*
X42992Y-38433D01*
X42965Y-38463D01*
X42939Y-38478D01*
X43503Y-38823D02*
X43490Y-38808D01*
X43464Y-38763D01*
X43451Y-38733D01*
X43438Y-38688D01*
X43425Y-38613D01*
X43425Y-38553D01*
X43438Y-38478D01*
X43451Y-38433D01*
X43464Y-38403D01*
X43490Y-38358D01*
X43503Y-38343D01*
X43648Y-38523D02*
X43622Y-38508D01*
X43608Y-38493D01*
X43595Y-38463D01*
X43595Y-38448D01*
X43608Y-38418D01*
X43622Y-38403D01*
X43648Y-38388D01*
X43700Y-38388D01*
X43727Y-38403D01*
X43740Y-38418D01*
X43753Y-38448D01*
X43753Y-38463D01*
X43740Y-38493D01*
X43727Y-38508D01*
X43700Y-38523D01*
X43648Y-38523D01*
X43622Y-38538D01*
X43608Y-38553D01*
X43595Y-38583D01*
X43595Y-38643D01*
X43608Y-38673D01*
X43622Y-38688D01*
X43648Y-38703D01*
X43700Y-38703D01*
X43727Y-38688D01*
X43740Y-38673D01*
X43753Y-38643D01*
X43753Y-38583D01*
X43740Y-38553D01*
X43727Y-38538D01*
X43700Y-38523D01*
X43871Y-38583D02*
X44081Y-38583D01*
X44212Y-38703D02*
X44212Y-38388D01*
X44212Y-38508D02*
X44238Y-38493D01*
X44291Y-38493D01*
X44317Y-38508D01*
X44330Y-38523D01*
X44343Y-38553D01*
X44343Y-38643D01*
X44330Y-38673D01*
X44317Y-38688D01*
X44291Y-38703D01*
X44238Y-38703D01*
X44212Y-38688D01*
X44461Y-38703D02*
X44461Y-38493D01*
X44461Y-38388D02*
X44448Y-38403D01*
X44461Y-38418D01*
X44475Y-38403D01*
X44461Y-38388D01*
X44461Y-38418D01*
X44553Y-38493D02*
X44658Y-38493D01*
X44593Y-38388D02*
X44593Y-38658D01*
X44606Y-38688D01*
X44632Y-38703D01*
X44658Y-38703D01*
X44960Y-38703D02*
X44960Y-38493D01*
X44960Y-38553D02*
X44973Y-38523D01*
X44986Y-38508D01*
X45013Y-38493D01*
X45039Y-38493D01*
X45236Y-38688D02*
X45209Y-38703D01*
X45157Y-38703D01*
X45131Y-38688D01*
X45118Y-38658D01*
X45118Y-38538D01*
X45131Y-38508D01*
X45157Y-38493D01*
X45209Y-38493D01*
X45236Y-38508D01*
X45249Y-38538D01*
X45249Y-38568D01*
X45118Y-38598D01*
X45485Y-38703D02*
X45485Y-38538D01*
X45472Y-38508D01*
X45446Y-38493D01*
X45393Y-38493D01*
X45367Y-38508D01*
X45485Y-38688D02*
X45459Y-38703D01*
X45393Y-38703D01*
X45367Y-38688D01*
X45354Y-38658D01*
X45354Y-38628D01*
X45367Y-38598D01*
X45393Y-38583D01*
X45459Y-38583D01*
X45485Y-38568D01*
X45734Y-38703D02*
X45734Y-38388D01*
X45734Y-38688D02*
X45708Y-38703D01*
X45656Y-38703D01*
X45629Y-38688D01*
X45616Y-38673D01*
X45603Y-38643D01*
X45603Y-38553D01*
X45616Y-38523D01*
X45629Y-38508D01*
X45656Y-38493D01*
X45708Y-38493D01*
X45734Y-38508D01*
X45839Y-38823D02*
X45853Y-38808D01*
X45879Y-38763D01*
X45892Y-38733D01*
X45905Y-38688D01*
X45918Y-38613D01*
X45918Y-38553D01*
X45905Y-38478D01*
X45892Y-38433D01*
X45879Y-38403D01*
X45853Y-38358D01*
X45839Y-38343D01*
G54D16*
X42213Y-20999D02*
X42280Y-21031D01*
X42393Y-21031D01*
X42438Y-20999D01*
X42460Y-20967D01*
X42483Y-20903D01*
X42483Y-20839D01*
X42460Y-20776D01*
X42438Y-20744D01*
X42393Y-20712D01*
X42303Y-20680D01*
X42258Y-20648D01*
X42235Y-20616D01*
X42213Y-20553D01*
X42213Y-20489D01*
X42235Y-20425D01*
X42258Y-20393D01*
X42303Y-20361D01*
X42415Y-20361D01*
X42483Y-20393D01*
X42685Y-21031D02*
X42685Y-20584D01*
X42685Y-20361D02*
X42663Y-20393D01*
X42685Y-20425D01*
X42708Y-20393D01*
X42685Y-20361D01*
X42685Y-20425D01*
X43135Y-20361D02*
X42910Y-20361D01*
X42888Y-20680D01*
X42910Y-20648D01*
X42955Y-20616D01*
X43068Y-20616D01*
X43113Y-20648D01*
X43135Y-20680D01*
X43158Y-20744D01*
X43158Y-20903D01*
X43135Y-20967D01*
X43113Y-20999D01*
X43068Y-21031D01*
X42955Y-21031D01*
X42910Y-20999D01*
X42888Y-20967D01*
X43315Y-20361D02*
X43607Y-20361D01*
X43450Y-20616D01*
X43517Y-20616D01*
X43562Y-20648D01*
X43585Y-20680D01*
X43607Y-20744D01*
X43607Y-20903D01*
X43585Y-20967D01*
X43562Y-20999D01*
X43517Y-21031D01*
X43383Y-21031D01*
X43338Y-20999D01*
X43315Y-20967D01*
X44035Y-20361D02*
X43810Y-20361D01*
X43787Y-20680D01*
X43810Y-20648D01*
X43855Y-20616D01*
X43967Y-20616D01*
X44012Y-20648D01*
X44035Y-20680D01*
X44057Y-20744D01*
X44057Y-20903D01*
X44035Y-20967D01*
X44012Y-20999D01*
X43967Y-21031D01*
X43855Y-21031D01*
X43810Y-20999D01*
X43787Y-20967D01*
X44507Y-21031D02*
X44237Y-21031D01*
X44372Y-21031D02*
X44372Y-20361D01*
X44327Y-20457D01*
X44282Y-20521D01*
X44237Y-20553D01*
X44687Y-20839D02*
X44912Y-20839D01*
X44642Y-21031D02*
X44800Y-20361D01*
X44957Y-21031D01*
X45632Y-20680D02*
X45700Y-20712D01*
X45722Y-20744D01*
X45745Y-20808D01*
X45745Y-20903D01*
X45722Y-20967D01*
X45700Y-20999D01*
X45655Y-21031D01*
X45475Y-21031D01*
X45475Y-20361D01*
X45632Y-20361D01*
X45677Y-20393D01*
X45700Y-20425D01*
X45722Y-20489D01*
X45722Y-20553D01*
X45700Y-20616D01*
X45677Y-20648D01*
X45632Y-20680D01*
X45475Y-20680D01*
X45947Y-21031D02*
X45947Y-20584D01*
X45947Y-20712D02*
X45970Y-20648D01*
X45992Y-20616D01*
X46037Y-20584D01*
X46082Y-20584D01*
X46420Y-20999D02*
X46375Y-21031D01*
X46285Y-21031D01*
X46240Y-20999D01*
X46217Y-20935D01*
X46217Y-20680D01*
X46240Y-20616D01*
X46285Y-20584D01*
X46375Y-20584D01*
X46420Y-20616D01*
X46442Y-20680D01*
X46442Y-20744D01*
X46217Y-20808D01*
X46847Y-21031D02*
X46847Y-20680D01*
X46825Y-20616D01*
X46780Y-20584D01*
X46690Y-20584D01*
X46645Y-20616D01*
X46847Y-20999D02*
X46802Y-21031D01*
X46690Y-21031D01*
X46645Y-20999D01*
X46622Y-20935D01*
X46622Y-20871D01*
X46645Y-20808D01*
X46690Y-20776D01*
X46802Y-20776D01*
X46847Y-20744D01*
X47072Y-21031D02*
X47072Y-20361D01*
X47117Y-20776D02*
X47252Y-21031D01*
X47252Y-20584D02*
X47072Y-20839D01*
X47522Y-21031D02*
X47477Y-20999D01*
X47455Y-20967D01*
X47432Y-20903D01*
X47432Y-20712D01*
X47455Y-20648D01*
X47477Y-20616D01*
X47522Y-20584D01*
X47589Y-20584D01*
X47634Y-20616D01*
X47657Y-20648D01*
X47679Y-20712D01*
X47679Y-20903D01*
X47657Y-20967D01*
X47634Y-20999D01*
X47589Y-21031D01*
X47522Y-21031D01*
X48084Y-20584D02*
X48084Y-21031D01*
X47882Y-20584D02*
X47882Y-20935D01*
X47904Y-20999D01*
X47949Y-21031D01*
X48017Y-21031D01*
X48062Y-20999D01*
X48084Y-20967D01*
X48242Y-20584D02*
X48422Y-20584D01*
X48309Y-20361D02*
X48309Y-20935D01*
X48332Y-20999D01*
X48377Y-21031D01*
X48422Y-21031D01*
G54D17*
X44365Y-25508D02*
X44365Y-25108D01*
X44365Y-25108D02*
X44965Y-25108D01*
X44965Y-25108D02*
X44965Y-25508D01*
X44965Y-25908D02*
X44965Y-26308D01*
X44965Y-26308D02*
X44365Y-26308D01*
X44365Y-26308D02*
X44365Y-25908D01*
G54D18*
X51074Y-24275D02*
X52074Y-24275D01*
X52074Y-24275D02*
X52074Y-26275D01*
X52074Y-26275D02*
X51074Y-26275D01*
X51074Y-26275D02*
X51074Y-24275D01*
G54D17*
X44345Y-27516D02*
X44345Y-27116D01*
X44345Y-27116D02*
X44945Y-27116D01*
X44945Y-27116D02*
X44945Y-27516D01*
X44945Y-27916D02*
X44945Y-28316D01*
X44945Y-28316D02*
X44345Y-28316D01*
X44345Y-28316D02*
X44345Y-27916D01*
X45251Y-27516D02*
X45251Y-27116D01*
X45251Y-27116D02*
X45851Y-27116D01*
X45851Y-27116D02*
X45851Y-27516D01*
X45851Y-27916D02*
X45851Y-28316D01*
X45851Y-28316D02*
X45251Y-28316D01*
X45251Y-28316D02*
X45251Y-27916D01*
G54D14*
X48425Y-25984D02*
X48425Y-26062D01*
X48425Y-26062D02*
X50000Y-26062D01*
X50000Y-26062D02*
X50000Y-25984D01*
X48425Y-24566D02*
X48425Y-24488D01*
X48425Y-24488D02*
X50000Y-24488D01*
X50000Y-24488D02*
X50000Y-24566D01*
X48425Y-25000D02*
X48425Y-25551D01*
X48425Y-30748D02*
X48425Y-30826D01*
X48425Y-30826D02*
X50000Y-30826D01*
X50000Y-30826D02*
X50000Y-30748D01*
X48425Y-29330D02*
X48425Y-29251D01*
X48425Y-29251D02*
X50000Y-29251D01*
X50000Y-29251D02*
X50000Y-29330D01*
X48425Y-29763D02*
X48425Y-30314D01*
X48425Y-35472D02*
X48425Y-35551D01*
X48425Y-35551D02*
X50000Y-35551D01*
X50000Y-35551D02*
X50000Y-35472D01*
X48425Y-34055D02*
X48425Y-33976D01*
X48425Y-33976D02*
X50000Y-33976D01*
X50000Y-33976D02*
X50000Y-34055D01*
X48425Y-34488D02*
X48425Y-35039D01*
G54D19*
X41844Y-21259D02*
G75*
G03X41844Y-21259I-900J0D01*
G74*
G01*
X54443Y-21259D02*
G75*
G03X54443Y-21259I-900J0D01*
G74*
G01*
X41844Y-37795D02*
G75*
G03X41844Y-37795I-900J0D01*
G74*
G01*
X54443Y-37795D02*
G75*
G03X54443Y-37795I-900J0D01*
G74*
G01*
G54D20*
G36*
X50551Y-22046D02*
X50560Y-22041D01*
X50581Y-22028D01*
X50610Y-22009D01*
X50645Y-21986D01*
X50679Y-21962D01*
X50708Y-21943D01*
X50728Y-21930D01*
X50736Y-21926D01*
X50741Y-21927D01*
X50757Y-21935D01*
X50781Y-21948D01*
X50795Y-21955D01*
X50817Y-21964D01*
X50828Y-21966D01*
X50830Y-21963D01*
X50838Y-21947D01*
X50850Y-21918D01*
X50867Y-21880D01*
X50886Y-21835D01*
X50906Y-21787D01*
X50927Y-21739D01*
X50946Y-21692D01*
X50963Y-21650D01*
X50977Y-21616D01*
X50986Y-21592D01*
X50989Y-21582D01*
X50988Y-21580D01*
X50977Y-21569D01*
X50958Y-21555D01*
X50917Y-21521D01*
X50876Y-21470D01*
X50851Y-21412D01*
X50842Y-21347D01*
X50849Y-21288D01*
X50873Y-21231D01*
X50913Y-21179D01*
X50962Y-21141D01*
X51018Y-21116D01*
X51082Y-21108D01*
X51143Y-21115D01*
X51201Y-21138D01*
X51253Y-21178D01*
X51275Y-21203D01*
X51305Y-21255D01*
X51322Y-21311D01*
X51324Y-21325D01*
X51321Y-21387D01*
X51303Y-21446D01*
X51271Y-21498D01*
X51226Y-21542D01*
X51220Y-21546D01*
X51199Y-21561D01*
X51185Y-21572D01*
X51174Y-21581D01*
X51252Y-21770D01*
X51265Y-21800D01*
X51286Y-21851D01*
X51305Y-21896D01*
X51321Y-21931D01*
X51331Y-21955D01*
X51336Y-21964D01*
X51336Y-21965D01*
X51343Y-21966D01*
X51357Y-21961D01*
X51384Y-21948D01*
X51401Y-21939D01*
X51421Y-21929D01*
X51430Y-21926D01*
X51438Y-21930D01*
X51457Y-21942D01*
X51485Y-21961D01*
X51519Y-21984D01*
X51551Y-22006D01*
X51580Y-22025D01*
X51602Y-22039D01*
X51612Y-22045D01*
X51614Y-22045D01*
X51623Y-22040D01*
X51640Y-22025D01*
X51666Y-22001D01*
X51702Y-21965D01*
X51708Y-21960D01*
X51738Y-21929D01*
X51762Y-21904D01*
X51778Y-21886D01*
X51784Y-21877D01*
X51784Y-21877D01*
X51779Y-21867D01*
X51765Y-21846D01*
X51746Y-21816D01*
X51722Y-21781D01*
X51659Y-21690D01*
X51694Y-21604D01*
X51704Y-21578D01*
X51718Y-21546D01*
X51728Y-21524D01*
X51733Y-21514D01*
X51742Y-21510D01*
X51765Y-21505D01*
X51799Y-21498D01*
X51840Y-21490D01*
X51879Y-21483D01*
X51913Y-21476D01*
X51939Y-21471D01*
X51950Y-21469D01*
X51953Y-21468D01*
X51955Y-21462D01*
X51956Y-21450D01*
X51957Y-21429D01*
X51958Y-21396D01*
X51958Y-21347D01*
X51958Y-21342D01*
X51957Y-21296D01*
X51957Y-21259D01*
X51955Y-21236D01*
X51954Y-21226D01*
X51954Y-21226D01*
X51943Y-21224D01*
X51918Y-21218D01*
X51883Y-21212D01*
X51842Y-21204D01*
X51839Y-21203D01*
X51798Y-21195D01*
X51763Y-21188D01*
X51739Y-21182D01*
X51728Y-21179D01*
X51726Y-21176D01*
X51718Y-21160D01*
X51706Y-21134D01*
X51692Y-21103D01*
X51679Y-21070D01*
X51667Y-21041D01*
X51659Y-21019D01*
X51657Y-21009D01*
X51657Y-21009D01*
X51663Y-20999D01*
X51677Y-20978D01*
X51697Y-20948D01*
X51722Y-20913D01*
X51723Y-20910D01*
X51747Y-20875D01*
X51767Y-20845D01*
X51779Y-20824D01*
X51784Y-20815D01*
X51784Y-20814D01*
X51776Y-20804D01*
X51758Y-20784D01*
X51733Y-20757D01*
X51702Y-20726D01*
X51692Y-20716D01*
X51658Y-20683D01*
X51635Y-20661D01*
X51620Y-20650D01*
X51613Y-20647D01*
X51613Y-20647D01*
X51602Y-20654D01*
X51580Y-20668D01*
X51550Y-20689D01*
X51514Y-20713D01*
X51512Y-20714D01*
X51477Y-20738D01*
X51448Y-20758D01*
X51427Y-20772D01*
X51418Y-20777D01*
X51416Y-20777D01*
X51402Y-20773D01*
X51377Y-20764D01*
X51347Y-20752D01*
X51314Y-20739D01*
X51285Y-20727D01*
X51263Y-20717D01*
X51252Y-20711D01*
X51252Y-20710D01*
X51248Y-20698D01*
X51242Y-20672D01*
X51235Y-20636D01*
X51227Y-20593D01*
X51225Y-20586D01*
X51217Y-20544D01*
X51211Y-20510D01*
X51206Y-20486D01*
X51203Y-20476D01*
X51197Y-20475D01*
X51177Y-20473D01*
X51146Y-20472D01*
X51108Y-20472D01*
X51069Y-20472D01*
X51030Y-20473D01*
X50997Y-20474D01*
X50974Y-20476D01*
X50964Y-20478D01*
X50963Y-20478D01*
X50960Y-20491D01*
X50954Y-20517D01*
X50947Y-20554D01*
X50938Y-20597D01*
X50937Y-20604D01*
X50929Y-20646D01*
X50922Y-20680D01*
X50917Y-20704D01*
X50914Y-20713D01*
X50911Y-20715D01*
X50893Y-20722D01*
X50865Y-20734D01*
X50831Y-20748D01*
X50751Y-20780D01*
X50652Y-20713D01*
X50643Y-20707D01*
X50608Y-20683D01*
X50579Y-20663D01*
X50559Y-20650D01*
X50550Y-20646D01*
X50550Y-20646D01*
X50540Y-20655D01*
X50520Y-20673D01*
X50494Y-20699D01*
X50463Y-20730D01*
X50440Y-20752D01*
X50413Y-20780D01*
X50395Y-20799D01*
X50386Y-20811D01*
X50383Y-20818D01*
X50384Y-20823D01*
X50390Y-20833D01*
X50404Y-20854D01*
X50425Y-20884D01*
X50449Y-20919D01*
X50468Y-20948D01*
X50490Y-20981D01*
X50504Y-21005D01*
X50508Y-21016D01*
X50507Y-21021D01*
X50500Y-21040D01*
X50489Y-21069D01*
X50474Y-21104D01*
X50440Y-21182D01*
X50389Y-21192D01*
X50358Y-21197D01*
X50314Y-21206D01*
X50273Y-21214D01*
X50208Y-21226D01*
X50206Y-21463D01*
X50216Y-21467D01*
X50226Y-21470D01*
X50250Y-21475D01*
X50284Y-21482D01*
X50324Y-21490D01*
X50358Y-21496D01*
X50393Y-21503D01*
X50418Y-21508D01*
X50429Y-21510D01*
X50432Y-21514D01*
X50440Y-21530D01*
X50453Y-21557D01*
X50466Y-21589D01*
X50480Y-21622D01*
X50492Y-21653D01*
X50501Y-21676D01*
X50504Y-21689D01*
X50499Y-21698D01*
X50486Y-21718D01*
X50467Y-21747D01*
X50444Y-21781D01*
X50420Y-21816D01*
X50400Y-21845D01*
X50387Y-21866D01*
X50381Y-21876D01*
X50384Y-21883D01*
X50397Y-21899D01*
X50423Y-21926D01*
X50462Y-21964D01*
X50468Y-21970D01*
X50499Y-22000D01*
X50525Y-22024D01*
X50543Y-22040D01*
X50551Y-22046D01*
X50551Y-22046D01*
G37*
G36*
X49736Y-22423D02*
X49752Y-22423D01*
X49802Y-22422D01*
X49835Y-22420D01*
X49847Y-22417D01*
X49845Y-22409D01*
X49838Y-22381D01*
X49825Y-22334D01*
X49809Y-22273D01*
X49789Y-22200D01*
X49750Y-22058D01*
X49729Y-21983D01*
X49712Y-21917D01*
X49698Y-21866D01*
X49689Y-21831D01*
X49686Y-21817D01*
X49686Y-21816D01*
X49697Y-21800D01*
X49720Y-21768D01*
X49754Y-21724D01*
X49796Y-21671D01*
X49844Y-21611D01*
X50002Y-21416D01*
X49800Y-21416D01*
X49634Y-21629D01*
X49612Y-21656D01*
X49566Y-21715D01*
X49526Y-21766D01*
X49494Y-21806D01*
X49474Y-21831D01*
X49466Y-21840D01*
X49467Y-21834D01*
X49472Y-21806D01*
X49481Y-21759D01*
X49493Y-21696D01*
X49508Y-21618D01*
X49525Y-21530D01*
X49544Y-21434D01*
X49557Y-21366D01*
X49576Y-21274D01*
X49592Y-21192D01*
X49605Y-21122D01*
X49615Y-21068D01*
X49622Y-21033D01*
X49624Y-21018D01*
X49624Y-21015D01*
X49619Y-21011D01*
X49604Y-21009D01*
X49574Y-21009D01*
X49524Y-21009D01*
X49424Y-21011D01*
X49414Y-21060D01*
X49403Y-21106D01*
X49387Y-21139D01*
X49364Y-21166D01*
X49348Y-21180D01*
X49320Y-21195D01*
X49285Y-21199D01*
X49283Y-21199D01*
X49255Y-21195D01*
X49232Y-21180D01*
X49228Y-21176D01*
X49213Y-21157D01*
X49207Y-21134D01*
X49210Y-21098D01*
X49219Y-21045D01*
X49227Y-21009D01*
X49233Y-20979D01*
X49235Y-20967D01*
X49241Y-20966D01*
X49267Y-20966D01*
X49296Y-20965D01*
X49296Y-20797D01*
X49276Y-20795D01*
X49269Y-20792D01*
X49268Y-20787D01*
X49270Y-20781D01*
X49276Y-20755D01*
X49284Y-20718D01*
X49288Y-20702D01*
X49299Y-20663D01*
X49310Y-20636D01*
X49313Y-20631D01*
X49341Y-20600D01*
X49379Y-20581D01*
X49420Y-20575D01*
X49455Y-20583D01*
X49480Y-20607D01*
X49481Y-20609D01*
X49488Y-20644D01*
X49486Y-20693D01*
X49477Y-20748D01*
X49466Y-20794D01*
X49366Y-20796D01*
X49333Y-20797D01*
X49296Y-20797D01*
X49296Y-20965D01*
X49311Y-20965D01*
X49368Y-20965D01*
X49436Y-20964D01*
X49636Y-20964D01*
X49640Y-20950D01*
X49641Y-20947D01*
X49650Y-20905D01*
X49660Y-20850D01*
X49671Y-20790D01*
X49682Y-20730D01*
X49690Y-20677D01*
X49696Y-20635D01*
X49699Y-20612D01*
X49698Y-20600D01*
X49684Y-20529D01*
X49649Y-20467D01*
X49599Y-20417D01*
X49536Y-20387D01*
X49529Y-20385D01*
X49482Y-20378D01*
X49427Y-20378D01*
X49378Y-20384D01*
X49331Y-20398D01*
X49259Y-20438D01*
X49193Y-20494D01*
X49139Y-20560D01*
X49102Y-20631D01*
X49099Y-20640D01*
X49091Y-20675D01*
X49080Y-20726D01*
X49066Y-20788D01*
X49052Y-20857D01*
X49038Y-20928D01*
X49025Y-20996D01*
X49014Y-21055D01*
X49006Y-21101D01*
X49002Y-21129D01*
X49002Y-21169D01*
X49010Y-21234D01*
X49030Y-21288D01*
X49038Y-21301D01*
X49084Y-21352D01*
X49146Y-21388D01*
X49218Y-21406D01*
X49295Y-21404D01*
X49304Y-21403D01*
X49332Y-21399D01*
X49344Y-21399D01*
X49344Y-21402D01*
X49340Y-21426D01*
X49331Y-21470D01*
X49319Y-21531D01*
X49304Y-21609D01*
X49287Y-21699D01*
X49267Y-21799D01*
X49234Y-21963D01*
X49213Y-22067D01*
X49194Y-22163D01*
X49178Y-22247D01*
X49164Y-22318D01*
X49154Y-22371D01*
X49148Y-22406D01*
X49147Y-22418D01*
X49148Y-22419D01*
X49166Y-22421D01*
X49201Y-22422D01*
X49248Y-22423D01*
X49289Y-22423D01*
X49322Y-22422D01*
X49339Y-22420D01*
X49347Y-22416D01*
X49349Y-22409D01*
X49351Y-22399D01*
X49358Y-22368D01*
X49366Y-22323D01*
X49377Y-22269D01*
X49380Y-22253D01*
X49394Y-22189D01*
X49405Y-22149D01*
X49413Y-22130D01*
X49417Y-22126D01*
X49447Y-22092D01*
X49478Y-22057D01*
X49507Y-22027D01*
X49527Y-22006D01*
X49535Y-21998D01*
X49537Y-22004D01*
X49543Y-22030D01*
X49552Y-22074D01*
X49564Y-22131D01*
X49577Y-22197D01*
X49587Y-22243D01*
X49600Y-22305D01*
X49610Y-22357D01*
X49618Y-22393D01*
X49621Y-22409D01*
X49622Y-22410D01*
X49624Y-22416D01*
X49632Y-22420D01*
X49650Y-22422D01*
X49683Y-22423D01*
X49736Y-22423D01*
X49736Y-22423D01*
G37*
G54D17*
X42396Y-27516D02*
X42396Y-27116D01*
X42396Y-27116D02*
X42996Y-27116D01*
X42996Y-27116D02*
X42996Y-27516D01*
X42996Y-27916D02*
X42996Y-28316D01*
X42996Y-28316D02*
X42396Y-28316D01*
X42396Y-28316D02*
X42396Y-27916D01*
X43322Y-27516D02*
X43322Y-27116D01*
X43322Y-27116D02*
X43922Y-27116D01*
X43922Y-27116D02*
X43922Y-27516D01*
X43922Y-27916D02*
X43922Y-28316D01*
X43922Y-28316D02*
X43322Y-28316D01*
X43322Y-28316D02*
X43322Y-27916D01*
X42751Y-35488D02*
X42751Y-35088D01*
X42751Y-35088D02*
X43351Y-35088D01*
X43351Y-35088D02*
X43351Y-35488D01*
X43351Y-35888D02*
X43351Y-36288D01*
X43351Y-36288D02*
X42751Y-36288D01*
X42751Y-36288D02*
X42751Y-35888D01*
G54D18*
X39913Y-22649D02*
X40913Y-22649D01*
X40913Y-22649D02*
X40913Y-27649D01*
X40913Y-27649D02*
X39913Y-27649D01*
X39913Y-27649D02*
X39913Y-22649D01*
X39913Y-23649D02*
X40913Y-23649D01*
X39913Y-28539D02*
X40913Y-28539D01*
X40913Y-28539D02*
X40913Y-31539D01*
X40913Y-31539D02*
X39913Y-31539D01*
X39913Y-31539D02*
X39913Y-28539D01*
X40913Y-29539D02*
X39913Y-29539D01*
X43165Y-23492D02*
X43165Y-22492D01*
X43165Y-22492D02*
X46165Y-22492D01*
X46165Y-22492D02*
X46165Y-23492D01*
X46165Y-23492D02*
X43165Y-23492D01*
X44165Y-22492D02*
X44165Y-23492D01*
X51074Y-29039D02*
X52074Y-29039D01*
X52074Y-29039D02*
X52074Y-31039D01*
X52074Y-31039D02*
X51074Y-31039D01*
X51074Y-31039D02*
X51074Y-29039D01*
X51074Y-33763D02*
X52074Y-33763D01*
X52074Y-33763D02*
X52074Y-35763D01*
X52074Y-35763D02*
X51074Y-35763D01*
X51074Y-35763D02*
X51074Y-33763D01*
G54D21*
X44222Y-29835D02*
X43022Y-29835D01*
X43022Y-29835D02*
X43022Y-29535D01*
X43022Y-29535D02*
X44222Y-29535D01*
X44222Y-29535D02*
X44222Y-29835D01*
X45855Y-29835D02*
X44655Y-29835D01*
X44655Y-29835D02*
X44655Y-29535D01*
X44655Y-29535D02*
X45855Y-29535D01*
X45855Y-29535D02*
X45855Y-29835D01*
G54D17*
X41589Y-34012D02*
X41589Y-33612D01*
X41589Y-33612D02*
X42189Y-33612D01*
X42189Y-33612D02*
X42189Y-34012D01*
X42189Y-34412D02*
X42189Y-34812D01*
X42189Y-34812D02*
X41589Y-34812D01*
X41589Y-34812D02*
X41589Y-34412D01*
X40605Y-34012D02*
X40605Y-33612D01*
X40605Y-33612D02*
X41205Y-33612D01*
X41205Y-33612D02*
X41205Y-34012D01*
X41205Y-34412D02*
X41205Y-34812D01*
X41205Y-34812D02*
X40605Y-34812D01*
X40605Y-34812D02*
X40605Y-34412D01*
G54D22*
X42569Y-26038D02*
X42569Y-25338D01*
X42569Y-25338D02*
X43769Y-25338D01*
X43769Y-25338D02*
X43769Y-26038D01*
X43769Y-26038D02*
X42569Y-26038D01*
G54D14*
X43740Y-35708D02*
X44921Y-35708D01*
X44921Y-35708D02*
X44921Y-34448D01*
X44921Y-34448D02*
X43740Y-34448D01*
X43740Y-34448D02*
X43740Y-35708D01*
X44830Y-34639D02*
G75*
G03X44830Y-34639I-100J0D01*
G74*
G01*
X43173Y-33582D02*
G75*
G03X43173Y-33582I-112J0D01*
G74*
G01*
X44370Y-31614D02*
X45078Y-31614D01*
X44370Y-32874D02*
X45078Y-32874D01*
X45708Y-32125D02*
X45708Y-32362D01*
X43740Y-32125D02*
X43740Y-32362D01*
G54D13*
X44632Y-25014D02*
X44617Y-25029D01*
X44572Y-25044D01*
X44542Y-25044D01*
X44497Y-25029D01*
X44467Y-24999D01*
X44452Y-24969D01*
X44437Y-24909D01*
X44437Y-24864D01*
X44452Y-24804D01*
X44467Y-24774D01*
X44497Y-24744D01*
X44542Y-24729D01*
X44572Y-24729D01*
X44617Y-24744D01*
X44632Y-24759D01*
X44932Y-25044D02*
X44752Y-25044D01*
X44842Y-25044D02*
X44842Y-24729D01*
X44812Y-24774D01*
X44782Y-24804D01*
X44752Y-24819D01*
G54D11*
X51509Y-23721D02*
X51509Y-24002D01*
X51494Y-24058D01*
X51464Y-24096D01*
X51419Y-24115D01*
X51389Y-24115D01*
X51629Y-23721D02*
X51839Y-23721D01*
X51704Y-24115D01*
G54D13*
X44593Y-27032D02*
X44488Y-26882D01*
X44413Y-27032D02*
X44413Y-26717D01*
X44533Y-26717D01*
X44563Y-26732D01*
X44578Y-26747D01*
X44593Y-26777D01*
X44593Y-26822D01*
X44578Y-26852D01*
X44563Y-26867D01*
X44533Y-26882D01*
X44413Y-26882D01*
X44893Y-27032D02*
X44713Y-27032D01*
X44803Y-27032D02*
X44803Y-26717D01*
X44773Y-26762D01*
X44743Y-26792D01*
X44713Y-26807D01*
X45498Y-27032D02*
X45393Y-26882D01*
X45318Y-27032D02*
X45318Y-26717D01*
X45438Y-26717D01*
X45468Y-26732D01*
X45483Y-26747D01*
X45498Y-26777D01*
X45498Y-26822D01*
X45483Y-26852D01*
X45468Y-26867D01*
X45438Y-26882D01*
X45318Y-26882D01*
X45618Y-26747D02*
X45633Y-26732D01*
X45663Y-26717D01*
X45738Y-26717D01*
X45768Y-26732D01*
X45783Y-26747D01*
X45798Y-26777D01*
X45798Y-26807D01*
X45783Y-26852D01*
X45603Y-27032D01*
X45798Y-27032D01*
G54D11*
X48972Y-23957D02*
X49152Y-23957D01*
X49062Y-24351D02*
X49062Y-23957D01*
X49422Y-24351D02*
X49242Y-24351D01*
X49332Y-24351D02*
X49332Y-23957D01*
X49302Y-24013D01*
X49272Y-24051D01*
X49242Y-24070D01*
X48972Y-28682D02*
X49152Y-28682D01*
X49062Y-29075D02*
X49062Y-28682D01*
X49242Y-28719D02*
X49257Y-28700D01*
X49287Y-28682D01*
X49362Y-28682D01*
X49392Y-28700D01*
X49407Y-28719D01*
X49422Y-28757D01*
X49422Y-28794D01*
X49407Y-28850D01*
X49227Y-29075D01*
X49422Y-29075D01*
X48972Y-33406D02*
X49152Y-33406D01*
X49062Y-33800D02*
X49062Y-33406D01*
X49227Y-33406D02*
X49422Y-33406D01*
X49317Y-33556D01*
X49362Y-33556D01*
X49392Y-33575D01*
X49407Y-33593D01*
X49422Y-33631D01*
X49422Y-33725D01*
X49407Y-33762D01*
X49392Y-33781D01*
X49362Y-33800D01*
X49272Y-33800D01*
X49242Y-33781D01*
X49227Y-33762D01*
G54D13*
X42644Y-27021D02*
X42629Y-27036D01*
X42584Y-27051D01*
X42554Y-27051D01*
X42509Y-27036D01*
X42479Y-27006D01*
X42464Y-26976D01*
X42449Y-26916D01*
X42449Y-26871D01*
X42464Y-26811D01*
X42479Y-26781D01*
X42509Y-26751D01*
X42554Y-26736D01*
X42584Y-26736D01*
X42629Y-26751D01*
X42644Y-26766D01*
X42764Y-26766D02*
X42779Y-26751D01*
X42809Y-26736D01*
X42884Y-26736D01*
X42914Y-26751D01*
X42929Y-26766D01*
X42944Y-26796D01*
X42944Y-26826D01*
X42929Y-26871D01*
X42749Y-27051D01*
X42944Y-27051D01*
X43569Y-27021D02*
X43554Y-27036D01*
X43509Y-27051D01*
X43479Y-27051D01*
X43434Y-27036D01*
X43404Y-27006D01*
X43389Y-26976D01*
X43374Y-26916D01*
X43374Y-26871D01*
X43389Y-26811D01*
X43404Y-26781D01*
X43434Y-26751D01*
X43479Y-26736D01*
X43509Y-26736D01*
X43554Y-26751D01*
X43569Y-26766D01*
X43674Y-26736D02*
X43869Y-26736D01*
X43764Y-26856D01*
X43809Y-26856D01*
X43839Y-26871D01*
X43854Y-26886D01*
X43869Y-26916D01*
X43869Y-26991D01*
X43854Y-27021D01*
X43839Y-27036D01*
X43809Y-27051D01*
X43719Y-27051D01*
X43689Y-27036D01*
X43674Y-27021D01*
X42979Y-34974D02*
X42964Y-34989D01*
X42919Y-35004D01*
X42889Y-35004D01*
X42844Y-34989D01*
X42814Y-34959D01*
X42799Y-34929D01*
X42784Y-34869D01*
X42784Y-34824D01*
X42799Y-34764D01*
X42814Y-34734D01*
X42844Y-34704D01*
X42889Y-34689D01*
X42919Y-34689D01*
X42964Y-34704D01*
X42979Y-34719D01*
X43248Y-34794D02*
X43248Y-35004D01*
X43173Y-34674D02*
X43098Y-34899D01*
X43293Y-34899D01*
G54D11*
X40308Y-27796D02*
X40308Y-28077D01*
X40293Y-28133D01*
X40263Y-28171D01*
X40218Y-28189D01*
X40188Y-28189D01*
X40623Y-28189D02*
X40443Y-28189D01*
X40533Y-28189D02*
X40533Y-27796D01*
X40503Y-27852D01*
X40473Y-27889D01*
X40443Y-27908D01*
X40308Y-31693D02*
X40308Y-31975D01*
X40293Y-32031D01*
X40263Y-32068D01*
X40218Y-32087D01*
X40188Y-32087D01*
X40443Y-31731D02*
X40458Y-31712D01*
X40488Y-31693D01*
X40563Y-31693D01*
X40593Y-31712D01*
X40608Y-31731D01*
X40623Y-31768D01*
X40623Y-31806D01*
X40608Y-31862D01*
X40428Y-32087D01*
X40623Y-32087D01*
X42611Y-22815D02*
X42611Y-23097D01*
X42596Y-23153D01*
X42566Y-23190D01*
X42521Y-23209D01*
X42491Y-23209D01*
X42731Y-22815D02*
X42926Y-22815D01*
X42821Y-22965D01*
X42866Y-22965D01*
X42896Y-22984D01*
X42911Y-23003D01*
X42926Y-23040D01*
X42926Y-23134D01*
X42911Y-23172D01*
X42896Y-23190D01*
X42866Y-23209D01*
X42776Y-23209D01*
X42746Y-23190D01*
X42731Y-23172D01*
X52611Y-29331D02*
X52611Y-29612D01*
X52596Y-29669D01*
X52566Y-29706D01*
X52521Y-29725D01*
X52491Y-29725D01*
X52911Y-29331D02*
X52761Y-29331D01*
X52746Y-29519D01*
X52761Y-29500D01*
X52791Y-29481D01*
X52866Y-29481D01*
X52896Y-29500D01*
X52911Y-29519D01*
X52926Y-29556D01*
X52926Y-29650D01*
X52911Y-29687D01*
X52896Y-29706D01*
X52866Y-29725D01*
X52791Y-29725D01*
X52761Y-29706D01*
X52746Y-29687D01*
X52611Y-34036D02*
X52611Y-34317D01*
X52596Y-34373D01*
X52566Y-34411D01*
X52521Y-34430D01*
X52491Y-34430D01*
X52896Y-34036D02*
X52836Y-34036D01*
X52806Y-34055D01*
X52791Y-34073D01*
X52761Y-34130D01*
X52746Y-34205D01*
X52746Y-34355D01*
X52761Y-34392D01*
X52776Y-34411D01*
X52806Y-34430D01*
X52866Y-34430D01*
X52896Y-34411D01*
X52911Y-34392D01*
X52926Y-34355D01*
X52926Y-34261D01*
X52911Y-34223D01*
X52896Y-34205D01*
X52866Y-34186D01*
X52806Y-34186D01*
X52776Y-34205D01*
X52761Y-34223D01*
X52746Y-34261D01*
X51469Y-28504D02*
X51469Y-28786D01*
X51454Y-28842D01*
X51424Y-28879D01*
X51379Y-28898D01*
X51349Y-28898D01*
X51664Y-28673D02*
X51634Y-28654D01*
X51619Y-28636D01*
X51604Y-28598D01*
X51604Y-28579D01*
X51619Y-28542D01*
X51634Y-28523D01*
X51664Y-28504D01*
X51724Y-28504D01*
X51754Y-28523D01*
X51769Y-28542D01*
X51784Y-28579D01*
X51784Y-28598D01*
X51769Y-28636D01*
X51754Y-28654D01*
X51724Y-28673D01*
X51664Y-28673D01*
X51634Y-28692D01*
X51619Y-28711D01*
X51604Y-28748D01*
X51604Y-28823D01*
X51619Y-28861D01*
X51634Y-28879D01*
X51664Y-28898D01*
X51724Y-28898D01*
X51754Y-28879D01*
X51769Y-28861D01*
X51784Y-28823D01*
X51784Y-28748D01*
X51769Y-28711D01*
X51754Y-28692D01*
X51724Y-28673D01*
X51469Y-33229D02*
X51469Y-33510D01*
X51454Y-33566D01*
X51424Y-33604D01*
X51379Y-33622D01*
X51349Y-33622D01*
X51634Y-33622D02*
X51694Y-33622D01*
X51724Y-33604D01*
X51739Y-33585D01*
X51769Y-33529D01*
X51784Y-33454D01*
X51784Y-33304D01*
X51769Y-33266D01*
X51754Y-33248D01*
X51724Y-33229D01*
X51664Y-33229D01*
X51634Y-33248D01*
X51619Y-33266D01*
X51604Y-33304D01*
X51604Y-33398D01*
X51619Y-33435D01*
X51634Y-33454D01*
X51664Y-33473D01*
X51724Y-33473D01*
X51754Y-33454D01*
X51769Y-33435D01*
X51784Y-33398D01*
G54D23*
X43584Y-28955D02*
X43547Y-28937D01*
X43509Y-28899D01*
X43453Y-28843D01*
X43415Y-28824D01*
X43378Y-28824D01*
X43397Y-28918D02*
X43359Y-28899D01*
X43322Y-28862D01*
X43303Y-28787D01*
X43303Y-28655D01*
X43322Y-28580D01*
X43359Y-28543D01*
X43397Y-28524D01*
X43472Y-28524D01*
X43509Y-28543D01*
X43547Y-28580D01*
X43565Y-28655D01*
X43565Y-28787D01*
X43547Y-28862D01*
X43509Y-28899D01*
X43472Y-28918D01*
X43397Y-28918D01*
X43940Y-28918D02*
X43715Y-28918D01*
X43828Y-28918D02*
X43828Y-28524D01*
X43790Y-28580D01*
X43753Y-28618D01*
X43715Y-28637D01*
X45218Y-28936D02*
X45180Y-28917D01*
X45143Y-28879D01*
X45087Y-28823D01*
X45049Y-28804D01*
X45012Y-28804D01*
X45030Y-28898D02*
X44993Y-28879D01*
X44955Y-28842D01*
X44937Y-28767D01*
X44937Y-28636D01*
X44955Y-28561D01*
X44993Y-28523D01*
X45030Y-28504D01*
X45105Y-28504D01*
X45143Y-28523D01*
X45180Y-28561D01*
X45199Y-28636D01*
X45199Y-28767D01*
X45180Y-28842D01*
X45143Y-28879D01*
X45105Y-28898D01*
X45030Y-28898D01*
X45349Y-28542D02*
X45368Y-28523D01*
X45405Y-28504D01*
X45499Y-28504D01*
X45537Y-28523D01*
X45555Y-28542D01*
X45574Y-28579D01*
X45574Y-28617D01*
X45555Y-28673D01*
X45330Y-28898D01*
X45574Y-28898D01*
G54D13*
X41837Y-33528D02*
X41732Y-33378D01*
X41657Y-33528D02*
X41657Y-33213D01*
X41777Y-33213D01*
X41807Y-33228D01*
X41822Y-33243D01*
X41837Y-33273D01*
X41837Y-33318D01*
X41822Y-33348D01*
X41807Y-33363D01*
X41777Y-33378D01*
X41657Y-33378D01*
X41942Y-33213D02*
X42137Y-33213D01*
X42032Y-33333D01*
X42077Y-33333D01*
X42107Y-33348D01*
X42122Y-33363D01*
X42137Y-33393D01*
X42137Y-33468D01*
X42122Y-33498D01*
X42107Y-33513D01*
X42077Y-33528D01*
X41987Y-33528D01*
X41957Y-33513D01*
X41942Y-33498D01*
X40853Y-33528D02*
X40748Y-33378D01*
X40673Y-33528D02*
X40673Y-33213D01*
X40793Y-33213D01*
X40823Y-33228D01*
X40838Y-33243D01*
X40853Y-33273D01*
X40853Y-33318D01*
X40838Y-33348D01*
X40823Y-33363D01*
X40793Y-33378D01*
X40673Y-33378D01*
X41122Y-33318D02*
X41122Y-33528D01*
X41047Y-33198D02*
X40973Y-33423D01*
X41167Y-33423D01*
G54D22*
X42968Y-24610D02*
X42968Y-24865D01*
X42983Y-24895D01*
X42998Y-24910D01*
X43028Y-24925D01*
X43088Y-24925D01*
X43118Y-24910D01*
X43133Y-24895D01*
X43148Y-24865D01*
X43148Y-24610D01*
X43463Y-24925D02*
X43283Y-24925D01*
X43373Y-24925D02*
X43373Y-24610D01*
X43343Y-24655D01*
X43313Y-24685D01*
X43283Y-24700D01*
G54D14*
X45114Y-33977D02*
X45114Y-34296D01*
X45129Y-34333D01*
X45144Y-34352D01*
X45174Y-34371D01*
X45234Y-34371D01*
X45264Y-34352D01*
X45279Y-34333D01*
X45294Y-34296D01*
X45294Y-33977D01*
X45429Y-34014D02*
X45444Y-33996D01*
X45474Y-33977D01*
X45549Y-33977D01*
X45579Y-33996D01*
X45594Y-34014D01*
X45609Y-34052D01*
X45609Y-34089D01*
X45594Y-34146D01*
X45414Y-34371D01*
X45609Y-34371D01*
X45112Y-34851D02*
X45146Y-34866D01*
X45202Y-34866D01*
X45224Y-34851D01*
X45236Y-34836D01*
X45247Y-34806D01*
X45247Y-34776D01*
X45236Y-34746D01*
X45224Y-34731D01*
X45202Y-34716D01*
X45157Y-34701D01*
X45134Y-34686D01*
X45123Y-34671D01*
X45112Y-34641D01*
X45112Y-34611D01*
X45123Y-34581D01*
X45134Y-34566D01*
X45157Y-34551D01*
X45213Y-34551D01*
X45247Y-34566D01*
X45348Y-34866D02*
X45348Y-34656D01*
X45348Y-34551D02*
X45337Y-34566D01*
X45348Y-34581D01*
X45359Y-34566D01*
X45348Y-34551D01*
X45348Y-34581D01*
X45573Y-34551D02*
X45461Y-34551D01*
X45449Y-34701D01*
X45461Y-34686D01*
X45483Y-34671D01*
X45539Y-34671D01*
X45562Y-34686D01*
X45573Y-34701D01*
X45584Y-34731D01*
X45584Y-34806D01*
X45573Y-34836D01*
X45562Y-34851D01*
X45539Y-34866D01*
X45483Y-34866D01*
X45461Y-34851D01*
X45449Y-34836D01*
X45663Y-34551D02*
X45809Y-34551D01*
X45731Y-34671D01*
X45764Y-34671D01*
X45787Y-34686D01*
X45798Y-34701D01*
X45809Y-34731D01*
X45809Y-34806D01*
X45798Y-34836D01*
X45787Y-34851D01*
X45764Y-34866D01*
X45697Y-34866D01*
X45674Y-34851D01*
X45663Y-34836D01*
X46023Y-34551D02*
X45911Y-34551D01*
X45899Y-34701D01*
X45911Y-34686D01*
X45933Y-34671D01*
X45989Y-34671D01*
X46012Y-34686D01*
X46023Y-34701D01*
X46034Y-34731D01*
X46034Y-34806D01*
X46023Y-34836D01*
X46012Y-34851D01*
X45989Y-34866D01*
X45933Y-34866D01*
X45911Y-34851D01*
X45899Y-34836D01*
X46259Y-34866D02*
X46124Y-34866D01*
X46192Y-34866D02*
X46192Y-34551D01*
X46169Y-34596D01*
X46147Y-34626D01*
X46124Y-34641D01*
X46349Y-34776D02*
X46462Y-34776D01*
X46327Y-34866D02*
X46406Y-34551D01*
X46484Y-34866D01*
X45729Y-30611D02*
X45939Y-31004D01*
X45939Y-30611D02*
X45729Y-31004D01*
X46224Y-31004D02*
X46044Y-31004D01*
X46134Y-31004D02*
X46134Y-30611D01*
X46104Y-30667D01*
X46074Y-30704D01*
X46044Y-30723D01*
G54D11*
X52631Y-24548D02*
X52631Y-24829D01*
X52616Y-24885D01*
X52586Y-24923D01*
X52541Y-24941D01*
X52511Y-24941D01*
X52916Y-24679D02*
X52916Y-24941D01*
X52841Y-24529D02*
X52766Y-24810D01*
X52961Y-24810D01*
M02*
