M48
;DRILL file {kicad 0.201501172016+5377~20~ubuntu14.04.1-product} date Sun 18 Jan 2015 11:09:00 AM PST
;FORMAT={-:-/ absolute / inch / decimal}
FMAT,2
INCH,TZ
T1C0.012
T2C0.025
T3C0.032
T4C0.120
%
G90
G05
M72
T1
X4.3681Y-3.6476
X4.3839Y-3.6949
X4.4232Y-3.6476
X4.4291Y-3.7067
X4.4626Y-3.6614
X4.4783Y-3.7067
X4.5079Y-3.6614
X4.5118Y-3.6083
X4.5138Y-3.4567
X4.5138Y-3.5
X4.5138Y-3.5433
X4.5217Y-3.7067
X4.5236Y-3.4173
X4.5413Y-3.5807
X4.5512Y-3.6437
X4.5531Y-3.3878
X4.561Y-3.4567
X4.561Y-3.5
X4.561Y-3.5433
X4.5709Y-3.6949
X4.5846Y-3.3583
X4.5866Y-3.6063
X4.5886Y-3.4173
X4.6043Y-3.6654
X4.6102Y-2.5335
X4.6102Y-2.5827
X4.6102Y-2.6378
X4.6102Y-2.6909
X4.6102Y-2.748
X4.6102Y-2.8071
X4.6102Y-2.8661
X4.6102Y-2.9232
X4.6102Y-2.9764
X4.6102Y-3.0276
X4.6102Y-3.0768
X4.6102Y-3.1299
X4.6102Y-3.1811
X4.6102Y-3.2323
X4.6102Y-3.2795
X4.6102Y-3.3248
X4.6122Y-3.4783
X4.6122Y-3.5197
X4.6122Y-3.561
X4.6201Y-2.4862
X4.6201Y-3.3858
X4.6299Y-3.4409
X4.6358Y-3.6319
X4.6516Y-3.3543
X4.6555Y-2.4567
X4.6594Y-2.5571
X4.6594Y-2.6083
X4.6594Y-2.6634
X4.6594Y-2.7185
X4.6594Y-2.7776
X4.6594Y-2.8366
X4.6594Y-2.8957
X4.6594Y-2.9508
X4.6594Y-3.0039
X4.6594Y-3.0531
X4.6594Y-3.1024
X4.6594Y-3.1496
X4.6594Y-3.2028
X4.6594Y-3.2559
X4.6594Y-3.3051
X4.6614Y-3.4134
X4.6673Y-3.498
X4.6673Y-3.5413
X4.6673Y-3.5925
X4.6791Y-2.5138
X4.685Y-3.4606
X4.6909Y-3.3858
X4.7087Y-3.126
X4.7087Y-3.1772
X4.7087Y-3.2264
X4.7087Y-3.2815
X4.7087Y-3.3406
T2
X3.9921Y-3.5886
X4.1988Y-2.811
X4.2146Y-3.5886
X4.2402Y-3.2972
X4.3366Y-3.4154
X4.3976Y-3.0591
X4.4035Y-2.6181
X4.4508Y-2.9272
X4.4902Y-3.065
X4.5531Y-2.622
X4.561Y-3.065
T3
X4.0406Y-3.311
X4.0413Y-2.315
X4.0413Y-2.415
X4.0413Y-2.515
X4.0413Y-2.615
X4.0413Y-2.715
X4.0413Y-2.9039
X4.0413Y-3.0039
X4.0413Y-3.1039
X4.1406Y-3.311
X4.3665Y-2.2992
X4.4665Y-2.2992
X4.5665Y-2.2992
X4.7638Y-2.4776
X4.7638Y-2.5776
X4.7638Y-2.9539
X4.7638Y-3.0539
X4.7638Y-3.4264
X4.7638Y-3.5264
T4
X4.0945Y-2.126
X4.0945Y-3.7795
X4.8031Y-2.126
X4.8031Y-3.7795
T0
M30
