M48
;DRILL file {Pcbnew (2014-03-19 BZR 4756)-product} date Fri 30 May 2014 09:46:50 PM PDT
;FORMAT={-:-/ absolute / inch / decimal}
FMAT,2
INCH,TZ
T1C0.006
T2C0.025
T3C0.032
T4C0.120
%
G90
G05
M72
T1
X4.1732Y-3.5
X4.1732Y-3.5827
X4.2559Y-3.3543
X4.2559Y-3.3937
X4.5276Y-2.4764
X4.5276Y-2.5276
X4.5276Y-2.5787
X4.5276Y-2.9528
X4.5276Y-3.0039
X4.5276Y-3.0551
X4.5276Y-3.4252
X4.5276Y-3.4764
X4.5276Y-3.5276
X4.6457Y-2.5276
X4.6457Y-3.0039
X4.6457Y-3.4764
T2
X4.8819Y-2.3406
X4.8819Y-2.811
X4.8819Y-3.2854
T3
X4.0945Y-2.4209
X4.0945Y-2.5209
X4.0945Y-2.6209
X4.0945Y-2.7209
X4.7598Y-2.4776
X4.7598Y-2.5776
X4.7638Y-2.9539
X4.7638Y-3.0539
X4.7638Y-3.4264
X4.7638Y-3.5264
T4
X4.0945Y-2.126
X4.0945Y-3.7795
X4.9606Y-2.126
X4.9606Y-3.7795
T0
M30
